<mxfile host="65bd71144e">
    <diagram id="3sMIXBdQYLusSSxQPS_M" name="Page-1">
        <mxGraphModel dx="1709" dy="1198" grid="1" gridSize="10" guides="1" tooltips="1" connect="1" arrows="1" fold="1" page="1" pageScale="1" pageWidth="850" pageHeight="1100" math="0" shadow="0">
            <root>
                <mxCell id="0"/>
                <mxCell id="1" parent="0"/>
                <mxCell id="2" value="&lt;pre style=&quot;&quot;&gt;&lt;font style=&quot;font-size: 18px;&quot;&gt;Implementation for&lt;br&gt;Bottle Factory&lt;/font&gt;&lt;/pre&gt;" style="html=1;labelBackgroundColor=none;horizontal=1;verticalAlign=middle;labelBorderColor=none;whiteSpace=wrap;fillColor=#6a00ff;fontColor=#ffffff;strokeColor=#3700CC;" parent="1" vertex="1">
                    <mxGeometry x="1185" y="1004" width="220" height="60" as="geometry"/>
                </mxCell>
                <mxCell id="8" style="edgeStyle=none;html=1;entryX=0;entryY=0.5;entryDx=0;entryDy=0;" parent="1" source="3" target="6" edge="1">
                    <mxGeometry relative="1" as="geometry">
                        <Array as="points">
                            <mxPoint x="1010" y="943"/>
                        </Array>
                    </mxGeometry>
                </mxCell>
                <mxCell id="3" value="&lt;pre&gt;&lt;font style=&quot;font-size: 16px;&quot;&gt;Glass Unit&lt;/font&gt;&lt;/pre&gt;" style="html=1;labelBackgroundColor=none;horizontal=1;verticalAlign=middle;labelBorderColor=none;whiteSpace=wrap;fillColor=#a20025;fontColor=#ffffff;strokeColor=#6F0000;" parent="1" vertex="1">
                    <mxGeometry x="900" y="826" width="220" height="60" as="geometry"/>
                </mxCell>
                <mxCell id="9" style="edgeStyle=none;html=1;" parent="1" source="4" target="6" edge="1">
                    <mxGeometry relative="1" as="geometry"/>
                </mxCell>
                <mxCell id="4" value="&lt;pre&gt;&lt;span style=&quot;font-size: 16px;&quot;&gt;Metal Unit&lt;/span&gt;&lt;/pre&gt;" style="html=1;labelBackgroundColor=none;horizontal=1;verticalAlign=middle;labelBorderColor=none;whiteSpace=wrap;fillColor=#a20025;fontColor=#ffffff;strokeColor=#6F0000;" parent="1" vertex="1">
                    <mxGeometry x="1185" y="826" width="220" height="60" as="geometry"/>
                </mxCell>
                <mxCell id="7" style="edgeStyle=none;html=1;entryX=1;entryY=0.5;entryDx=0;entryDy=0;" parent="1" source="5" target="6" edge="1">
                    <mxGeometry relative="1" as="geometry">
                        <Array as="points">
                            <mxPoint x="1580" y="943"/>
                        </Array>
                    </mxGeometry>
                </mxCell>
                <mxCell id="5" value="&lt;pre&gt;&lt;span style=&quot;font-size: 16px;&quot;&gt;Plastic Unit&lt;/span&gt;&lt;/pre&gt;" style="html=1;labelBackgroundColor=none;horizontal=1;verticalAlign=middle;labelBorderColor=none;whiteSpace=wrap;fillColor=#a20025;fontColor=#ffffff;strokeColor=#6F0000;" parent="1" vertex="1">
                    <mxGeometry x="1470" y="826" width="220" height="60" as="geometry"/>
                </mxCell>
                <mxCell id="10" style="edgeStyle=none;html=1;" parent="1" source="6" target="2" edge="1">
                    <mxGeometry relative="1" as="geometry"/>
                </mxCell>
                <mxCell id="6" value="&lt;pre style=&quot;&quot;&gt;&lt;span style=&quot;font-size: 18px;&quot;&gt;Bottle Factory&lt;/span&gt;&lt;/pre&gt;" style="html=1;labelBackgroundColor=none;horizontal=1;verticalAlign=middle;labelBorderColor=none;whiteSpace=wrap;fillColor=#d80073;fontColor=#ffffff;strokeColor=#A50040;" parent="1" vertex="1">
                    <mxGeometry x="1185" y="913" width="220" height="60" as="geometry"/>
                </mxCell>
                <mxCell id="12" style="edgeStyle=none;html=1;fontSize=17;" parent="1" source="11" target="4" edge="1">
                    <mxGeometry relative="1" as="geometry"/>
                </mxCell>
                <mxCell id="13" style="edgeStyle=none;html=1;entryX=0.5;entryY=0;entryDx=0;entryDy=0;fontSize=17;" parent="1" source="11" target="5" edge="1">
                    <mxGeometry relative="1" as="geometry"/>
                </mxCell>
                <mxCell id="14" style="edgeStyle=none;html=1;entryX=0.5;entryY=0;entryDx=0;entryDy=0;fontSize=17;" parent="1" source="11" target="3" edge="1">
                    <mxGeometry relative="1" as="geometry"/>
                </mxCell>
                <mxCell id="11" value="&lt;pre style=&quot;font-size: 17px;&quot;&gt;&lt;span style=&quot;&quot;&gt;&lt;b&gt;Abstract&lt;/b&gt; Bottle&lt;/span&gt;&lt;/pre&gt;" style="html=1;labelBackgroundColor=none;horizontal=1;verticalAlign=middle;labelBorderColor=none;whiteSpace=wrap;fillColor=#60a917;fontColor=#ffffff;strokeColor=#2D7600;" parent="1" vertex="1">
                    <mxGeometry x="1185" y="740" width="220" height="60" as="geometry"/>
                </mxCell>
                <mxCell id="21" style="edgeStyle=none;html=1;exitX=0.75;exitY=1;exitDx=0;exitDy=0;entryX=0.902;entryY=0.01;entryDx=0;entryDy=0;entryPerimeter=0;" edge="1" parent="1" source="15" target="16">
                    <mxGeometry relative="1" as="geometry"/>
                </mxCell>
                <mxCell id="15" value="" style="shape=image;verticalLabelPosition=bottom;labelBackgroundColor=default;verticalAlign=top;aspect=fixed;imageAspect=0;image=data:image/png,iVBORw0KGgoAAAANSUhEUgAAAfkAAABTCAYAAACcRn7YAAAAAXNSR0IArs4c6QAAAARnQU1BAACxjwv8YQUAAAAJcEhZcwAADsMAAA7DAcdvqGQAAC3bSURBVHhe7Z0JXFVl/v8/xiI7yCJcQC4IyK5sgoKkUW7laJZSk02LpWVlNpU14zRp/RsrNSezZdIys9EMU9NxC4skEAUFVEB2kU0uclkuXNYL9v+ecw8KynKtrPD3fb9eB+6znHO+z3Oe83yX85x7h3h4R/4EhmEYhmFuOm6R/jMMwzAMc5Nx4zx58yVYNHU0rDqbUZK+EdtKzkgF3YnClKmPIMScPnaoUHRiM2IreqsHGMmWY1GkDBVHX0NsZaWUe6OJwQNzpkJOPVSfF4uPsr6V8n8OljA1cqR2lqCpo1nK+625UTK8gKXPT8dIKYWSg1i08x0p8cch/K+7sCDITEoRGjUqj23Dm598Dd17wwGyUb6w1JQit7hQyuuJpVs0ZAa1KM0/1fO4D3yCT6a5SAmg9NAUvL5NSjAMw9wA9KxtXVZIn39d2nORc04FI6dAeJkNQUZJGjRS0RWUqFEU42TeWVyyHYcAF0uUFSRDJZV2R998Esa6mKOxLAHZarWUe6MpRkFRMVrMguDjZIrK/ETUSSXXjdHDeHRGDEaqDiKz4dqe+E24YTJUIz/7DI6nK2Dm6QdZSyH25xyTyv44OI+/DyFmhdi97lPsP1oItYMvAoNDMKpjG5LypUoDMg2Pvb4Es330sDe+9zbOevFj/GWSHcoPHEaFlCdSoUD+mVQkX7BGoJ8dmgu/QEKmVMYwDHMDuIHhehWaWqvR2kkfm+vRpM28imbUN6WjvjURVUKFDg1atQXX0Fr5Gv799ZO/oRcv0IzWtnSoOwyAFhXqpdyfhaUt+dHNUKp+Ly+euGEyFELZEI+yhlp0/OFXeLRDmRWP3KxtiH0jCaUwhIEQSfotqE2l89K5a9ulDIZhmBtLv+F6G++1WCgvQWwaEDl2NMiZJWVXigNxr+G04AgaP42F0wKgzliNbeeLyN1+BA/dHQWcfAVbzgvKWBvutszeh1TTKESPsIQ+mRU12ZuxITdROIXEVNx5Vwz8FLuxOm2flEfYL8PSKHfoC59bKpGcuBIJDVcrKBPYjHgOs0a7w96YktSapqoU7Dy6ARXXo3D0ozDGMxohLjLYmBlAvyYFHx3ZQIo9HFOmLkRIbSJi1R64y0sGUxKo6fy3+PRkrNZ4GRKMkMD7EOlsC9Oh4tFIDg2yk57E3qansWhaMKyk7CtocDr+ScSZvoGl4TIxp75gN7YUyzEvOhg2V59DoE8ZiS4ZXEkGPUp3NKMiKxZbCqmfzfqX4UCtlOyPW6IROXE+7g1wgLFwQS6RsjyfhM/2rsS5S9oqwFzMf/wJjK3rLVxPZQuoTFCotG9DTSmOHFyBg0qFtpgwHrECz9wehhFWpHi7zM+yeDy/YyVa6ONA5QMhhus9SrH7o70oggNG3z0HU1xqEbfqccRKkXf3e9/Fgsm+sDWhRKcalWlfY83728ToUswbcVRfrNaTxlPY+PRLwNWPAy5TiriH6BxSCpGr8N4TgVD2Gq73wG3PvIrZIQ4wEa6jRo2iQ+9j3Y74nqF/hmEYHeg3XD/KIwaeZuZwdbiErNT/4mCxOTxHeWBEZxVOKisg93kI4bZ1SD+xExXCRG93J6bIzVGSux0FwqxrcQduc7eHnqk9rOuO45uUJNRb+sHHzQ51OQmoFs9CmM/AHd72qM79EJmN3cLIbU0oOf8jks/rwXGkN/xo1ksqz5YKtdh7v43Hg2xRc3Yndp0UwtDO8PUYBQs6X45al2mRjATX5Xjytih4GjWjICcXbXbOMKlKxpEqMlyGTEJ4oBuMDOwg78jGodR9yIM/xox0pLn7WxS3m8AvdBnudFIjI3Un/pf5HU7mJyOzohQlNcVoob4qLDqJZvMIuA7Jwa64z3GEyk/mJ6JAXYf29iYU5x9HjWkQfFzd4E86IoX6+vSlnufoV0YyRKLvWISJ1iqcTNqCfdlnUWfshyBXa9QVJaK6o38ZOrQd0Q8OGDvlbTzsr4eyYzvweVwCzrY4IzjAAzZVZ3CirutK0jmDQ+HU2lu4vh1lhUJIPxE5lfowdvTFpNAg1J/YhzKx/Ak88Zfp8OosRtyhrdhx9HskUt1EkrNGI1ghA5UPjBiulzvBJ3ICIiID4a6vQPoPe7E7KQ9tQoWgN/DyI4GwVCbhv2QIFFsK4fzx8DPOREKmAuXFFcg8oYD1aDICapOw5qNtSD6ahOTkVBTUKHCxpALZGcfQOXIC5DgrPRag8qPHcOpihfYcAi6TMT3Uoddwvezhd7EkyhrKlK/wxZcJKDf3xdiJ4yG/+BVStB3FMAyjM/2E68Nhb0n/9FU4Gv8akmvTUV+biZLLLtNU+LmYoKMkDSmSlrAyJ08dSlR1Pbi2tIPg/GvO78amzFhUtCaiqIaU+BA6rLaGiJW9I3mZShRVXaWUO9JRoc5BvaoawlP4elWJNr8L/XmY6meJ+rOfYVvBt6hqzUFFyWv4cO/L2KVQSpX6x9RpKR4KJSMh7QOsjnsFcaSvrMgbr1FJCwDNbWEr/K9LxJYTm1GkTkdetXBs8qSpHaDp3NLUQHzUIDyZ0GhIXpKjqjYeNUIkobOU0hYwExw88l7zqEwor28tQqtQ3pJC/SI9EhA865OvIa2ezpG3D3EpiVR/YBmN5H9CuFUz0hJeQYJwnaif0068gtUHVyJbEGogGQZkFiJHGaIlZw9Wp36GvIY9OJE6Hy+/9yQ+OHdWqjMQQkj/LFR0PqXiRxxMKUTDUAd42UvFhOCdazra0dzeiJYWIfxPW9OVxW0DleuE4HU/NAWP0/bsh6kwufUZvPXa8xBiKcG3kvKGAsfXv47ErL3Yv+Zr5DaSTvafRqYgoCoWwvy12rUl5GGLoXdhkxbYNVcmiekWsULXYwFhS+11ncm1BGKKvwMZdvF486PNSBdk+LcggxlcQmdKdRiGYXSnbyU/xAO25kDTuXikdTnXxh5wNqbJroHcDzMPyOlzRWXXinMZvBxIHaqroZAUh5MFWQmaIvx4OTRvAltBITbW01TahQnc7Wg/ZRHy+nApjVxC4GWgwtnzKVKOhJ0HnIY0o6i8Z35Hp25TKjADU0Nd0CmEyc+na7NsZLChKVtRKz37Fw0VFdJPXwmb25hQu34iY0Zc/5eD5JTdSK6zRFjEI3h29qdYevtyhJgKaqELudiX9Y19KaRwOFnTP8UZpHQZUS3fIq1sNyo6BpbRfTipKDr2aVJIV1BRP0gfRQaSoT/MYECXTak4KKW1aC5duYoDYSD7F5Yv+i/eXrAMyx6nbaYvLKQyLR/j4+3xyPvJBTPnLsP/W/wd3nviv5g/MlzH8uunOWcDtmYoYODmiyhKax8BtKOlXPgvkASlMJQsrRGgzbjBeMBKGDYu0/Deljh8Im4LEUDXzeAWQ20VhmGY66BvJS96sBqUX4yXMtwxZkwAbNqKkHaB/BZLW/K+m8k7k7xv4z9hjOCV1VdKK4plcB5GM1bNBRRJSl/f6inc6mqACvJSq7RZRDTkw8mYqCbPUsrpiQn8HEmJKXNx+uoHr31Lrxvm7rA3oDYqJENlSBSm+AgPXUmBN2iz5NZkgLRcwPmucxvNw1RfSzQVHsfpLi+4dR8Sjj+P1bufx0fxKagyccGUoBgYScUwl0EIiqgaJSV9NZJBVa88c+3CQx1k1Bee3Q7EQDL0ixoaMvRsnWZBiDdcP9G4d3I4bJTxWLn+DixaS9uXGZDEv0xL9Up88MXdePbdJ/HPL7YitcEBY+96FBN1LP+laMS1BYYwdhaTxATYip1Wi99mEbxkVNSewuer3sKabtu67UnaKgzDMNdBn2rSyNpR9GBrmn3gZL8QMVOX4U5ZM1IS3iVviip0aNBBU76DfRSsrGJwT4Q7aSnKH2pFSkmYGUfDhv61tjTDyGwqQgLexuLbfWBQvA87hUV6VzF0GJ3HKBjubo/Aq3ssvwtjW8jNfGBvHQN3YYGdQFMTedcmcPeIoX2FsnmYMm495nuOliroggHJT20wm4Ept86DQ6uSvHQTmJq5QJ8MFQdzUmtNLWg1ioKX53Ismh4N+/oU7DwjKV3rhbjTcx68rHxgZeSIrnV3HS3KKwpb0yKG8i3tZsBektOLlLpgwBgNpf1sZeIjgRo6j5WRcN6r6U9G6vYmMrTM5Ih0ojpCH45Yggemvo2JXf0k0KcMurAHR/PbYew9C8smv4Agi2iMoC1o1KMYIdXQUgiVEO5wCMK9TlTH7lFEyoK0RYSBuQNGWkXDy20Flkb7UasM4eC5GP5DHah0OsYGLZaO7QJjQ2tYCvK3t0vGwEDlumIIW/9oeNMWPGsVlkTSuWsVyKGS9B/PkunkgHGLX0WU/0zc9eIceFMflWYd6rborRBKIYIjC8SCaTPF43hPmtnD069uaCejygPR9z+gLQ+bg+DLhgNRohaPJxsjnIfkmLYQUWK5ArtTCqGxDsTcudFwF58T0ShxdoBJpe5RE4ZhmC76XF0vH/MfPOAp+W0dzagqScP3ObEoae2a7sIRMeFBTHQgb134wpuMz7CnbRoeG+cO0/Jv8WamFRbOIO9NqEpnaCUPP/3MViSQx3419u5v4L7RMnFVeEeTEqnHX0ZC9xfSLRbioahwOAmTeocK2cc/wF6FYCiYwMljGe711654FwyPGkUOUrI247Ral5C9O8aEPoc7XakNwmr07N3YVmyLe6ZNhfvQUuzdmQavWbPh1dUNjUrk5e7CgZKUy4vVnLzXIsbbEkZdmlnsq+PYc2qr9pm8iAxyv+cQM8pW63W3NaPo1IeILQ/GA/dGQ66tpKXxDDZ9u65bpGMgGV9DNnn3EyNjEGZvIq4T6GhVoaLoOL7Pj0XV5ZB9HzKUXXs9eicckROewLQgF9h2ufMddP6P5uNg1+McQgjLL50ZjhHCYgzyjDX5e/DsgfU98zvUyIo7BZNpEzCSzMyGjI/xcpILli6ajpFd/SjsW1+KhO9XYmdZIR34hf7LdeCaL8MhNKpCxH34OnbnaJVof6vruzAJ+RtefGQCXCy7QugKJL7xED7vetfeYyGWLJiGAFnXudqRu20G1hySkmRIRC1ahblh0gr6znYUHZiBN3doy7z/9DzmTfOFzFw6fqcCKe89hI0Z2iTDMIyu9KHkfTBx0ouIaIvHm8e2SnkMwzAMwwwm+gjXu4uh9qaGUinNMAzDMMxgo3clbyaHvQGgbEiTMhiGYRiGGWzwT80yDMMwzE3KL30JjWEYhmGYPyis5BmGYRjmJoWVPMMwDMPcpLCSZxiGYZiblEGi5MfDY9UhLNifRNshREZL2QzDMAzD9MngUPJ/XoBb/cxQk7QR2195Eyeu+p0ahmEYhmGuZRCF69uhzPkcjRkJaO/6OTiGYRiGYfpkcCj5vVkoazfEiNCHpQyGYRiGYQZicCj5pgRUKQET12BYSVkMwzAMw/TPIFDyo2B+9/1wtQXaqwr6+M15hmEYhmGu5g/+tbb3I/LLZ+BroMaFM3H44Z21aObn8QzDMAyjE4Pgu+tlMBz/Z0Q+ew88Gg7j8ydeQ7tUwjAMwzBM3wyCcH0l2o9lorGFPt5iqM1iGIZhGGZABsfCu6ApcLMHqjJ2sRfPMAzDMDoyOJR8qAxWUKOmgH/fnmEYhmF0ZXAo+TjhPXkz+C4+hHs27UDoBCmfYRiGYZg+0bO2dVkhff7jokpC4dFm1FpawUidg6Ifk9CkksoYhmEYhumVQbC6nmEYhmGYn8PgCNczDMMwDHPdsJJnGIZhmJsUVvIMwzAMc5PCSp5hGIZhblJYyTMMwzDMTQoreYb5XfCArUU4jKUUczMzHiNe3YF5e5OwYP8hREZL2d0wNo2GrYGUYAY1lm7RcLGWEroSvQ7376fxsTceM199BiZS9q8Bv0J3gxkz7lPc6Qx0NJzBrsPrUNRLb+s7L8fScS7i5yZFOvYc/wAlHWLyGuy912K+H5AS9zziG6XMG4y9z3o6Jw27lkrEx7+CFOF3BH4uei6wMjBAa1sRWn+vkafvDit9DdStpeijm284I8JisWyCNRpOrsfLP+6RcnvjBSx9fjpw+A6szpSyBiQcNnc+gWBfFwyTfu6hqSoDx3ctRU2dNn3D0Q+Cgc0wQBUPTauUpzNz4bPkCQSYSklCoyrFqbhlKC5QSDk6YBQOI0sDaGqS0Nnbhe5HRouZ32Cav5mUUiPzy7uRUywlrwsZXN/ZisneQE3KPiT8Lw2N+Qlo7/5rmhYrsHz+BDg0ZODdTUuRJ2XrhgMszH1heakUZU2FUt4fiefx6pZpwKEpeH2blPWr44HbnnkVs0McYKJHSY0apUc2Y80Xe9GsrSDhgOC/vIF5k1xAw4JQI/39e/ChwSq894QHij6+B+uOihWBBz7BJ9Oskdk9Txf8X8VbL02AreoUPlz8EtKlbBGTQLiPtIbmQjxKa6W8LkxDYDJKDpvJf0b0RBlQsA9fPvfWr/I17uzJ32BOn1yJTScr6Ub2gZ+NlHkVHVW7sWnfGmw6VkTjMBgTneki/4Goyl+Nj+JzUG8sg5+ju5T787ByexqLZjwKslN+N7zGLMWiSbNhL6V/DxRlBShrVKOoLEXK+bVwwPD7luP2QAdoig7i8Kcrsf9QBpqG+cHTM0iq8xsw4gHc/tgyjA2W0j+Dprwd2Evy7915ECW3uGDsrBXo4xbqneAnMPOxFzFqhJS+mn5kbPh+jfbcqddhVPTGXcsR6W2I+oS12PX6WtRkXKXgBdTZyKtUQ1lyFuekLN2Jwpz7lmHZtFlS+v8e7vNfxbwwazSf2YsPV21GHBljLpMXYsksB6mGFpNZr2LBZHKmig/h81VvYQ1tW1Olwl+Lc2dRRNdSRdcyV8q6TNADWPLS3/AI2TzX0JSG5oxdKFs1FzsOVcLQcwrG3SWV/UJYyd9oOopQ1aaBPtmU6r48Gs0ZVLXmoEqlgoaSHRoyCvqgKvd5vLnzt/PiRTpLUd+udd/VzWSI/ALsLS3pINVQ/G7xIx84mJMZr1KiQsr5PdBU/gMrN96NDcW/UIlcjWwxxrgboubkehzZ/Q7qquLRlL4UR96dj+OpGVKlwUGnphatJH9r3jtITysFDA1/u8cbTUnaczf/Ml/KccIomLTnI+ODfVJOL1zage1f3Y1/fv+ZeP8z18MczCAPHpVJWPfv95GetQ2xb2xAeq0h3CMeQXd3aUawBwwaT1H5WiRmxSM3KxW/+henNn+NjS/fgxfWbL4qiqA7zevjkNdiCI/oZ6ScXwaH6wckGNF3PA2viljEkdV8l5cMpvo0B5z/Fp+ejIVolDssw1/HyZD342IcEMIw1i/ir9EeyIt/UkyL4W5fJeIT6uE1djSchDBkSykOxL2G093uaiPXt/HXUCB538tI6GYQ2HisxcJAUo5ER0MRDvywEtlXzwZDghESeB8iXW1hKoSsOppRkRWLLYWJ2nKdsISV9WxE+I6G1zBLGA3VIC/xSeyqoiKn5fj7eEukJabByj8K7sNIUXaokBL/CuIbtMPZ1PZpzBoTACcrA+gPEbMAZQo2HNkAeFMb/LVt6EFLDrbtX4MOv/V4yMcE+EmDqlOf4avWaXgszAWmZIbWZG/GhtyudvQjIyHKEBwMuYU23VFH/fWjtr/8xn6KmXJtfg8Uifh30mYMFFUeERGLZeOAhE9isL1BypS/h7X3+qL0wIN4N5cU9i1zce/seZg4wgwGJLumthB7d63Adw1aZe512zd4LqgrDEyG/9VheNMnMH/GLIx1MqTJvx1536fCYPIEncP1RlNiMTO0HSfWP4ji3gxBt9WY9ucgCN1TeXw9imVPIFxuCL2OWmTufhY5QjjcaB685s2Fv70ZxOinqhDHY1egsloySPSXIeKlaDgLnzvayZDIQPref0iPAl5AxLLp2rKraMj6GIf27tAm7BYjOGY63Czp3JRsqkpB8tZ/oE68CNpw/cjyHfg+qQCwCoLvFDpm/UEc/OIdrSLUnwu3efMQ7NSLjN3aeDXlR+5AcrKOMgpEbELMJOvew/UD9RMmI3TTcgS1HsbGp16T8rphvxpvz+smZ8lBLNr5jpQgAjbho8nAiSRD+Ec4wJjGU0tFCjbt+AeyLgHT7/2u9/EshP0/0S3sH/7XXVjgUYqUcheE+2jHpSqfPOI33odgzse8EYcpw05h49MvQYw5XRXGFspvMyiFargLbDWlSC+0RrC/GTTkLb++fC0qu8L1GamwHB0GS6GjmhXI3Ps+1h2Q3GjrB/DUy3MQLNOeX+jHuA9fx+4coR/nYMkHCxFgTh+rkvBhhgseIW9cCMur0jbgnxs98Pf/RMPg2Fv420fx4v4CU/6+DzHUrt2PPYX9Yk4gHl69ClFth/D4K2vFnMtEDhSu18rgXp6KUscweAvTWKcaRfveIodLaoN4jMArz9JLu59H2wfaB7I9ac7YgGf//bWUuoLX+iTcOiwNOx5cgnopT8szuO3r++HRkIAd8/9xVVnvDI7vrv9dicJ4sgCtTN0g78jGodQdyO4IRJCHHPplB1HULkP4mDnw1C9EfGayaBlaOc3CeIc2nD39HSoumcDbcxbcDQww3OESslL/i/hyc7i5e2BERzlOKru8dhP4edNxhhTicF6K1niQaGmpR3H+D0irGgb3UaMg76yi/br7oeFkiCzCRGsVTiZtwb7ss6gz9kOQqzXqihJRrYsZZzAVd972PGZ42WFI9Vkk1xrB07YNZzKENpCOd5mDMXZ6sLSwhiJ3J3bntcFR7g6foXpIupANGD+NR6cEw/hCAval7sSPuck4mZ+PYuUZVLTWic9UzxR2wnGUHHoFu/Hpsf1UTnXOnUAV3TCaZjVy8vJxi+NouA/3gYfJBXx/9CAumvvBx80OdTkJqB5ARiPZcjx5qzeGlH2Lr5O/of4yg7OrD1w15UirVaGx5ixOKYbB19UO1WlrsDVdkJG2shNQX2qTOqJvGi56YkyoLxzpeD+UaWf8seMWI2xYMb47sB0lcMDEu1Zgplsnzhz4GJ9lNMHFNwSRvm4oTD+MGuEYleXIOJOMxHIbjKF2NJ/bguSL4qEI2n/6PzHVpQUZ+2n/1GJYj5kE/2GGaOhRr29M/ObBw7QEmT8eRq8tUitRkqvCLV5+sDO2wS31yTh2uBgGo8hoklkhN0ONEQ+/hNBhpPT3f4bUkwp0jgzF2CAPlKVIx7xFTWPgJAoyTqG8QQ9mnuEI8hqJorQj6EA1FPlnUHDBBs6j7FCTuhI/HEpEXkYiivLScEmjpgPMw5iF92MUinF833+QkaOBpV8UAtztUHD6GH4CyTYuFM4yP3gFR8HL1xP6ihSkJ26HSiVY0cIjiRWIdOlEwaGPkXy6CRZeIQgIcNPKKLaR5OvwhJcTkLdvDZITtTKUny/GpQ5dZJQYMQt+rsa4mLUdyh4zahBcBuonhMHt/jDYNeUg/WCSmNODFiWysk4iOV1BfegHWUsh9ucckwoJ+1mY4e4C65+y8eW+LTjR6IkQf2+40ryRUFGMilIa16ekfZVJWBn7XySmJ5KXegJl7QrQLTEgzuPvQ4jcCeZ18fjq00MotvZFoLcXHDu2ISmfDOPov8DdWIH0A4e1ka+AmZjpQf2R9hVSyrTlo0zysPGFPMjvDoTescfx3U93YbSnMTp270U2xmPibA/ILDuRufMLbE8ohN7IEASPD4D5id3IbAjEvBVLEWFbi5SvNlO5AlZ0z0yI8ECVeM5alBbmQWUdCB87M1gPrUby9q9RRmk/fxcYtXTC3c8BquzXkdDNCLYdOwchTu0o230Wjf6BkA0PQFCEL2w7FchX6MF2uBtsyRtS1tN4cpmM6aE0V0ptEunRTl+MuysEzg7GUP3wFTZ9WwprnwCM8nVB5979IDOUPJFq5J9NQ8pRBaxH03laybiP77qW1SguyMSJC9YI9LOD8se38PFXSUg+StuJNNSpu403Cf1xMfCyq0HezkPouQSKxlSMP6zbSnB2T/yAjokAh+sHwlxGviN1ev1xbDmxGUXCD+RcKLnSufpTaXKka1wYR5O8Fm1I+gLKxcU+IbARDnCLEgnxr5FiSkdVFVm+QtGQ7stpo+FuD7QqciE5pVdoSSFFmYOqhhZ0UlLV0NOlM5L/CeFWzUhLeAUJdPz61kSknXgFqw+SByvsMBBDojBlYgzGDMlB7L7F2ETWZashCd1Ck6HYBhM4WGi97NwTr+FARSLq609DIXSCYJkLmFrClHysTmFm+ameZMgR5Siq14b3OzSUNhDqkON8cZ9UTlub1shpbUpEVWs1WgV59StxNGkd8tSJSD/zLeJSj6NiQBmjER3oAv3yb7HlVKy2v6rWYdOB57GhUFj+0ozWNjqfoSnJoEJ5tXR+YdPoGLRrO4gsEtfW43ZoH/M+iqCRhmjJTUSCmJ6HMA9K5+zBhvw9KKtYiXePkzdi4YlIKW6oaUtCWUM8yhp7U8GzEESe2eX9qz/D9mMFV93kv5CODGiqasUFPaYmNeRRrUdTyTs4V0Y5ZsNgaj4LchqH5ckvIi9rD1pL1iMnPhtNpp5w6vIaxWOU0lhsRFPx9ziVRW20IU9OLCykMpp8qH3Cpexsps9CmjZNk+Th+oVDbqJG5r4nUZ5HZXkrcZyUpIGTH4Zra4gIXnXsyjtoexBHss3hP+89jAsT1hXMw0g3Q9pvD06nk4y0fzLtD5JR7knFonx0XCnU3t7YTQbxxtVBxoHQpZ8G4lIGFMJYaKhFR5+GuBpZyf/Aiep4cob34FQj3Y2m2pUJLU3d9u1o1I4rcWxR+8UaukJKfK0Qwt6L/etSyfs2hIHgOeuKmgwd6msNydqsUEDVeu0jDtXpbdh4aC9yUzdj4/6zdDc6wF34NVHnmQige6P0+5ekcvLwv6Fycw+EhAl7KlCZHw+l0CBzQ6j+9xL2p+5FbCpdQ5jBVjvo+mEmHnnpb3jxpTnwFtokm0CfhTRtj83UVtGVylNYt32bKOOHwloNA0NxPhNpPoUi8RFAbS99X4hSoaxW2y8aGm+5Yt14FFX2Pt46+py338cPcyZgo45evAAr+YGwsoMVDcnsnK2XvWsbG0cY/aRElWCA2cnhROXnFWe0hZgKd4duz3yH0ORnRkZA7u4roXljOxqeVylrC3c4G2hQovhWyrgWuYc3bDRFOH2h59Me9+F0lzQW4nSP8Kyqn4HSEyv3GQixFB4nrEGRKCNNwsL7PLWVkuGiNVQ6ShIRJ4XmMcQRZkZAvUoybZQfYNuJUnQ4RiNm+hv4+91C+H3qlZtAwMKK+lIFZZ/rCTzgYEUK/3wasqVJr7VhN9LIM8dAMpr5QE4nqyiL7WnddvZU4PYWNCv8pNJeu+smAwdP0+RiS0pbiLHKg+Bt3I7c3K3aYgEhRN9+5eCai5VooKttM+BkJGAGA2pS9/1RpYBS+qgL7cIEayqDjS6TNE3OXX1Vs/NOxK5bigZbwQiiuXfSfxGz7DvtNjdIex2l2cIg9D+Y9rf/YPZjyzBT2MJ6LnAaEEszGFFbA/4sHV/YbtUeo8tm7IkCrac+Q2G1IVx8tO+fCaK0d/e4qyrp/jSDuZ2UvtHo0E/Uq2j7NSy07i75DXm4Sgq6a0oRlfWvT7PqSihdtKwEhH6Sm4khbpdpW/DJljjt9rg27C3cCz1RQ9m1rOTQc1j00D1Y91UtzShk+BgFavMlDMXnJ+00Jtbi9Yem4PGHNiBTmHeEMLqYpu3qsP01tJPc0keBS5SWPjZ3XmvI/JrY2l15pPdLuTwcmd5xsiDtpqkkj1TKMIjBVG9LURGdphvO3kqYvUnhdyku+xB4GZPyq5deZxkmgz3dNuU1khEwxAchgQGwacrB0W7K2mq4I00QSpT0GZKNgpeTCTrKz1xWgF3o9z4z6oxcMIdripAn3d2mTtPgR0richv03eFAY65KeVybhiXkftHw0lcivbBrdTgpzpKV2HTwMbz5zWYcKNHAyW82JnZ7X1RUsFSvpi8FayETvcGKi9caOgPKOERf+38AHCxp+lDXX5fi7I4mPxvnNNbw84/GWG8PGNeS4u8K8QnQhGxgeOUGNSADzIImpxqdTqiGhtrXfX/YO0gesm60liloYnOAV/RcKec6Kasjo4S6+sxn2tXll7c1yBfb+QQCoz2AvK3YuUrwsmn7UUfvt4vqGpKxHaVH3rnqHB+TF6kbgt4zNOjeTzK6f9RorJbSN5oB+0ngMJTCOgWZKxy1GQzh7uVASrwWlcKUmKFV0qq0zeJq9yvbWsTqsk60uVB0Gmy9pnVbZDcNAc40NmoVPV9h6wu654SogEm3G01mJLx7qoYqS5v+bblfG6Egw1V4xPdLYSXfLzI4DyOloFKh3oiUrOdyLJoxFfLmdMSma1fLtokmsC3k9sGwt16IhwIt0URKzMiIlLa+CYws7MhrUaFJ4wMn+4WImfIiptiqkHz0Q5RcY5Vbwml4MKysYjDRKVzK64m+uRxORnQsp9lwkha31TeRDGZyRDpFwcooGO4jluCBqW9j4vUsRTamNpA37CRfjscCTERFbDDUTmwDSDnb0G2gbrOiNs7DnVFv4wEvmuePbkCKqHRHY4zPEkTIpsKeZLO6rG+p3VfsmB59pZWz6zU2S5gK+9nQ+Wif+lb6PPTKLXuZ/mRsUaJJMLpcF8Kd6lhZzcDEoLVYFDJb2llLq6BF6dq4W1Ed4Zo6T4WVVKYTl9bjaH47bEfNx+SRhlAWJuGKjt+K1MJ2GPvMwsJRszDCaRmeG0ceakMBjoraS3inORojLGgzHyruYWCsTTsMFTzZPcgooWZ27W/3KO4f73l9K8pzPkN6WTss/B7F5PtWwEYeDSP7WbC5dQVkQpeaTqC0NcTX528xp8/RMDASEhIdm1BY3A6b0XMRGOQnndscplbmPd41N7aWw8ImGsPGvYdJQdZopUly+LhHadxLFUi7CZEve59/STJQXfl0bVlBPPLqyCuPeBReXnLJe5fB2Kz9spMnoGdgLe4nyD985t8RSF56XfVZKtmKcySjkdcsjAmeRf+XISKU+q+pACXiA1KJOrXo3TuHvYBh0nEsnLq9RtifjF2o1GLbnIMXw1QoD6Y2Cvk69tP5jHx0GvvD78Frx7PB0AnasWBhrV2oqm8ujY0gXOPE9olWycEhCPe70ZgR9nei/9rCX0x1A3ms5h6ImjUT3mHP4MXxwvIxQ9j6PwJvwd3WEQOTaHj7P4C7Fn2CJZMcoClOxT5BgTZvxnG6ZyxD5iAmyhfaQIwZXOzNUClMF8K75WRQa78oyBDG9NnbjYzMy3yN+KxaMQz/1KJHEEzniHllIYKt21GUtEE3ozH1lHgu9zs+RMwkOv6kV/FUJI2nykIkSlUGwoTO7y3I5m+tvXZkgIrpUd0W45VoDRrZmDcwJUyoG42o8b28T3f3JLha0Ng5+bmU0Z37EfllEhZ8uFxKDwwvvOuXSIwJ8CPvT4Ygulie5hoUZ+3GzozYy4vZWhuMYO04Gn6jwhA0whzFKf/BD22jEeQ1Gj6dxaizjITPMLp5PSIwxsEamspExCatRXar5JJKdD/OWLkcJp11KKrM7hZ6LoVC7Q8vDz+Ee9OxbK3RdPE7lFAFVbWaLuRoBHiPRbhXGLxsjdB4/gROXMwWFd9AVDWMgK+nH8aMioCfiRJxiW8j86dIhPsEwqujGIVDwzDewRy2LhHURmcYNGTiUOJqJNVLYQf9iZg4lto/ktpNxxhLfeU2pA7HUz5FQsOVb19pbdAja5nO4zOO6pCclkaoqUhApcmTWDR9NiIchRizERxH0jFMNUgqz9buSAwk48mLcSis84e3RwB52LS/3APWP1UiI5eUcOsVN7qm3hIuI+g4Qh1PktOsE8XFKeLNpysX2sNxe6gbbAwUSP5mFXIuayY1SmjCMqLrGBYahUkBbjBTF+Kbr9/EiTYhfDEd8x76KynuKER52UFQ85Yu9Dk4CsEG1fjufCpKyo1h7+iHkNAIRAV4oy0tDWp3mlh1XHgnhLbVZwqhMPeGjPrCN4gMmeBwyGnstSnOoCX4n7hrWhBsBS1v7iIubDNv24Kyy5YKKcbcSlRb+sHNJxS+Y6X97S6hNP0ImXppqG6LwAi/QPhSG11lnSg4cQ5mriPh5DYapl3Hai9AzU+hsKdrppUhCu6yS8inY1wixVSbpULjiFB4+9I56DhewUFwGtqCvLPCauWrFt7R+V1t9dBwbh8S921FxyVBxnY0u9L9QuU+vm4wJo8uefubqGnuFiZS1qJ2mB/kHkHwFs8RDmfTajrHKW15vzJKVNeiwTEcHp6jxXJXl+FoqdiFWlL+/feTxJlO6N0xAT7Bd+CW5nxcyL+idjxvfQ9L77qdrr8fZMJgsHARx0KUpx3yhIWa4sI7Y1zI3I4M8VmhH4KCQ2Fbl0ZjRTB2BBQ4V+WMkW5eCAmmMSPs7ytHW/Yu5OgQURYX3slaUCQukhPQLpRD4RfiQrbzJYZwCwqBX0gYIkKcoMoshZGTHaxd3GBe8RXUnn+BO13PvfGg/VxovH6FcqfuxwzBxJlecHabgIjIQPjYdKL0x0/x5rubpWiamsaPAp1OvhgdGIKxtwr1wuBH46r4cAIuhj2P15bMwejhwoA1gzySyt31ui1qAy6ePIVGpzAEjh2PiCgyCizaURr/Kf4dm3blOkC7eM6+tfuCuC4ycarSCX6BAQgePxERQS7Qu3gKuzcux2lhnWdv+4oL83C534IXvIvFc6JJdl/YCteS7q0IQdYgO5R3LVpsKITKLITGqy9CxgvtnIBAl05kUzu7Zkm9if/Cn54Mw7CGNMSv2NHLepwZGD1/FPQKDyLziG5hBn6Frj+MFmLhjHCoUxZjW1k3l5RhGEZXbB9G6JsPI8iRFFVnLTJWzcTJXhbbM/+HmbAa97w0HjZ6NESUWTj85pMou+bbdIig1Zj7xng0/28u9v9Ht4dbHK7vD0tbWKIZShUreIZhfibKz3FyQTQ2PbcWh7450i1qwjASZWk4883n2PXcfGx6uA8FL2BrCEOoUV+k6+oVVvL9YjPMFvpQoaZrUR3DMMzPpLNgF8o2rUVV17u2DNNFyXYUbtqImoJ8KaMPHM2h33IBVYeltA5wuJ5hGIZhblLYk2cYhmGYmxRW8gzDMAxzk8JKnmEYhmFuUljJMwzDMMxNyh9cyf8N0/YnYQFt8z9fB3vxi6EZhmEYhtGFP/g33hWh9HQOcs/bwi0qEC7Dy3D26DmpjGEYhmGY/viDe/KVaM8+jMbDlRBeVdcz1OWntRiGYRiGERgcz+Rny2EPNcqSd0kZDMMwDMMMxKBQ8o5+rtBrv4CKbj9JzDAMwzBM/wwKJd+oVAOGrvB76uEev/nLMAzDMEzfDJKvtQ2B1VMLED3JHzam5/HjXQ8iTyphGIZhGKZ3BoWSt3ppL+ZOBM6sfxMnDx3D5Z/vZhiGYRimTwZFuF7PyJD+NqA+kRU8wzAMw+jKoFDyNUl5aIQrXGbLpByGYRiGYQZicLxCl1IrvidvM3KiNs0wDMMwzID8wZX8w4j8eC/u+WwyHNGOmoIEKZ9hGIZhmIH4gyv5GpQWXUBdVgIOr3oSh7+slPIZhmEYhhmIQfIKHcMwDMMw18vgeCbPMAzDMMx1w0qeYRiGYW5SWMkzDMMwzE0KK3mGYRiGuUlhJc8wDMMwNyms5BmGYRjmJoWVPMMwDMPcpLCSZxiGYZibFFbyDMMwDHOTwkqeYRiGYW5SWMkzDMMwzE0J8P8B05ipPpQI7/UAAAAASUVORK5CYII=;" vertex="1" parent="1">
                    <mxGeometry x="1132" y="58" width="505" height="83" as="geometry"/>
                </mxCell>
                <mxCell id="26" style="edgeStyle=none;html=1;entryX=1;entryY=0.5;entryDx=0;entryDy=0;strokeWidth=2;" edge="1" parent="1" source="16" target="19">
                    <mxGeometry relative="1" as="geometry"/>
                </mxCell>
                <mxCell id="16" value="" style="shape=image;verticalLabelPosition=bottom;labelBackgroundColor=default;verticalAlign=top;aspect=fixed;imageAspect=0;image=data:image/png,iVBORw0KGgoAAAANSUhEUgAAAo0AAACLCAYAAAAEa6N5AAAAAXNSR0IArs4c6QAAAARnQU1BAACxjwv8YQUAAAAJcEhZcwAADsMAAA7DAcdvqGQAAFGVSURBVHhe7d0JXFVl/j/wj8FFuIAgi5dFLyBXdhBEwI10yK10tCzNtMmy1BYnmxannMaWacwxx8my1bK0NJfU5K+FqCSJGiqgIsoqu4Bcdrjs+v+eBbyicuGXGjN+369u3vM8Z33OOc/5nuc559JL4zXyMhhjjDHGGOvEXfK/jDHGGGOM3RAHjYwxxhhjzCAOGhljjDHGmEEcNDLGGGOMMYM4aGR3FKXjKLg7OshDjDHGGOsqA29PhyFi7Hz6fyLW7f8IJXJqlxmpYa1QoKExCw097h3tcIyf8DiCLelrSxWyjn+NrYWnpaybwX8dPhmnlgeA8/vG4r1keaBHCcX4hfMxIUgNK4WUotOexc9rl2PnuVlYumEi2rciLwpPvb5KHrhdXhTXAVHj8fYmOWnkCnywIBBa/bQumY/XvnwI7oo8RD/2FLbKqRIHOHr4wKo5D6nZmXLabTTrC3wx8crxgtZaaM/FYO2KNciSk7rCyi0Cjopy5KWfhE5O03fjfKmcf999zRhjrCe7pS2N1m7P4ZnJT8BXHu5ZEnAs7iN8svtrxFdawT1wPFzknJsi9TMs+2IZlkWeRbWc1PM4IPwvr2JGqAOa06KwfsVyfLzpGKqUGvhTEAlE4mtKW7nie6TWSFP8dztJAWEtdAWZOCenXDEKMxa9ipefnCIP/x6KcUgs7zXYeqwWVn5TMG9BhJzXNROepG1YNAv+8nBHN87/X9vXjDHGbjYDQWM8YvY/iXf/L62MRGVlBdSWorhH/hKkDpV1iahsOISSOhpsaUaDlHFzNMcjvzoG+TWNckIPFLQQ9wdZQJf0NV5dsQqHzsQgMep1/P3pyXibgkcgE3mUlnqmHM3SFP/ljmHnO9Pw/JLl6JGNvmhCvVjekYj+JFIM3pRKGznvVvtf29eMMcZutut0TwdgdMQijBCuVZRTeX43NiTthBBXXTEDMx6cAONjX6PQZQZGOCiBVh1SjixDZEkRbL1WYb4fBYwd1Z/Dpj0rkSsOWEHl8gKmBqhh25sGafqsY+9ja2EWnH0/xGPeNM/LzSg5+RW2NEzEk6FqmFOIW5byNT5PPQQ4voHXRgLR0UXwDQ+DsxnNo+YcdhxYibQWcQES43AMHhSBYLUjbC0UMC6LxycHP0elnA1MwH2TZsC3eCfeS9gtp3WRYiqmTHoCY10toBDC75Za5Cf/hM9//gxaaQyKnN/Dv2YHQXu97um7lmDJCxEYIHxvaYK2MAlRUX/D4fbC1iAodAmmBTvAzsxETgPyDzyPZafOit/NBryJhfeEYoC1ibQOgvwYvLhtGerlwRvxemYzXh7ehENLHsP6Ajnxuh7Coo/mw7/iel2Wcp7Qzd/aBF1FHuI3vo2NCcVSNrG6Zylevj8Udha0jkZyYkEMXqXgTSinzvMNd0+H/WUH5mlouQVqhHlbiKNUpUfi43faunY7dL3WnMTa5xbTLZFkxjvRGK/XM9yuw3iGjUPA2jcQ1jcd++bMRc7VJ03nxO5pExxa8TUtzwLq8IfwQKgJkr96AR//IpelZiFefnYivOykY0FXREHwv17Hz+VyGdANwLWkrvhcA/lXuuo729cO8Jq+FPMmaqRHGVprUZTwPVau2YQqaQTGGGP/w4xs7NRvyt9lJagqrcCJ1MPIN/JDkMYNxvk/IatJzhZYjMHdgxxhad0fyNqJLck16OemwSBFM+IKUtBclYfTma1w8nCBUcZOfHl0D06kH8GJ88dRQhcaivjgG/IOZnqaouj0TvyQeBxNdiHwd7JCRlY8KnS1OJeWjrucAuDezxsa5QUcOPwTLlr6wtvNHhXnYnGp/1QE97OEg4UREk6sRWy5G/zd3GBREQlaHaKEresbePoP4RhkqkPGuVQ02veHsuQIDpboPSVmORljvVQoTf2YputOG0sYHnz4NUxQ1eJ0zGZ8dfAkLvYehGAvKpPsHTjX9sCYxXiMC3CE7vwGHLkop7XpVYuMMydwJPEkMsqM4OgRhtHuA3E6+aDUpT1wGZaMd8Pl7Fhs/PE7/HT8EA4lHkI8BQu6S8IIC7DgT/fCszUb0VEbse3wATH/EJV1WTNFEga4h89CsGMt0tZHIkV8pi8U/R3dYNfPDVZG9aioFfaVwAfDJgVD1ZCJyJijclqbJhTlJeP44ThkXDSCpasPQsID0Rq5Bxli/ny8+DoFbM3Z+GXnJmz/KQZHaNwjvx5FXqWwjobyh2P0Axog8xvEtgXd6nG4d6gDdHJa/+EPI9jFGZYVMdjyZRSybXwQ6OUJp5ZNiEsXJihFdoa0jq0DR8HFpBiJP+5DoTgzik+zC5F8vBg2AT6wK4/Dyk82Setw5Bjtl+JutLy5QzVlDPqbleH8D7tQ2Z3DyX8Kpmic4TJyFEaMDIWvQy3O/rwP+w/EQSvOZyLmvf44Aq1KcWj9Guw5bwGPoGAE+9sjkfZJXm4hUpKOStuHs9i5+kvsEbbh8FGcvFiIIgP5V9rDO9nX97yDpTM8cSkrisr5e5xq0mBI+GgEmCXTfrhyk8AYY+x/03W7pytrD6GyIRHaOrpaXdaipC12aGNlB2v6pyFzI7bm0ri1RahsoeF6qb2hpfkcKhVWMKfvxRd307xoWPg0Fon5sJ6Ne1yAtCN/xdbsvShpVsBUaG1sqBcvXg11h1DSUIqGVhowLsLhuNVIo3VKPL0X0cd+FS/2/a2taN10OHXiLSRUnkNJdSVa6PJeKTevmTu/gseG2qEs4SO8F/06oktpsbSMsqqrX3axVjnRtmiRVXK91wY60WcKAh1p++LfxecpG5FfvRH79z2Plz55FNvbmxkNuJSE4uo81KMGxfkHsPkUXXhVavjJ2TCW/mlqbkRLYx20Qnc3faQgQiK0Lja3NEHXVIP6eik/v+7/8iKH/EzfYumzaOYoOd0QoVvzLKropqI0Kw67f86ETuEAzUg5W9bc3ITmhlroLghdoPTp8LKJoXzDKBBcJXSxR2LP6mMoggkUQuunqK3rNQb11wnkqrKFPLlbtrlWWr7wucHLJDe2D6fnjcLah7rZythOaPUbj6eEzyvfo9LvIbz8rxV0e0JCI+BlB2gPr8L6gzFI3LUYe87VQqEORIRSaHWM09u+JmjbtuHMMbEV0FB+V4wP1UBZcxJb35EeZTi0/nXEF1AM79m95y4ZY4z9d7pu0CiJQJjGCi25p3GqQwe2szVdvS4X4VSOHICZuqC/WYeArI81BWNV0F7noXpbByeYtzTDQv0KZoxahVemzIbv5SxEHtHvNtbAgSLThpwEpMjLb6jeiYT8vTROOFRC1Fp8GvFykGhtYw9TWl6Z2EQ3GROGqtGasRMbchLFfNg6wpZCgOJyOXAVKeFuL1yJs67u0u4KMxMKS2qRX5gkJwiK0Sy2AHaNnden+NcLn+IfTy3BEuEzqsNPwaSvxEcUhLW43ov5T/0Tq17Yj1UPv4eRQjQu+gyfbY5B2mU1pkxfgn/8eT8+WPAt5g4UwwyDqhqE5mMLWIlR6vdY/ZwQsHwut9R2jfLud7D88w34x+tywDndh0pV3+f4+IsYCofUGD/3VSx9PxpffLoBi+4L7WL+jTVfFZhR0NkW4enou/z1v1Z5JNbTvm+20mCYEIArxP+gazgpZgsSxLs5C9gFScO3mrW5CWAZiHkbaB+Jnw34Q3/KaHukgDHG2P+0GweNffyhMW9GVv5OOaGNEg59KCwoy7sSaFnZwapDQKbqQ8GYEMR1bKUkxr3o8ndZB602E1lZe7Fh94t4L3oZUvSv9H0cIcyh8OJeaVhfLzXsLGgVShLbX16RXrq5gAJhnSzdoVI0o6BYnrZXOMZ7Cw+taVFy1avMEXDpB9SVntMLVruovonCFAsMGNC1AO1aC/DoOA2QshF/fX8snlk1Fs8f6NjFl4m0pKfx1meU/+Hf8P6ueFT1C8LDf1gg59NqlC7DR9/cj+fffxp//2YjjlU7IGTSExgt53cm9XQe7TUb+I97SE7prgjMvj8UVtoYrH5BbiH74trWuaqjy/Hui9Mo/1m8vWYTEmsc4P/g45jUxXyB0kqvNcvShAKoWui62qL7v4DODeH0UJoGSsMkWCU8o1gLrf59yy1UVEknc0Meov8jvGWt9/kyUh6DMcbY/7JOWhoFClhbh8PaNByDHcPltGDYUnzWUnOhPdCy7WsHYyFA1GuhahSbfezgohpC0w+B+4AHoJKyUFJRhBaFFeyMtSioyIOxzcOYMmYJgsXuWCuYm3rD2tYe5jTPygb63ttRnK6dpR3NuRnamrYfThkC574UiFZp259Ta193i8kYf/dsODRQhHFZCXMLdVuvb7vefb3hLKyj2+Pw7Jh5I9WROEkxssOI1/BK6BPw7BOBAX2mIkQzHX3kUUSVdWIQNcDnTQTROJ5uC+AndMXLzGxc4G4RgSDfD7Ak2Ab1FIgO9H0CA4RmJesnMMVjNs2X5m1mDqXSFkojKvvGtkj8XoQE/Vmc74A+apiZ2MBKeCGoqalrP/NzeBPispugDHocyxe/ivFCF6ifA5TCsq+SiUphIxwDMWcMjRNKAd3dV4IXhaUD1JoIDJm4FEvv96GSN4Fd0EKEiz+iPRHj/0Tf/YR5q8W3ga1MKbm5SQ4uDeXHIIvK2W7o45g3cQoteyFenkTL0OXh9GFxBMNsQmnewvwjYCZuG62fOEwBrziCIBNaoVhpG8XlCPljptzwp2uuT3gRJg7zvl8H1/bW4O4wgZm8nl5jXpXKsrkYeUJQeCwGqXQI2418UdwHQ6auwCRvCzTnnUSMVFCi0uomOj80iJg5S5pP6EMYIrQGygzld7avDx04C62pGn/40xQE95dfqrFTw775d/hdS8YYY7fddV6EkTVqUds7AIM9hyHMMxBOZo0oyE1AjXEERga4oC5rI04JLQ9koNsMeBplIzYzvv0t64ZqIyjtfDHYexhCPELhSZFAWWEsioSWwNoLKLnsiQDKC/MagcHOKhhVXkBGaTzKlE/jmXsfwAgn4YE0UzgNHIEQc+kFmzamjtNwt1MjTiftR6HYHRxOwZMGd+XvwwkthY1NWjQrgxHkGYIQVxdcPr8dm85UwcEtgNIGouxcLErFOaWjvIUCioFeCPES1pHC1NL9yO3Sb+8U4tzZKlzqS9sYEIbwoeEIHxKGIJUR0pP2of2dl9ZUlPWibfTywbDgcAwbNAjK8o04rk1AZvUIhA4OxAiaNtixFQnx59HPfSAGaALgXL0BSVbPY8GEMRhD04UPoXFcLVBTcBRb9n6IYmG7FVMx+8HJGCsumz4+g9C3Pg8/R69ETLXhF2GE7vSUY8Vo7ecGjV8ggocLL2F4wqalFkWpsYg9nd0+XkajJwJ9PeEbSuOE+kNjUY89v2xBaj2lBwYiZOQohPjYQHsgATovN/R39oSHXSl+ytZg9rxJGB0uzJs+tJ8sG/NwZMcq/JBN66ia0nk+LTs5xwxu3j4YMkJYtiesKP+XdW8jskg6/sQXYRzrkbVTeKFH0OHlmQfewvI5k8T5uwiHVW97eIsvnGjQq32aYmRVOMNX2MaQ4fK6qNGcshOnysQRuuBmvQgjLNsNVhQwJm5Zjm/ShXLIRGKWFTwC/BE8cjSVNQXkF49h+8p/IlnvNfmcEgu4eWjgNSRUmg/tK8uSTTgix3WG8m+8r49RVgyOF1MZ0f4ObCujAE+YVtP0afLkjDHG/mcZ+IswjDHGGGOMGeyeZowxxhhjjINGxhhjjDHWBRw0MsYYY4wxgzhoZIwxxhhjBnHQyBhjjDHGDOKgkTHGGGOMGcRBI2OMMcYYM6jHB43KR9dhZmQc5u2Jw8ylM+VUxhhjjDF2O/XwoHEhRj7oAUvtUUS+/hYi18XK6Ywxxhhj7Hb6r+iebipJR0nSPugKiuQUxhhjjDF2O/XwoHE7ss8DJu7BcJJTGGOMMcbY7dfDg8Yi5OUUAeauGDBKTmKMMcYYY7ddjw4ajYbOQ4CfLdB0ASVJciJjjDHGGLvtemm8Rl6Wv/cotkujMC3MBDW5yTjx0XJkpvDzjIwxxhhjv5ceGzSK+k+G63MLMS6gBvHPTsfpXDmdMcYYY4zdVj37mcaC3SiraJIHGGOMMcbY76WHvwgzDp5eNhQ8nkEqtzIyxhhjjP1uenjQGAyVCtAVp4HbGxljjDHGfj89PGjch7SMJiiHLsTMdZGYtHianM4YY4wxxm4nIxs79Zvy9x6oCOWHzqCw0Rq9rWpw4fAvKD3Pb1EzxhhjjN1uPfvtacYYY4wx1iP08O5pxhhjjDHWE3DQyBhjjDHGDOKgkTHGGGOMGcRBI2OMMcYYM4iDRsYYY4wxZhAHjYzdZmbmEbBTyAPsf9hwDFi6DbMj4zBvTxRGRsjJehS9R8Ght4M8xP6bKR1Hwd2xu/tyJkZ+JxwfcZj92WoM8JKTGeuh+Cd3bhGV94eY66sE6osQE/M64uvlDH1GMzBrygS4GNF3Gi/+6EeIKb/+71CaOr6BZ0Y6ovDwW9hadKf+VmUYIsbOp/8nYt3+j1Aip14tDOMnzEewJVCXsxdfntiKOjmnR+jzJt6YS4FCdRLeX/cK0uTka03H3KcWwDPrM/z1521ymiEOMB/1JoYN1cCWDj1Bc1UeEn5YgrzCYinhlnOAka0PFC15aKjKlNO6ajq8Fy2Av7k8SIT1Pxm9BNkZ3Vh/4yAobPsCVTFobpDTrtLJOo5Yhxlj1PIAUHBwLI4ckQe6xRGu/96IcRQElMXvRuz/S0BNeiyarjoYF+C556bDT5GH7e/PxX45tavEm4+7KlBck4RmOa3neAiLPpoP98zP8fx/vpfTbjYHeE1finkTNbASbsJaa1F0Ogpf/+dzZEkjtFMGv4qXHx8FtZWJOFyVsAYvrdZg6YaJQNR4vL1JTAZGrsAHCwKh1U/rkvl47cuH4E77Mvqxp7BVThUpA+E+0AbNF2KQVy6ntXOEia8fLAeNx7BHh8PJKAc/v/AoMvnP5rIeilsab5GS9PfwScw5VJo5wtfJXU7toDUBP+5biU+i9iLtkiPCfCbAVM5i/1fJ+OXgSkRmNcPc1RsaObXHqE1BWlEttLlncV5OullMx36AiXdrYFoWhwMblyFyewyKFGp4BoXLY9wO4fB4dAmm3D9VHu6+urRtiPxSWP+fkHuXGiFT34StnNclA2bhnieXIGSIPHyNTtYx8TNp2bvP/rabjUlvYKSXCSpjV2HH26tQltQxYBScxJnsWlTnZ3Zy83BjYyYuwZKHZ2GgPHynUU58Fc/+UQNFQQzWr1iDrcdqYRf0EOY9Q4GgPuV8LHo2AmpQQLduOVauWI7V30TKmTfLSaTSvtQVZOKcnNIuaBYWLX4Vj3dYLUkRmlL2oeyHV7Dn9ViUmLgibN4cOY+xnoeDxlulNQ+VTVLzYq2u431vmyxU1lJgWZuJSqGpoEWH6zaMkIait/Cf75++g1sZBfGI2f8k3r1hK6OAyrCRyrSJCrS5+Ybl+bu5tA2bt9yPvx/46ua2Dhn/Gf5DbHApexv2fPMmynJj0JC2DL+ueRT7dne1pbJnaG0uR0OJsP7/RmJCHmBiAjM575ZriJeWXdOIVjnp/8JplAeUTelI+mi3nHI98Yj98X78dfsy5MsprKscMHmUD5S6s9j5xnIcOhOJ6E8WIzoTsBs8EX+QxxJNCYW7ohbJm5/F1oMxSD1zvRa/3+oYdr4zDc8vWU63rf9HqX/DidNNUPqOhqucxFhPw93TnbD1WoX5LrnYmgCMDAmAs9BtVp+HH6Pfwinhiu+wBH8Z5oi0X/6MH4VKyOZl/CVCg7SYp6Vh5zfw2nArJBxKgLVfONz7KigwrEJ8zOuIqdbRCDLjx/HY/eEwPbkSn2fq3aeqluCVcHcYC9/ri3Dk0DLE6k8nUsJ2wAuYGuAOlXBlpb1ZVxKP7Yc/R2GX9qwS1o7PYlqgN1TC9rXqUJi8FRsyD4m5zr4f4jEvLSK3v4UUMaWt612LH7+nchBTrKByEdZBDdveNEjzyDr2PrYWZknTeytpvZpRcvIrbGmYiCdD1TCn25WylK+xx2hGp/mfp1ZhdMQijLCh+dL2VJ7fjQ1JO6/fCmQcjsGDIhCsdoSthQLGJYfwn7iv5cDxxutokMen+GCyBud3j8X76XJa7zfxxnOjYHzs3/h73E90+zUdDz4wG6MHWEBB695cnonIHW9if7Xcrap6D/+aHYQ+0hCQ+xOe2f5veYDcNRX3TnkC97rS9DSoTYxBtkdE17unh3yKByaqcX7XfTjVtqP0ub2HiY9Iyy/69UNkOy5AmIsJjFrKkbzzeZwTu3816Hvfmxjh5wBzOuham2qR/csHSDwWI85C6D72X7QA3sJxcqkJ1RV5OLv7zfau7/5z9mOEs/j1anVJiFr9CqqF76az4Tl7OvxUFhCeymiuysSvW99EUakwD6l7emDBNhyIywCsg+Az/l70r/wJP33zbznIdkCfiGUYMVSNPtes40sYsYTGF8e7WvWZzxAVua1r6yiQy6v6ut3ThsppHIauewNBDfuw9tm35DR9L+GVF++90kIoPKrwhf6jClI+kuKg8BiFAUJ51xUjNvJlbC4qhucffsALQRbSqFfJQ+SquaCj0aCwv+zAPE0e4gvUCPOW5lWVHomP31kjdu2K+UHlV7paO3bbzvoCX9xjgqJyBziqmpCXkAmrYB9YNeQh+m2apkDuni44iSKXQLgLj0u01iIv5mus/CaSbu0EGvxh4VI8EOwApXgw1CIrag1Wb4uhfGl6f0tKL4nDx0lqPD5OLY5XlfA5/r4amEf5XiXf45m3PxfnJnCcuwH/GGOC+BUzsfaMflrTtd3GeNFg97ShcmqbR/sDDTUnsfa5xXQ7IOiQp0eXdINu+3nfYt79djj97kTEx8lpjPUg3NLYif7WVhSIaDAp2BqZ8R/J3c1qjNCEUa4jwtzdYdqYixT5rtXaxh6mqEKZfOVxtraj/yvg5ReA2tSN+GR/PAVyVgjznCyN0EblAmeqJnNKOnRslEVhU9RKaTpjR4zw6TAdUXm9g/kUZDWkb8W63Sux4UQeYD8EYSph2YaZOr6CJ0ZqgJydNP1H+DGf1jtwBsYLlTWpa6TqvZcSFmLkKrGzoCtATSWkUMERviH/wtwhdqg8I6zD14ivUMLdbzJUlFuWI6RtxalaBa3ro5g9sBJ7932N2JJm2PpGwN5Avi9O49Sxr/EJrduOLB2s3SMwUl63Kyhwdn0Hf5n6OMYPUKDgbCJym4CGmiI5YOx8HQ1KP4QzFKUO9FggJwB9/DUUvpQj5bRwiXbA6PuewNgBwJkfP8SyLTHI763BgzNegqc0OlC6Cf/5YhmWfbENSTVymp4BI2ZjykATFB/5CsvWfYVYCx/4dad5zdSEjrRyVNyonzN/Ew58uQ1ptB19XO6FY81PiNr4E7KbbOB/91wxgDMa8ybGBdqg+vRG7PnyQxxKb4LL2Ofh7SbNgqIYpG5eJnbf7os+hiK6HA575ErXcdEPQp60DBTFSd28wufbTXIwFgT17CcwuG8tzkR+iMiNu5Daokb4rJeuBNPE3HM6pjy5BFMevBf9yuNx/JddV1plh7yJe4ap0Zq1i9bxKxwvNYGmfR134bhe13LRMXn59DlwQLoJMryOhhkuJ1v0FvZda6M0eI1d+Eo8FpZhf6GcdB0DPegmIFo4nuKQb0zHWMTToEMM54+svDJtzVl8K89r2Ref4aA4ZRdZ+sDLKE7s2t15rhZWHhMx449yXlcoKGjc9Bh+LjCBo1Um/r7pLJpN1fAaJecThYZCpoMUKK74GtEUZanHzcez90h5jnOWYnaoDaqObcLHwjqcaYL6jwsxb6SQG4etq5dTWi2d3hpM0JRj7ydrEJ3ZRMHpFDzQXw0rqgeaa65uMixqoBMfJlBS1W3lFkF1bwSG2AnBngnM6Lsw7OUXSreQ3dBpOUXi6xVSl/ehazqB5LxtZ8UguegXaTyxe3zzDSLCnDJxXGPp0UvGehwOGm8oDCqhZjGuwuGYt3CkPBGV5cnIbXuhxXgCPB0pKMqMRtszyyormqD2AgpahCElHPpILWipx9/Cj4WHUFl5CsVCFCNcofV4OtCM6nOR1jGYaElEodB9XVUKqjrp3w5PRxvPxgRfK1Se/QqbMvaipOEcCnPfwseRf8WOYq08UmfCcHeAGsY5e7Hu3G6aPhGn0jJRSetuJ1/FK+uEKkwJq/YAZgJc+tGqabOkLmLr2bjHBUg78ldszaZ1aFbAVGjJa6iHcMlsqDtE8y1Fg9DXZ1yEw3GrkVZ7CImn9yL62K/IMZAvXBcrabiS1k1bR6HDZS1KhMLQY+78Ch4baoeyhI/wXvTriC6l1aJ1KCmXAgVD62jYRhw/3wSFWxBGi8NBGDfIASg8iR/FSGM2QjUmqD+3C5+n70J+4TK8/yuF1H0GYSTtWtGlJBRXUzBZXY6Wa1qAKRAeaCNEOVhzbCONsxH7o5JQ1OE4+U1aktBcUg7hkmquLEMyBW11uf/G+XxKsegLcyGgE7fpAA5FfYW6kl24GLkNmXUW6O/b9uxfJs2DAgM6vusLf0Ha0UzUmTignxwstVbFoEFeBi7VSN28wqcsScyH5VS4UJRecORlpJ3ZhYbcD3EuJgV15oPgTPunjdAquHXZWPo8ioMplvCb/QGGhQaJeY6+GigaziJxO61/yUbkbYxDASwwMGA65Qrrd6VruVUnL58+zXXSLY7BdTSoK+VkSCa04rEQA51YV1xfdeZP2JwtHE9vIjKVDnozczoTKVBqpCCybdrLje3zyq+Ox/Xet7uxYiSuWiV27e5ZLdwE0I3HNTdknamFNqkYzZeE4K0YupomKbjXv6rkxuDdzZuQemYTtq6SluHoN4UyAjHej8oxj/I/+RqJwjr853uk1lhAPVTIL0ZRegy0wgwtTVD1/xZjz7FIbD1G+5j2t53e8XIjE558FS8vfhUP+AlBowPC6bsw/PLi+VSLdUdn5ZSJvDNSl3d9+51NGzmvXDza0EzHozCe8Mkqko7Ha9CB+1sei2DsVuOg8UZ6aWBHFUPd+RgktFUGZhr0p+CpqjoZsJdbB4tPy5kT4O6goEytGOgAwbClGLIl9xCi27qUeznBwrRj8BcOF3sFWopT24PPjkzVwfBUVOFsjtTp0c5eA+deOmQVXJ3e0lolfzPA2BsOtI2FJXvlBNJLaBttRkPbxay28qog0tw1AoPNdEjJkp7VsnVwgnkLVePqVzBj1Cq8MmU2fC9nIfLI5zRdGw0crClGy0lAihwwNVTvREL+XnkcQ/mCCIRprKg8T+PUVUHXZEwYqkZrxk5syEkUU0xVatjSvtFWSeXetXXsXFJCErQKDYI8aKD3VPhRMJhPF/X21imhS7rpSjTbfLGI8ixg26UGX1sohZaFppor87uUh7IOwXGnGoQLtg36tjdtdqK2vP1Zz7Lt92Gr2C2rgakQkTjfixlL9ssfqSva6C652WPQPzHmxW/x4IIlUkvgZB8KNrvBzlwcv/+Yb68sY3qQNI/r1kTFaDj5FTJLTaD2ln6vxkgYr7XxSstjSwZq6ui4tL5eJ+Ct0IVyQhkauxe9XR8FY22EwOzmo2NGrpqgkwO+m+yqlkB5GQqxnDSwFspRPREfbIjGF+JH6o6W8vUJwan8NeoFPPPYNKw+nIcquslWmF7dTa80Ek8k6KgK3Pr6eDz12HisTRJOJOGtZmn4qWu6qa/VLLREt7v15dTO3RbditsZu804aLwRSzvYUfVQcLHtOSV3DB7sD9vGLCRc0EEldj1rUdLWOqiiwI4CyspK+Sc8jN3hQPVZifZXaRhWcPGNgKexFomZekGeqTdcabzC9uV0pISvE0Uo2lSc6ngh+q17z8zqmou+rcoF5pcp8C2TE2qKIISgVpZDqIaegan+dmigQDhGjraMe1GgfJkCNG0msrL2YsPuF/Fe9DKk6NesfRypLIVt1AtO9RnKF/Txh8a8GVn5O+UEmaU7VAraT8XytL3CcbeX0LxH+0aOwLq0joaUxyGNrn9CF7XYNd2cicNJeq1TdFFXmFy5gCn6OaIPXezKutLgS0EGXYsAE8sr3bR3UeB79fWwcxl5tMUmGBi6RHwmsvsOoU4or4okRLV12cofqWs3ApqxYehbEYPIVUIrIH22JXXvDeP8CjEoLjv91VXzj/xyJdK7+CZIqxA8GfW+so3Gg2BJB3FdZZ6ccKsZKifBPmgr6B9HVzhJCYwoJ6rF87zovPAsXxzd1NE/5SexXu6yNdh1e5U4FFEZK1wC9V56ccAENwe6gSpGrvw8Y1corfR+QNNSeMyjFrounbc3n62jfF250eWAsd8ZB403YGrjRAFVFcp03nBWzceMCUtwn6MO8bHvI+0y0CjeetrBRTUEKpv5eCzQCnV0Q2tqStMZ0y10HzvYUtBZ22hN+bNxX/i/MMsTSDv8OeKvE6xY2UZAZSq8yDHj+s/ZmdGyLLxpXjPg3tZVXFdHF20l3DUz4EzBp7Cc8cM+xNxBAfIIBtRSQEjb4uL5LDxp3s7OSzAjQOju3ov49m6zImiF7bIMx7R7JsCl/jS2ntja3lJVUlGEFoUV7CgYLqjIg7HNw5gyZgmCxWcgKSil9bK2tRfLsrKBvvdu668VGMrvSAFr63BYC+XkqP8zMnK6xWSMv3s2XBvpanRZCXMLtfgSUefr2FU/IfJMMRRu4Vjo6YDm3BQcaW/92YhjmU0w856K+R5TMYDK8YVhdPGqzsBh+Tkn4UecB/SJoI8NBbGUYGwpDVsG0drH4PB5ikgdQ7EwdDalz8bY+8IwoDv9VDXLcOp0LRSOERj/xHvo7xkBU1UE+g75J9S+tC7mo2jYhsJKcpelmKe46vedipF3KhPNfYMQPv4e9LGWUo3sHWEkd+0KFBYO6EPTmvu9iWERvjCiOfb1/jP6mNMyRJnieQD7IHj6TRWXY+pJ/wpZLeuQmd0E24DpCAzyld+ItoS5tSVa9bppjRQ20nSqqeg35TUE2lOMVnpWzCtKoXU09cGQB/8Mc9VsqGePQn+6yJ8/rfeyEEVsQjCr8v4nbF3kcnC5V8oTdbKObbTCuSXM4030FbeXbhbEJqCulVNOUjpazfzg++h1jmcF7VvxWIiAUjgGe/WGnTgc1q23xIurhUcLBmGsr3DM0PT20zFQeOziJsgrFwrIAf5PzYKX3yzMmeIjdo1buSxEmPBSWlfRvvTym4Lxc97H0uk0j6qTiNklZBRjZzyVo00gpk+PgLsQKxFlfwcoha5b4bcN/dp+BF9+HtFN/we0irH7OE2v9MHk119EuLCMZ1ZgPI2iTYpCtDxW54RuYqrFhz6OeROnwCt0IV6e5AOFLg+nD8ujGGITKj8nGQEzeV3tOj43mVsu3ng7Dn4H40OlccOHX+f3d8znwdfPAq2piXSEMtYzGdnYqd+UvzM9zi4Pwd+WLuyaERjsLPww66+IPPohTorP+Andp6awcQqAr0coggZYIjv+U/zcGIAgzwB4t2Yjs3cohjtYwk49gvL7Q1GdjKhD7yGu8qI4fbuWC6hVBMNfE4hgz0C49e6FkqJDKGm/iDajqNoBA139EewtzIuuoNpMpNXSbXbDSRQ0BcHPIxAhXtJyetem4/j5WJQ0deVpvRScr/CD50APBHnQdjoaoeRMJLamxeh1wTTDziECg/qrYFGViK2/fIh8/a6y2gsoueyJAO9hCKN1GOysglHlBWSUxqNM+TSeufcBjHASrramcBo4AiHmzYgrkF/v7WMgX1+jFrW9AzDYk5ZD5eRk1oiC3ATUNGnpwhFM5R6CEFcXXD6/HRtOl8PBTdgXA1F2Lhalna2jXrBiSGOZFwaH+lOg14TTPy/CceFKIKpFLgWNpnQ8hA4Nxxh/N1jUZuKH79/F8Ubh4gsMuvsDvDLpHoQP8YWjcGHvo6bv4QgfZI+0xH04X9CES/1onf3DMCYoCP1yjiLVyg12FQnYnyMFTIY0ph9EzuUA2vZB0AweA2+av6vaGoq6UlR6PodJE4NgJ0SNlmp4Up5l4wbk67fwFZ1ATg0t0zsAPvL0Hu6OqMvZgfKabJRXecLGOwj+YroNSo8koMHdDQMcvNDPohSZacJ6FqPqYn8oNZ4YNHiEOA9PHxdUn92Byvpa1KUWodTKF27eQ+ETQnlDwuBifwl5iQfpSPOF/bCh6O/oK66fkOdqZ4Tq87txaPdGtAjHHa3jBcVQuPiFwX9oEBxN63H+5w+QnJItboKoKQNll4dCNcgXPkHCfMLh7ngJ6bQM6dDtbB3FEWgeqag0GwEXjQ88g4XtHUSB+UYUXaC8TstJmhynW2E0dhTljcVdunRcSNd7S8L3H/jX9Mni/h8oNC33tkcAfQ8fMgiNR3dRwDACI4cPgrL4yr63c5uJYTbl+JWOlbZOgOISC6icBsFvMB0ztI7hgwNgVbgRx7vwzEX/4Q8j2LEeWTsj5V9FGI7RD1DElfkNYpPpiD5VD8vgUPgHBGPEMB+YpJxF7QAH2Nl7wh40DqZgCo0uTI+IP0Fdn4CfCp1x71AH6MR5aBA8PhRqFx+MGBkK3wFmqEqKxGfvLZd+eYI0pyUgq8UNHgH+CBk2msYbhRAfB/TK24lE9Yt4a9FDCOgnHLAWcKG8Ee5GiIw5Kk1MxOmNqV4MCUXY3bQMJ+DiqUis+3ALhIbeNtdua5tiJOeY0bFINyEjaP6hnrBqzMMv695GZJF03hoqJzzwFpbPmSSuu4tQjdG+9BbWdaQGvdqmqc5ElUUwvH18EDxcyBuFQHUrUvbFXllPu2kIWvEkAuzqcWb9cyjUO5wZ60n4J3euyxujx7yMEY0xePfoRjmNMca6wW4Ohr47B0FOFPi0liNpxRSc4J9RYVeZhqHrXkSQ0L1Ex0ja+nfxy/YrgTFjPQ0Hjdc1GdOmPoD+mV/jg5RDchpjjHWf0aBpcAp3RdOBVSjhPw/HrhIM1ZxxMMmKxYW4o/zmNOvxOGi8Hovn8MzEIaiK/zM25be9NscYY4wxdufioJExxhhjjBnEb08zxhhjjDGDOGhkjDHGGGMGcdDIGGOMMcYM4qCRMcYYY4wZxEFjFygfXYeZkXGYtycOM5fOlFMZY4wxxu4cHDQatBAjH/SApfYoIl9/C5HrYuV0xhhjjLE7BweNXdRUko6SpH3QFej9OTDGGGOMsTsEB40GbUf2ecDEPRhOcgpjjDHG2J2Gg0aDipCXUwSYu2LAKDmJMcYYY+wOw0GjAUZD5yHAzxZouoCSJDmRMcYYY+wOw39GsBO2S6MwLcwENbnJOPHRcmSm8POMjDHGGLszcdBoSP/JcH1uIcYF1CD+2ek4nSunM8YYY4zdQbh72pCC3SiraJIHGGOMMcbuTBw0GjQOnl42FDyeQSq3MjLGGGPsDsVBo0HBUKkAXXEauL2RMcYYY3cqDhoN2oe0jCYohy7EzHWRmLR4mpzOGGOMMXbnMLKxU78pf2fXVYTyQ2dQ2GiN3lY1uHD4F5Se57eoGWOMMXZn4benGWOMMcaYQdw9zRhjjDHGDOKgkTHGGGOMGcRBI2OMMcYYM4iDRsYYY4wxZhAHjYzdaeZ9i3kfvioPMMYYY13DQSO7s5iPgsLcQR74fRhZRUBhKg/cCl4LMfKzKMzdE4d5362GrZx8x3EygrmT/J2x38J8JoaujcE84Zza8y085WR28ykdR8Hdsft1tOZ9Yd/QJzISYeMc5dRbpKfWLRGrMVMsgxhMWboQSjn5ZuKf3OnpNPPx7NyJ8He0gMKIhltrUXQ6Cl//53NkSWP8jh7Coo/mw99SHqw5ibXPLUa8PPjbTYf3ogXwr/wJW9f/W06TmI7fiilDa3Fk2VwUyGmGLcCQl6dDY5KHQzTd1b+26QAjWx8oWvLQUJUpp3WVtJ4u2Z8hKnKbnHYDqjcx5slR6FeThD0fvoI6OfmmMV+Icd/OhGtrEc5u/w6nT+eiJiVByhOCyb9Mhmd/C4iHUl05smO+xs+f7pDyieeHcbjbLgE7HinCsD2ToUrdjHUvrZFziUaJ0fP6I8zJDMbiTJpQeCoX36/U3fxtuREbI1g7Aw1ZrWjQyWnXUGLq+kHwVVRg16w8pMipt4v5ZHtMvU8FV2uhkIAWXR1S9uVgzxZjTPjME8Ht50wxvlxQghJ5sMd41BVL7rOSBwjt55Kzhdj8bnW39rPxQGNYKFpRmXaDy8wN96UVZm1yhas8hNwcLHutSh64/SwXR2LmaAvkbF+DX5OKoEs6ilY579aS6lj3zM/x/H++l9NuNgd4TV+KeRM1sFLQYCfXGGXwq3j58VFQW5mIw1UJa/DSag2WbpgIRI3H25vEZGDkCnywIBBa/bQumY/XvnwI7oo8RD/2FLbKqSJlINwH2qD5QgzyyuU0ff1Hw9LeA0GL58Cz/ig2z30FNXJWl/0X1C2d1tHmwVB6uMB23COIGE2Bc8ZufPfC8pv61+y4pbEnU9IJtPghDFE1IWvv11i5Yg12nm6CnV8ogvvL4/yu4rB19XJar+U4dEt+73wbairlrx2YmFKl1VCLenm4a06iKL8W1YWZqJBTrgiHx6NLMOX+qfLwLVKWgoKSWlQUnL0lQZbTa9PgalKOpPem4/B3O64EjHCEZt5M+PSrwekTVONeOIOkCybQTJgGjYs8ynXoqrTyN6K0wNQlgzDSoRUpP6Xj43fPYfupJtj628F1gDzO7XDfADz7mgajg+Xh62pE5vl61OXX3P6AbLQKc2Y5waG5HHu+SMHHqzMQX9YbGn9zmKMBsaso7d0UxF6Qx++xqhFL6yns5y3xDbDyd8PMZ4zlvK7xneeLZ1/sB5U8fI0b7stq7BKXnYVT3b7y3yplKDlA59RtCxhvD+XEV/HsHzVQFMRgPV1jth6rhV3QQ5j3DAWC+uh6tOjZCKhBAd06qd5f/U2knHmznERqdi10BZk4J6e0C5qFRYtfxeMdVqtdQSztm93QCpW7iYl4Y9xtPb1uuY6r6ui6BLqh2YH8FdOxLaoIJoPGY9gkOe8m4aCxB/OfGwF303LEr5mJlZs3IfVMJPb85wW89Ge6A+t689otVIyi9BharxjUN8tJN1mTcItk7YA+9I+p3xKoQ6eLlYGpuQXQ3EiX4O6IR9GW+xG1flk3p7uJWrYh88v7sW/nV3LCzTQPGi8TtKYexIlrmntHQyV0pxQk4ERBNQXcOUh64QmsffRRZOZKY1wtB5U0mj67eU7wNa3D4dVZ2LOpHpXJTUhbmYVVz9Dddr48Uo9Bge1b6Vj91wroVam3gTFGT3eAdU0xNi66gFMxLaiM1yH2rylY/XqVeKPQkEZpyS2ovUXnzM1zGbW0nsJ+zlpThBQK3nqbdy9o/L+7jDpx2S1okVN+TzWxaaikGy/XSZ1GE/+FHDB5lA+UurPY+Qbd/NM1JvqTxYjOpPN98ET8QR5LNCUU7opaJG9+FlsPSvX+dVv8fpNj2PnONDy/ZDmS5ZRuMX8Ezo60v9KP0v66VX6vuqWja+tofboPo5FWbwJNxEI55ea4XTUA67YIDBtoA5TEYXeSnCQqhk6/2VyzEC8/OxFedlJ3ga6ITrp/vY6fxZP5RanbICkOCs9RcBQecNAVI37TYqz9pVgYAUrvhXh2HgWnfeXub0HNSax/bjEOiQMOCH/qHdw/Ug0rIb+5FllRa7B6Wwxu2HrfgbCMRbSO7nKXxtXr2LmGulr5mwP6hVCZ2Ktx8Ng24UYSqC6mi7DchW1Ow6Vx2JOixj13q2FKt0Nlpz/Dgd1Cd/FLGLHkXrQ3ztYlIWr1K2g73/rP2Y8RzvKA+b2YQeOK9McznQ3P2dPhp5K6dpurMvHr1jdRVCqVo0Fu72HiI0Fi8Csq7NDlPmIdZowBko+ZYNBQB3H9G0ricXD931DddtW0/zOGzLgXblSOwjrUUf6RjX9DRVsEHOQBlRkdMhnfyQn6MlAjbEh/P/jk95aShA766zV31tZep1vHGL4DhZnnIz5RTmrTdiC0d2m24NSmLDRM9ECYTS/KL8ee5fk4JfT625hh9BJXhDmZ0Bwvo6WyDHvWFCLlrDgHYA7NY4LULdrSUI+CUwXYtVru+g5X4dlnKCATc4HgZwbTR/qe8+MpbPpW+NahW/Oa7l8pH4mFUHg5wVkprF81Dn+TjdhYaQzzySo8dL+qPS829TJGDwH2zMrBKWmUG/O3hiedtoUxF39TK4TzYm/MCRQOciqjGh3SjuRh13q9TiafPpi0wJGWZQrT9vO2BOsXFKNQ+K6k/bXIFWMHKWFuStshakLCF+ewN0YeNKgXLPyNqbzvgu1oR/gq63HquN7tlobW4c8DMNheuIxQkHehCLuWlSKHzmvVy554ckjbg7sOeHJT2zNqVVI5dmlfGmb9sDNm3GcLOwVto/CoxIkcbFxd3x5oGo+1w4xpKvS3NJYepxDk52EFXfC7FYzGp6Okfjg8PcbRQFvrPZn1Bb6gKjb5sAnchzlAScsQ6rdtb72OQ3RehP1lB+YFlV/pau3YbStMf48Jisod4KhqQl5CJqyCfWDVkIfot/UaB0xD8dqn8+Eu1OGttciL+Rorv4mUTz0N/rBwKR4IlpbfsY6e8U40xqvpS8NZbP22CROeCBTrcl12FFa/kQfHvjTJhbP4WZiVqBi/FhRjksYBGj/g5zNSqqNSOB7LUXRYGu4OsRw0eYgvUCPMm274SVV6JD5+Z43cBS5dq4TVFF31qNPVeeqJ0WKZC3RJHbrtx3mAqhZcyNgsJ3TRzahbhPpvXC86/i3hqmpF1vEK2IbYw7qhHLveyJdurOm8nbpQDV/xsZWrzxmRofO6zXXr6I7WoqRoDjxVg8TtujqIXog/fD8TmupYbJv7t24F2Py3p3usYIRPCYZlQRS2HWm7onY0EfNefxyBVqU4tH4N9py3gEdQMIL97ZEYcxS1GI7RD2igpmvw2R++webjTXAL8oGXmz3S98bSXVIEHl/yJE1fjlO7vsfG3VE4cjgOR44cQ2pZMYSGEOXUFXj5Xjc0p0Vi3Vc0T9dADAkNRv+LWxCv17rkG/EnuJsVI/HHfVcf3JiFRe88DI9L2Yje9Dl2JtE6DB2FYYPb1rFzjbbj4euhxMVDTbAY7QUTWqnac60wDwuDVdkxpJ07gIrMVFy0DIKrLQW+iotI+el7XKBhTy8Xqnt2oKqpFMXpp5GRdAjVjuFw7l2MzPh9aJSXUZdTgMxkCv48fWFXFofIrd8ijcZNO3kcdfVCUBgE9ZzFGNq3HMl7vsKxE8VoHTgUIUEa5Ivz8YX9sKGwrkxAZtoN9lWtFrmpJ2gd5OU0ZCLl1FE5kwyYCl9XCsyRgsO7NyCrYRAGenqhr6IAOeezaYTZGDx/JjyQjV93f4qkc82w8g2Hv7s9Mmg+4hNjPpMRMMIJTec+QEbHwI4CxJJGb7iG+MPT3ZLOfNpu7TmU5ZbJ+ZKm3gNQlXEMxam5aLIwRtm5X1Eu/q11E3g9YAervGIcPnyDy21BDZJPNcIpvC+U1pdhcqYQm2MaoQ7rBw+7asTHtSLsHz4YbV+Ho9+dx+6fq2Hs64g/jOqF9N11UmBYSvNIKMXxxCpo7zKB73BnePQrQ9KJS4BWh7MpWiReMkWIay+c2pKKHf+Pxo0rxdnES2gWn1Vowvl0GofSdO794Nq7Fklt8xaZwv9Ba7haXUbyjmzsPtYApyH94OvWiuQoHRqUfTBl8QC4NWix/bMcHM01QkC4DWwUTcjYXmk4EPS0RFiIBXTnipF8moadjGDtagRT1V0w7XsZDXrF7TDWAR5mHddPUl9UiVPxtG1pNWiwMIf/CLpparmItDQh1xgjX6eA3FqHhJ25iIwsFsvgeFwNSuX5Wz/lhj+FmKE0KRs7NxThiJhfhqxkCkK70sIZYI3wQVZwDe+HkHB7+Dk049SBQhzf14IGcXpjjH7DAyHWtYj9KhMHsi7DPdgRwQENSDjQiKqcSnE/ivsApdi+KgcHxXWoQuHFy7jUpX0pMIbmj3Zwqq/EIZrvVcY6YcEj9hCayresLcSpJlMMudsRbmalUtlDiT++4QqP5nLs25GL6D0XpXI6Wg/dtc+n3Jh5MFR/moaAAFvUn9mBs4fT5QziPwVTNGpY4ix2b/wGJxo0CPTzhLpvIfYnZKP/8IcR7FiPrJ2R0rNv6nG4l24KdZnfIFZoShOm9zRDxtoFSB3wEHyNj+LVqFaMpbrFtJHGOeODYZNo+f1MUBWzBet2nkStyofq4FC4VW/CEaoaHOe8j0V0jGrjt+Cb72JRYOmDkNHD4SLX0QXZhUg20mCEuxnds5kgefcn+KWZxqH1tK8uh2UoLSs3Dj/9eqXuqvWeRNtlgYozW5BqHAG3/m7wHTwK3v1aKSCrQmM/N9j1s0fzxUKq/6TrDNq2SdBhO8VycHGGZUUMtnwZhWwbHwR6ecKpZRPixOIsRXZGMo7T9ad14Ci4mOhfS+S8CzYI9LWH9pfl+GwLXaeEa9XxBFRQANXObDjcI1xhbTEAFzOLUFd+df12QzejbhHOGS8TpHx6FucGOCGIrkXv/9iCkCF2MGssQUqyGSa9q4F/K91Ef5uN/YkNcAjpj5GB0jnT0oXzWnDjOvpaxsNmwNO+DGnbozo8ykXHzww/2DTm4uyumG71vHH39H+z0Ah42dHxfngV1h+MQeKuxdhzrhYKdSAi9F6b0mVGYW1UJFIPvo1oykdvCwpO9DQ3oa6xFs1lZ8Uuh9T0k+2NR5OHaKCgO9S9765B4plN2LgsjsIPC7gPf0gew4CJoXR3rNelcXA5Vh4upnX0Qbg8Sqcamih4NYHCUo2+yEBxtQUsHOhWko7cJrqjFu6KW8vooBcuZOYmqD74Ci7m7kLB6Uw6ESxgTuVDtRmaS2gc+jRT7NFRa5WQVy49LHyJLtLyuA1lchOv5VS4qKjyPfIy0s7sQkPuhzgXk4I680Fw7uR5wKu0JMnrIC/numqRfeRvFMjFoGL/LmRSbWSqlN999g2Di1COu59GQRrNJ20ZfqXgVeHsi37SGIbtewU75i3HvtNUbn08cPfiTzFt8Uw5U1Lzw1t0g7GbviWgZP1byNyn16piSHkrKpNbxZsNFR1PW9bVozJGizMUaZn3oX02oC+8nOjOfV82Yn9sQmV8Lfbu0KLO0gp+YdIscIHmUUghsK4JubEXcOICzUstNCMTndxlWSeEyJfQUi51XwqfuvZW6yvdmp11/9alF0vrEFOO/Sm0R+i2Xmx/nWAFd0ULTu2+gLT4FpT8WIqDqV2Jsq5PNUuDZ1/zlT6dPdvXQct52oYy2s7SBqTsLkFajRGcB1155V7sImqmILSRyrtMLgf9l02MhNZFytNROTUJ+0UYp7OH+69HaBU8hWXC5y/5qPV3x7MrVdI2hNmCrt8oPJSDwzFUTjuLsYfK0dilL3yFukfYj+37oG350jqItxxd2pedcx3WF+Y1xdj+FgWiNF3hujzE5RvB1avtLaO7xHJqoXJqaaALf6G8jPN65WTQq5i0dTUmTbRDyb412LVCODc6qkVW9OuIPhaDQ19QPVtD4arSRs7rilpo6WZSqJuaaXt0NUKdR/SvzlQnvCs+orQJW1cdozrYBI5+UygjEOP9HIA8yv/ka6qjhUeYvqd1sIB6qJBPezGb6l06n4QWX13669hI9fChH85CS/NQduGAnPDkq3h58at4wE9oIXRAOH0Xhl9ePB8TpFG6iALBVavELvA9q6VtULTtKqqj84Rrz3UfdZLzyqWas1knjSd8soo69PQk/Q27396HfPPhmPT+OkyaJ6cbctPqFqpT6Ia9hfZlbTWtbw2dc5RqJOzL+/rCU0kB4nd0gyM8thJTgS2HquicoTpHnLYL5zXpTh3dcsOHb9fg54dGYW03WxkFHDT2WOXQ0Y21ku4qb/jjAQrxP+gaTkrDJKFECKQsYBckDYv0Dhy6fuiJwca13yOx3AbDHl6I1/61AV98uQNL/zTlyqv6YndHE10+ZLpMaIVK0bq9I6FzNha0jhbwXxCNLzZInw/GdePnFCpq6A7JAqbeDjBvaoKWjnBLewogKY6o1nZ8U7kWdW03XCnPI3LZ/TgnNNL9VnbCCwx0tzzmW8xYsl/6TA8S0272GdSi14h3VXueFZWBUI6PyMsXPndL5djWi4GKJv1dfX3a3cg5r6WLUCwFj02wHT0LQ/WPlRtqQQPVfuaOSloPw8QKU3QZ8X+hoEN489VVIZaZ632DsWST/FmgorReMBZ6vmhLfN/wxJI1fu2B1uhb9LMW+jcPLZf0BsyNqOJuQYte309JcYcWrs5USkGRhbX05E/JyjQx6PoysRv38kpTjP6PL5asbCsHdwxuv7gKWhD7WRYOl5lg5CPeWLSSynG9Bx6eIxaiqHJdDrbH05kzQoMn3wjAkm/8MP+dvrDTu5nsFrpgH6YAu8HaGoHC3Z68qOaGKxe0whKhLaM37G7TY39WwvOVlkLX95XjaYLwQpYYMAtqseuzPKTRLfKEp3yxaM1gLP7CDRMmt58xXbAceybNxeZ1ybAcvRDT35kjp3dwi9+Maa7Ri6QpABRiFsVdwk7QwFrYp+qJ+ECuX7/YIP2ihZSvrxa6YjnIKngbrz4mdJHnoYqOdYWp1GXcRmkkTNsEHZ22W18fj6do3LVJwrVFeKtZGn6q49vN19F8VRM6rXfbTYu8DTdd2HuYunQc7DK+w+Y5o7BnrZzeE9iYUN1pKnZ9t9d/4qM40s1NV87r7rKzv3q/3gwcNPZYMcgspguvKrA9OLgGnXXCiac0DZSGSbBKOEiEO1dp2BDduc/x8ZJpeOaJx/D3d75GdK7QszALs/3kEYTKUGFypWVSqYEdVUi6yjw5wYACCn6pssiLWiW+bXfl8zn2yqN0KrsY1RQsWThbwkJXjor6JpjbCeXRhLrb9Qsc+RXic41lp79C5JfL9D4rkX67XgApLUOdUI4H/91hHT4TnkyUJOWikg4Zu4FduL1urUHOiQs0RxP07iundaoFueLxaI/Ro+Wk7kqgu3D6R3s8TXx7+MonE7HCzfIDTpjkCZxaf1pq3aLP3tv9gk2dEPQZw1gvSFM5tD0D2gXJtcili7Cdv22XWxU7sp7bHyNt6nBgRVs5pCFBL4gVna1F7F/TseJPp7DqrXTsye0F9wlqjPaX83UtSFudg8/n0DxePoP1P1XBeKAa0+ZKl6ffTL4nULQ/Lwk4Cw/UohHabjRO/xZauklCQwX2rNQ/luiz9srbAS1HKrBr0TmsmHUaq1dnUDmaI3i6Uzd/ZzEduqgisXvPWAymfl/KiWoIHShF54Vn+eKgFerB8pNYf1X9uhyrN8cJoxsQh6IK2o8ugXovvThgghvVsQ3FyJWfZ+wKpVWE/I1YmkAhBKm3+00Rc+l570Zt9O1ftiH5DVSHtyLrx3NXH6/v5l/52R5D53W3zISdcKCUFKGLnfRdwkFjD/bzphjkNVvAf877eO2pxzHELwJeoY9j9lMLIR5Dx2KQSieG3cgXMWdMBIZMXYFJ3hZozjuJmC51QwUifPqLGC90c/v5wMqagkM66cQ7TLnNendiJppNfTDhtYW0fAoml4yCI1UGWUev/s2wyjqqwC01CJ86heY1C5Mmyk8q/xKDZK0J1Pc8jsnBarkF0wGONnqtlyLhwdw4zFv3z/aHkSW1aG4BTO0sUF+Rh4baWgogXdCH1rFJ2EbjIChUETAVmlyF7g7hu5VGGLjCNAymQjp9FOIR31seDrvSSodMiO/c2AfB02+qlO9J/wpZLeuQmd0E24DpCAzyhXBppI2FubUlWvWaA40UNu3Lafu0/5C4+Sg5zUZqpLnLUhq27VIzH5ARg7QKKscRT8DT00Veb0eYWei3Lm5H9nkqBa/h0Mg9ule8iLvXrcPQufNga05BkNA9PckVJk1aaLv4g5853xYiq5nulOd6YOoCJVTCSxJhSgQv6CNexITf5LP2NxJbvxUK6bupfsuWrgIJma2wC3HDhNGmUkstVUG2ql563aYK2Lma0rRmGPyaO8LsqYAtLTD4Pgrk5DFAwWsd7Rn3CCs4C+vgbwLnEDl4EX5nTUwTfh9QSGgbFloQu2BvFW2jMQZPpsAizBiq++wxxkucURc1IDa2Ag2WDpi92gnB95mIy7e7zlvHVXXCtllh6APCOGbwpG1sRzdqdm4KsXxHvuMMYRVM7S3hOVrYzl5wfrgP3Gn9hHmbWveCtVJYx1Y0yOet6eg+VGbSsq1taT/Y0HiU3qjrTpOY/CKM8Inoi4en2cO0WSe8gA/ElyGllALFcFeMjKByesABk3xN0JJbgRS9uqdKaHGmbRw1y0yaT5gp7PR/nqmzfSlqRKUwPycbcTlCeUhlABTuL4XWtC/umdMP7gPkS5m9AubNba2fxnCfYyHPl45LcyrP3nTmNLe2P8/cZY8MwQCTJmTHda/pKq9cqFQc4P/ULLFenDPFR6wDrVwWIqw7PdhUt3j5TcF4uhYsnU7zqKI6fpeQUYyd8VRH2wRi+vQIuIuP41AA198BSrHrVgO1cN0QX2IRZkPfPQKv9CTR9LuP0/RKH0x+/UWEC8t4ZgXGUxWqTYpCtDxW54RuYroODX0c8yZS/R+6EC9P8oFCl4fTXX1pxiaUtk+4DkXATDzd6PgXh0OvNFjklovXDMfB78jXrAiED+/w+zsxR5FP9wwqr0fkhG66lXVLrBYnS43gPm4ARobQzbqYSMekzSWxd6Ir53W33D8Grn2o3j6xXk7QNxMjv6Pr7cdvyMNdxy/C9GTVRxF71gz9PTzh4ROMYeGjMCLUH/2tW1GSGIWMukwkZlnBI8AfwSNHI8SHApSLx7B95T+RLD71Kj2grCxOaH/IWXwg2aZcfsg4ApOfeQhj76b5jpTmraLTMiP6S3zza7bYitmcloBq22B4BYUiPDwQbsp6ulNag4+jpPw2WcU28A30hweNN2JkIDT9jFC0LwZFFIwlHq+CJa1/4GB5Gyjf26wee+KOyVMLbvRg7kBYDR0Kd2sLlJ/fgrx8DVxDBlLQWIys/7cL1S4vYfxjM+Apvj1OF4gh4fB0Nrr6JZPQf2DatMnwpDxnoQXJxB6uwnhDBqHyEM1DHKkYVRf7Q6nxxKDBI+At5Pu4oPrsDlTW16IutQilVr5w8x4KnxBh2jC42F9CXuJBKgfpRZj+jr7iMvQ/zhal4ssxfe79gALpeyjNF+KqWqqlcbztpZdpxBdhzHDxzGaxCx7XvFyTifIzVagZMBRePrQOQ4X5B8G5dz3SzraVYy3Kq7ypwguE+93eKE04g5pq4aJFfIfDZQSV+5BQ+GqoEJS26Nucj8QNb+PM8S7eh1Y3IuVMDe7y7ANfXxVC7+6HkGE2dDy2oOBEDZye88fsyVbiG+ImFByHhPeBSWEZsvQapcviy3GxvzkF3w4IGS29ZOHl1Iy0vTroUutQ6WeNoGAVwsJt4NyqxaHs3vAYKBzjvVHZ9iLKeR20bqbw9lEhRFgHYR5W1Tj6Cx2RD7rgxbkDKK0fXIV93dscPuLLHG3TSy/CmBaV4fgRqaq2GGGHIbYN0kPtzY3Io+QBvv1oHfphiKYZxxNaxN+y7NKLMKQluQrnWi7B0cMeQ0OFZfeDV99LqCupRMKBhvZju/JCI2yC7OAfbE/j2MBDJZVD+Rkd7hpqR2VL20fla33xAo7r+sKDNsjH8zLSd7fA5zl3TBgjzVsYxwn1SI7Kw89HpK521TQXTL/XUcoXX2S5jLKz+dj5ZaP8IosBV70IQ58htF+bqYw35eG4+DLOJeRm1qPPYDsqJwcM8TXH5ZIi7PhXObR6T9xXFuug9OwL72CpPEOGUdmXlCItQx6hs30pK2xoxUA/KqcwYXobDLSsx9FYCvuKdDhV1IT+Qf0QFCocM5Q/2AqKKpp/Kk2ossT4pwfiD+J86UPbYNFQjcPbCpBMN1fdYTvtGfj2r0Tae9tQql9+4oswdN4mtL0YKL24YlMu1bm1p+phGRwK/4BgjBjmA5MUShvgADt7T9jjG8RCmJ7qz52RQMSfoK6n6Qqd9V4i0SB4fCjULj5Ub9K5O8AMVUmR+Oy95Tglr4dQR2e1uInXgZBho8W6XLgW9MrbicTix7Fo5eO410XogaJAzJfq3yB7FOi9sChOb0zXkJBQhN1Ny3Ciy8ipSKz7cMtVv2d7zUs97YqRnGNGdaMPhowQriOesGrMwy/r3kZkkVT/XDtth5dnHngLy+dMEtfdRTxv7eEtXJNGatCrbZrqTFRZBNOx4oPg4ULeKASqW5GyL1ZvPctgec8MuPTTIfealz+64LfULeI5I9UTGOtA+5LqmEJThIRYoCGjBMmn6Zw5VgGdrw2CA+X6k877Qco6mr/QdG+KUAPndVcZjf4n/vh0KPpWJyDmzW3XKYfJCKCbf6PMn5B8sBvNyYT/Igxj/2OMJr2HqU8Mh60Z3aOWHMWOua9c/bCz8LenA85g7Z+XywmsM75v+2GqSxW2z8mHGC+xO4/w59leCoZlXTnKmrQ4/ehcuo1jPYnT0m0Y5moLW5UJmlI3Y73+X7K6U4x6D9MWU91vRHW/9gz2vfs08oUbqI6C3sP0d4ZD9/+mY8+n13/z+ka4pZGx/zGXM/bh3NY4pOZVoqo6B6Wnzuh1YZPgaQhWXUTiT1155ulOI3QR9YXHUDM4DbNC6CP9Ee5igrq0AuzRa/1id5jsKJxLN4LOyhYoPIrMw4ltj3WynqJvKKxsy5ATvRn7/r1e+hmyO00vWzQ3nUPS5x/gyJfrUX2j5zr9JyNoWB8U//Qp8rvZ6s4tjYwx1s5U729DCz/V0nD1D4wzxth/uznrMOePwOGHut9izkEjY4wxxhgziN+eZowxxhhjBnHQyBhjjDHGDOKgkTHGGGOMGcRBI2OMMcYYM4iDxk5o3o/DvD30iYxE2Lgb/gVoxhhjjLH/efw7jZ0oP5OFjPgCKEKHw9drADJ27ePf5mKMMcbYHYlbGjtTEIuapN3QCn+jyET6Q+iMMcYYY3ciDhoNMX8Ezo5ATfrRq/8UG2OMMcbYHYSDRkPGecDJBCjL2CwnMMYYY4zdeThoNCS3DDX0T78Rb0A1yENKY4wxxhi7w/CfEewCk7A3MGzBcGhUFij5YRT2rJUzGGOMMcbuENzSaEjYe5i6dBzsMr7D5jkcMDLGGGPszsRBoyHm0lvTjdpo6LRSEmOMMcbYnYaDRkNijiK/GlB5PSInMMYYY4zdeThoNCgWFRWAkZMLbOUUxhhjjLE7DQeNnXBaug3T1m3ESBeg6UIGyuR0xhhjjLE7DQeNnag5nQOtNhknvl2Fb19aI6cyxhhjjN15+Cd3GGOMMcaYQdzSyBhjjDHGDOKgkTHGGGOMGcRBI2OMMcYYM4iDRsYYY4wxZhAHjYwxxhhjzKAeGzRq3o/DvD30iYxE2DhHOZUxxhhjjP0ejGzs1G/K33uU8jNZyIgvgCJ0OHy9BiBj1z40yXmMMcYYY+z26rnd0wWxqEnaDW0FfTcxgZGUyhhjjDHGfgc9+5lG80fg7AjUpB9FpZzEGGOMMcZuv54dNI7zgJMJUJaxWU5gjDHGGGO/h54dNOaWoYb+6TfiDagGeUhpjDHGGGPstuvxf3vaJOwNDFswHBqVBUp+GIU9a+UMxhhjjDF22/Tslsaw9zB16TjYZXyHzXM4YGSMMcYY+7308BdhpLemG7XR0GmlJMYYY4wxdvv17KAx5ijyqwGV1yNyAmOMMcYY+z307KARsaioAIycXGArpzDGGGOMsduvxwaNTku3Ydq6jRjpAjRdyECZnM4YY4wxxm6/Hhs01pzOgVabjBPfrsK3L62RUxljjDHG2O+hx//kDmOMMcYY+/318GcaGWOMMcZYT8BBI2OMMcYYM4iDRsYYY4wxZhAHjYwxxhhjzCAOGhljjDHGmEEcNDLGGGOMMQOA/w/S2wDtN8huOQAAAABJRU5ErkJggg==;" vertex="1" parent="1">
                    <mxGeometry x="923" y="370" width="653" height="139" as="geometry"/>
                </mxCell>
                <mxCell id="25" style="edgeStyle=none;html=1;exitX=0;exitY=0.5;exitDx=0;exitDy=0;entryX=1;entryY=0.146;entryDx=0;entryDy=0;entryPerimeter=0;strokeWidth=2;" edge="1" parent="1" source="17" target="19">
                    <mxGeometry relative="1" as="geometry"/>
                </mxCell>
                <mxCell id="17" value="" style="shape=image;verticalLabelPosition=bottom;labelBackgroundColor=default;verticalAlign=top;aspect=fixed;imageAspect=0;image=data:image/png,iVBORw0KGgoAAAANSUhEUgAAAi0AAACNCAYAAAB7akq1AAAAAXNSR0IArs4c6QAAAARnQU1BAACxjwv8YQUAAAAJcEhZcwAADsMAAA7DAcdvqGQAAEZHSURBVHhe7d0JXFVl/vjxj7HIDrLIKqBcWWSRRdzRolxKR8vSqWzGsmzv3/zbpunfr2V+/awpp9/YNtNm2aiZZiajuRVloIYKLoiCgmwiIIvsIIv9n3PvAdEUsXHB8fuu++Ke5zn33Oc859zzfM/zPPfayxA86meEEEIIIXq4a/S/QgghhBA9mgQtQgghhLgiSNAihBBCiCuCBC1CCCGEuCJI0CKEEEKIK4IELeLqYRNJQGAkNvqiEEKIK0uXX3l2D36T2aGQsuEJEmv1xO4y88XJwoKm4zk09bgvVccxfsLdxNirp63V5Gz/lGVFe0xZF8STPP3EjQzQl8hfy0Mr/qov9BS38fi79xOu6qB862s8+/dExv9pNTNCLKFgHfc9/6a+3rl44Bk4CMeWAjJzs/W0brrzIz6a6KsvaG87nj8v0Rd0M17ZwHg6l0cv97HzKaPJpOdXc0ugJQXfqPdZqica/Rv7cEE8wQufTeRkTUBD+T6+f+8PrDyP4jj2j8fTopKCA7to0NNO4TyUYC9Lqg8lU3zKCifPBaPaXXz4yDOk6ItCCNFTXLSeFqf+j/DQ5HtQMU8PlMq25Hf5++pPSalyJCByPH56zoWxik8+msvcj5az83yDvcvAtd9QbJiCQTVo5280Mx5/lqfunaIvn4d1HzDv9deYt3zfmRvZCyxzfwHVtQXkZOkJHf6NfbiAin9UdaHq470l26h2HMSkh18gWM/rjgn3qn14/E7C9eVfmHg/Tz3zBDOi9OUOySybb3rvpGI9SQgheqAug5bSzCd4dcWv6GVR3B0doa6Mkh7503UNVNWnUdWURGm9WmxtocmUcYFkU16TSGFNJa09/af7Sksod/flOp9IfG2yySnQ0y+Fym1k7k0ks7JZT7i4clY8zJOP3MfinXpCD9PSoOpC1UfauudZvbcOetuhPkWXQAnFB0zv3diiJwkhRA/0i+EhF8Ob3B9pulS21uTwzfdzyTjlQhZN/A2PEFS0jB+tJnDTAEfMaaF01ycsyEnBJVi9PuwMl9rG/SxZM498fdHcbibThsUR0MfCuFyft56PdyzjeL9XeHqYpzGt6uBKPsv1Y2Z8NC7mJ9epZwYzbp2A+bZPKfKbwUgPG2hrIGPLXBJKO90qmkUQ4DueUQMMuDtYYH4ih69WzeXkjbYq/6QZhJas5I3U1XpaN10Tz6ixs7k13ANrVTZONFOel8wnCXM5dMK0Ckxn9n0PEHvsTMNDKm+OytO65NVrayoK+GHtS6wtLzFlK9b9XuLR64fSz8kSi/bwsjCRJ5bPpVE9PVd+19qHWXaR3scAe0sI7ldA8ol4rusYjvEgePoLzJlowFE7TG11FKd+ybx3llCtFo1DN53HNNp1Gl6Ie+orZkXYGZNbaisp+GkJ8/+ZcGrPyqjXeeuBSMp/zfCQcYgJ0jdbEjDcAxszFZIWb2P5y8+TpL/JqeWsI/39aczfbFrqzj50l/0flnP7OBeyF83k+8/Pp8vCNDxk8eNrLP4JbHziuWX6UGz2fMB/zf/SVFc2tzHr+TuJ89HrsjqbDe/9mZX7Sxj2f79iTpQp/VQFbPj9fSzT6/dMc3lOH5Iz1kefM++7TcijPP7wRAIcTT1yWj2v/MvzfF9pXBRCiIvOzNnV9yX9uVFjYxW5B74ntbQPAYGB+LWVsqO8SM/VxBEbZcDZ1gfX8kS+3JbONV4qOHC24KAKWo5VF7Anuw2vQD/MVNDx8dY17DiwhR2HtlOqGj2NleeLPBIfiWXpFhJ+Wk5qYyCxQQbMC9dysK5evf9PVNhGEeLfnzB1LU7ZtojdJ8IYPMBLXWXXk2t5LWMGemLv5KNun1fyRXotffsbGGjRQvLhDON72Lo+xT3jJxPr3IvCQ1sotTDgUZ/BuoJdtBrXUOwnc0OwO2WZ75Feez63mB7Ejv8Ls8LMKNy6nIUbNrGv0YfocAMupXvYfqxMXy+UqOgheDdls2b/Vj2tXTOF2Xv4KS2J/cXmWHsN4tohUVRtX02hMf8BHvjdjQS15bJh3WKWb/6OJLVukqrLihatlThX/rkMYvikGNybdrGpwkBcmBvVmV9Q5DCaALJJSFTlvf4VXpgRxImcdXzx8ZfsbjYQHTeWCOt0NqWXcDi3iPTtJThHDMK1Mpl5f1/Cls3JbNmyjYMVJSqUheriMrWOSstSZbLzJXTECEJal5B8wFQKI99x3DjEg4bsf6rt6mm60PjfnSyPUXu59bTwKUwx+GLPPlYv/ic7mgxEhgXh26eIb1Nzja8wlVOVoc3ASD9LjqZ+QYqpkru1D93Ve/gMwgJsqNzzFXlaT0m3jWDsLQZ8/EYzctRoYsPdOJ6xibXrEjhYrm3Hg0l/eoEJ/m1krviAT3+qw29wDLGx/Sn9ZiPp+UVk7NxK24DR+Kl6WDn/Y9Zo+7B5K7uOFnG8oowD+1JJMe4/ZC5/k0/XaPnJbN+ZS3WnCNdY39YlpKntdv7Uq+iQx1/5LYEn1Pm25ANW7mym/5DRDB/sRpo6Duezt0II8Wv9cnioMYWipv2U1jTSphara05rRew9ceml/h5NZMH+1ZQ27aFCG2Kprzbefbe27KfKwhFb9bzk6Gqq1LaMj+Ptd57xxEeqW9vclfx9x6fk1B3B3ELdA/7cQJ3WQhjfP426Vu3WvoXdO14mtSqNrKzVbEhJIksbx3F0xUn9acpezLL8JKrqiqlSkUhTo1YCxeFxfj82BLNDy3hrzR9JONiAlaPKry0+ZRjIyd1LbaecnNLznVExlVGBljTuX8Ub2z4hq2YV27fN5o9vPci7h/bp65yLNoS0j+qfobzkR9amZFPT24Mgdz1b0XpPWlqbaWiuVcGkNtykHvUnZ2aeK7+7kvNLsLCoozgjUU8xGT/UgE3tLpa98iZJexNJWvg8KYdVjBEUb8yvztWGFCpNDXtLnWmoR3t0mgiqrVNQ0ax2ch8p3ySSU2uJp+E2PfdCqSNnw/Ns2KbK+FECmbVgY+Os57WXUz0afjkM1Z196K7av03nw0nx59nLcpLW63Hf77XHH1hZNYgZf3qPh0dpOXcSY7CkZX8C81ap/fvhNeZtLlGfRQPDx2g9HsnGMpuGdpopb9+HvduMn0kadpGjLev731LZnq+OTXd7SSYOJcCmjvSlD7PsB/VavQwWvoPUbYwQQlwavwxadH6GYFxacth95LRLt5ObaugbyMppH06JwdvltIDAwUmtU035mebC2IXgpyKaJusYZsS+wv2/eZM7DS1kbP6ALR0bGIa31uaU7CGl/S6wcT2phSspUsGJt5OrCnKK2Z2nf+PHyg8fa6io1pZDGBsdgVNpEp/tXo8WT2EfgLuKgUork7QlnQ0Bbmo75TlkdXS9dJedauS1YGOtvmzScuLk0M65WHj+Dy8+tIi/zHmO5+5TjymDcNDzTN7n/aWJZP3sy5Tpz/Hfj33LWw8sYvaAYd3M776GJfephnIa83/UE3ROtpaq7iKZ89kGPjI+PuM6H5VhZso/J5vbmPPGat76yws89cyz6nEbwe3fUPk3tTSfdm+vRdj/MbJJ+UgFeE12BA89GeC1NJ3c5wYVaDao89BROx6XgrM659X7hT/Qfi5s4K1xHnqmEEJcGmcJWuII8rah9fAeMk6bSOrt4KiunsXkVOkJVl64nhYQuDuoYEAFLRVn6jPupU0AaaGtNp8cFZR89/3LvPH1EySU5JjyNb0MuKrGrap8zxkmyNrg4WCjIpSCk8GGoyuO6hJeUqnd4Ybjrd6+oiTFFLAQwODQEGOgVV7VOQCLx68v1Jftp31Xuq+OFnVX6+o9VV3If414bh03DJfyROa+fQMPvaken++kRs9t11g2l3f/eTP/528P8l//XMy2Gg9iJ93D2G7m/7uKq9QBbCpgw/+avlnS8fg4QV+ja8GzbmOYcyVJ8x7WexA+IP18J3VrwYiNc6dv0ZgCRm1+zNXGwurkvBUbPw/1Saij+rCecLEdrlSfoGYK1r156rnw+ges11cRQoiL7aw9LRpzez+8rULw9r4Fb21IqD1gqC6n1LiG0scTFy0gqD4ZEBxv0Z674ucejZNVNAH9bqFj1KOugNIWC2ztLKk6lk6FeQSjov7CtH7a5FsbrHqrAMPVU71aBR71jer1vmhhzkkxuKi4qbX2SEew4dLHVa2jgqRODaKVUzjuVnHExP6BsebVxgDGyiYAK+N+nNS7j9o/rYz97ybo1Dfqwio2H2jGOngqz417kiiHePqpR1TgPfTT1zDJplp7Y48obvVW67jdwyjPk983tbD3YIBTPEH9X+Lp+FAVAFniMfAxwnprd7A3Ehv1mL5tX6wtnXG0VsnNzXpwc678f1/Sd/soV/V/3e+mEKNPAMXVF7eWzkNQ2RinXXhGMmfiFILD4gm+dsrJr91a2OHWfxDBQ+9m1su3EaACDgu3SCaN6TQxNL9OnUFqE4NfIE69Pnri/cTpPQhJh0rUe0Yy86G7iQ6bwqQ/qfewUo3nni9NK5yTAV+tTNrDxjSB1MLZtOzbMYJ0jn3oJm0i7pw1iVx3h2ki+fmysNHLGXYnM1/W9lMFjgXJKmcJqdnNWIRM4ampKv3aZ3lqlDpHarP5qVPvWFlNs3HIKP72O03bGXob0Z17Ykq1erbD97onjPUcrOozLiZSzzSpqjdtI057H1WOSRMnmjJ+TCS93BLf6+9mcoyvfuw88HRuNg1BCSHEJfCLibgmBZTUhRFkCGVY8EgGuzpTf/Rb8ptUwzw4FKejW/ih1NQz4uIzlZi+x9i1c1NHINNUY4aNayiDQ4YTGziUIEcrKoo2UWzsGcmkoKI//gNiGDFoJLH9Q3DrVU1RcR45DWOZcfNMbvB3U803OPuofE9nsnLae00U83hGRfhRn7OY3VpPgDKg/wyCzHLZlK2tl0vliVFEDQwlRpXfqfJblmzfphqk4cQERXCNNpHXOLR/gMrWoQQPCCY2WCujLdVl2j4aN3kOdRzJyabKLJjA8CHExcYRF60CpAFOHEtbRXbHt4dKyK4IImxgMFFRap3wCEIsG1l78Auyjqr0QVGMGhLH8IHOFCWncjxA1YtPMMEWZXxbZGDmrZO5QeVr244bNJA+jQV8v2EeiTWVqoWb2nX+OZ02oVV3ysTXkkS2l3gTGhlJZOwI4yTRkRFBWNUsYUvHV7BKyDmm1gkNIrR9nShfWjJW8l0SuMfEEDlUpQ8Nx6lsI7sagujv503IQDcOt0/2rMniuMcIggMHERs3mthBBuyblpC8T9X07iKa/MOJiFbbiBtKiJMKWBI/Zv7XWaZ5KMaJuNadJtea9su5MpW1P2nzi+7m8Xl3c6NWLj8t8LLENdQ04bU/7RN/z74Puyu0/O65UBNxR46KpL9DM8U7ljB/4VaOq/Pt4PZm+kSGEzNcK1t/bBqyWffua3xrjLZM8krt6B9oIDh6qGk7qs7tS9Wxao8xcytp8x9ESEiksZ5HjhpKqGMZa5J36StATomzOt7hBEZp24jE0NeM4o2JFKtzIm17NfaD1PEcHMNw4+sjCbFuVK9Xny8hhLgEuvxFXCGEEEKInqLL4SEhhBBCiJ5CghYhhBBCXBEkaBFCCCHEFUGCFiGEEEJcESRoEUIIIcQVQYIWIYQQQlwRJGgRQgghxBWhZwct495g2pfJzFmjHm8/qycKIYQQ4mrUg4OWcQy5YwQuJw7w46svs/Str/R0IYQQQlyNev7wUHUxuckbqT14QE8QQgghxNWoBwctG8k+WAlegQT76UlCCCGEuGr16J6Wqv1HaMYTr+v1BCGEEEJctXpu0OJzO0Ej/bGkkvIMPU0IIYQQV62eGbTMWcSc9x9liOsRdvz1ZXak6OlCCCGEuGr1MgSP+ll/3rO4jsB91hNMinch+714flyjpwshhBDiqtRzh4fKt1J6pNb03ML0RwghhBBXrx49Edd/SCBm9QfI/lpPEEIIIcRVqwcHLbfj7aX+lBdzxJQghBBCiKtYDw5alpKZUQd+45i5IIHprz+hpwshhBDiamTm7Or7kv68x2n8cRsHG2zo7QLlW7ZyJFN+FVcIIYS4WvXcbw8JIYQQQnTSoyfiCiGEEEK0k6BFCCGEEFcECVqEEEIIcUWQoEUIIYQQVwQJWoQQQghxRZCgRYhLyKL3aDx6e+hL4j+XJ04PLmL6ymTmrElm0hw9ubNrovCwj+qB/0rJ7Yz63FTume/Pp1+wnixEDyBfeb4Y7B/noQkROLU1kJ/2IUvy9+gZncUxfsLdxNirp63V5Gz/lGVFZ1pPMZ/BjBsn4F2ynr9vX0aTnny1cQ9+k9mhkLLhCRL1f5bqdIOHf8xNPqpKK9NY8v27FPWos/sBHnlkOmEWBaz422y+1VPPJOi6r/lDwEH+9tHTZOlpXfPAdvRLDB9iwMXGlNJSXUDq189RUFRiSrgEzBzjsTA/RlPFTj2l+xymfM3EMDt9Cdqa6yhOW8yWxOV6Snd4YOYyCIvWApqqs/W0U521jCMXMONaX30BDv9wA1u26AvnyemZBKaPdab24Ea+X7iF2sKNNJTrmbpRN33DXcGWHFp3A2/s0xO7y2IY/awtqK5LpuaEnnbBeGIZGob9wPEMv2sEXmZ5fP+Hu8jO17OFuIykp+ViqP2Uz1YvY3eDDX7+w7HVk0+Vyrbkd/n76k9JqXIkIHI8fnqO+PUyUuexYHc55s7BhJ5s/3qIXezNraOmMLubgUj3Wd3wFhPHGLCqSOa7xXNJWJFIsYUvQVFx+hqXhufNzzHlrjtx0JfPW/0+fvhYlf/jT0gpBJ/h9xAdoed1SxyBd6ky3DxVX/6ls5Yx7X31vuq9V++jXk/6VfxeZIwKWJozl7L0Dy9TuvOXAYsm61AB5bUFZP2amDL4AZ677yluc9OXL6himjM2UvH106x5fhOllv4MmzNLzxPi8pKg5aKopr6pjKY29bSh6iwXwAaq6tOoakqiVFuhteXsPSity1j2r3v536u4l0VTmvkEr644ey+LprVlP6VNLepZA8e1Pz1KCpu+uZk/rpiLao8vHPPHCI925kTuctb88yUq8hNpyprLT+/cxcbV59NL0RMcp6lUlb90MYe/SOIwllhdquCzKcX03rXH0T66v5bllDDcqSRj2Tt6ypmVZz7If304m4RKPaEnyvx/7NjTjE3oWPz1JCEuJxkeOguX4De53y+fZakwKjYCb627pLGAbza8zG6tMbR+hPsnhlO38w2W5OWohuNufn+zuqvd8Tyf5RWrFWZw520TcMxYzTbbOOL7OWKuQsSKjE/5IDNJewvdBG6aNIPQkpW8kbpaT9NMZtrNtxBkrp62NVCUvozPsju/TmODS78/MDUiAHdrtaiOZH1pCis2f9D9YRGrW7hpeDyhLjaY91KvLzn5evN+r/D0MBtS1qlAoU5f3/tF/jTCldT1j7FBDx7M7WYybVgcAX1Mo/P1eev5eMcynELf5vchNqpcLZTu+oQvmiZy71BfbPV6WFA/QW3f0/iaqoMr+SzXj5nx0biofW7fhpVBHYdIR+M6rTU5fPP9XDLOFIyYRRDgO55RAwy4O1hg3ryfJWvm0d6jfbYynvOOOvAfvDXZwKHVN/C39n9FovdLvPjIaMy3/ZX/Sl6rEjwIGzKX3430xUE7Xi117P3uLT7Yl4ipqE/y9BM3MsD4XKnZedqwjwcDBs/lgbGm17eU72Rt0UCm9O/m8FD0P7hloi+HVt3E7gw97RTTCXn8AcK1c7gsmTUZvlw/xhcr7TjseZ/vjIGNB1ZDXyJujIE+lmqxtY7ivcvZ8s3ijgbcYerXTNS7r1rqK8lPXUxa8irj8ulDOycVsGXubBV8KFYzCZo5nTB3O8zUYkt1Nj8te4niMlNXg3Eb/Qv4YenX1OCJ67XTGeZdScon6vXHjKtgMeQtxowZhIuVWjitjD6zvmWkt3G1U9XvZN38p6E7ZdT0f4OJd0RRc8bhIVU/N73EyDAPbNWx0oawcn98i7RtiXo++P81mXFeqSTc8TilelpnN976LVM6ulXr2L74ZhZ0rDid2fc9QFBhCgXewwhzUklqP/dueJV3M1PA/Q3+MjPqjD1ZhzbewBvp+kJX7vyIjyZC+mZLAoZ7YKMORkPxNpa//DxJDfo6nc1ZxJybXdnz6kRSkvU0IS6THv1vD11OgYYZDLSzx9/jBHu3LWJtrj0DAw30aytlR3kRfiG/Z5jrMdK2r6BIG1N2u4nxfvbkZy7lYKNadriB6wLcMbN1x/nYT3ytPu1VjqGE9Hfj2P5NlBnfRbGfzA3B7pRlvkd6befWuJajR/azbf8+GpwiCTe4Ubtv0ykXQffgv3BflCsV+1bw1Y61pNf4MMgQiIN6v/11Z7r6nEabKzPhJvof38/qpH+ytcydsJBwBv5s2scT1sMZ4efKsYLVpn1SXLynEtP3GLt2mcpi5fkij8RHYlm6hYSflpPaGEhskAHzwrVkHqtjf9YBrvFSAUXfEAw2R/hu81qO2pvqoWL3N6Qc+IkK2yhC/PujtScpqq53nwhj8AAv1ZasZ191FbkHvie1tA8BgYH46fXfma3rU9wzfjKxzr0oPLSFUgsDHo2ZfFuwi1aV31UZc5pN2zirCkf6RUQRZGnN2gMqglUcou7jFr9mtq99lb3HVUMaOI/nxvWndf8q/p6wlWN9oxg1ZAiuh5ay0xgVlXEgYw8/pSVx3D2OAb1L1PONVBi3pjj/iSemhWJXnMzHyxaxqz6a+GgP7E6ctt7Z9J9GhH8z2QlfUX3G+Q2VHMvOVPUehb+LHRYWR8lY+yVH1HJQsB+1u9TrAuYyYVIQbXlrSV65nENNAzEMvRaXtnQKC01BRWvJUbLTk8jKraTe0o/gISOxqV5MsToRjh8+TE7GFmo84/C+Zh8//PND9uxU6+7cSnV9kYqno/Cd9QxD+lSSvuYTtu0ooW3AEGKjDBSmbERVI72Dbsfg441/dBxB0VF4WZSwd/MqCg5lafE4eP4P192mGuyKZBK/WEWhdSjBESNx0stYn3dYlU+VNSgUV7VOgqrLLK0Mu7ZT31jSjTLq+ozHEO7J8bzP1Hb1NJ3ZtW8xOdaZil1L+fGbTRSrMoQPH0mvw0sprzKt4/6b2fjZFJOxYh36x+YURQWHSd2VpAKEgcT5WnIkvf080YQSFT2EAZ42HE1aykdbC7DrH8HgQD+qtq+msLGcvXt3sMX4WtiZMI9PktS21Lm1vSSXhu7MbwmfwhSDL/bsY/Xif7KjyUBkWBC+fYr4NjVXX6kTl7GEDHelRn02C8+QLcSlJMNDZzQMd+3m3ryazYkvs6UyjarKdPI7rkATCPW1oTU/lRStVVSc7B0xp5xS/Y4QRzfjXJaWvJUsSF9GUVMSORUqKOmlNmtaw8jJ3Qsn9bqc0tODjGIqarTho1SqtTGh2ipOGfo2n8mEUEeq9n3CkoPrKW3aT1H+y7yX8Ee+KjnDAPoZuA+MI+CaHDb8OJ+suv2UFn1HZq0qk6N+G1hfre4DLXDSenGMPDG4qoopL9Z7MOKJj1RXztyV/H3Hp+TUHcHcQutZaaBO7WpTfZIqlz5MZl7M5mTtfZJI27OeDdt+oqgxRdVLGnWtWu9HC7t3vExqVRpZWavZkKIaE22/jeuostU0Gu+mq2tOu5V0eJzfjw3B7NAy3lrzRxIONmClilh/LEcfSuu6jOe2mO2HmrHoH8VY43IU4wZ6qJZnF9/UGBMYO8iAReM+vlz/Nlk1i0lYmUwhdgSFTTetQDblNYkUqkeDfr501i94IK7q6G76+iV2qnV2ZrzEtqN65gWhAoSKRIyjZraW1PzwNEfzV3F4T7aqIzsV9Kl2Se2Dbf1OUr74K8dKEzn243OkF4NPQLxpE0pbtdpGnYryqjIo3vIdh+ot6euv72N9snFopcXYaLYP8WiPFFNPjf1U/Nzh8JanyNq7iqb8t9mfmEG97UC8O0/m0npF5t7AMvVYsTQFqxGPMeV3Txp7ZmxjQnFR+7Jr2UuqjKs4umo52aqx9wm60fhSY/lKKzHGoSdqT5ahfcLtucp4TirwMh7770ha9wn1WhkStDLY4RN69jk0p2usN50LhY1dRMzFu/ggYzGFZW/zSar65Pe2NPWunNhJSafXttbq21KP8m6dz+3qyNnwvPocJpL0UYLxc29j46znnUZVTvfqR4iLT4KWM+llwNVeXeMOJZLafiGwNuCjGm9jo2lnwE89Lyper2d6EuShrvx1ZZTot2veDqrlbMnhx46hIBtcbVXjfErwYUOAm3pdeQ5ZZ2jMjMxvIcbPgopD35/a1exmwLtXAzmHU/QEk9a2av3ZuXiqu27VeB/NJ6PjFtPSGFS1tugBlNofbWuODsNMy84zGaZds3P/hfGm0i4EPxWZNVnHMCP2Fe7/zZvcaWghY/MHbOmYfGPAw0mtk5fa8T5NNStJLVxv2oYKEL21a2XJHlLag8LG9Sp/JUWd6sTPEIyLqs/dRzoHdyGMjY7AqTSJz3avNw31OAXjo6q5vMbUK9K9MnZtZ+pOyi0MRAWqhd5TCfOEwuy16DELFsaxjuMdy5w4SIlqBBycTn4TpSs2qkFCNbUNWneDUQmHKtvH47qhqVmFfM70CdKXu1RHvTZ6qcn4PyTMvZn96u7Z2k6VwTaKic99ywzjYxHDtZG79iuE+XQMc75hxuMvMeXe59RjOkFaVN5drrbGIN7n2kX69tVjepRpkvrZrkJl77M3owSLfqHqbAUz43pqXzvmNCWpz6P649Dn10/8PS8GrLRvZnnfeHIfnnuAELUTZtdox9Dk+Ll677rjxHF9aFGdWicuxAbPoLuRSIAL2pcchegJJGg5E3tXdefbwuGj7ePUAQweHI7L8RxStUbT0RUnGlTDqDeg1r9hsLqLpKoY08CFJz591NWt4gg5ekNt7vQwY/wtKMpa3Sn4iMevrwqOyvbrDfgZeIao4KScrMLTvg79bx85XxxPb3SsI/C3g9JyvcEnn3Kt58VO3Qr3imN8dAi2VWmsz9dbvV7GCRy01eaTo4KO775/mTe+foKEkhxTvsbBU9WlCnSOtgd4p9EDxKryPV1MMo4jyNuG1sN7OgVYmnC81cYrSlL0uSkBxIQYVEOojk2Vfmy6U8ZzqUwmqxIGBD6AQ7gKwlqy2bzz5NdlW7SLv0Xvkw3nNQPxUPtUU1WgJ3StwdjKWargxbRsnOPifKa5F2dxsIBy9foBQ5/71b/5UVOlgqTmArYs1L650+nxtWnOilX8dKL7VLL9kweNvSDL5r7P/o4hjW4oPGYM6ir2fHLq9j+ex4FuzkpuM/aQWGLR0YLGqYBa/akxbfviS6Jee6NjO1l3yj7M5bvv2m9O1D6WqpPFwevUHqQrmIun9gkup/TktB0hLhsJWs7AytlLNXzVVDSogMH9fmZMeI6bPBtI2fQ3srRGs7WFVtU8eLjH4eQ0g2kjA1Srq9J7O+FuoY0rReCi/jQ1NmBlN4GY8L/w2PUhWOSuZoU2afc0vfuo97GKJqD/3aaJt79gg4tLtAoeJjDYVf/+Z329aqhtCDDMUK8Nwd15JuOHv83sgd39fmg6pVo3ilcMN7mrbWv7MSoalyrVsBe034qnU6FdpG18GT9mJjHWBXyz6d2TQVddAaUtFtiqu/SqY2pd8whGRf2Faf20+2JHbFW5nFy0YbJqqprU896mSbcmNlj1VmmupqCmor4RJyvfU4bOTmdu72fcV2/vW1QgpycqVk7huFvFERP7B8b0rjYGMFY2AVhp63RZxu5aS8JedcffP45Hgzxoyc9gS6e5A5v2ZdNiPYjbJjxGkMNMptwymn7UkbVX/+aO9psaDvHGh422g71642pcHoY28laYeVA1CR6MvfklolR6VOhLDD2f35+rncvuPXVYeMYz/p438AmKx8o9nj7R/4NvqNqQeRQWatnKGNGoRl977mgwvrRdzbYMKix9iZ18M33d9KjAyQ/LE51+68TcTsWgoVj53UP/303H10xtzSWSvgFR+grqtKxRAZjtQAzDZxrLYOU3HVttc60LyM5txiViOpFRocb9VncH2DrZ03ZKL2Nv0+vUwzb6DeKiVfmri1X9qG2nqjKqeoqc8RJ93KfSd+p0DCrwPpylTYZul0291knlFkVQ2FTTtoLUX1Om0VnL2K5c+2yBe4j2PqocYSpYNeaXULBbHes+UcSNvx4HbZKsYubmiVn9yf7T2k1Z6nLgSdCdk/WUzlSQrp8L/axNvTPm9qZl1/OJOFWQ2agNQcY+aTxn+jlMJcz15HG4YGznEBpmR1tmmqpZIS4/mYh7Bt5+txHuYk8/w0gGezvTcuQnEra+za56/e69Xl30nMMIN8QS6+dF/b5FLC9xIWxgOMNsILnSg+tCfXDoYyA2IBRvs2rStr3Psuykji5fkwNUtg4leEAwscFDCXJUzXvZt+R37nKobVEHKZSokFHGbbmdKGd/SSYtTbs43BxFWGCkeu1Iovr50LvuANsPbaK0uWOcoQstlJaa4ewVQXjgUGL7GzCvSDPuZ35Ht3GLapRuIryfO14/55GQ+CbpzZ33IJOCiv74D4hhxKCRahshuPWqpqg4jxyzW3joxlsY6aVd7a3wGqDybVtIPqx/vaXXDGbcPJMb/N20QSmcfVS+pzNZOe29Jp0VUFIXRpAhlGFqXwe7OlN/VKunXCpPjCJqYCgxKs+p8lsWp2wDz+HEBEVwTcF6cpu7KGP9KQNuXTpeEczgoeH0s29mz/ePs73TKNyJih0UtgxhcNQwxg6JYqBtI3s3vsUnebkYY5vQ/+Yv0yerBjiOAVrPQG83ItTzuOiBHN+6iuzGfeQ3qNeHhjNySBwRTvlsyrUnqE9l9ybiKscP/EDezxF49FeN8eBrCVHb9/d1wqK+jIK2SYz//QyCXLWatsNbm+jqbUbG7q2mF2vqEiko8ME2OJJBg0caXx8UHKwax8UUqxi2NV+9h2EIgyJVXkQE9uUbyDwejJ+3D/793Tom0zaV2nHCdyCB4cNM21Dr/ly6mNKjddRnFlPmGEr/ELWdWG2y7TD83E5QkPaD8XNx6kTcOAINnljWZbNl2etUNahIRJXxcOMQPIJiCBs6DH/nNo7uWcxPiRtOTqJVgUX1UR9sDEEMbN+PQX7U7PuKKn348exlNOWjzpkq65H4GQYRFKPKETBQfQ5VPRxRecU7yKvtj2tIhKonUz0HBnhSn/cVle3DVkV7aYi5mdDoGFysqsjfeaBT+e7hkUdmM0W9Ls5X602zxDNIOxfU8ar5jC1HTRNxvZuyWbNfPz4qQJus7ouytHPFlKKizErqrEIJC45iuDpn4lRdhluUsT57l75CF4wTca05mvqF8bdwYBDDJ8XgXJnK2p86/cqd6zSiXr+XCFd1Pi98hCKZhCt6APnK8y+EMPbapxh5PJFXty7W04QQ4jzYjsPw4pPq5kUFJm3NZK+I5/uFel6PN40hC54gShvybqska+Gr/LiiU4ArxGUkPS2/oO7SB4dgXbyJlLLuzUkQQohTtByicuMi0n7MoaimF9WZm6jRemquCDa0ObWRm/AhP/7lDfL2d/yCjRCXnfS0nM7uER6aGE11ymMsKez8TRUhhBBCXE4StAghhBDiiiDfHhJCCCHEFUGCFiGEEEJcESRoEUIIIcQVQYIWIYQQQlwRJGg5B5u7FnB7QjJz1iRz+wu366lCCCGEuNQkaOnSo4y6NRD78q0kPP8yCQs26elCCCGEuNQkaOmG5tIDlO7cSMPh9n+TRwghhBCXmgQtXVpB7iGwDIjBS08RQgghxOUhQUuXiinIKwZbf/qN1pOEEEIIcVlI0NIFsyFziAhzgeYjlO7UE4UQQghxWcjP+J+FywvrmDbMktr8dHa8+xrZGTKfRQghhLicJGjpis9k/B95lHERtaQ8PJ09+Xq6EEIIIS45GR7qyuHVVBxr1heEEEIIcTlJ0NKlcQQFO6vgZS+Z0ssihBBCXFYStHQpBnd3aCjJQvpbhBBCiMtLgpYubSTrYDM2Qx7l9gUJTHpmmp4uhBBCiEvNzNnV9yX9ufiFYiqT9lJ03InejrUc2fwjZYfkW0RCCCHE5SDfHhJCCCHEFUGGh4QQQghxRZCgRQghhBBXBAlahBBCCHFFkKBFCCGEEFcECVqEuKo8y6Q1iwjSl4QQ4koiQYu4ephHYeESpS9cJrajsbD10BcuguBHGfX+OmavSWbO5/Nx0ZOvOja9sA3qpS8I0QXb2xnyYSJztM/MeQX0zzLR+JpkZi+cj7utnnyRmA8wx9ZZX+hJ5iwy1V3COiY+ePF/y0y+8tyjDWX8o/czIcoXRwtTSkPxLlZ/+Awbsk3Ll9Ow//sVc6Ls9KU60t+fxvzN+uIF4DDlayaGVbJl7mwO62lG7v/D9fcOo/GHG9iyRU/rBpfffsP1AZYUfHsDP23TE408MHMZhEVrAU3V51+xxnL2P8i6+U9To6ed2QNEPzUdg2UBSWqfLvgv/tg+yrhFt+PfVsy+FZ+zZ08+tRmpeuYI+r3wBGOGeGJjphbb6qjI3Eriyy9TVW9aw/Qvm5fz46TVuH7+KIMat7J09tPUmrIVMwIe78f10Q64WmgBwc/UHyll9T9KyblU56MWjASoHShqpb5STzuDgBfD+G2QGTmrd/PFEj3xEhj86mAm+UFrdg6vv1CH1X39eSLeAWpL+PiBUkr19c5Fa6DsLNqoyjrfy7Mjdy7xx19fIj+PuX+q1he667RtaMe5rJxv3z5CxvkcZ2cznLyhKaeNpgY9rbOz5lsx4f0gYuz1xfOsu/Nl/0wCt4+1I2/FO/y0s5iGnVtp0/O65ollaBi9B97KpDlhtG16meWvb9Tzuq9bxzrclXv/5I17VQkfPFxKuZ58aWi9s5OxT3mHpcWTmXOzP3mLRrPxcz3bdQT2/QLxuuNWxoQ6U7tVrffKUj3zwpOelh7Lg0nPv8CMoR60ZK1j4euv8d6KXTS4DmL4kEh9ncsrfembzFPlmvdjiZ5yYdWUn6VVsrHEgmbqz/NaXJNTwLH6Ao4U6gkd4gi86zmm3DxVX75YdlFcWEdNUTbH9JQLyetP0/C3rGTnG9PZ/PlXnQIW5a45jBvmQm3yXiqoJCuxHMvgsQz/bYy+whnUV3QKWCDoxWB+O8yOtsx8Fr6awcfLS6lzc2PI0EvYoxHTl1l/CmXqTfryWZTsO0Z5bTV5mXrCJWbubodqjwnwVwHLrxA6J5SHn+iLu77cfTWsUsfmvVdz2N354P0KRZu07ajjvKiYKic3pj7mipOe1y039ePhPxkYe7ZT7Kz5TWx60/Tem47oSRddBaXfqc9MtwMWTTHNGRup3Vhs/JyYWbZHWeenW8c6p47sI02U59Ve4oDlTOpo6BxBlm9V9baQrGceYM2eZuxH3EqECtwvFglaeqqoR4kPtFTnwzs8+/qbJO1NJG3VM/z5sfv489Jd+kqXV0NxMpmqXJkNF+lfZmpqpgVn7Pur55734DvmMRy060Ife6xV0NJcZ1yr21p2PMjG+bMpuGw/apxC8Rc3s27hXHVZvtDmYAi2VAHFD+xI0ZM6cRnghRlHyHo9j+OqYSv9210svWMm6xZ0Cmw6LKX89CtjtBtjg8wp35LJx69WU5TeSunKUj5+aC9fLOl5nbX1y4v44IE8UtL0hEuptoYiCzsM4Tb4e9WTlX3hj/bZ/Uy9OjZV6tGqp/xaLfWm7ZR+U8a6dLUPVmb01vMutqYs03vXtegJF1Htpiyq8MR/UhcBfFdu8VMBRx2FW77SEy6CBhXIPZXFB6+fqcvqEso59UbmVMUc+cdWSlVdBv12nJ524cnwUA8V/NBSnhrRTNJzv2fhKWMjnRge5amHJxLsamlcbCjexsq/PM/3xg6K23j83fsJOLyNAq+hBDuqpLY6cla/xqsr9LERm3huefR+rjM4Y2NlSjIO8yyYxvwfTEsBt/6NOeMG4WqjFtTri1O/ZN47Szilk+POj/hoovMZh4dsQh7lcVXGAMczlfEc+r/BxDsGUrT8ZtLdFzFjjAe5625gu9UCZlyLcdiIWd8yUrulbdrHd/86TuQtUbiYq8X8taxd/FcV9IBP+zpGav8+v5n9uaalU/M6qd95crjHaiZBM6cTpu6etZGVlupsflr2EsVlph6mcw8PPcnI527ER186ZdtGpnz2JmNmGI2nOhZtTSXs/tdTZB/Ue7HOUQai3mD6KyNo+Nd01vzjl1GZ5cPLmTXJhSNrUjGb5EnWpLvI0vPaGYeHIvJYc9uD2L+dzBhW8+FjrxnznB418PDINr77Yy4pv+ipUuLcefghD+OdeFHifnb5D2TSAHUg2upJ+Sib7zapDGdrxj7nzzAvS8xV49paVcGad4rI2GfcgjpZ+qhTydc0LNHWSvmRo3z3YZk+9HT6kMVJVWlZvDfPFBi0D8+YNJH69yzWJ+mL+rBDQGERRV5ehDr10iqajIRsVi033V/bTnbntpvd8bZReQ01bMr8mbHRsObOPHYb1+ia8f2dS0mt7ItLUTF24WakHnRkwsCqk0McgxyY+qiven/tSGpDbMWsmltGnvpMuD8VxL3RHR/GTqpPlqHLemqnD7FU/vrhIYtNGazaAr379WHibz3pvesAH/yvHoCpC8awF/0Y28/ql8ey07lwurxvdrMk/xz5i/QFxVSfZxke6qIez88cxnw5i6DD6nz/g+l81xiHvw0FpBz2ZViIaRi8+kAC773yDjnGJROvVxOZFJzHxltmk6endUe3jvXpdXnacJ9WPxMsqqlwd8S9pZKUg9YMC7em6VAu7z1fY7w5cvqtNzNucjEN6bY1U7Qjj8XzGzuCWvMbXJkxzR0fe3PMtarUFBbw+h+P6euYhofM1j1OQsbvuf3JIAr/OpHNicbM09zOKG1oufTUujSa8Q9mzQqjNvE1vvrraj3x/Mm/PdRDBcTdSYxdAT8s3UiBnnaqicx5/m4iHctIWvgOaw7ZERgVQ0y4G2mJW1XTPIjh6s7Bx8Oa6u+/YMH6ApxDwgkc5EtbwhoOqi0Ez36Vu4fYUb57DV8tWsm3m5PZoh5pewtMdzhRr/DHuyNxLE9m0d8TyHUcRGT0CEKt09mU3mlIKHwKUwzWHE394rQG7U4ef+W3BJ7IZcOSD1i5s5n+Q0YzfHB7Gc+hKoK+caH0LvuMapff42LdrG6LsqhwuJFAtd8Htq6lPO8w2QwkyM8aS8ve5P34LvubQwkKDuaa8sWUlqsYQVsnPYmsVrWetyVH9y6lvMr0FqY8tS9BobhWJJOwbBFZO9W6u7ZT36jtYxS+s55hSJ9K0td8wrYdJbQNGEJslIHClI0cV2v0Drodg8rP1pd/qYySA3s4qLZb4xmHd++S09YdSb+4gXg6QO6Gz9i2twWn4EEEevclJ/UHdeE4dxkYNJmIkV4073+Lg2foXWjbZ8Y1Y2LUOeKPndbMWDWQv3O/utSf1GbZl/ridA7v3ktj735U5+6mLPOAMc9xjBvRdnUkLa47851WeQP7MuqwjnTGy8EM8/ISVi2rwXZwXwb7NbN9w3Fi/nsQY93q2fr5IVZ/X4N5qCfXje7FgdX1GKfVWBznUEY5ackVHKppwyXUi7ioNtLXNaiLbzOHDqi8I70YFGZLmWpQF31exvbkMtK2NdOiF6oit4LdKSr9hBWx/mYU76ggp+MDZI7hN64M8DSjLDGPL9dWYRnSl/CwazjydS3HbByY8kw/+jeVs+L9PLbmmxER54yzRTMHV1R1a06Fxw0eBFrX8cPenxkxog9WRUdJOu5AtEsTO437ac2kVw2Et1WyZlEu36Y14RHrw6hIFWB9d5zqvCrSU8toCOirgpIyVryZxw9qH7cnV1N09GdOaG/SZT21M+2rV2MVSWq758eK8Fud8PXvS2xcX6IjbGhMP8y3a+uoKjOtEfRfwUzqr95zeTZfbW3EPdKT4UMxHUvjuaDKZzwGvdj9RSZf/ct0rPalnaCl8Bz5jab30LTXp6nuOuu6Hrvdy2Qbg/vvphER4ULj3q/Yt9l0vmt8RvyWGD9v7I8l8sXH68h1Vte/4CC8WpeQfHI1iLyVMENfrFVkUaQ+My3d7Ayp786xbq/L5Fos1WfL47TjqdVPsG0lSx4/hss0Nyy27GfDz65EBV7D0RXVlN3gxQN3uEF2Pl98WMTuZiuix3jS37qM9D3aFmz4zYv+BKqAZ+NX+WxYc9R4HLarY9rQMYbtRJNDIyXbPqfmsHp+4qh6vvUsw/MV2F8/A18OkLY2WU/ThU4mMrIvzbnJ7N/auQLPjwwPXamGxhPsqs7pzW+y8AfT0NGa/XVY+EYSr/WKtCvexfylS8jc9g7vbVONsIUlHZPc9aPfUl9HfXMlBdpQj7rbL9Y/dNFjBuFKCT+9/WeS9iawZt6XZKrGwTdsojrVu2HiUAJs6khf+jDLVBkzf3iNeZtLVBkHEaev0rU6WtTVx8wqCoc+UFJQiYO9ATOt3G3Hjb0obdWJNBmHpzxoyX2OgqxEjiXtoxi1n+o1GuM6pe3rncqUV6maROVErWk97VGx05iP/VT83OHwlqfI2ruKpvy32Z+YQb3tQLy7PW6bTYu+3RbjlejMmnLWmt4j6yV2H1QhnZWt2gvlQpShfik7Zj/I0kUHVNBhh/+tT3DXgjdO+cZD88Y32bdwqbEuar9+mX1fn8fdUINpWEJrLGytmtg0r47SlGpS81SKvSWO6m492EvdSW/MZdM3zVSl1LH+q3Lq7R0JG2bahGkbbeq4nqAi/Rjrt9eAmx2mXdSHPSq1/JNDF9qjvtO8h9ZDenp9Fx3IRypYtaTRWIY1qoxYWKgaUSY4EmDRyu7VR8hKMQ2L/JD568YnGrMaqLMw43DOaaH5TX0IslEN6+eqAUlU5Uw8xhdJ1Zj7qffW8o+0dRoWMT03PdpONsRd1tOFo/V6zL1Te2SwutqJac8Hcr3xg+tApMGMpn2HWbNSHUu1D0vUPmDvTORYla2fC6ZjcILWyvZ90CdPnyu/O85Vj93yLJOWzWfSRFdKN77DqtfPdL6XkPamNjyvrn/ztxmvKxanTV2p/evLLF9zgN7XzmHmwvP49lG3j7UpvSPtdLXNKrbRLiwt1KlLfGOTtuY1KmwF/+F9sK0tYcXLpiHdogUFJBea4R/cvhOm9Vpbfqa1SQWMRXoZDnX+/Kym8B8vU7hDPc1fSvY/3qQ035TzS8W0nW1S0LIHWThp9L/Vy6KRoKWHqm5STYe9BwM6xhROY2H8n4amk/NbUku1C6Qdrp2/1XuimfbAv6Ht1EY7c+EHrFSBjOOIO3n4+dd565PV/PXlZ4nWIxIL49nRTGPH8FQy5Vp07ehMuCmha852qox2hD+wgY8+Mz3eGnc+X/etpE7dVNjaxWPvoMpRVKGCfl8VwKgmpqrktKGYOuoq9N6f2pdImnt+3yw6K1dbY5Dnc+0iZjz3rekxPcoU+F3gT09b5+tE5+fdKcOx5m5MIFQBy+da0FLMjoUHOO4+gjGPdG/s+XiT2rq9NT799ISuaBdR/WneKxnM1br2/S2M5fW/aTDPLdEfD7irtF6Ym0YOsZ3uzcP/jODxP4XysPYY++smsZ7TiU6RY+dKszVTF3DVOHTqSiotOd9eCl1SKe+pBn/JQn25nbMlVuq/mIc61YMKltobj+64ZPXU4WdK3y8lq8maoGHacEYv4xBlk2rkOuQ1Ua8adJfunB8XwgWoR3iNNZNms3RBOvZjH2X6K7P09M6aT/acqJueM4WwTs+8yPRJXiogeJoFZxh2vZwcbVVtqHbk3vY6Uo8J2jEya588X8eq9wtUmR2ZcF8oj78zmGc+6s+Eye3jROfrdlzVzfTFJEFLD5V5oEQFGx7E3H7bmXs11KdH+wDZWJ38JlGMu3a/WEe53klwTg2JrHnnPp68dzz/549/ZuH6Aiz6xzNjVrwx29QrYIl1R+A0GlftulBdSbopoWuHK9U+NFOwTv+WUcfjA9brq3RtObVVYG3rh511HU2FzTQ5eGCvztqmuvMeuP51Co8Zg6OKPZ+Q8PHcTo95HDjT3I6LoTtl2JlPlYpJXQfM0RO6cpyGZWmUNmq9WN37JZeqzAbVKDkQc8eZxuC7IVXdkas/5duzjN8KOfnIZpNxLrAdEyerq92+A7x5n36Hv/6M/c8XT712h2uOeac7aXePCzz1tFBr3NvI+Wb/afVQSIa+Std6QD2pIEaL9aysOjUf/lYqAG2m4pJ9Jv7demx3gIZ1xWgjUuZmevR8nsystNfVUJV0Pt88ujTK1c0MTcdYM69zHanHhydv+Vq3HGPV4/t5/c49zJ9/kNRaW2Kme/26H6C09cdJ+4Z/6a8f/jkXCVp6qu8+JTm3GZuIu/nv519gvDYcFDaF8bNe4BatJ2VbIpnqdtZ11BPMujae6KmvMynEjpaCXSR2c0zVc8yjzJg4RW03Hl8XZ6z7aD0jKlhpMAUEaT/uU3fMHgx/7AXi1HtPeuo2tF7Fgr3rOnpvjCrrVABlh6/aXrTaVtzUu009MT8mkl5uie/1dzM5xlcPvjzwdG4+dSIv44j4MJk5Xy7A39h9cFKz+sxZ2DljdbyCmtJKGq398FIfiuYWrVfJgIV7PFY2pouNpb16/osfj9PXOX09tWzR0f5mU69tzi2KoLCppnWD1F8tq3UB2eo4uERMJzIqFGstDXtsney1OZCd9Da9rvOjvSxWwzrSTL1X7esOM96xnlO3yrCC3ENq34JHYDitDjWGVxK47pln6TfaXr2nA76vjMdXbai2WJvd1A3fFvPtoTacIg3c/6IzAcPMcQq3JGC2M6HRKt/LTC2rBl9b18L0/JQfwmo4Rmp2G66x6i5urNbAaa7Bxb3XKb/RYeVijUuAOd53enHvMFua1Bb977TBqX1bec3GuQ0ekW56GdS6I9vvrXthq5a1NCdb7U5S3XU7m5a79aNcqvHPaTFn8GR1wVbbdr/JjWuD9R9IulA2lbOrzIyAcf0YFWupfxvHQu3fiVO6/6trtJ5WR0bfaW3an2FWuHbqxThnPanAtEqrVy9nRsVrr7chaGz73XX3WKi7dON7h1sT84ofg63aKM3XZs3UsEsdS6tBPky6xRKn+D7cGafuZmor2aVNuG5Xoh0rKwLiHfE2bscS79hOZThXvlJdr2pF1cMQ7X1UOYJu0o91N+uxW+6Ipp9lM7nJH+oJ56ciOYta/PG9xVNPOT9dHmv9c6U9On+2nLr5w4lF35ZRbtWH62f1JaCf3ty7WWDb0t6Va07ALDu9/s3UMVd12FtdlVrazjI/r2s2s2PwopLsjWf4JlX8fG5fk8ykB39dPbWTibg9VgkZP2TT5B2EITCcmJGjGTlqKKHqInSiJJ0tB7aSluNIYITKGzWW2EEecHQbK+b9D+nGiWymibjuTdkkJG41btE0YRZyViYY70aibn6WWydo29W3rTZxbP86/vlpAuVaN05JIrnXxBA6KIaR1w4lxLWNozuW8L8fnzbhNLsSy9ChhAeHE6u2FTnQjV4lK0kryiZtezX26vWRg2MYHqe9TyQh1o2sSe78624BuE+5Fh/rCg59vYqqTn2wZgOmYejvjH11DrvTsrEdEmcMbMr2PUth4T0Mf3w2sd5aD5MlroFxBIW4nZycaqSvE63yOq+nlu2Pf6a2oa1TQvVRH2wMQQwcPJIQbd1BftTs+4qqxjrqM4spcwylf8gQBsVqrx2Gn9sJCtJ+MPZ2GSfi+njjr72u86O9LEP/m2nTJhvTvLW7eEs3fd2B6u5slWoCTBNxex9NJTvL9FWaUyf3nrsMWg9bZXWIagAiCRgTQlnqXmpr2udTjMU5XtuvwYRcq03EVRdHF9UAJS5k3XtrTxmJ6kpZYgVHfKwZEOTG0NHaJE03gr0saSmupObagTwwoy/Gjgl1AdYmcHpQqk/2M6lIqeSoj60KvDyIHdv++hay1jeYeuQszAmL8WT4mL5E+rSxO6ka54HO+Aa64Na+rZomiuxUsBSmyjDSNFE00u84aesbVT04Mv1vgYxTabH+WkHM8AgzrWMqyxkmp0Y4oareNNG25TgFqsXrF9qXYdoEVEML21NbMfjp+aZXdOlME0ftRrp2moh7gvxtx2gIdSYm0p2hal9j45wZaFPP1h9V46WrKmnAJqgPITGmssQOd8KqtIysg92sJ6WoqY0BYa6ED9Ne78wA+0a2bupOU3TqRNzYOBcMDm0Ubc9l+YJWtQfasayhOcqJ2BGeDIt2wK6+gn+9XUyuPlHX6FAD5f2tCBnkTqxxP9XxdqxR+6l/wM+Vr1QdOY5zlNqHGDdjPQW6t58v3avH7nCZ9hChPlVkvbGcsk7XHuNEXM/Gjuul9gONY29RF9Dsf7Kpc1fzUfVZnB6AU8NR9m7aqyd239mPNbg/EKg+V17Gfev82YqN+dk46dlOO9/Qzmd1eb/VjsYdFZT4qPPNs810zhY3sLu4GZ+ovkQNdTdtf7AjFtVq+9pvGLnbM/7BAVxnrD/1iHbErqmGzcsPk65ugrrPE/sZ8/jNbQH0Ovgd332c/MtepxvuYkSwOYVr/0HheW37VPKVZyH+g5hNeoOp94xA3YjTVrqVr2Y/bRyWOUn7+mIY2T1s7L2nCv1zGFP9qlkxq1Dq6z+V1gPwZAz29ZVUNJez567ZdO+Hf2cx6v1bce/jjIttM3mLZrLx88v2I1CXz6wFzL41EDMzaDi0iTXP/r+OX9nuzPTLw8fZPGM6+86Q313S0yLEf5CfD25k/7JkMguqqK7Jo2z33tPueEYTOLMvlUu+okJPEe164f3bPgQOscZruCND7/Ahzs+S+qzDrOl09y/+w+SuY/8BMxocXaBoK9mb0+heX00/GOSJTeV+Upf8D2mrz/qVmv9sFn05fmQ7Se++RtoXq2g6y0elz/hZBNnlsevzdR29kL+G9LQIIYRR53/zRvsKaBOHdx9m1XxtErIQ4t9heD2RUaxm4TNv6im/jgQtQgghhLgiyLeHhBBCCHFFkKBFCCGEEFcECVqEEEIIcUWQoEUIIYQQVwQJWs7C8Ldk5qxRj4QEho37937BTwghhBD/PvmdlrOo3JvDwZTDWAwdQWhwPw6u2tjN7+4LIYQQ4mKQnpazObyJ2p2rKT+mnltadu/fiBFCCCHERSNBS1ds78DbE2oPbD3tp9CFEEIIcalJ0NKVcYF4WULFwaV6ghBCCCEuFwlaupJfQa3603fki7gPDDSlCSGEEOKykJ/xPwfLYS8y/IERGNztKP16NGs+1DOEEEIIcUlJT0tXhr3B1BfG4Xrwc5bOkoBFCCGEuJwkaOmKrelbQ8fLN9BQbkoSQgghxOUhQUtXErdSWAPuwXfoCUIIIYS4XCRo6dImjh0DMy8/XPQUIYQQQlweErSchdcLy5m2YDGj/KD5yEEq9HQhhBBCXB4StJxF7Z48ysvT2bHoTRY9+Y6eKoQQQojLRb7yLIQQQogrgvS0CCGEEOKKIEGLEEIIIa4IErQIIYQQ4oogQYsQQgghrggStAghhBDiitAjgxan59cxZ00ycxISmThnhJ4qhBBCiKuZmbOr70v68x6jaV8OB1P3Uj9wNIOi/an8YhVVep4QQgghrk49c3iofCu1O7+itKwOLC0x15OFEEIIcfXqwXNaJtPP3w4O7SVbTxFCCCHE1avnBi1+I/ByharCVD1BCCGEEFeznhu05BdT2wz2wZPxHxGjJwohhBDiatUjJ+KabCNvrw2WYSMZcstUQgwN7N20V88TQgghxNWm5/6DibaPMm7R7fQ9tJo1/7uQqsPFeoYQQgghrkY9eCKunfbFIdqq8yRgEUIIIUQPDlrqF5J9COwDYnDSk4QQQghx9erBPS3FVFXWgasn7nqKEEIIIa5ePTJosXxwAdMWrGPSEDsoLaZUTxdCCCHE1atn9rTkHKC0PI89Kxay9LGn5Sf8hRBCCNGDvz0khBBCCNFJD57TIoQQQghxkgQtQgghhLgiSNAihBBCiCuCBC1CCCGEuCJI0CKEEEKIK4IELUIIIYS4IkjQIoQQQogrAPx/+hqDLGF75IwAAAAASUVORK5CYII=;" vertex="1" parent="1">
                    <mxGeometry x="881" y="200" width="557" height="141" as="geometry"/>
                </mxCell>
                <mxCell id="27" style="edgeStyle=none;html=1;entryX=1;entryY=0.87;entryDx=0;entryDy=0;entryPerimeter=0;strokeWidth=2;" edge="1" parent="1" source="18" target="19">
                    <mxGeometry relative="1" as="geometry"/>
                </mxCell>
                <mxCell id="18" value="" style="shape=image;verticalLabelPosition=bottom;labelBackgroundColor=default;verticalAlign=top;aspect=fixed;imageAspect=0;image=data:image/png,iVBORw0KGgoAAAANSUhEUgAAApMAAACVCAYAAAAE0HHJAAAAAXNSR0IArs4c6QAAAARnQU1BAACxjwv8YQUAAAAJcEhZcwAADsMAAA7DAcdvqGQAAFR1SURBVHhe7d0JXFVl3gfwn8FFuIAgi6yyyJUdZBFQhDTKpfTVsjTTJstSp3KyMXPKcbSaxppyLMsWtUwtHdPU5FXDJQrFBRVwAQUF2QVk3y5wAX3/ZwEuCLKMFb3z/34+V+95nnPOfc655zznf57nPJd+KvdRt8AYY4wxxlgv3CP/zxhjjDHGWI9xMMkYY4wxxnqNg0nGGGOMMdZrHEwyxhhjjLFe42CSMcYYY4z1GgeTjDHGGGOs1ziYZIwxxhhjvcbBJGOMMcYY6zUOJhljjDHGWK9xMMl+B1Rw8A6GiTz12+gLZWCMMcb6nk7+nGIIIh6YR/8mYOORT1Aop3abjgNMFQrU1aejrs/9scZwjBv/NAKN6W1jBdLPbMKOvAtS1t3gsxGfjXWQJ4Brhx/A+xfliT7jMSz8ZB58hH3QTF2Ai/s3YcP/RkONRVi+ZQJatiI7Cs8tWy1P3E3WsHH1hElDNlIy0uS027nP347Fo8xQEb8Wr6yJlFO7FvLn3ZirSsOGF5cgTk6b/vYhjBt4rk1ad9ypDCbOEbBRlCL7yjnad7+227/LhopsnNq5DJuPFsgp3WAWDHdbPVRci0V+Rxuh9IPLEDM0XI9GdqmcJhP3s7+RPFWNi+umYs1xeZIxxtj/e79Iy6Sp84t4ftIz8JKn+5Z4nI79BJ/t24S4chO4+I2Do5xzV6Ssw8ovVmJl5CVUykl9lTrpO6x6712sWrsNxwqN4DNtEV6YYE05kdgkpL/3HVKqpHl/GWGYvvA1LH52sjzdsezLacivqkZ26mk55dd3pzKMf5a2YeFM+MjTv4WW73JjFLLpNiB89nJMlPO6ZcI8LF6yCNP95en2/Gdi4ZLX8PQEeVrLxe2rpc/uSfDKGGPs/41Ogsk4RB95Fu/0plWSWJmYANVFKOhzrZICNcprElBedwyFNTTZ2IA6KePuaIhDTmU0cqrq5YQ+rKEUKUnRSDm9CZtXRCKlTg8uwUJgl4ZsIT2pFA3SnL8p9dFl+NuLU7Em6rcLVvpCGe6o+bv8eTXeOZkNKPRgKGf90tT5sdJnqzVyCmOMsf8mWt3cvhgdsRChZvSWUsqv7cOWxD0Q4q1W0zH90fHQpeAjz3E6Qq2VQJMaySdWIrIwH+buqzHPu4OnymovY9v+VcgSJ0xg5fgypvg6wLw/TdLy6ac/xI68dNh5fYynPGidtxpQeO4rfFs3Ac8GO8CQQt6S5E1Yn3IMsFmB10cBhw7lwys8BHYGtI6qy9j94yqkNoofINENx7ChEQh0sIG5kQK6JXH47Of1KJezgfF4aOJ0eBXswfvx++S0blJMweSJz+ABJyMohHC8sRo5F3/A+p/WoViagyLq9/HPWf4o7qib+56lWPpyBAYL7xs1KM5LRFTUX3G8ZWer4B+8FFMDrWFhoCenATk/voSV5y+J7w0Gv4EF9wdjsKmeVAZBTjQW7VyJWnmyc1LXqEvaerz0wXdt0nzKtLu0O0prptW92qSBuiwbcVvfwtb41mDL5P7lWPxwMCyMqIw6cmJuNF5b+i4ihO7m1qcBWlW1dkG37T4VetvH4a1t8oTIGu7/swizJvrBhg4bgdDFG7tpmViOrru5pe58JMZC4RYmrUNdgLhtS7BBbmW7Uxna57XKxqGnnsMOeapbpn+O2bO9URX9Lnb/qyfHo/xdZn2HTw+kARZ+eOTRCXAojcKqFauRLsyifAyzl81EuL1U1oaKNBz69C3suUzbOOo9fDTfD/Lua0Pa1naPPGhRJ2ofP2TmF/higlnH3dxmM/HCXx5DgE0HZWCMMfa7pmNm4fCG9LYQFUVlOJtyHDk63vBXOUM35wekazc2GI3BvUNtYGxqD6TvwbcXqzDIWYWhigbE5iaLF/ILaU2wdXWEztU9+PLkfpy9cgJnr51BYVM1rcAGXkFvY4abPvIv7MH3CWegsQiCj60JrqbHoUxdjcupV3CPrS9cBnlApbyOH4//gBvGXvBwtkTZ5RjctJ+CwEHGsDbSQfzZDYgpdYaPszOMyiJBxSFKmDutwB/vC8dQfTWuXk5BvaU9lIUn8HOheGmVGE/CA+5WKEr5lJbrSftbCB59/HWMt6rGhejt+Ornc7jRfygC3WmfZOzG5ebnzYzGYayvDdTXtuDEDTmtWb9qXE06ixMJ53C1RAc2riEY7TIEFy7+LHWND1mJpeOccSsjBlsP/Bs/nDmGYwnHEJd/GuqbwgzzMf8PD8KtKQOHorZi5/EfxfxjtK9LGto90NYhT4yYGAiz0nj8cEoKTqGMQMRkN+hTsPfDCTlNns+qLg2R0SfltGYa5GdfxJnjsbh6QwfGTp4ICvdDU+R+XBXz52HRMgpCGjJwdM827PohGido3hOnTiK7vBS5GXm4eKYAZr6esCiNxarPtkn5J07TPikQW0TLsvKQnHgSJ66bwc/LEuq0rxGjFZgrJ7yN12f4UJljsWfrNsRQLGXr5QNXiyaciY2H2cjHEWhWioQDh5EnL+MV8Qe4GBTIaSMx+hEVHOj+59L3X2P7GQ2c/T3hTsfalYMx4o3BncrQnNc0JAyOuIQ9a77EfmEbjp/EuRt56FHbtNck+PkNgiYjFpdPXpETu0P6juwHeyJ0VBhC/VXQoePkp6hvcSJXOBasMfH15Rjv1ISUXeux6VQ1HIcFIijIGYXCPigpwpVL8YhrUiHUEUjZuRqb9gvbEIsziRmoqC1CxlX6nuXtLz76LtZ9K+WfOBOPsmrhvJb5TMZklQFuxH+LuBw5TeSHWW+8ilCLUsR9uwnbYwpg6hmIsFCVVAZ5LsYYY79Pbbq5y6uPobwuAcU1dCm/VYxCreuEyMQCpvRfXdpW7MiieavzUd5I07UVYnZjw2WUK0zE7rWCG/toXTQtvOrzxXyYzsL9dMFKPfEX7Mg4iMIGBfSF1sm6WvHCW1dzDIV1RahrogndfByPXYNUKlPChYM4dPqUeNGxN6Ur/y01zp99E/Hll1FYWY5GCj3K5eY4Q7tX8dRwC5TEf4L3Dy3DoSL6WPqMkoq2g2xMrWxpW4qRXtjDIRMDJsPPhrYv7h2sT96KnMqtOHL4Jbzy2ZPY1dIs2YWbiSiozEYtqlCQ8yO2ny8ArBzgLWdDV/pP01CPxvoaFAvd5vQq1op5hdbIhkYN1Joq1NZK+Tk1nQ9i6ZDCDO7eEXAPXoCFb0+Ai6IaKSe1WpruSOgKv4QKutkoSo/Fvp/SoFZYQzVKzpY1NGjQUFcN9XWh25xe8kCbigytbvQG+lyxW51eWoNYWrpPSzvuPr0v2BPKukvYt+ItOj6ikRD1Ft5a9BRee2d9awtxN6jTorAhKhIpP9N6LtNB39+oZdT2ncrQnFcrboQGxc3bkHQa0hnRAzv+iM0Tw3rYKtlKaCV87qlx9HoKG84aIez5D7F8hh/lzESgSg8NlyOxaq+wje9i1XE63oxVGHGvsOA5pAtllruoG0qbt6F5oI38yIO8/Q3q1vz0/G62KtpPhg+dM9k/LpH28+m1WPP9JaipDIHB8jyMMcZ+t9oEk5IIhKhM0Jh1AefbPfNoZ2pBgVw+zmfKgZm+I+wN2gVqA0wpSKtAcQcDN8ytbWHY2AAjh1cxPWw1Xp08C1630hF5Qrv7WQVriljrMuORLH9+XeUexOccpHnCYSVEswUXECcHj6ZmltCnzysRm/QmYfxwBzRd3YMtmQliPsxtYE7hSUGpHNCKlHCxpG0pTm/bNd4dBnrQQzVy8hLlBEEBGsQWw+6xcP8c/3z5c/z9uaVYKrzChEEvWq6swicUnDU6PYh5z/0Dq18+gtWPv49RLQ/BrcO67dFIveWAydOW4u9/OoKP5n+DOUNC5PzuUXo/hsVLXsPiBZPhrihAwvZ38Wk3R+Eq730b767fgr8vo+WFdUyjwE7Ok6zHp19QQAIHjJvzGpZ/eAhffL4FCx+6e9GDofAEQHEBYqVJibqg6xHV9Zq2wZ5w8yLTaL3/fSpAyv9uwoVCPTjQjUIzIaBvps4S9hEFzPZywi/N0Ug8NhwmbMEXW+g4EF7PSV3rCoU4B2OMsd+x24PJAT5QGTYgPWePnNBMCesBVP2XZLcGYCYWMGkXqFkNoCBNCO7at2oS3X505bilRnFxGtLTD2LLvkV4/9BKJGu1uGGADYQ15N04KE1r6+cACyMqQmFCy6AZabDPdeQKZTJ2gZWiAbkF8rL9wjHOQ3jaqxiFbYZWR8BxEFBTdFkriO2mWg00dCEePLhngVur+XhyrApI3oq/fPgAnl/9AF76sX0LTxpSE/+IN9dR/sd/xYd741AxyB+P3zdfzqdiFK3EJ18/jJc+/CP+9vVWnK60RtDEZzBazu+O1tascXj+T8/h0wPdHS0dgVkPB8OkOBprXpaWf+6L238Wp+Lku3hn0VTKfwFvrd2GhCpr+Dz6dM9GGd9BjdBYZuGAsI4e+CNigK9vJB5PEj8YCC3h6lKkSAn/NRS0H5opHa3pbK5GRa6c8EtLLBWD94r4TdKo75bXauzQvidjjDH2u9RBy6RAAVPTcJjqh2OYTbicFghzitsaq663BGDmAy2gKwSOWq2Q9Q1CSGEBR6sAWj4ALoMfgZWUhcKyfDQqTGChW4zcsmzomj2OyWOWIlDs1jWBob4HTM0tYUjrLK+j9/1txOVaGFvQmhtQXHVZTgiA3UAKUCuKtZ67kstuNAnj7p0F67piCmCVMDRyaO49btF/oAfshDI6Pw239pmdqYzEOYqdrUNfx6vBz8BtQAQGD5iCINU0DJBnEZXXiMHVYM834E/zuDnPh7cQyMgMzBzhYhQBf6+PsDTQDLUUoA7xegaDhZYa02cw2XUWrZfWbWAIpdIcSh3a9/XNEfqDCPL/k7jewQMcYKBnBhNhIJJGc5d/jigN5cJG2Phh9hihO5wCwXuFrlOJwtgaDqoIBExYjuUPe9Ke14OF/wKE2wgtrRMw7g/0XuhG93agbaAy6lNyg0Yr6ExDsbBJtP65EyZLXe5jJss/sSP8BqWwLL3MpEFICqU07SKuH/jp9CWo9VV45O0PMV0on7j8AozzFbORkJQNtUKFiGWLxHKEP7cII+hgzL8aLc3Qpa7LICiqpKjWmD5nxkxp3uDHENDTVj9hAM7+WEx9ZZKc0EPNjyx4T8bEP78mbmdFgfDs6zbEp2mg8JiMxVNoH495DYtHUdmr0nDqqLSoqLBabK10uE/aV8J6wgNbv2tkSQGhzbC3MS5Y2gfhI9v9TlBpNZ2dtI57FyBAyJ/ytPRdqjfhFJXBJPAxTA/3hKU4M81nZdTxb1oyxhj7XdEagCOrL0Z1f18McxuBEDc/2BrUIzcrHlW6ERjl64ia9K04Xy4FNUOcp8NNJwMxaXEto77rKnWgtPDCMI8RCHINhhtFECV5McgXWg6rr6Pwlht8KS/EPRTD7KygU34dV4viUKL8I55/8BGE2grDg/VhOyQUQYbSwJ5m+jZTca9tPS4kHkGe2K0cTkGVCvfkHMbZYgonNcVoUAbC3y0IQU6OuHVtF7YlVcDa2ZfShqDkcgyKxDVdQWljMNyHuCPIXSgjha9FR5DVrd8IysPlSxW4OZC20TcE4cPDER4QAn8rHVxJPIyWsTZNKSjpR9vo7okRgeEYMXQolKVbcaY4HmmVoQge5odQWjbQpgnxcdcwyGUIBqt8YVe5BYkmL2H++DEYQ8uFB9A8Tkaoyj2Jbw9+jAJhuxVTMOvRSXhA/Gx6eQ7FwNps/HRoFaIrezkAp0MFuFrvBj8vN3gFhyE02Acqo1rsP/otUmop3c8PQaPCEORphuIf46F2d4a9nRtcLYrwQ4YKs+ZOxOhwWk4eGGJcn40Tu1fj+4zmMhYgvcwOXsL6g0bK8zmgIXkPzpdMwLNvLcQjEZTmZUmBKsVrjtK6AoX1U7kb0qJwhcrn6uYJv5Gj5eXdYFwZj5iL9E1nnEOhUSB8/QMRcm8Y/CjAu3E+Eps+348y8fOlATjKgtb9YN9m0E7XZRBkFhrB2VUF94BgqQy0n4wLt+FETx5hvVsDcEYFw2OQDqrT9mPDp9tQ3FCNq2c0GOjng8ARwv5xhlKdhqhP3sURMZKX0XfS5OQJDw/6TsXvLBheJkXYH3tOyq9MQwXtSw9PTwSOlPaBn0MTkg/HyPuSpJVCzysYPu4+4nHhN9QS/Qr2ICFPKEMBmuw84esXiCD6LsT107GfQcu3H5/GGGPs96WTv4DDGGOMMcZY1zrp5maMMcYYY6xrHEwyxhhjjLFe42CSMcYYY4z1GgeTjDHGGGOs1ziYZIwxxhhjvcbBJGOMMcYY6zUOJhljjDHGWK/12WBS+eRGzIiMxdz9sZixfIacyhhjjDHG+pI+GkwuwKhHXWFcfBKRy95E5MYYOZ0xxhhjjPUlfbqbW1N4BYWJh6HOzZdTGGOMMcZYX9JHg8ldyLgG6LkEwlZOYYwxxhhjfU8fDSbzkZ2ZDxg6YXCYnMQYY4wxxvqcPhlM6gyfC19vc0BzHYWJciJjjDHGGOtz+qncR92S3/cJ5sujMDVED1VZF3H2k3eRlszPSzLGGGOM9VV9LpgU2U+C04sLMNa3CnEvTMOFLDmdMcYYY4z1KX3zmcncfSgp08gTjDHGGGOsr+qjA3DGws3djILKJKRwqyRjjDHGWJ/VR4PJQFhZAeqCVHD7JGOMMcZY39VHg8nDSL2qgXL4AszYGImJS6bK6YwxxhhjrC/RMbNweEN+34fko/RYEvLqTdHfpArXjx9F0TUe1c0YY4wx1tf0zdHcjDHGGGPsd6GPdnMzxhhjjLHfAw4mGWOMMcZYr3EwyRhjjDHGeo2DScYYY4wx1mscTDLGGGOMsV7jYJKxX4mBYQQsFPIE+39sJAYv34lZkbGYuz8KoyLkZC2K/mGw7m8tT7HfM6VNGFxsevpdzsCofwvHRyxmrVuDwe5yMmO/U/zTQHeZlcfHmOOlBGrzER29DHG1coY2nemYOXk8HHXoPc0Xd/ITRJd2/Dua+jYr8PwoG+QdfxM78v9bf2szBBEPzKN/E7DxyCcolFPbCsG48fMQaAzUZB7El2d3oEbO6RMGvIEVcyiAqEzEhxtfRaqcfLtpmPPcfLilr8Nfftopp3XFGoZhb2DEcBXM6dATNFRkI/77pcjOK5ASfnHW0DH3hKIxG3UVaXJad02Dx8L58DGUJ4lQ/nOHliLjag/Kr+sPhflAoCIaDXVyWht3KGPoRkwf4yBPALk/P4ATJ+SJHrGB07+2YiwFByVx+xDzv/GouhIDTZuDcT5efHEavBXZ2PXhHByRU7tLvCm5pwwFVYlokNP6jsew8JN5cElbj5c++E5Ou9us4T5tOeZOUMFEuDlrqkb+hShs+mA90qUZWigDX8Pip8PgYKInTlfEr8Ura1RYvmUCEDUOb20Tk4FR7+Gj+X4o1k7rlnl4/cvH4ELf5aGnnsMOOVWk9IPLEDM0XI9Gdqmc1sIGel7eMB46DiOeHAlbnUz89PKTSOM/H8x+p7hl8i4rvPI+Pou+jHIDG3jZusip7TTF48DhVfgs6iBSb9ogxHM89OUs1lsXcfTnVYhMb4ChkwdUcmqfUZ2M1PxqFGddwjU56W7Rf+AjTLhXBf2SWPy4dSUid0UjX+EAN/9weY5fQzhcn1yKyQ9Pkad7riZ1JyK/FMr/A7LucUDQlDdgLud1y+CZuP/ZpQgKkKdvc4cyJqyTPnvfpf/sJmTiCoxy10N5zGrsfms1ShLbB5KCc0jKqEZlTtodbio6N2bCUix9fCaGyNP/bZQTXsML/6OCIjcam99bix2nq2Hh/xjmPk8BojblPCx8IQIOoEBv47tY9d67WPN1pJx5t5xDCn2X6tw0XJZTWvjPxMIlr+HpdsWS5EOTfBgl37+K/ctiUKjnhJC5s+U8xn5/OJi825qyUa6RmiOr1e3vk5ulo7yaAs7qNJQLTQuNanTYkELq8t/EB9/98b+4VVIQh+gjz+KdTlslBbQP62mfamiHNjR0uj9/Mzd3Yvu3D+NvP351d1uTdP8EnwAz3MzYif1fv4GSrGjUpa7EqbVP4vC+7rZs9g1NDaWoKxTK/y8kxGcDenowkPN+cXVx0mdX1aNJTuoN2zBXKDVXkPjJPjmlI3GIOfAw/rJrJXLkFNZd1pgU5gml+hL2rHgXx5IiceizJTiUBlgMm4D75LlEk4PhoqjGxe0vYMfP0UhJ6qiF8D91GnvenoqXlr5Lt7O9lPJXnL2ggdJrNJzkJMZ+b7ibuwPm7qsxzzELO+KBUUG+sBO632qzceDQmzgvRALWS/HnETZIPfonHBAqJ7PF+HOECqnRf5Sm7Vbg9ZEmiD8WD1PvcLgMVFDAWIG46GWIrlTTDDLdp/HUw+HQP7cK69O07mutluLVcBfoCu9r83Hi2ErEaC8nUsJ88MuY4usCK+GKS99iTWEcdh1fj7xufaNKmNq8gKl+HrAStq9JjbyLO7Al7ZiYa+f1MZ5yL0bkrjeRLKY0d+EX48B3tB/EFBNYOQplcIB5f5qkdaSf/hA78tKl5T2UVK4GFJ77Ct/WTcCzwQ4wpNuXkuRN2K8z/Y7561MqMDpiIULNaL20PeXX9mFL4p6OW410wzFsaAQCHWxgbqSAbuExfBC7SQ4oOy9jl1w/x0eTVLi27wF8eEVO6/8GVrwYBt3T/8LfYn+g27FpePSRWRg92AgKKntDaRoid7+BI5Vy96zV+/jnLH8MkKaArB/w/K5/yRPknil4cPIzeNCJlqfJ4oRoZLhGdL+bO+BzPDLBAdf2PoTzzV+UNuf3MeEJ6fPzT32MDJv5CHHUg05jKS7ueQmXxW5kFQY+9AZCva1hSAddk6YaGUc/QsLpaHEVQje0z8L58BCOk5saVJZl49K+N1q60O1nH0Gonfi2rZpERK15FZXCe/1ZcJs1Dd5WRhCe7mioSMOpHW8gv0hYh9TNPSR3J36MvQqY+sNz3IOwL/8BP3z9Lzn4tsaAiJUIHe6AAbeV8RWELqX5xfnaqkxah6jInd0ro0DeX5UddnN3tZ/GYvjGFfCvO4wNL7wpp2l7Ba8uerC1RVF45OEL7UcepHwkxkLhGobBwv6uKUBM5GJszy+A233f42V/I2nWNrIRuXoO6GjsUsifd2OuKhtxuQ4I8ZDWVXElEp++vVbsIhbz/Utbu2zbd//O/AJf3K+H/FJr2FhpkB2fBpNAT5jUZePQW7RMrtzNnXsO+Y5+cBEeu2iqRnb0Jqz6OpJu+QQq3LdgOR4JtIZSPBiqkR61Fmt2RlO+tLyPMaUXxuLTRAc8PdZBnK8ifj3+tgaYS/nuhd/h+bfWi2sT2MzZgr+P0UPcezOwIUk7TXN79zMWddnN3dV+al5Hy4MRVeew4cUldJsgaJenRZ3YSff/3G8w92ELXHhnAuJi5TTGfke4ZbID9qYmFKCoMDHQFGlxn8jd1g4IVYVQrg1CXFygX5+FZPku19TMEvqoQIl8RbIztaB/FXD39kV1ylZ8diSOAjwThLhNkmZoZuUIO6o+MwvbdZCURGFb1CppOV0bhHq2W45Yub+NeRR81V3ZgY37VmHL2WzAMgAhVsJnd03f5lU8M0oFZO6h5T/BgRwqt990jBMqcVJTT9V+PyWMxIhWYmFEV4aqckghhA28gv6JOQEWKE8SyrAJcWVKuHhPghXllmQKaTtwvlpBZX0Ss4aU4+DhTYgpbIC5VwQsu8j3wgWcP70Jn1HZdqerYeoSgVFy2VpRQO30Nv485WmMG6xA7qUEZGmAuqp8OZC8cxm7dOUYkih6HeI6X04ABvioKKwpRfIF4dJtjdEPPYMHBgNJBz7Gym+jkdNfhUenvwI3aXagaBs++GIlVn6xE4lVcpqWwaGzMHmIHgpOfIWVG79CjJEnvHvSHKevR0daKco66y/N2YYfv9yJVNqOAY4PwqbqB0Rt/QEZGjP43DtHDOx0xryBsX5mqLywFfu//BjHrmjg+MBL8HCWVkHRDVK2rxS7gQ8fOo18ukyOeKK1Czr/eyFP+gzkx0rdxcLrm21ykOYPh1nPYNjAaiRFfozIrXuR0uiA8JmvtAbZxNBtGiY/uxSTH30Qg0rjcObo3tZW3IA3cP8IBzSl76UyfoUzRXpQtZRxL85odVHnn5Y/n14//ijdHHVdxq51vZ/M0V/47prqpcnb7MVX4rGwEkfy5KQODHGlm4NDwvEUixxdOsYi/gg6xHDtxKrWZasu4Rt5XSu/WIefxSW7ydgT7jqxYhfxnsvVMHGdgOn/I+d1h4KCyW1P4adcPdiYpOFv2y6hQd8B7mFyPlGoKJT6mQLI9zbhEEVfDmPn4YX7pTyb2csxK9gMFae34VOhDEkaOPzPAswdJeTGYseadymtmk5vFcarSnHws7U4lKahoHUyHrF3gAnVAw1VbZsY8+voxIcelFR1mzhHUN0bgQALIQjUgwG9F6bdvYPp1rIH7rifIrHpPanr/NhtnUZy3s5LYvCcf1SaT+xm395JpJhZIs6rKz3aydjvDgeTtwmBlVDj6FbgePSbOFGagPLSi8hqHkijOx5uNhQspR1C87PSVia0QPV15DYKU0pYD5Ba3FLOvIkDecdQXn4eBUJ0I1y5tbhZ04pqs5DaPshoTECe0A1eUQSqUun/dk9l687CeC8TlF/6CtuuHkRh3WXkZb2JTyP/gt0FxfJMdxKCe30doJt5EBsv76PlE3A+NQ3lVHYL+epeXiNUbUqYtAQ24+E4iIpWnC51NZvOwv2OQOqJv2BHBpWhQQF9oeWvrhbCpbSu5hittwh1Qp+hbj6Ox65BavUxJFw4iEOnTyGzi3zhellO0+VUtuIaCiluFaNQ2BlaDO1exVPDLVAS/wneP7QMh4qoWFSGwlIpgOiqjF3bijPXNFA4+2O0OO2PsUOtgbxzOCBGILMQrNJD7eW9WH9lL3LyVuLDUxRqDxiKUfTVim4moqCSgszKUjTe1mJMAfIQMyH6wdrTW2merTgSlYj8dsfJf6QxEQ2FpRAutYbKElykYK4m61+4lkMpRgNhKAR64jb9iGNRX6GmcC9uRO5EWo0R7L2any1Mo3VQwEDHd23eUaSeTEONnjUGyUFUU0U06uTPwM0qqbtYeJUkivkwngJHit5zTyxGatJe1GV9jMvRyagxHAo7+n6aCa2IO1Y+QK8n8XOyMbxnfYQRwf5ino2XCoq6S0jYReUv3IrsrbHIhRGG+E6jXKF8rV3UTWr58+nVUCPd+nRZxi51Zz91JQ3F4rEQDbVYV3SsMu0HbM8Qjqc3EJlCB72BIZ2JFEDVU3DZvOyt+pZ15VTGoaNxfp0rQMLq1WIX8f41ws0B3ZDcdqN2J9UoTixAw00hqCuAukojBf3aV5OsaLyzfRtSkrZhx2rpM2y8J1OGH8Z5037MpvzPNiFBKMMH3yGlyggOw4X8AuRfiUaxsEJjPVT87xLsPx2JHafpO6bv20LreOnM+Gdfw+Ilr+ERbyGYtEY4vRemFy+ZR7VYT9xpP6UhO0nqOq9tueNpJueVikcbGuh4FOYTXun50vF4Gzpw/5PHKxj7rXEw2V4/FSyowqi5Fo345krCQAV7CqoqKi8ClnJrYsEFOXM8XKwVlFksBkBAIMwptmzMOoZDzV3T/WxhpN8+KAyHo6UCjQUpLUFpe/oOgXBTVOBSptR50sJSBbt+aqTntk1vbKqQ33VB1wPWtI15hQflBNJPaEttQF3zRa66vE1waegUgWEGaiSnS8+CmVvbwrCRqneHVzE9bDVenTwLXrfSEXliPS3XTAVrU4rdMuORLAdSdZV7EJ9zUJ6nq3xBBEJUJrQ/L+B8m2BsEsYPd0DT1T3YkpkgpuhbOcCcvpviCmm/d6+Md5YYn4hihQr+rjTRfwq8KUjMoYt9S2uW0LWtaY1yG27kU54RzLvVQGwOpdASoalqXd/NbJS0C5rvqE64kJthYEtT6B1Ul7Y8S1qy6yHsELt3VdAXIhW7BzF96RH5JXVp69wjN5MM/QfGLPoGj85fKrUcTvKkILQHLAzF+e3HfNP6GdP8pXV0WAMVoO7cV0gr0oODh/S7OjrCfE31rS2VjVdRVUPHpWlHnYm/hG7sJ5SgvmdRXccoSGsmBGx3Hx0zctUEtRwI3mVtWg7lz1CI+0kFU2E/OkzAR1sO4QvxJXVrS/nahKBVfhv1Mp5/airWHM9GBd18K/TbdvcrdcQTCWqqAncsG4fnnhqHDYnCiSSMspamn7utu/t2DULLdYtffj+1cDFHj+J5xvoYDibbM7aABVUbuTean4NywbBhPjCvT0f8dTWsxC7sYhQ2tyZaUcBHgWZ5ufxTI7ousKZ6rrD4lDQNEzh6RcBNtxgJaVrBn74HnGi+vJbPaU8JL1uKXIpTcL79Beo//dYMTG4LBsytHGF4iwLiEjmhKh9CaGpiHEA193RM8bFAHQXI0XIUptuPAuhbFLgVpyE9/SC27FuE9w+tRLJ2jTvAhvalsI1aQau2rvIFA3ygMmxAes4eOUFm7AIrBX1PBfKy/cJxr7vQHEjfjRyZdauMXSmNRSpdF4WubrGLuyENxxO1WrPoYq/Qa72wKQbZYABdBEu600BMwQddowA949bu3nsoIG57nbyzq9m0xXoYErxUfOay546hRthfZYmIau76lV9SF3EEVA+EYGBZNCJXC62G9NqZ2LMRzzllYrBccuGrNuuP/HIVrnRzBEqTEFTp9G/dRt2hMKaDuKY8W074pXW1nwSHUVxG/9k4wVZKYEQ5wUE8z/OvCc8KxtLNHv1Xeg6b5a7fLruA24hFPu1jhaOf1mAba4x3tqYbqwJkyc9LdofSROsHQI2Fx0Wqoe7WeXv3mdvI15XOLgeM9XEcTLajb2ZLgVYFStQesLOah+njl+IhGzXiYj5E6i2gXrxVtYCjVQCszObhKT8T1NANsL4+LadLt9wDLGBOwWh1vSnlz8JD4f/ETDcg9fh6xHUQxJiYR8BKXxhAMr3j5/gM6LOMPGhd0+HS3OVcU0MXcyVcVNNhR0Gp8DnjRnyMOUN95Rm6UE2BIm2Lo9sLcKN129ktxXRfodv8IOJaut/yUSxsl3E4pt4/Ho61F7Dj7I6Wlq3Csnw0KkxgQUFyblk2dM0ex+QxSxEoPmNJwSqVy9TcUtyX5XX0vn9zv6+gq/z2FDA1DYepsJ9stH/uRk43moRx986CUz1dpW4pYWjkIA5eunMZu+sHRCYVQOEcjgVu1mjISsaJltairTidpoGBxxTMc52CwbQfXx5BF7XKqzguP0cl/Dj14AER9DKj4JYSdI2laWN/Kn00jl+jSNUmGAuCZ1H6LDzwUAgG96S/q2olzl+ohsImAuOeeR/2bhHQt4rAwIB/wMGLymIYRtNmFG6Se4zFPEWb36EqQPb5NDQM9Ef4uPsxwFRK1bG0gY7cRSxQGFljAC1r6P0GRkR4QYfWONDjTxhgSJ8hShPPA1j6w817ivg5+m70v5DVuBFpGRqY+06Dn7+XPELbGIamxmjS6u7VUZhJy1lNwaDJr8PPkmK3oktiXn4ylVHfEwGP/gmGVrPgMCsM9nTxv3ZBa5ASRXJCkGvl8Q+YO8r7wfFBKU90hzI2KxbOLWEdb2CguL10EyE2GXVvP2UmXkGTgTe8nuzgeFbQdyseCxFQCsdgv/6wEKdDejRqvaBSeERhKB7wEo4ZWt5yGoYIj2/cBdmlwg6yhs9zM+HuPROzJ3uKXewmjgsQIgyG6y76Lt29J2Pc7A+xfBqto+IcovcKGQXYE0f70cwP06ZFwEWIoYjS3hpKoQtY+G1G7+Yf95efd3TW/qGvAuw7Q8srPTFp2SKEC5/x/HsYR7MUJ0bhkDzXnQndzVSLD38acydMhnvwAiye6AmFOhsXjsuzdMUsWH4OMwIGclkt2j+XmVUq3pDbDHsb44KlecNHdvA7QYZz4eVthKaUBDpCGft90jGzcHhDfs+IneNj8DGnC74qFMPshB+cPYXIkx/jnPgModANqw8zW194uQbDf7AxMuI+x0/1vvB384VHUwbS+gdjpLUxLBxCKd8eisqLiDr2PmLLb4jLt2i8jmpFIHxUfgh084Nz/34ozD+GwpaLawPyK60xxMkHgR7CuujKWpyG1Gq6La87h1yNP7xd/RDkLn1O/+orOHMtBoWa7jwNmIxrZd5wG+IKf1faThsdFCZFYkdqtFZXTgMsrCMw1N4KRhUJ2HH0Y+Rod7lVX0fhLTf4eoxACJVhmJ0VdMqv42pRHEqUf8TzDz6CUFvhKqwP2yGhCDJsQGyuPNx4QBf52uqLUd3fF8Pc6HNoP9ka1CM3Kx5VmmK6oATSfg9CkJMjbl3bhS0XSmHtLHwXQ1ByOQZFdyqjVhDTlfoSdwwL9qEAUIMLPy3EGeEKIapGFgWT+nQ8BA8PxxgfZxhVp+H7797BmXrhogwMvfcjvDrxfoQHeMFGuOAPcKD34QgfaonUhMO4lqvBzUFUZp8QjPH3x6DMk0gxcYZFWTyOZEqBVFfqr/yMzFu+tO1DoRo2Bh60ficHUyhqilDu9iImTvCHhRBNGjvAjfKM67cgR7tFMP8sMqvoMz184Skv7+pig5rM3SitykBphRvMPPzhI6aboehEPOpcnDHY2h2DjIqQliqUswAVN+yhVLlh6LBQcR1uno6ovLQb5bXVqEnJR5GJF5w9hsMziPICQuBoeRPZCT/TkeYFyxHDYW/jJZZPyHOy0EHltX04tm8rGoXjjsp4XTEcjt4h8BnuDxv9Wlz76SNcTM4QN0GkuYqSW8NhNdQLnv7CesLhYnMTV+gzpEP3TmUUZ6B1pKDcIBSOKk+4BQrbO5QC9q3Iv055d9xP0uK40ASdB8Io7wHco76C61e0Rmd4/R3/nDZJ/P6HCE3R/S3hS+/DA4ai/uReCiRCMWrkUCgLWr97C+cZGGFWilN0rDR3GhQUGsHKdii8h9ExQ2UMH+YLk7ytONONZzfsRz6OQJtapO+JlH+lYSRGP0KRWNrXiLlIR/T5WhgHBsPHNxChIzyhl3wJ1YOtYWHpBkvQPJiMyTS7sDwi/gCH2nj8kGeHB4dbQy2uQ4XAccFwcPRE6KhgeA02QEViJNa9/670SxikITUe6Y3OcPX1QdCI0TRfGII8rdEvew8SHBbhzYWPwXeQcMAawZHyQl10EBl9UlqYiMvrUr0YFIyQe+kzbIEb5yOx8eNvITQMN7t9W5sV4GKmAR2LdHMSSusPdoNJfTaObnwLkfnSedvVfsIjb+Ld2RPFsjsK1Rh9lx5CWUep0K95mco0VBgFwsPTE4Ejhbww+Dk0IflwTGs5LabC/71n4WtRi6TNLyJP63Bm7PeEfxqoDQ+MHrMYofXReOfkVjmNMcZ6wGI2hr8zG/62FBA1lSLxvck4yz/3wtqYiuEbF8Ff6I6iYyR18zs4uqs1YGbs94aDyTYmYeqUR2CftgkfJR+T0xhjrOd0hk6FbbgTND+uRiH/mTzWRiCsZo+FXnoMrsee5JHc7HePg0ltRi/i+QkBqIj7E7blNA/jY4wxxhhjneFgkjHGGGOM9RqP5maMMcYYY73GwSRjjDHGGOs1DiYZY4wxxlivcTDJGGOMMcZ6jYPJO1A+uREzImMxd38sZiyfIacyxhhjjLFmHEx2agFGPeoK4+KTiFz2JiI3xsjpjDHGGGOsGQeTXdAUXkFh4mGoc7X+LBpjjDHGGBNxMNmpXci4Bui5BMJWTmGMMcYYY21xMNmpfGRn5gOGThgcJicxxhhjjLE2OJjshM7wufD1Ngc011GYKCcyxhhjjLE2+M8pdsB8eRSmhuihKusizn7yLtKS+XlJxhhjjLGOcDDZGftJcHpxAcb6ViHuhWm4kCWnM8YYY4yxFtzN3ZncfSgp08gTjDHGGGOsIxxMdmos3NzNKKhMQgq3SjLGGGOMdYiDyU4FwsoKUBekgtsnGWOMMcY6xsFkpw4j9aoGyuELMGNjJCYumSqnM8YYY4yxZjpmFg5vyO9ZG/koPZaEvHpT9DepwvXjR1F0jUd1M8YYY4xp49HcjDHGGGOs17ibmzHGGGOM9RoHk4wxxhhjrNc4mGSMMcYYY73GwSRjjDHGGOs1DiYZ+28x9xvM/fg1eYIxxhi7OziYZP8dDMOgMLSWJ34bOiYRUOjLE78E9wUYtS4Kc/bHYu6/18BcTv6vY6sDQ1v5PeuU7hBdGJrJE+wXMhKq96IwVzgn90dhVISczO4+pR9cXP2glCe7LWwNZojfTyxmffhaz5fvCWU/GLr1kyf6khkY9W95H6xbg8HucnIP8E8D9VWqeXhhzgT42BhBoUPTTdXIvxCFTR+sR7o0x2/oMSz8ZB58jOXJqnPY8OISxMmT/7lp8Fg4Hz7lP2DH5n/JaRL9cTsweXg1Tqycg1w5rWvzEbB4GlR62ThGy7X9tVBr6Jh7QtGYjbqKNDmtu6RyOmasQ1TkTjmtE1ZvYMyzYRhUlYj9H7+KGjn5rjFcgLHfzIBTUz4u7fo3LlzIQlVyvJQnBJl/ngQ3eyOIh1JNKTKiN+Gnz3dL+cTt41jcaxGP3U/kY8T+SbBK2Y6Nr6yVc4lKidFz7RFiawBdcSUa5J3Pwner1Hd/WzpjpgNTO6AuvQl1ajntNkpM2TwUXooy7J2ZjWQ59ddgtdgNzwZo3S2I+ygHez+tRrlaH+PXuSGw5ZwpwJfzC1EoT95V3dlPPhZ49nU7WJUXYP0LhSiWk/9z7bYTt9BYXomYbzMRFyMndUdX2yBclF3oQMxrBB3ObbT9HuoQ/1kqDh6TJ39tT2zEnCddUR67AYejMlF/JQaaX+uEmfkFvpgAHHrqOeyQk+46s5l44S+PIYCuU4KGimzEblqGrfEF4nSrYIz78wJM8rWGUqg/kC2WK+vPuzFXldbm+jH97UMYN7Dn15SJy/bhEVc9ZB8Yh7e2y4kyE+cI2ChKkX3lHG4/nFyh9HeEQdg8TJlgg5xvwnD433JWD+i76UK/oQnl1zoPqVxWeONxNx2k7zuPb7fJib+WCAqaXwlE1fdhOGUThakhGiQum4yziUKmDfS8vGE8dBxGPDmS7scz8dPLTyKtB39Kmlsm+yLlPLy+hE5QKw3SD27CqvfWYs8FDSy8gxFoL8/zm4rFjjXvUrnexbFf5Hfcd6KqXH7bjp6+Hl0fqlErT3fPOeTnVKMyLw1lckqrcLg+uRSTH54iT/9CSpKRW1iNstxLv0jwZfv6VDjplSLx/Wk4/u/drYEkVRKquTPgOagKF87SVfd6EhKv60E1fipUjvIsHVBXaIUXSiNMWToUo6ybkPzDFXz6zmXsOq+BOQUkToPleX4NDw3GC6+rMDpQnu5QPdKu1aImp+qXCdS6UlWEXe8ki/vo29gamAa4YPYioa2jDjGrhfRkxFyXZv3FdGc/pVcj7XodijOr7mIg2armYrq4rZ9+kUU3vya4f44dXOS8bulqGwIHYfbrXpjykDytpXBbmvTZMZVyym9Ng+LLm1GV+CsGkr+KYPoOnkaAhQYXd63Fqo1RFCI64L4XlmNiu+Y9n+cXYbq/GSpOb8OndN1Y9fZa7JPz7paUy9moqMpGeqqcoGX8s69h8cKZ8JGn27oCdeJhlKRcp9oD0DGQUntGH6MXeeGFuQPk6Y4VXCpDcVUFMlPkhN9UJR2T8lvkQ5NM++D7V7F/WQwK9ZwQMne2nNc9HEz2QT5zIuCiX4q4tTOwavs2pCRFYv8HL+OVP9EdZveb435BBci/Ek3likZtg5x0l2mEP4huag3h1NT3XgqH4Gliq5q+Id0BN9TTpbkn4pD/7cOI2ryyh8vdRY07kfblwzi85ys54W6aC5W7HppSfsbZ227lR8NK6PLNjcfZXLq41mUi8eVnsOHJzu46M1He7hpsMdcWXvo1OL4mHfu31aL8ogapq9Kx+vlsJOfIM/UZFPC+eQVr/kKVtpzy62qi/dMo7qP0ddnYe6kRhkPN4UY5dalCeiOqf6FzpkfUFNwuTsX69zpt4v2PNDRI21oeXYFdJyoAhQJS29Wv4Lr8HdT0gU63yCTkaPQweHjPLsy/C6MeQ6AVhSFH38WavZFI+Xk13tl4GhUKFUZM85NnEkxGuKcZkB2Ndz7bhAS6bqR02EL4n0nf9QJeefE5bG0JkHrGdLgzlFT/ZXwrJ/wCanbmYf38TMQlyAm/kZL8O9SOKX/F2QsaKL1Gw0lO6g5d+X/WZ0RgxBA68Qpjsa/NSVEAtfbZp1qAxS9MgLuFnjipzj+NPf9chp/ELp9FWL5lApAYC4VbGGyEu0R1AeK2LcGGo1L3g9JjAd1FUdA6UO5GF1Sdw+YXl0DqEbJG+HNv4+FRDjAR8huqkR61Fmt2Rne7EhA+YyGV0cWkozLeWV1NtfzOGoOCaJ9YOuDn0zuhJ6yqsgA1zV3hhjRdFIv9yQ64/14H6NPtUcmFdfhxn9Dt/ApClz6IlsbcmkRErXmV7sck9rOPINROnjB8ENNpXpH2fPqz4DZrGrytpC7ihoo0nNrxBvKL2nfjdML5fUx4wl8MikV57bruQzdi+hjg4mk9DB1uLZa/rjAOP2/+Kyob5Xks/4SA6Q/CmfajUIYayj+x9a8oa46M/V1hRXfThVc76pu5iiphQ+y94ZnTX0oSOvo7aiGprkaV/LaVLryGCCvPub0CbD4QnnTC0odM6E0jzm9LR90EV4SY9aP8Uux/NwfnhacHzAwweind7drq0RqFrs8S7F+bh+RL4hqA2bSO8cI6aC11tcg9n4u9a+Qu9HArvPC8NUzFXCDw+WH0kt5nHjiPbd8I70wwc5tTa+V3WzeylI+EPCjcbWGnFMpXieNfZyBG7n41nGSFxx62asmLSbmF0QHA/pmZOC/N0mO1dfQl0gnW3Udl7ZZ4YLafcJDTPqpSI/UEBaSbhTsrmecATJxvAzczfei3nLeF2Dy/AHnd2U/t5kFWJla+TsGeFt3QgXj0STu4mEof0Ej74vz32Ti4r0mc7g6FQhemPnR5sTTE/aEDUHctC9oPkdjNd8KUMBOIH9FQi+QD17D3W9pXXW5D2+/Z9KFhdOxJ78sTUvHpqm7eLnZ1PCrpuF/ohAeGKmGo3/yMmwbxX1zGwWh5sjtqYlBYPBVOTgG0TZvR2uHSVR0t5VskrsdLH3wnLtG2+1d61MimIhsm9g5QlJ5DQoUnApz1UHF6PV5ZKy0jsFmwHV8ESw/HqvPPYd+GJTgkfhnWcJ+2HHMnqGCioEnhUar477Bq7TaIR4TYTe5AbzRI2b4J6nHzECCsRp2NQ6uew74h1hR8leJi/DlhbkliGvLrguHiGEwTzelmUFLVoy7J7nkAKXfVXzyuB5cRUhe5cB3Z+eYyHJNXJu4XoZiialxcNxVrjktTIUI3un/zbYwf5m45RLfeAqmbvbX7PxAO4nU3Fdd72Ho87J1hmNjcy2NM9Vhz97VWHdRmnvaPXojHvDHKqX52GqyD4nOFqPCyhss9tTi+/gpixPn6wYmOxynDB8Cw/Tkjovz5jhgXYgSLloqBzpmDF7Bts/ZNlUboPKHzUprqzPVr1wFfW1iF0Tpi5UTRWPhuWIGQgVdwePYcZGrtK/7b3H1OIMInB8I4Nwo7TzTXbO1NwNxlT8PPpAjHNq/F/mtGcPUPRKCPJRKiT9LpNBKjH1HBga7Nl77/GtvPaODs7wl3Z0tcORiDYgpYn176LC1fivN7v8PWfVE4cTwWJ06cRkpJAYSGE+WU97D4QWc0pEZi41e0Tic/BAQHwv7Gt4jTao3yivgDXAwKkHDgMPLkNMlMLHz7cbjezMChbeuxJ5HKMDwMI4Y1l/HO6s3HwctViRvHNDAa7Q49KlT15SYYhoTApOQ0Ui//iLK0FNww9oeTOQXEihtI/uE7XKdpN3dHiot3o0JThIIrF3A18RgqbcJh178AaXGHxa4MQU1mLtIuUsXt5gWLklhE7vgGqTRv6rkzqKkVKnR/OMxeguEDqcLc/xVOny1A05DhCPJXIUdcjxcsRwyHaXk80lI7+a6qi5GVcpbKIH9OXRqSz5+UM8ngKfByooAdyTi+bwvS64ZiiJs7BipykXktg2aYhWHzZsAVGTi173MkXm6AiVc4fFwscZXWI1YTnpPgG2oLzeWPcPW2O958FNZ7wCnIB24uxnTG03YXX0ZJVomcL9H0H4yKq6dRkJIFjZEuSi6fQqn4t+j14P6IBUyyC3D8eHPF1U5uFS6er4dt+EAoTW9BLykP26Pr4RAyCK4WlYiLbULI3z0x2rIGJ/99Dft+qoSulw3uC+uHK/tqpICxiNYRX4QzCRUovkcPXiPt4DqoBIlnbwLFalxKLkbCTX0EOfXD+W9TsPt/ad7YIlxKuCnUq0SDa1doHkpTuwyCU/9qJDavW6QPn0dN4WRyCxd3Z2Df6TrYBgyCl3MTLkapUaccgMlLBsO5rhi71mXiZJYOfMPNYKbQ4Oqu8m51mRuFWiDAvK7N5zpNsIG7ohIn97UG6tYPWMPVoH35JLX55TgfR9uWWoU6I0P4hNLNVOMNpIpdd7oYtYwCdVM14vdkITKyQNwHZ2KrUCR8nd3ZT83z0DJ6fmawri3HsR+bzwiiMsMf/uIAq6oSHPx3Jo4kqKE/xAIezg24erC2G8GALlT/YwHHwWYICh+EoAAT6F7Px48HypDXXG88MhhzHxqIxpR0bP2iGEVOZhgZQsfOjRKkx3e1DfL3fL0fPL0NURSTjG/+LeUnnNagQftuyNcU4UN1kX+W1pstp4n6dXk8mj7njD8EGaAoMQN7tuTjhLifaT0XKfDsdsuyK4wfng3/0MHQyz2KuEOn5XRBV3W0lK8siMcPp6S6pW1d64kRE6k+rojBK7trMZpu+os3vYW0IWPhaq2D3B8OI99nMiarHGCsuYg9W79GTJoenIMCMcLDDmeOxKL6/rexfLobbqZH4dsvv8N5jQoB4aPha3ARMUK9mFeAKxdomVHO0Dc1gH7Sfmz4WQPXYE+4mDehUN8PgTYVuLQuUuvZZBWCJgTCpiEbkadq4eLmCatBPggaTTf6JRnIqDCBxSBnmOjUooxuXu1HPo5As9I2148229m8DbiEfbQNZ+tU8PN2g8PAPByJF+pHqn4y8nDxDF2/mlQIddTDjfjWa1RZFt0gJJ6kejsMjrSOPWu+xH7hWnf8JM7dyGu5Fgj1pF74k1DZDcA991ShMOMKmrr5PZdklNA5K59PJTn4dG2ueDyeia1GiVzNSvNQmnhc67Q9Jh2NEBRkgoroZOyvN0OoQw2++3s5rMeZww5lOHOqCfpznDHvXjreT6Vj5zc3kGFsjJD7LDBAOGeE9Uyxw5yJZvRd0k341lwc/Uk+Z6j+lOpHctMUdTfzcf3YSdRUmqOuOgt5ZxOo5uyA+Wh4jLBA5elvkCPtZpkLrCaPgb1BCa59vxflWvuIu7l/j4Ij4G5B14Xjq7H552gk7F2C/ZeroXDwQ4TWsyrqtChsiBK6H97CIcpHfyMKWrQ0aFBTX42Gkktil7V218OkABUUdZdw8J21SEjahq0rY+l0M4LLyMfkObowge5OlXSXuP0F7KAypvz8LlYdL6AyeiJcnuWO6ujCQIGMwtgBA3EVBZVGMLLWE49YTYMQilJgVxKNOuFgNtRD5c+v4kbWXuReSKP7PiMY0v4B0tBQSPPQq4FikvaaKoS8UulkukkXb3neuhK5Sdh4ChytqLI6sRipSXtRl/UxLtMJX2M4FHZ3eN6wjcZEuQzy53SoGhkn/koBXjTKjuxFGl3N9JXyWGyvEDgK+3HfH5GbSutJXYlTFNQq7LwwSJqja4dfxe657+LwBdpvA1xx75LPMXXJDDlTUvX9m3RRE55iikfh5jeRdrj5mctuKBW6FZvEmxArOp6+3ViL8uhiJFEEZjiAvrPBA+FuS3e4hzMQc0CD8rhqHNxdjBpjE3iHSKsQuybzKDRWa5AVcx1n6cbYykFodibqW6hp6ba8icZSuQuVXq2DL+R56HWnbuSaKwVSGaJLcSSZvhG6ixfba8ebwEXRiPP7riM1rhGFB4rwc0o3ryZt6IgtcqY+enBb7ILxKh2Up5S3u9HqXOM12oYS2s6iOiTvK0RqlQ7shra2a4pdSQ23UFdP+7tE3g+pcstDd/ZT8zz06ujWwHSCGV3AKnF81XWcj6b5oiuw//UkrP5zaY8eGxBaCVfOPE+vC9h2RoHRC7zw+Eyphc8r0Az6dUU48HY1Ci/WIv7vBcikYN99JG1nl9sg59MxJ3w7DTVa+d19FrU7x6OOUFb6DDWVQdP86MKdBn61J4yO3YgZT/qgKXE3di7XGsympcs6ugsNVQVQiw3G1ShOPIdaITqiOlJoaJTQjfDOZTh0mq4TUfS/8Bk2KrEOHhdMwWrVOex4ezWOUf1/bPMyxOUCDm7ykPPS03RdoOsDvRVugldt3kbl/A6X6bxWDujGL2P4z8TCJa9h8ZIw2NCk0vsxei9Mv4aFM8KkebqlGumHpG049gXtK7phUCqlllZBRYb0yFUK1R3tqfNjtR7H0qBYmE98nZZaX7XkvPkmok5XYvCjr2H2F93/NQzxnKXjQzyfhAE48vHYcl6S5nk6f/SiAdUUvzfepAtVFZUzRzq+oSOEaP0wzGcAkJWDzWvVdM4IjxlRkFylD5fhUq8fRcBUNzShsekmHaO3UC2Xoc3gtKztSPt8NQqFx5vObsClzzd00BMlo2Oq436Iw7gwNwwbHmvbKingYLLPKYWaKgSllad4AnaIagqhslDXtXYvxBcKAZYRLPylaZHW0UD1oZZobN3wHRJKzTDi8QV4/Z9b8MWXu7H8D5PREouKTema1hNOnYZi4SQ2belPuDMzIyqjEXzmH8IXW6TXR2N78NM8ZVWopeX1PaxhqKGTq5xiO0sKLCm+qCxuP3K6GjXNA4GSX0Lkyodxuc3dVC9ZGEIIZ+zHfIPpS49Ir2n+YtrdPnMata7sbS7yJrQPhP34hPz5wuteaT+2dGaUaTo58bUU70PmNQoHsmIoqNTQjedMDNc+VjrViLo6CgptlN3qqq2ubK7QbyHuzxRMCF2oTgpxnzkJXZLb5Nd8K0rrB12xLtSB1wo3LF3rjRde9xJfo3+hn/bRvqkQK+5mhjpUGdMFQat2LSzQarHrLmNLPCpugwce9dFBQdxVbP6gm12vSn2M/sALS1c17wcXDGsZFS1oRMy6dBwv0cOoJzywcBXtx82ueHy2fEG5C/oLXWRVtcjVfha2x32TbZXvzaf6SQcuwgWRiL8GQBfdlkF06lqU0H43HNj8GMYvrMvjkcq8MRO74qgGClXh2RW+WPq1N+a9PRAW7QaWdG47jj8xDZv/dQhqj6mYtXoF3Rp3oNM6+m6pRkWS/JZof4Yp3YTDWOr6leroLbhPeCaopWJpJQat4rtz2PzqODy3bDUuFgvXHD0YdDAotEFDeceX4KWnaN6nhIE59DUnrqf3wvS4lq77TtVrXXsEv8i+0WYDp7dWYIK/Bon/WogNTyxE276b31J/mArHnaPQhd58zMq/mCAGm2RPLjYfKUOTkyNmv+6NJdt8qX6wgotKyu4xF3O0qXq6gYPJPicaaQV0QbbyawkabkO3LMJdi1K/9SHnQCvhuRDh7lSa7or68np8unQqnn/mKfzt7U04RHcrDmNnYpa3PINw8ir0Wu+SlSpY0NGlLm/TX9S5XAqK6U4wO2q1OOq79bUeB+VZ7iijAJUURBnZGcNIXYqyWg0MLYT9oUFN+1vKX0pOmfjcZMmFrxD55Uqt1ypc+bUGnhSVoEbYjz//q10Z1glPPkoSs1BOh4zFEOlpoDtqqkLm2eu0Rj30Hyin3VEjssTj0RKjR8tJPRWvEZ8VKz6TKo2ybXmlIUZoAH3EFhPdgPObL8itWedx8Nfav81q6K6ewkldrRrUyroXwY3wnJS8DStnX8G25uc+u8F0jj1GmdXgx/ea90Mq4ts3HVyqRsxfruC9P5zH6jevYH9WP7iMd8Dojoep9lh9HZ34xoZw6u1FqBsaxbpFBy2DZpUGMKf9XlPWi+C9N7o6HgXqRqSuycT62fRdLE7C5h8qoDvEAVPn9GSYQT40Jy8KsTldae9ewN97wXC3petEcQEu0FR+OQV8ddk49IF2/UyvLyOl2bugviYEmNZQ3a812MbfDw70XVbkanfpd068udM3gtiRJPKDgXDaUZ3/aw947i88kE/1Y/HJHvTK/CrqxMYUlBZgc5vjNRmbtzXfqN5C4cY8fPkcHa8LkvDlN/kot7TGo0/1btibuY3wjRSjsAfPB3Mw2Qf9tC0a2Q1G8Jn9IV5/7mkEeEfAPfhpzHpugfTTBqejkVJMwcOoRZg9JgIBU97DRA8jNGSfQ3S3WhH8ED5tEcYJ3eXenjAxpaBRuEulEEMtPyG+LyENDfqeGP/6Avp8CjKXCl0V1Ug/2faOsryGAg1jFcKnTKZ1zcTECROkjKPRdOeqB4f7n8akQAe5xdMaNmbt7jixAPd9F4u5G//ROihAVI2GRqpnLIxQW5aNuupqCiwdMYDKqBG2UdcfCqsI6Iv9OXrSe5N2V0D9EOgL6fRSiEd6f3k6ROvmOw3iWB9Lf7h5T5Hy3eh/IatxI9IyNDD3nQY/fy/54mcMQ1NjNGk1H+oozFo+p/nV8gPphmFympnUMnGPsTRt3q1mQeBqNFLLaD+GPgM3N0e53DYwMNJujdyFjGu0F9xHQiU2m2pbhHs3bsTwOXNhbki1tNDNPdEJeppiFHfzB0szv8lDeoM+Aue4Ysp8JayEbtwQJQLnDxAvAsKPX5v66Iit5dLACx3oa7fgqMsQn9YEiyBnjB+tL7XsUtVjbtVPq9tQAQsnfVrWAMNed0GIJe1gYyMMe4gCPHkOUFBbQ9+MS4QJ7OSuZLsgeXCE8LuEYpoujMRjonlaaHHshoMVtI26GDbJFm4hurB6yBJj3MUV3XUVNcK2mWD4I3pUPgO40Ta2oBs4C2eFuH9HvW0HoQj6lsZwGy1sZz/YPT4ALlQ+Ydv0TfvBVCmUsQl18nkrutN+sm3dT+KnUlAnTss/pFweVYo8uokb/ZoDRj0klI/yqCzS53df8wAcqbt/CEZZCTGMFFYnx5eiTt8SDy0zomPJAIF/s4YTXTBTTmq14N5pGwSZQj7VKH6WLfvDLrTdN12qobXSOkYLn0P5jyilOqYbx6P+6AF07Mnbb07Hsxntb0qvl/qUu89/HJxp2wsTd1PN1RPSgEvlkDBMpHo6YMqHCBE6haiu8R0b0dqD1CU9GAjXjzELMPfN1xBuRTemp78TA7VjP15Csb4D7vvDZATay0GHhQMsG6ShUsJvM7p7Cz1MhD7X3VseKNTsuFDHU2107yLMnUD1/5hFeH1OMExo+WPbtQbl3EFCUjbUChUili1COJUz/LlFGCGMEKd6r3tUcBC2T3gppYBdYSZNO7T2hKNI6DGh61TEjJnSvMGPIaBNi2o+Ui9kUv3oDOfmRx16pB7lwo2frRlGNx83EfS/mNcPhuIxTC9D4Ri+B7p0PAnT3f2jAfGn6Jwxs8Zjjw8U7utF/QcroGh+tMOP6uNHDKTPsOsHXbqmG9IXV1/bw+NVYDgXXvS9N6UktBk010z4TWLhj2LQ19QGD8DpiypPIuaSAexd3eDqGYgR4WEIDfaBvWkTChOicLUmDQnpJnD19UHgqNEI8qTA5cZp7Fr1D1wU+45uf3i77YPOEZj0/GN44F5a7yhp3VYU4l099CW+PpUhtno2pMaj0jwQ7v7BCA/3g7OyFukH1uLTKCm/WXqBGbz8fOBK84WO8oNqkA7yD0fTqUllPFMBYyq/3zB5Gyjfw6AW+2O171qD4TzdG2b1Wbi0N5oq/2ZDYDJ8OFxMjVB67Vtk56jgFDSEgskCpP/vXlQ6voJxT02Hmzia3Qh2AeFws9NpO7gl+O+YOnUS3CjPTmhx0rOEkzBfwFCUH6N1iDMVoOKGPZQqNwwdFgoPId/TEZWXdqO8tho1KfkoMvGCs8dweAYJy4bA0fImshN+pv0gDcCxt/ESP0P7ZWdUJA7KGfDgRxRg309pXhCLauwgzeNhKQ3iEQfgGOBG0nbp7vO2QT1pKE2qQNXg4XD3pDIMF9bvD7v+tUi91Lwfq1Fa4UEXXj+43OuBovgkVFUKETLxGgnHUNrvAcHwUtFOUJpjYEMOEra8haQz3ezIqaxHclIV7nEbAC8vKwTfOwhBI8zoeGxE7tkq2L7og1mTTMQR63oUNAeFD4BeXttBDyVxpbhhb0hBuTWCRtPy4ZZwt21A6kE11Ck1KPc2hX+gFULCzWDXVIxjGf3hOkQ4xvujvHkAzDU1ip314eFphSChDMI6TCpx8igdkY86YtGcweKgDyfhu+5vCE9hAEh48/LSABz9/BKcOSHdCbQZMNNQj2xKHuw1iMowCAGqBpyJbxR/i/M/GYDTkfLr9TDzt4BPoCWVzwyuVtJ+KE1S457hFrRvafto/5reuI4z6oFwpQ3ydLuFK/sa4fmiC8aPEbZL+g5sUYuLUdn46YRWl/0d9pPVfFfMn24rfq7Y8EpBrbiuQGH9VO7SWpzP1sDMwwz+I63FfSF+zq0KnDmldQfVqXYDcOizPalOKL+ahR0f10rPOKdUItvCAO4BNgi915xugDRI3ncN+w90bxtElXXIM9KDi7clgkOF/EHwc6xHwsHa1vrpqhqV3gPg7TEIw4V81/7Q5JchK6+L45EWtZrqiGkP2rRsg7f1LZRcysGeL+ulbeiu/5mNUe66yD7wPnLohq9VV3X0RWQ0Uv0e4AO/EWEIsqvApQw92NhYwn6IEXIP5MF+YiDMSmn5PDs8ONwA2XsiAe3BK+6TMdnNDo5CHe/vBrOmbMRuXoG1UfJgwYJonCmwo/rbD35BI6Vrga8b9Cu34UQqMGXxOvzhIWHwCwVogzwpPxCWedoDMIU6vgn2AX4IChU+QwXj+mwc3bACu7Ll+kd0+7a2yDiHQqNA+PoHIoSuR34U4N04H4lNn++XfhNYHIBD9WPLoBpp4JG43eK6nsbCVU/jQaHsjkJATDdjXsK1JgzO+BoxF4Vl6N6j0AjOrio65oTrFOXTNc+4kLZTO1oSB524QLdsYwcDGbuWV6aBrZc5hgVLx2NQgAEqk8qQV2KCaR+6YqyQ5iScdDqw9pbmsaaa5WKFMABHH2VnS1BgT3WIspoCfdp07fqKzpnL9J+TH9VPI+mcoGUDvPpDnVWGnHw66x6wwayH7aXzlV5+LnqozsvHgTWVdB2TytctFlPh/96z8LWoRdLmF5F32+NiM+D+VDAsy5JxdH/bv0LAfwGHsf8ndCa+jynPjIS5AdBUeBK757yq9VMkRPjb3L5J2PCnd+UEdideb3ljimMFds3OQQe/g8xY1xxfw4QPJ2GwTjVKiquQvXEazrb5qRX2m3NcgbErAmFuYQZjnVIkvjW5g9/r/f9uKoZvXAR/obmxqRSpm9/B0V1aDTMtFmDsnhkYdGEttq5o+2eGuGWSsf8nbl09jMs7YpGSXY6KykwUnU9q+9x64FQEWt1Awg98Nbud0IU8EK7DDWA7wgTBT9gj3FEPNam52N/cGsZYT1XEIu24GqUmptCvvoz0o7G/3jPfrHtMbaDvZIOmaycRt+5tpCZot6r+t1CiybQJGZEbcPSf7yPzcid/HcXwQXjMcEFd/Pu4erbtfuKWScYYg/bflL6Fxrq6tj+czhhj/+3C3sfUl52Q/eHtLewcTDLGGGOMsV7j0dyMMcYYY6zXOJhkjDHGGGO9xsEkY4wxxhjrNQ4mGWOMMcZYr3Ew2QHVh7GYu59ekZEIGdvpX8hmjDHGGPuvx78z2YHSpHRcjcuFIngkvNwH4+rewz38U1iMMcYYY/8duGWyI7kxqErch2Lh7znp6Wn9HWfGGGOMMaaNg8nOGD4BOxug6srJtn+SjjHGGGOMteBgsjNjXWGrB5Rcbfv3JxljjDHGWCsOJjuTVYIq+m9Q6ApYDXWV0hhjjDHGWBv85xTvQC9kBUbMHwmVlREKvw/D/g1yBmOMMcYYE3HLZGdC3seU5WNhcfXf2D6bA0nGGGOMsY5wMNkZQ2kUd33xIaiLpSTGGGOMMdYWB5OdiT6JnErAyv0JOYExxhhjjLXHwWSnYlBWBujYOsJcTmGMMcYYY21xMNkB2+U7MXXjVoxyBDTXr6JETmeMMcYYY21xMNmBqguZKC6+iLPfrMY3r6yVUxljjDHGWHv800CMMcYYY6zXuGWSMcYYY4z1GgeTjDHGGGOs1ziYZIwxxhhjvcbBJGOMMcYY6zUOJhljjDHGWK/1uWBS9WEs5u6nV2QkQsbayKmMMcYYY6wv0jGzcHhDft8nlCal42pcLhTBI+HlPhhX9x6GRs5jjDHGGGN9S9/r5s6NQVXiPhSX0Xs9PehIqYwxxhhjrA/qm89MGj4BOxug6spJlMtJjDHGGGOs7+mbweRYV9jqASVXt8sJjDHGGGOsL+qbwWRWCarov0GhK2A11FVKY4wxxhhjfU6f/dvceiErMGL+SKisjFD4fRj2b5AzGGOMMcZYn9E3WyZD3seU5WNhcfXf2D6bA0nGGGOMsb6qjw7AkUZx1xcfgrpYSmKMMcYYY31P3wwmo08ipxKwcn9CTmCMMcYYY31R3wwmEYOyMkDH1hHmcgpjjDHGGOt7+lwwabt8J6Zu3IpRjoDm+lWUyOmMMcYYY6zv6XPBZNWFTBQXX8TZb1bjm1fWyqmMMcYYY6wv6rM/DcQYY4wxxvq+PvrMJGOMMcYY+z3gYJIxxhhjjPUaB5OMMcYYY6zXOJhkjDHGGGO9xsEkY4wxxhjrNQ4mGWOMMcZYr3EwyRhjjDHGeo2DScYYY4wx1mscTDLGGGOMsV7jYJIxxhhjjPUaB5OMMcYYY6yXgP8DSHbdEFzqA+AAAAAASUVORK5CYII=;" vertex="1" parent="1">
                    <mxGeometry x="978" y="541" width="659" height="149" as="geometry"/>
                </mxCell>
                <mxCell id="28" style="edgeStyle=none;html=1;strokeWidth=3;" edge="1" parent="1" source="19" target="20">
                    <mxGeometry relative="1" as="geometry"/>
                </mxCell>
                <mxCell id="19" value="" style="shape=image;verticalLabelPosition=bottom;labelBackgroundColor=default;verticalAlign=top;aspect=fixed;imageAspect=0;image=data:image/png,iVBORw0KGgoAAAANSUhEUgAAAjAAAAHiCAYAAAD27/bWAAAAAXNSR0IArs4c6QAAAARnQU1BAACxjwv8YQUAAAAJcEhZcwAADsMAAA7DAcdvqGQAAMWOSURBVHhe7N0NXBVV/vjxTyGICIKAAj4gyhUQ1EAUHwA1UrO1RTM10zbL1ezBsp+VW/76l7atuWZulltrlmWrZpqa/DRJklJRA0N8FhR8ABVQQB4uD4LY/8y9g6KiYJl54/t+NTHnnJm5c+eO93znnDN37jD4hf6MEEIIIYQFuVP/K4QQQghhMSSAEUIIIYTFkQBGCCGEEBanDmNguhPR7wn1/50s/O7fZOu5dWbliZO1NWXn0ii77UbbhDPg3scIdlCz5wtI2/EZy0/uMRfdFC/w0uT7aKenOL6ep1a+oyduH93/ZxXjg+z1lFJhJHP7Ut76+CtK9Kxa2QXi3c6ZilOxpOfpeZdxx8PHH8eKdJKPpup5ulEf8/FATz0B6dEDeGOpnqijq97DRelseHQcy/XUr+XYNgIP6zzSD+2q+7ERQghx01k5u3pO0+evoRVt2wWr/2eSdGQHxXpuXTl5T+Wp3p0pOhirtnC7ySE36yg/pRzggmsPOnk6knF4GwV66a93hkP79/Djzizs2wfgUZrKuoPb9bLbR6ueDxFsn8rquZ+wbmsqRnd/ArsE43N+KXGH9IVqEzKZ6ZOG4cN/2bRXz7vMQP76xiQe6GBFVOwVx+BkFof2JLDtlDOBAc0oSb3WNq7N9B488tgyax4rtsax7eK0nV2nT3JOX+7XGvzifP7StxknvonhpJ4nhBDi1qtDF1I8sd/9lbd+SeuL4uboCMYzZN2W9zqVkF+8k/yyLWRrkdn5CsrMBTdJKjmFsWQU5nH+tr/Xq5ycfbEk71vK8jfjSMcGa61l6lbIS1Cvq147r1zP+KXKKTW9h+pTwk0MSIUQQtwurtGF1Jk+EZPo5axmVWn+kbV8nrT6itaXEYx48F4aJHzGyTYj6OVuB5Ul7N82g6jsTFz85vBERxW8XKn0IEvXzea4nmxgP5qh3cPxbmptShcf+5ZPflrOudZv8lJ3D1Ne/uHVfH60DaMjuuDS4NIyxR6v80oobNiQSUB4d1o2UgsXHWTVxtmknDetatYgnLvaRxDs6YGLvTUNcuP58IePyNeL4V7+NGgEAVmreTtxrZ5XR3dGENpnLA92cqeR2jcuqEDgWByfRs3gyAXzIjCcseMm0O1sDV1Id05l6vMRtNbmz6t1TyYRHf2/bL14sA0EhUxlaLA7ro1s9DzI2PgcM3YfMM03aj2NifeE0NpJBR1VIWlGLJNXzKBUT16PqfvFkM7qD6NIw53OQ4YxwDOPDbPGsdzU2+NO+Lg3GRLqiaOVSlYYSYuex9wVsSoEnMxrnw/kUgfQJSVJH/Hcv75ixJsb1Pb0zOqKdrHgmSkqRNaFzuK9CYHk1NiFZODuia/xgDoOdlftQ1UXktrna3YXDWPSv5+gkxaUVZZTcjad+CVvsCQxy1yscY5k9KTHCPO0x1p7jUojmXui+exfH+Fapy6q6x0n9S+m6jiUHWD54nLufTzQtFzJ0Wjm/rOcEe9H4pHyGc/NuvTm756yltG+6ax79mlWS5+VEEJcdI0upGwKzpzlp+StZFh1JMjQlgYZ60mrfoFs35fe7T1wcGoFaav5cm8RzdsaaG9dQdyJ/VQUpLMntZIWPm2wUgHIJ9vX8dOhbfx0ZAfZqmLQ2KoA5JmIQGyytxH14woSS33o5mswvdZhYzFHD/1IbuMgOni1paOqO+ITFrP7QkfuatdC1RvfUth8MMHNHXC3tyLxpwVsymtLp7ZtsT8bhdodxQ4Xr9d58u5w2tuWcPhgMueatcJOvd4P2WmmfTBxuJ9+fm6cSf5ArVehZ9aFO90G/JMxHa3I2L6CRRs2caC0FV06GXDJ3sOOs2f05QII6tKVlmU1dCHdYeTwvp/YtnMXh3Ot8PDpTh/vduzZ+wOFWnm7GUwd0Jafj25iyTdfsH7HFrbs3EJ8ZgIlpgBpAhP+ch++lUfZEL2EFVs3msq3qGOdW1HjYJSrmLpf2rSkQ2gYvUID8W6Qxc7vo1gdl2LqerEbPIsX72tLRUoUCz/djtErkC4hwbQ6/SXxGWc4engvO/Tun5zNM5n/pd59syORs0YjJ46eZO+OLJw7++OaF8fsD5eay7clqPecxcUj7tmf+7q619iF5DHmXSaFO5MT/yX//WITJxz86danJ21M+1DVhVTJqcMFnGveFldtcnKk5OL2y8lMV/upXvfwaSscvNT64YFURq3jsKk8hDFvvEwfN/V5bPiSz1bvwtjUQIB/S+5Uge33206yP2k7le3CaMMBvbvt8i6q6x8nzMfBykAv70Y4q2B079oP2Vyh9qOjL81yn2eHjXoPvo5YfbeOZNNOD2PwqBCcT8bxwXcJl46TEEKIa3ch5Ru3kF+2k5xi9bX5cw7Z5pjjEkdXnNSfstQlLD+uljVmkn9epUvNDfbnKw6Sb+1IYzWfdXqt2pZKa9O5qpEwEUQEqsvRo6v58KfPSDOeooG1nXqtEozaN3VpPCfV6xvPay0zFez+aTqJ+TtJSVnLhvgtpJSpSktVUNry5rKDZBfmc14tm683OzRu+RKPdnUlN/HfvL3hVTaoeMKpIeQWXD5Q18mthXovOaRl3+gl7mBCfWwoPbiGtxM+JaVwDTsSxvK3957k30fMrSO1upBEVmE6pRSRlbGRZbuzwM2TjnoxWquOUl5xjvPnivUuqVhyqtVmWqtLxflySsqLKC01l2cUXzFQtjZaa8ijAxinpuc+SMCu90RmTp+M1gZ2fxcD1mUH+Pateezct5QlM+LIxB7vnsNUaSrp1bp/Kkoudd+kZZpbNwqOauk8cwVcYbxYnlzngbCBDOjoroLWWN768DO1D1Gs+9dXJBfZ49k1Ul9G4074lJd5sWqaNIpOeol5Pw9QoHbzTFoca79PpcTaHUOoXtwxkg5ukLN1JrOXLVX7t5Tls57nhWcfZVEClGTGmfa51PQmqrrbtOlSF9X1j5N+HEq046SCtEOvsuSHWLZ8fUCdeTbYqdf+PmYXBdYGugwPNC1PUCCeDupt77+BwdRCCFFP1DIGJoLuBkfOH9/D7is6mlo6uargIZPdx/RgwLYNrRpdERw0cVKBQQE5ptaQK9h3oI2KbsoaBTOi25s88ec5jDJUsH/rR2y7OBClOy21bqysPcRX9YWUfktixmpOng/HTYugqpU5OTfDVr1erqnp4n7u7epJpdb9dGynqRwXD1xUVZCVV304sR3ezdR7yUm7vNupTuyxVvFVTtZ6PW1WcaFat0QtXP3+wz+f/w9/HzeVqdoUpirq6g7N5t+qsj3vdR9PjPsHc57/jjkPvU2oFhmazGf+slhSfvYkcvhU/v7sd7w3YTFj23XXy29cycGPWJKUhXVbf8K1DFN3SPmlsSQlqabP1M6ppn6h34IBJxXb4jmQ9z7fwMemydwdZH3npW41c3eOOQgzTdW6p+x6v8nMjz7n76/qwc1wf/XJV+OoggiMZKbu0jM0WZTcSORQ5+NkpCRLP0dOvMHLal9NXWZJX7FTnZoeQcNMgZdfDwOOFakkr6/7+SSEEPXF9QOYJp0wNK4gTQUMl7PDvYn6+s9Nv1TpO7rieEVw4NZEBQZaQHFl643mDq1poYLKouOkqSBk4/fTefvryURlVevaucOAq6qk8nP2XD249g5PXO3VLmTvvFhmHjB8ihPaPjl442ZdwYmsb82Fd4QzoINWkeSQbQpwqkTQpjkUnzlYbUxMXRmpUFfkri0HYx7Bc6Mm8Eh/A+xfwt/e7cdTc/rx3MYrK6tUUpKeZPp8Vf7+//LumngKmgfx0N0T9HIV052Zwb//O4Tn3n2S//ffJSQUutNt0OP00ct/tUo1Wduoz1dnZ/5cSvLT9YzfWhw5WlSQt4tFs2Yyu9o0d1mceZHrimD0kBAcc2KZ+7we3Hx8RetPQblK2+PhE6Jn/AK/+jjtYnVCKhXOBsKDAumu3ZZ+/ADfSvOLEEJcpZYWGI01Tk7hONmGc5eH6XpcCcZFfUufLzp1sdJ3aepKAy1Yqdbacq5C++Z1pY1bF7V+F7xbP4CbuUjV/elkV1jT2N6G/LN7yW3QmdCgfzK0tdZpYYdtww44uXqotVWQUlyq1ves6k0xc3BVZRXqCvegntGFltpA4IKcare36vtufz8Deo/GvSwHfrZTr3nFtpSGTTvQUtvHto/he2XhNa1h66FyGvkNZmr/FwhqEkFrNQX5PG4elHtRKgXaoFz3IB5sqZZp9jihHkHmIqWRcxu87dV6Ae8xNdiZUlWRtgtQ29CiIqfHifQZbdpu60aNsbNzMQ1iPX+uKiq8j25Bz+qv7UkjG2cctcHM5eXmMTR1ZoNrxwj81NRl8CwmhbqrgCEL7eiu3akqVVt/7n1lIl06jmL01DA8VPCWtv0r86qa43mmlgePu95kQIh5O+E9B5rLTFLJ0XbZI5DxAyNN5X59I6t18SjHjaagwuOu1wjX9mPgE4S30gqyWB2vVeyBDB8egbd2Uih2rdyx07up6sLawR1Pg7bd13htiL86O9R7DppIuId6r/uiOJitztbeL/PauMfU+9TeQyQD/jzM1I1W5UxhuTr3DESMHGV+DyHD6GLax9qOkwFPbXk7c4uRtbOa9wm8vBVIKVkZR1qJM36DnjB1aUn3kRBC1Oz6vwNzLgdjw87c5duD7r6BtGh0jhPHEylqEEFo5zYUpy1hd765Im3XdgS+VkfZlBp/8W6lskIr7FwDuKtDD7qpK1tfR1tyT24i09Rqk0x6blu82gXT078X3dp2oNkdBZzMPKa+wPswYsho+nk1U1UMOLdS5R7OpKRd2ratx1B6tzjHnqTvOGkazBquKnIDd2bE8FOOCmHKc6iwCybItxvdvNrw85GVLN1XgHvbziqvHbkHN2EeYnuIvPMh+LXzo5ufto+NKTjzHcfrdD+1kVNpqeRb+eHTqSvh3cIJ7xJOcDsnzu5cQ+rFu5CySM31pWN7P4KC1DKdOtPBppT1hz8gtbAXIXcF0qurWs+jksT4IzT3bkdrQ2daFn5OkuNzTLi3L32D9W172VN0Yjtffvs+Wdr2rQcz+sH76afW18rD/dvTtDSd7zfMJrbwlwziDaObvzvWxlSi//M2m1TUUZGSSKFLMH5BIYSHB9LWrpS0b+bxQfRR87gWTaEK0uyD6eDvT3BP83YCPSvZH7OJs6YFskg725KAAF8CuvU0lfcK8qRi/2p255oWUNtI4Zx7T1WxawNstf0w4FC2lLgDmPYh7XxbfDp3oluPPhf384701exUMYx5EK/ar9VR7Nc3d8lRkkt9CQwMpJtpPWdyNiZS4teWVi198XE9w/ofY9i9tQAH9do+d4XQS71+r9AQAlpZkbE+hqo2lGPZ9rT1MeDXRS2jvYeQTjhkL2Vbqnkfr32cHmPS7Me4r412J5MKnAK091/T78nspchrEOGdW2JXkcr2977UB/QKIYSoTp5GLcTtxm4Yk95+Au/jl99SLYQQ4hIJYIS4LRjwDAmjR2d/OgUF4mGdzoY3xrH8hF4shBDiMnUYAyOE+O1F8tjEUdwdYsA6M5YFL0vwIoQQ1yMtMEIIIYSwONICI4QQQgiLIwGMEEIIISyOBDBCCCGEsDgSwAghhBDC4lhGANP/bYZ+Fcf4dWp6/2U9UwghhBD1lQUEMP3p+nBPXC4cYvNb01n23io9XwghhBD1leV0IRVkcjQuhqLDh/QMIYQQQtRXFhDAxJB6OA9a+ODXRs8SQgghRL1mES0w+QdPUY4HLe7RM4QQQghRr93+AUyrkfj28sKGPHKufsywEEIIIeqh2zuAGb+Y8fMn0tX1FD+9M52f4vV8IYQQQtRrt/+zkFx74jZmMoMiXEj9IILN6/R8IYQQQtRbt38XUs52sk8VmeetzX+EEEIIUb9ZxCBer64+WBUfIvVrPUMIIYQQ9ZoFBDAjadlC/cnJ5JQ5QwghhBD1nAUEMMtI3m+ENv0ZvTCK4bMm6/lCCCGEqK+snF09p+nzt63SzQkcLrGjoQvkbNvOqWT5NV4hhBCiPrv970ISQgghhLiCRQziFUIIIYSoTgIYIYQQQlgcCWCEEEIIYXEkgBFCCCGExZEARgghhBAWRwIYISxRz9cZuDiW8eviGP/+y3rmrWXdMAz3hu56Svxidwbh7hAkT0r5RUYS+oX6N6D+HYyeP5fWfnq2qBfkNurfksMknrq3M06VJRzfuYClx/foBdVYjWBU5L20sVLzpZnEb/83sXmZ5rIr2Hq8zlOhHpzcOp3lmTUv80s0ifyagR3t9RRUlhvJ3LmEbbEr9Jw6aKC+gF2aQkEsFWV63mXcsXLxx/p8OmUFqXqertdCRvT11BNw4od+bNumJ+royvdwSTrbZozlhJ76tawcI7BucJay3CQ953fQ/W2Gv9YTp8JjbF20iIy04xQdvoHfRrLuTutG1hQY4yi8oOfdsAk888xwOlqns/LdsXyn5/72JvPa5wO5dLZUZ2Tv/KHM3aonLUTon77hET8bjkT34+0DemYdNWocgeudZ8kqSqJCz7tRA15Zy4gONpAdx/976Q1u3jfLTWIXiHc7ZypOxZKep+dd5IFNQEcc2g+gxyM9aWF1jO+ff4TU43qx+EOziB+ys1jlyRw8UoBty0B87e8g6Xji1V8yP5eRcSKen1KLaOIZyF2O1vyUvovzenF1DRz60s3TgaKMTew3GvXcX6+h70gMjVP54b8L2JOUylnnAAI6d6VhwRIys/WFatPmBQY8OgLXc5+TkaHnXeY+/J74H3p7WbF/93Y9T3cmi7QD8aSccqGVTzPKjl1rG9dmeg/N89jxyXskJm0h5eK0nYLik9ysKL3lyAX0C2lGRnwM5/S8WyuYzq+Nx2B7iJjHxnD44BHK83L1sjoK+Dv/HH4PTmnLSCrW825YA+yadcezZC/rD26hUM/97Z3h6OG97Ngax7ZTzgQGNCNn80zmf6nSKm/nwXSMv7Qm/52UWoXT2d3Inh1rSCnVM+uof+QCxnVtRsrOGG7wLNAN4/6HQ3AoUpFB80Zc+DaK/bfb8QuZzPRJw/Dhv2zaq+ddZKTyzBFKk2M4vMebVn8KpF2LSvbG7tbLxR+ZdCH9pgooLjtDWaWaLcmn5roijXzjQTWlkq99cZwvocYGDKUsczr/+urJm9r6csk5yrJj1bSEE19u4QQ22NbUoPFbKIs3v3bRObRD9cuVU2F6D9Wn+F+5zdtMm6F4tYL8hFUc+8XBx80Qz6ZvhvC3lTO4wVjzV0olfV8sydqUV27KqSjR0/viyCwxZVmUnOQn+X8LxhJ1VevCLdAxEA+HctK/SyATT7z76/mWKPl/+WlPOXYBffDSs8Qfm3Qh1cLFbw5PtDnO8kQI7daZlo1VZmk632yYzm4t4Gj0DE8M7IQx6W2WHktTF6aP8eiQcPjpVT4/pgUaIxg17F4c968loXE4Ea0daaDCxtz9n/FR8hbtJcz09Wx3zeaj1IN6puI2lZfCvdX1rlKaybYtM9hUeOW3tB0urZ9ncGdv3BqppPpEi1XFvXLrR5ysw6dr6n5pm84Py75WV9IeuPYdTveWecR/OpYTZ7Ul3GkSMYNeXT1ponZE62I6uvk9dibEqrIX6DX1PlSdepXCffOJjlpBqzHf0aulnlldcRLRc1+6dPXe9m0GPhxEYY1dSAaa/mkavTq60/iqfajqQsq7TnfRcDpNmkAH7fO7UE7h2XQOrJ1G+sksc7HGdjCeDz5OcGt7rLXQ/ryRzOT1/Bg1n0Z16qK63nHi0nEoO8DG/ztH4ANBuKjlyo6vZ/2X5QROHkzzw5+ybvUS0/Kapg98Q//26WyZ8ySZWrPcwwsZ+0gLUt4dyNYY8zLVWTd5lscH30PHpuo9mE4apSiJfy94iX1ub/PP0UE00bOrOxLTj7fV1e19D35HZBuVUXqAxV+fY+DwIFzVdkqPrGfG1++Qoz7vlybfRzvzaupDTuLdj18iRU9q54NWTlIc1j5htNaOd3EWm6JeZFmm+Vi7tnubJ/oHXSz77lA5/YIgas5Y1puWqKPQWbw3IZCc6AG8sVTPs5vIK+9H4pHyGc/NqsqEu6esZbRvOuuefZrVJeZuKDZHQ9eBeNqpBUqy2Bs1j7nfJJhXcB7F038bRhcP82deUZDKhg/eYPXBaufLr3TxWJsY2bFkCAsvtnhe/zj63v01zwfVfD7eyHH0GPs5fw81svqvH+H69ix65C3lqbc+MxeO+piP77EhM88dDzcV5CSm4hjsj2NZOhveGMdy7aQ3TOTFpwfi52pjWqUkM4HV/3yV703BmPk4uyZ9xHP/+spUPuLNDQxouosFz0xRITB0/59VjDekE3/Ck+4dzO+n4FAUH7w5T13aXbu7sKTaNi8zfjHjh7iy562BxMfpeeIPS1pgatHKyVEFFwYGBTuRGv9vPow9SH4jT3oZupvK2xj8cLkzh7QTKnjRuLTAjQpyCvVWkiYqIFB/rL3Cuevcjyxd/xmbsitwCYggwLyEmVsbWlLCsexqwYsmN5ql0bP58Lt4TjbwoJf//XrBJW5+b/JEiCdlh5azcO1sPv8pHZp1obub9sp11Nifvn+dSuRfH6d78zz2bV5Dpil4UbpM454enlSmrWHdJ5+y44wNhn7P0aGtVriGHZ/MIGrtAVMLU2aCmtfSatq40RygZX6tpVeQYlog7mJ51OKlde56sOo7jf6BzhTuWaL24X22qEqvzcV9qGKDtVsEtlWTi6oVL0oieZn5dWM2mK82ezw8DRe9VH2V0vYvz9LDo5wjP3yqlvuUbYfLcfUJp5WqZAo3zjatu0P7WIsP8EPVe/hk/qUxA9c9TvpxSFAVoK0zvoEuHF6j9mVXHrZt7sG//fukqtdr3D4cj6rAQwVd7p42VJzcbw5eNPY2aMOlam5WiiDyz4MJamJkV/SnzPh4hnlattQcYJxZyr+0dJxWCRtJitLL1fRpsrYA/BCtlzdyps9dLuxYOYOPfsqjUbt7GNpaW2INn+rrfHfStEqN2vl4cmTD+8z4Mo6MBu70iXgS0+p3Pssjg1TwUnGAZf+dwbsbjtPOUPOIll+kZB4/pqircN8wHtACE5NhdG6jjuPxA3xbLfb36BpIwfp5zJ4XRXKFO50efIIRpkg8kNF/e4wurkbil1aVezJo4mR1ltw8pmN98fOo2bWO45Ftsy99BkUq2NQ/kxkfz+cH05p14U54O3fITud7dpF8yoh1K//L36O1CmCWPsr3J2zwcEzl/y09QIWtJ35hWuFAxj8diZ9jHlsWzuSDlbsocQ1hxOTJ6jLoBjj442cVx6JZ81SAaMTRZyAj/qwVRPHZrJnMXnFAfTOqfz+b1byWVtPcZdeITo7lmpZtYI6nxB+cBDDX1R03Fb/QoICtsdPZlreT/Ly9HL/YT30vAery7fzxROL1CsbJwZEG6jo1u6ryd2yGdvFUcWw1C/cu52TZFtJyK+AOtVnzEia+7uqffOlxUor0jCrnd3JS62IqOKOqHNTfK0anNRjNvQGO5B/4lKWHvyW77CAnj0/ng6i/sSorR1+oDrTWkBn9WK6mlcvise35LJF/ecFUWXoEGLAuO8DOle9TnL2E9CVxnMCedp2Hq9JUc7eN3v1TWXKp+6ZCXTFqKgu0dB6mBv8LRRfL6z4QNgjP9uqL9uRGtqiKuTh7DaejVpBabE+rgMH6Mhp3upmCMH16ZFS11gZtP9WXr/qcSk9uJmV7KsU27jSvCoDcImnXTH1J7nyL3T8uUfu3hBOrn2P1u49wVDvkxXHm92Qa9FrV3aZNl7qorn+c9ONQoh0FdyqOTiU9JZazWw6oAMiGxk3h7I9JnFXBsiFMD7w8AmmlTp4TKXUfTG2tfWDnyymoMFJx7gAZhbFkVA3wvJBElpYuNXe9nC9S81paTTn6uIfS4qpyd0qOTSXqZCxJ8QfIUvvo6KQtkaqCc/M6JTUN1NIVpq5n2dE1ZJycRlSyOnMbNcYUTxgCaGddTtLG59h0JpaUo/9LVOrNG8+l+T5mFwXWBroMDzRnBAXi6QDp+78yVW5VKlKjmLtGBScJKkhZoSpfa71ibhVJJ/XPMX3jFBZEm8vnfq0qUQcDwSHmdW8G07Gu9nnU5FrHseKcCmiqPoOfz138TDIK46n7MJpIvNX7zMlIMB2X+IPpVDh40rmjudTMSE5Slum8ryjKoqSo3HwuaTVHSAR+6hopZ+scFv0Qy841U1inAhBrz0AiLgaPdZHFzjlz2LIvinVztYsLdSGiPq+L3YVXdRXGkqa35l1F/WP8Q3UZi+uSAOZ67jDgqv4hFR+JJVH/gqeRgVaNoKBwr7oaNtBGzZ/M/FYv9FCBiPoXbTxDlt5107KJioAq0th8sbvIDtfG1uqqKV/9s60STptm1pzPSuZag+dtPYPxtS7gwDGt4bWaZgZa3lFC2onL889XFuhzv8CZ+ezbn4V16wDTlZSVdpZUnrs0APn8YYqKobHTTbxyvi4DttoXYsv7GDH1O30ydwdZ3Vn9UkvrzjEHYaapevdU+3/Qd/JiHpygBzf3+5sCy4vs1Jem+rLOz6geVKlP6DqV9JXqfpyMGHP1T79oGlvUvpq6zDK/IiVbC4SGYauStp3a0/R8Kid2VfuyNpZf5ws6lpVfr2BrjjN9Bj/L688s5sNnv+b5uwb/glt0jRSe1V/33DSmzzF3MdVZtbubzEGfrqF2nMs5X22gV0rOTR78kfQVOzPVcQwaRieV9OthwLEileT11Y6jpvqB3JylLjsU7TNsY28KEjwHfs7Hn28wT+MCTXnWt/pe52sdx5thoD+eKpjMOaWOUUcVjJzIIrPSGe8QPfCrjToW2uEoKdtlTiuJ2Vowao9r9cbPWqmgqCqyVAH+xX8/v4S3C6bYR9QLEsBcj4Mrruqf04nT5jEM6l8Hd93VCZdzaSSeUv/iHF1xUtcuOVVjUhr9mbvc1N/8TMyt6x60aqq+9nJPkaYHNA2cnqa3lzUnU9ZysbvbtgNe9ioQuvg6V7IjoIV2qZTM7isvr27BJ1ipfXFaNbxUCTZoj4Oq/Yvz0/WM39oWirVI5GwS0Re7bsxTVTfV9UVg6NedpmdjiVIVsSm4WZF0+aBq0xenPS5tfnknwa8/Tkmk706lwrE9bTyC8GjjfHn3kSY5lyJtPwOC9YzLVRTOZ/HKITz37iP8bcGnrFQRse89o3mwpoEvv4dz2nG2oYEWoel8XZ31uZtlF6sT1HF0NhAeFEh37RbcK7qPTEx9cbre7qauXlPAkJSHFv4XJH52scvCPM1h+e949/zN1r2DpzpXbfB78GVenKJNEXiqY+LaLsIUrNVKRRpasGFneyngCXbTxrForTbm9K3m4qF9ijlkX+urVPyhSABzHbbOLdRVegG5JR1o6fYEI+6dyp88Sojf9C4pWkByvkJdoFvj7haOk9MIhvbyVsGLym/ohJu11vfUGRf1p6y0BFv7ewnu9E+evacD1kfXslIb8HsFR5cI3GzDuav9CLQ46CqNXNXFYQfcnEfgrQ3W1RQXq4rYDm/DCFqqQMjNeTQDerzP2Pad9QXqquHFsSONu7xNeBd39Q2eaboqzdyvKgNbf7o8+CyN3UbjOTqMVupL6sieal0bOWdNAYFbh3+oIMC8naZt7jOXmaRSrF2cNQvCt+Ng82v5qr/mQrMc7b1o25hGU20/Ok6gielyKstcsTcNInzAPTQxdWWo+qeZB1Z6N1VdWNu708S03Wn0iAhQ9ZcNTTs8S5PG2jiAKI6cgeYhr9Cj3+PqfWrvYTAunYdfVs8VF5ZD4/YYeow2v4c2w2msX/Jd/zgZzONz7MwtRjYOav6yMTq6n7ZwpMQZQ+8JtGpWQ/dR0iaOqg/FretIFTxfKYiO/i/QrVkErZv442hrg2sj9XoXyimpfs93vpFSFQT5dnuBoCbasoPpaLpkNuCqpbV1lAZqH1tf+QNr2m/ImNZRlZzWB3pHQ/M6TbpTdUpeV+p+jlTYEHTPe/RR++nb9h9EGmoajPrrlKyMI00dR79BT9BB/WO6svtIY+cTyaTBkfiFTGTSEH/1ryiLNG1oRcln/JhajmPwMEaE+6M+BsUeT1U5X3WXkzZodF00oTd8945+rK883irtetkBv74s7Xy0b0+/gNHmbTUbTruGeuF1RdC5tTruR6MZ9+iAi9Ps7XnqusvA3fpS15UQS7I6F11DJzOmbwRdBs9iUAd7KtJ3EWs6TlmUqL927cIYFKKVv0t3rTHS2pnO/esYJGmOmwNKj7veZIDWbdUxgvCeA81l1TUeT0BHeyqTd6pvG1EfyO/AXEfLNsPo5OJAa0Mv7mqp/ZDSj0Rtf59dxfq3WLH68nDuSCdDN7q1aUHxgcWsyHKhY/tOdFf/OuPy3Lk7oBVNmhro5h1AS6sCdibMZ3nqFtOVy0XnT2G0DlbbCSTYN5C2De8gO3ML2RevvCvILHSnnVcngjv0Iqi1+krNSSXFeFZFR7s4Ua4qLp9AuvlpZa1oaDzEjiObyC6v2y+VmH5DpVVLvLqE46smH4MHNsZUti2fRX6Jijoyf+KUdVfadOxOp65BeNiWcuT799i7/6i+BaX8MLk/d8WtfQD+QebteHtc4NDOH/RW8CwKTrfCzuBL+7t60UF7Lf82FB5YRX5Vq1J5MvmNetHG4I9vsNoP7/ZQtITMU6pM7cOxora4duiM/119Tev7eHtQfGwVeUVVvwNTSsaWNTUMDD5KXoEvzh2C6GRaz5kz2xIp825La3c/mtufITVlA/l7CihyD8CrQ3cCumrvoTttPKzISLj0my9l2fZc8GyPT6fu5vfQuTM/Zy8h+7QqvO5xepwek8bSraVWWavAwket26Gm35PZS4Hz/XTyb4nD+VT2rV6G8bKug0OcahRGpx6BGIKbc2xnHOUXK9V7GPDn4QzuHq4CUDXd1ZmWdxSw54cF6rw8eqk3ojAPo20AHf2C6KHeZ7h6n52sz/BtahDPPDOWSE/zPnr4qrL2V/zGiOk3ZO43bb+d1qrTsBmdtdfq0p5z29eoiqMXoT3bY5eVyHfHzL/K5tp2JD2c8/hR287PCaTmdKK9CrBD1Wv38LzAlj2l+LauJMW0/g3w7M99Xd0pSa3p90H2UuQ1iPDOLbGrSGX7e1+SfPEfXU/6PKACysOpXOgayX2hvuqCo4DkFXOZn6i1nRo5vCOLypb+dA4MplvvMHqFhhDgUcnRmE1oH3UVl/tVgNSqiENzVnDmhvo+Hjcfa+3YVT/eKu1V+DnbTtdyHE056l+VOh/dWrSn413d6av+zWifuePJJezQLqSup9VfGPFnT0p2f8R3SZcuAnIahtAvxJ/GF/5LnE2kCi4hbXWUinf+gmdpIutPtqx2zFPZmeaIT2f1vRTah27+6kLgdAIrZ/+DvaZ/03s5el6VdelEYI8wde4XcOCoep8ezWjVzp4T38Soj+Ihgj1KTa+x37QH5s+G6p9pYSoF9sF08PcnuKf2WYQR6FnJfvVZVA01xHUoQbP+SmfXUvYteoaT1b6axB+X3EZ9TR3o0/dFep2L5a3tl25rFeI312A4nZ6ZgGf65bdUX+KBw5h/MOhBHxysoHL/KhZOmaOXWRp3+kQuZmSbVJa9/ySb9Nybwm4Yk95+Au/jl99SXdPtvb+U1ztx9G+RSNTDky51CYtbaChdF04mSGuyrswjZdFbbF55xQ9lij8s6UK6Jm9T909x4a0a5yHqNwPWbR7Ho9/b9FLBSwerdHZ+d63AOZOiRWNZpirNJe+v4sdtN/AYgd+d1s01lcggNYW8zTMP/4eR6oK79FA8N/j0iGsw4BnyGCPGzeLvKnjpZJ1O3NLqwcvN5IGd1m92Nk+Cl9/NcTI2rSX6rZdYGBkpwUs9IwHMtdi3wc0acgoT9QwhfkuD6TZ6ND06t6dRVizrPhhL5pW31F+pOJGS6Dkc+HqtnmEJDIT0iuC+u9UUFoSvExxJWMGMbz+9vFv1F4vksYmjuDtEBYSZsSx4Wf/Btd9ET+ysy8k9diO3Z4mbK5HsRTPJiNsut0/XQ9KFJIQQQgiLIy0wQgghhLA4EsAIIYQQwuJIACOEEEIIiyMBjBBCCCEsjgQwdWT3yEJGRsUxfl0cI18bqecKIYQQ4vcgAUydTCRU+9GwnO1EvTqdqIU39ee2hBBCCHGDJIC5AeXZh8hOiqHkRKaeI4QQQojfgwQwdbKSo0fAxjuYFnqOEEIIIX4/EsDUSSbpxzKhsRetw/QsIYQQQvxuJICpA6uu4+nc0QXKT5GdpGcKIYQQ4ncjjxKohctr0QztbkPR8b389O+ZpO6X8S9CCCHE700CmLpodT9ez0ykf+ci4p8ezp7jer4QQgghfhfShVQXJ9aSe7ZcTwghhBDi9yYBTJ30x9fPWQUy+0iW1hchhBDidycBTJ0E4+YGJVkpSDuMEEII8fuTAKZOYkg5XI5d14mMXBjFoClD9XwhhBBC/B6snF09p+nz4poyyduyj5PnnGjoWMSprZs5c0TuRhJCCCF+L3IXkhBCCCEsjnQhCSGEEMLiSAAjhBBCCIsjAYwQQgghLI4EMEIIIYSwOBLACCGEEMLiSABjQawbhuHe0F1P/RZ60vq1FYyOimP8umhCI/RsUX9EzGXkOvX5R8US+dpE7PRsIYS43cht1BZjAs88M5yO1umsfHcs3+m51Vm7TuWZ+8PwdbYxpQt/ep+/bV5jmq+dB17vLKG/H+TGr2XT/yVSdGgT5YGzeG9C4DUqsnQ2PDqO5Xrqj+9lBq27H4f4eSzLvJ/xQ7w4tjiMmC/0YqXx/c0Y/Cc3vJysTOnzJcXsjznGui8bcO98X4IdTNlQlMUnE7LJ1pO3ku/7cfR2TWTVw5n0UO/HLXkZC1+YZy5sHIydTxtc+j9MRB8POLyWL56fKb9ALYS47UgLjMXYxb6jRgozUknRcy5zpwpwHorA904V4Hw5gxkfz+Dt7XUNXpRBrxPqZ0P+pjmsemMOuUkqeClW+UlLmTtrJrO1aXOWyjCSvEJPz/qIb00r11dGSqpHIH3cGDOqBe4Veaz7eD8fzD1MfG5DDJ0a05gyNs1ReW/tZ9MpffnbRElBjj6nFCdSkrSKjFnDWRGdiU37AfQYpJcJIcRtRAIYixHPpm+G8LeVM8jQcy7j1x3fhkZ2rHuS707GklEYS06FXlYHLcJ8sCs/RNK/1+o5upJdpO2LJVmbSszX4RV5enpfAgWmnHooLZcifdasAX2Gu+NUlMWSSafYHXue/PgSNv1tP3NfLUCLBctSVN7e8xhv4HP5bR0jv1CfrUHJ+xtIKbXBEDFRzxFCiNuHBDC3vRd4afJ3fFg1jXsbX72kuiZ2WrdRHpm/qE+iPy3c1PqZx0nVatobYTeRVz7ZwHtTRukZZndPWcvHn3zAA6a+p8m89vkGXhun/v5nAx+r+Y//8zmT/hRiWtbEeRRP/3OVuUxNH76v1u1Q9/E+vnd/fekYXTYt5D6GM3ZcTWXf8c+7h+tbqLuSs4f1uWo6OeHrDCd3nP4V3UK23Dv/LqYuVdN/OzJpbkuCu+lFugb9XBn1QQBT/qsvp03/bKrCJ51/EwbN9WVy9fL57rTUiy8yGq8IwGqygOxMsHJrj5OeI4QQtwt5FtJt7wyH9u/hx51bOOcWTruGWWo+hly9tFHjCDwatcXHJ5zOzSvJ2J+PsWFbHBs2p+LcSc7ry11fCG1HhtCs+CA718fpeTXoFEmkoRGnE78kvqoZqCIBa7+HCPZ1xOq7dSSbWheGMXhUCM4n4/jguwQq6EmfBwx4NLPn5PrP+G9sFs4dgwm4y4Dtzij2FwYyetpL9HLNI/7Lz1i2KQsn/2DCehnI/iaGk6YXur7CzBMk7dnGFnWcLp+2c+DcHlIOJ7Mj6cqyLWw9loix0qhvpTZOlDUpJSvhCwpPqPkLp9X8doq1ZihfB7p3s6fkYBZ796h0CyucvKywdbsT26Y/U1b1gSnu/dzxaWQkaW2xqWXmkkqyjuewM+4MB7LLsfFqTmhva059XcRZU7kdf37dC5+KPGJWHWfDutPsUMvu2F6qgiqtvAGhr/rQ3amExNXHiYrKMpfHFXGm2uuXN2xNweEEspKPU27fgNyDP5J3jWd7NegxAt9muaSsjKZUzxNCiNuBtMDc9lLJKTR3CZXUEI30HTiVqeOm8kiAvUq500/Na+mp4ybQ17zIb+77mF0UWBvoMjzQnBEUiKcDpO//ihJzjklFahRz10SRnDCP2St2UWLtiV+YKmgVSScPtfzGKSyINpfP/foAJQ4Ggqs10lxPxbk40zG6eopXFW8WhUU1lcWSdU4b11NXa8n4z3QyflKzx5eR+p85ZB83l1zJbZSBp18JME+Tm+Om51/fzxTvPU9ZORSnFrI1No9ia3sM4Xqx+ueqtbScr/iZ82UXqDhp7pLKP3JpHL6pJUaVl52rpCJXL0+5fJx+0dfTOfC11lWYSPai6aTGJJoLanC+Up8RQojbjAQwFm79yn48Nacf7yZprQjpRKl5Lf3UnLGsNy9SB7mc+zWX10lfsVNdwHsEDaOTSvr1MOBYkUry+iuCg+qV4eYsTENHtTOwjb3pLifPgZ9f7EL6eJz5zidra22h2t3KLqQa5VeaWrvsncydOdmzU5gxajef7Cwzpeukjyt/XXgXk1/XA5+HmtFYLzIzsmZ+Oik4cu+4ACbNu4spH7fl3vvNdzypcINN89PYmmtD6MMdmDT7LqYu8uGhMea70n4J12ZaYCyEELcfCWCEEkOO1gXh4UULc8YN2sXqhFQqnA2EBwXSvZ0zFccP8G315hdNVT2r6e2Oq/b3gpqS8kyDgQsSP9Pvbqqa5rA8SVuodke2zTbdeXX1NJ8f2MJX+p1ZV07/2rZF38KvtNfI8SJV4XdyqWNry5Ua0GdoS1zOZPDBxN2m4GfG/OwruphUiLLtLGsmHWTWqD3MnXuYxKLGBA9vcWlc1AEjm/52iFl/2c2c6YdYd/wOvO/1pI8WWd6wkbhqH1J25sUuSyGEuF1IAHO7s+5O6yYRpslOu7i/oyGupnR3GpmXuCmOJR2islFHAh7x0HNuTMnKONJKnPEb9AQdVA1+ZfeRxs4nkkmDI/ELmcikIf7YkUWaNuSm5DN+TC3HMXgYI8L9aWZa2h5PN3syr9zINdyaLqTrKWPTprOUObgzem4Lgv9kg1OnBrg2vji89qKC4vPg4EjXB7RlGuH7p0vLNHCwxa19A9z+5MxDQ5uqmK8BLl3saWmKLBvgPUbNq+06dbLCurE1Tg1VVFhRyTnT2nfQ8qEmeHfXyhtg63QHTnZaE1YlZfmmBW7MkL54NVHnxk+L9AwhhLh9yCDe213A3/nn8PsJ7xJOO1WZ0LAZndV8eJf2nNu+hlTzUri2HUkPj1JSquXdkD2VWPULo0OXftxZcohTh2oY1FnTIN6L9lLkNYjwzi2xq0hl+3tf6gN6NeZBvNaHU7nQNZL7Qn1xsy4gecVc5idqQ3SNHN6RRWVLfzoHBtOtdxi9QkMI8KjkaMwmTps3cts7v7eAg+cv4OHTjK4hzekW3hy/phcozs4ncWOZCnHM8k+dwznIlU7BzdQyzvi4VZDyrZGDpZW06+JGd7Vel4CGZMacprRDU9q1csbLtYAdaY0Y8GQ77u5t3na3Lo7YlxWydcUJ9h7RtmxLyDPe3NtXL+/hTAsVvu2NTuf7bVpTV91Z9fkHf34yhKaFicROWyEDeIUQtx35JV5xiesYur41hqAWNuqiPY+kWZH8dJ2bkq5iN4xJbz+B9/HPeG7WUj1To91GPRDXpI947l9f6XnithT2NkOn9MTFSp0COfuIeetJMpL1MiGEuI1IACOuYtV+KC3CvSjfeO27bC4x4BkSRo/O/nQKCsTDOp0Nb4xj+Qm92EQCGIvRZiSGexw4u2UTuYcP6ZlCCHH7kTEw4iqVh1eRsbAuwYsmkscmjuLuEAPWmbEsePnK4EVYFO328IULJHgRQtz2pAVGCCGEEBZHWmCEEEIIYXEkgBFCCCGExZEARgghhBAWRwIYIYQQQlgcCWAsRk8Ms6IZvy5OTdGERujZQgghRD0kAYyleHg8vQPsyY1bwLJX32JHvJ4vhBBC1EMSwFiUcnIOLqIoaRPlVz7lTwghhKhHJICxFFH7yCi3oXXXMXqGEEIIUX9JAGMpijeRnQN2Xl1w0rOEEEKI+koCGIvgg8OQkXi5Qnn2YfL1XCGEEKK+kkcJ3PZGEvrFRPytjZzas4Hv35lDiYx/EUIIUc9JAGMRPLDp+TChzw3FUBjDognTKddLhBBCiPpIupAsQibl2/dSVKpm77QxZwkhhBD1mAQwliJoAG3dIDtplbS+CCGEqPckgLEUXT1wwkju4UQ9QwghhKi/JICxFBu034Gxx//ZaIYuXEHXMD1fCCGEqIesnF09p+nz4nZWEEfq1hLyHJ2wNR4kbXMcxQV6mRBCCFHPyF1IQgghhLA40oUkhBBCCIsjAYwQQgghLI4EMEIIIYSwOBLACCGEEMLiSAAjhBBCCIsjAYyoh9zx8AnDw05Pij8sO48wvD3c9dQv4DeR0PnRjF0Xx/gv5uKiZzN+MeO1vKhoBj45VM8UQtxKchu1+EPo/j+rGG9IZcEzU4jX867pzx/w4XADpH7FU298pGfWH95/epPH7gvEw1F/rlZJHskbP+KDFc6M//cTdHIwZ1O0q27H8yYb8eYGBhDNuFfn6DnDmKTt19nqeXXxBK98Mgxv63Q2PDqO5XqumRbE+uNYkU7y0VQ97wqNJ9J/8Ui8KjM5sPIL9uw5TtF+/ZewXXvi0NqHFg8/SO8AZ4q2z2PZm8vMZUKIW0JaYET9c/AA6QVGMlN36Rn1h13vWTw9MgTXilQ2LJzJ7HlLic+zx7OjCmiIY/lclTdrJlsy9RUs2i4VnBgpOZHKQT3nkjBGTHqZF/8aqaev1uKVoXjZ5JH09nC2frHqUvCiydlOUdIiUqZMYN2echx6PkjnNnqZEOKWkABG1D+p83jr2aG8sTRBz6gvBvLY0EAci3bx2eTnWf5DLMkJn7Fg6v089/oc0sgi85DK2xdLaYW+ikVLYPWbQ3lu6kz26jl1Nx6Dnw2VyT/w03WboDI59Z/tZKvwz/eh/nqeEOJWkC4kUYsJPP/scNodXcFza+freUE8+PDb9GsYz4zP/pcMhjN2/AS6aV0PF8opzE3nh/XTWJ+TZV6800I+7O+pZspJ+vpTSsImEOqqksXpRC0ey/pi01K1cCd83JsMCfXE0UolK4ykRc9j7opYSlTS3IWUzs5sA10M5q6RgqOxLPnnTHZqCyimrgltN3QlSR/x3L++0lO10MY8DPHSE5crip/Hsjfq0H1g2gYciG2IVx8P7NT7KDmxne8mv0S26Rh44DDmHwwc4oOT9hYqjWRv/4J1by2iUiUN78Zxt00MC55OIfSLifieWsbCF6D/6pG4JNVhHzq+ycwpIfDDFF5eeP3WJ9OxalpTF5LenaN91pXllJxNJ37JGyxJ1D9rxfGe13hxSAiu9jZYa5+V5kQsL6tAIkfN2nWYyNPjI/Buan+pXAVVi9RrbVGztXYhjfqYjwfC3q02ePdwNx/HzARWTH+VLabPejKvfT6Qix/1FV1hV54HF1VfLuhthr/Zk5L/G866/9TWHDXS9Hn4Z69lwfMz9TzdiP8wZkxHimJnsuqdtXqmEOJmkGchiVokcs5xJCHt7TAmrOW4ltXwSUZEeFK2+3O+zjiqMsrJSN3Djzu3cDCzAY1a+NO3axD5O9aq4EY5m8WevarS7tIWu8Z22CWv5cOEcjrcFYCfbSXfHqn9+thu8CxevK8tFSlRLPx0O0avQLqEBNPq9JfEqxdp1fMhgls0w/psLCs++YrdBe74qfJgr0rWbzVv/8TRk+zdEce2rVk4d/bHMS+R9T8eMJXVKj2Tw4nb2Re76aopeesOKgqN+oLXETyUYD8vGv+8j80fLeRAmS8+QR1wc8ng4PYjMGg2wx/rAOr4fPveF6Sc86FDv3to1Xg3h3dmckfICDq0LuH4ygYYHvai0c/5HPw/8HnUh/KfJqtl9Ne5lvYDiezqTkHy22xSh8Q0wNXLgGvztrg6OVKSm0VVw0tAxF/wbpTFzm9iOKnnmZWTmb6XHVvjOHzaCgcvf7qFB1IZtY7DpvInmPyqCh4qjrJ59VJWro9Vx1sd8x+3k56fp8ojeGzqXwl0zGP3mq9YsjbaXL4tgWT99U2vTSpRsdtNWwR/egwKxq1Mz+sUSaTBEwcOsHbJf/mpzEBgR188m57ku0TtfDzD0cPmfaxsF0Ybm8vfh/k8MJ8DrnlxzP5w6cV9OFx1DPzvp3OvFpQffK/240ouDveMUAHTIXauj9PzdAH3ExjYnPKjceozPqRnCiFuBulCErVKSk6l1NpAkI853aSTAfcLWexIjDVnqMomp/AABT9DTtZm1senUtjQHV83vbginozCIlPF4H7uMO8mLSHj5FfsyoZGTep2h8j9XQxYlx3g27fmsXPfUpbMiCMTe7x7DtOX0KSz5c05bNkXy5Zlb7DzhKqkW6tARy/VWmS07pHkfXkXK+o6M415iKlxKjlxIwNGjByLeomMuBiy311JaiHYNDbf29IizAe7wkRipswkW203+4OXSFIRY4sAc9dE7ukisG5IwwgPHDKPccrGnqbavNpmfpppkRvSaeRkXpzysnmaNIpOev71pZK+T33W5SpMSItj7feplFi7YwjVi3UVFeVUlBkpOaUf8ysHyqry4nNGKnIPmMsP7TK1pNWdkbQNr7IhQX3WH0eRrA6NnZ2zXqbto/l1a+oKM58H+jlQYTS//i/ahyqZVGpNZDVZ/iSLBoVJ64sQvwEJYETtMtazU108t/OZoBJB9G+vgo7MA/xwzlxs7fEPXn9qMf8cP5Wp49QU6U8Tc9FVSouqrvKTWPlFP55a+Y4pVStTt1E5Fx/AXaKCJq3ScqrWF6AqTK2Lwky9zgX1R53h1uaMX6fqttkappGvjdQXqqNrVHYO9jYqOgxm6MVtryBUGxha1c1Srg54I3scvFTAc2YnZytb4NJUBTQUcbYutwqpqEOroO0cI0zJ+H8NZdyjA1iQVIfWI51d7zeZ+dHn/P1VPfAZ7s/ld6N/xAcfx6pQ0pMBY1/mtXc38PF/PmfSn0L08liWLPhKnU/O9HhoIq/883M+/mQVr/0l8ortXK2i/Ir9vFbQcDOcLb+BzY/EVesSFULcUhLAiDpYz6bUPKzbBtGn4WA6ekDK7oUUmsoieLB/d1xyYpnxvgpI5qjpiyS97CbSahNrGxzNKVWTGnB1UHFMfrqecQW7x/BUlUpFdurNuQ149b9Z9ur0GqeohZv0hX6d/DxVQZceY/MbV7zGe6vMCxzLVaFKE9zaNaHo9EryCx1oGmCPTWku+XUZR7RvF5kq6HPtOJDuetaNiWD0kBAc1Wc99/kBpuBn3MdXt1oUbJ/JW5O14Ohp3pi3lJ1F7nR68DEG6eUlB1WQM3UoTz3+KP/vzc/YcBw8+49idEd9Ae2ztnPGz5xS7LFWUWhFkdYFdYskHSe/XB2rduP1jOto7IWTitiLsqWLSIhbSQIYUScZOw6QZW0gNNIf94pUkg5dGrSpsXZwp51TBL5tp/FSRADW2ODe/lk6NnSnUeMIWjdxMLeE2Dir+TCa3OCZt3ZnKhW2/tz7ykS6dFSV3dQwPLRuhO3VB+HaqMo5gi4DX+bFN4fhZ2dk78ab9DsvN60L6dqyv9lLfiMvekx4kNZt9B9jcfPCrlyvGOPzVABjg5ObCnbSMsnJgdY+KkorLFL5dfEVy7ekU+EQyGNz3mX0wEj81PFq0Vj/PZhq8otV7e1gIHywtswoBg0cqJeYP2tPg3acX+O1If6mz9o1aCLhph+MG8iAv6h5tV2/jp6mbh1HW5VdYW79gUDCh09mQIhW7o+jkwpKTa+vyvNNC7DliDq3XAMZ/dRj6rOOZNArah9sy0nfU8cB184hpvelTY3MJ53pvPDrqIIv0wKaVHK0Bh2PQMbrx8Gvb2S1brSVHD2i1vTriaGxnnUNdmODaUEeqTF6oFldxFxGrotj0JMq6hdC3FQyiFfUTWUBjp4DCG7ViNLk9Xx08TdUjpJy2peO/kGEdg2nR3tnTsYlcs67LV6t/PCzPgOd/odxEZ6myqNh8wDCu3TFKW0ZSXW6+8isIiWRQpdg/IJCCA8PpK1dKWnfzOOD6KOmLim3rg/QrZ0nHULD6ObfEuv8Xaz/9+ss3VlT94h5UKjzjQzivRlMg3jtOLN9Maaxz3TEc5jWopHAvk374GQMKSdb4xYSbHofnSP60rGrP1YFizimiqnohNfwLrRyyufQnBVktBtIz6DmVJ7YSvyGut0SbtyXQNr5lhh8/OnUrSe91Ov4OFVScjqFuNi4i11waVnOBAR2wkcd716hgRiaW5EZ8wnfl/oSGBhIN9NxdiZnYyIlfm1p1dIXH9czrD9qYPT4QfQJDzNtu1eQAYdz6WxbNYevj5oH8d7/1DD69dbLQzrhRgGHN3zCf380f5bG3Scp8+pE5y5q/8JD6OCkgpfYT5j7dYq5+9E0iLcRpxPNA7iv+jwfmM7MMYNM2zfFgQ2bmY5nr1ADd6yOYr+2ClmknW1JQIAvAfpx6BXkScX+1ezO1cqN5BV0wDsiEO/eHTiTuI+iqwZqe+AwYjZ/HubNHYc3svGTuKu7nfo9Qk+/BmSs/w8ZKiASQtw8chu1qH9avcbMGWGwfSYvf1g1EFmIq1kNepvBj/fEpZGK4bO3s2rsS5gaisYsZOyDPlhpt3Af2cS6l/+3xm48hylRjOxzjq0jhnPgBgJ2IUTtJIAR9YPWrdA5hODW7nj3CMHTIYstbzzKomv8irwQl/hgF9aH1t5FHF20jHItq+t4/NuXc2zLhut2IbpNjybSJ4WohyeRrecJIW4OCWBE/WD68TNPKCunIGcXsf+dx7qDl4/jEeJmM8yKJZS1LJpyI89wEkLUhQQwQgghhLA4cheSEEIIISyOBDBCCCGEsDgSwAghhBDC4kgAI4QQQgiLIwGMuOVMT0E2/WqrsFweOD25mOGrzc9tGlSHX9y3JL7vm9/X2MWL8e8pv6IrxO1I7kISv57pFmXY8Og4lutZ1/YEr3wyDG9SWf3Xp1mn59ZJy6l0uT+Eti72pucbVpYbSf/xU3bErTGX3wJWjhFYNzhLWW6SnnMDei1kRN9qD588byT38EY2r35ff8BlXbhj5eKP9fl0ygpq/hGba+/jC/Saeh+t9BQn17N8UR0fpnkFpylRDO/jTNHhGL5ftI2ijBhKLj1JEwa+y4ejtMcMZLFl6qMsOqHn3zbc8fDxx7Ei/eonZStW7ftj5x1M14fvx+BqZM87A4mX3zwU4rYiLTDiFtulKgwjJSdSSdZz6sRjGn3/EoGhUR47o94n6hMVuGSDZ1DYNZ98/VvwGDKVyEdG/YrXzGLHJzPU/r/Pxj1GmnQYTGg/89Oh6yYcn0fUPgwZrKevdu19XKO/9gpSfs2vwrZ5nd4qeClPXsay56eTrT0PqnrwonTv4Il1UR45Fe606X07traFMWLSy7z410g9fblKFZgVRc/k+6cXqWNlT+eHXufqJ0YJIX5PEsCIWyyB1W8O5bnX55Cm59ROXS1HhNH8fCo/zBvL0X1rKMteQvp/n2Tlhy/d/Cdf/6bKqciOVfu/htzoNSSrQMLWzkUv+62l6q+dZ/412V/IJrIjbuSxf/k8PedKEXRubU/FiVh2ZqqAylBzkGARihfw4xb1JloF0zlIzxNC3BakC0nUgTvh495kSKgnjlrfTYWRtOh5zF0Ra37CsN6FtDfBnk4hzloOJZm7WLtgChuqWuerfgm3StEuFjwzhXg9eX0T6DZlOB5pS4ha+ameV91wOkyaQCftqcFn4li335N7entiq8Lz3D3z2bh2hSpwxzZkGuG9DTTVLqXPG8nct4Jt3yy5+AC+JoO/ZmCAvWm+ojiP44lL2Kl3TzWJVGUdzWWXS2fbjLGYe0jUtv80jV4d3WncwNzFdXTze+xM0PseTF1INuz4ZCGZONA4aDi9A21IXvkcBw+bfxXYuut79O7tj4v2BOcr9rHVmO/o1dK02OWKk4ie+xLUaR81+vHKr6kLqfbj5PVOHP1bJF775/H1Z00VrBzAZy6f8/ceeSx/4nk2aGWhs3hvgicFJ+zxaGVDwZ5dFHQIxPPOPHZ+PJIPtmoLXf986/4/qxgflHepy9K0zUByogfwxlKVrjoft9rg3cMdO+15RZkJrJj+KlvUBka8uYEB1U7Fi651TmpPlH4hmPyVYUQv1PN0Ds+vYGR/F1IXj+b7L27OU8mFEHUjLTCiVnaDX2OUCgg4FMUHsz7j+0xVMfx5IuND9QVMPPFulsryeTP5YGkCBa6BjBj/MheHP0Z/xOxZM03T6n01PSH6euyxVgFBTvZ6PX2lLRxaPIMfUtR27Qz4t8nlxy/eZ9vRclw6D8ZTeyJxh6nc088AGeuJ+WQGMT/m0STwcbr3unRZXfzDe0RpXSwr17ArHdr0nkCXzuaywo2zTWU7tDqq+AA/mLpitGm+CkbMrPpOo3+gM4V7lrDuk/fZcqicNv2eo0NbfQETd7r9dSqRf32WezpCatx6jh7VH2ng8Q96D/CnSUGc2sf31fspx7XaPmZ+Xa37JzNOf301LV5qaoWqyz7Wqg7HqaHel3Le/OcqdupccSWL9Bi1mylZlNhqTwnXC02cKUkcx6I9RhxblbP69ThyrJzx7mpuqanb+VYbdT62TmfthzNZtDkLa48QBv3F3FX37SfaefgVyUUqoY5j1Xk5e+5S9pqWuEJ8Htqi2oMbhRC3DwlgRK3u72LAuuwA3741j537lrJkRpyqEO3x7jlMX0KTx94Vr7IhIZad0ervQRVMeBgI10vJSyB5X6xpyqn7iNU6yqIyN5YybbuNbSj84SVOH1/DiT2plKn9bOwKLv4GGhcnEf/lO5zNjuXs5qnsVbV6K+9L408qC9Q2jOWQv5/MbRs5UmxDc6/h5sLiOMrUehUXtMQ507x5itdbJoLwbO8OJzeyJfpTirPXcDpqBanF9rQKqD5eRWsN6cdybZq3AqPvcCKfets0XqVxcAAu6r3sWj5N7aNaf422vtpH3/tMa5r2r6r750LRpX2oGqxb6z7Wri7HqTZ3G1TwkZNOotZcsvUA6WX2eHSuvr6RkqwsyrWdMqrz5oRKq1nrO82RUd3Ot9oYSdtgPh+3fBxlClbs7MytgwVHtfMwzzxwusJ48bxMPrTL3KJ4peJz+szVit4dzoJBEdL6IsTvQAIYUTtTM345BeYUlKSSo1UITtXb4Y0U7NNnFVPldNMYqVCX+65u5or8+owUV9Ul+58jasYQDh6FRvaqcmwcxMCp3zHCNC2mh9Y8VPUvoMFwDOO/YcSkaUSaWkiG46t1SdWZAVs79aflffr2tWkCHdQ2rPSK+Splazj6owqyHNrTsq22nJZZToV2uW+yhQKtaaVJ01s2ULnW46Scu+4Amsfo0EqdImeyoGMEfh3TyTytPrt2YZda42pTp/OtDm7WORjhgdaIJ4S4vUgAI2qnVQTWNjiaU6omMeCqvtFL8tP1jCuF4NfCXl2FZ7FHz/l1EsjOBVvve/BsqmfdoMJ8o4oN0tm2qKpbRZ++No9xsY0YTpemeez49Elz68iM+Ry8oTt1tlCsBRtnk4iuvn01bdy4xbxILSpNLSc2WF+sLcNx1CKXwrO3bKBybcdJk5udp4KqFrRso2dUF+qPp606RTpE8uKUl03T3Vrc4eZJuBbg1cUNn2+/MW8XFcAYyTmop4UQtwUJYESt1u5MpcLWn3tfmUiXjqMYPVW7mjaStv0rfQmNDY20K+6+Exk//WXC3cpJT/jqxm6Vpj+dF8Qx/quFeF3W+pFEemwSZxu402PMYjr0GI2tWwS2vs/iG/Y4NAjCWktba8uqAECbdzSY1qxSmLCfXBtPut0/hObN9AjBqQ02F6r9BkgDe5p4BGDb5nHa/mU4nlZqay6BNPeuNk6msBwat8dQtQ9thtPYtLks0ner49Q0iPAB99DEybQ4Vs08sCrWx7iY6Ptn2v+p9Ojvj+35LPIz1LYT1T7iTuCIaTR1G0zzwcMxqONwIqX62J9UirUhRM2C8O04WN+O+msuNLn2PlZJpUzrK1HbaOurlT9+8T3W5TgVbUohX50BvqPu13Mu8evsiR3pbHh0AOOqplkJ5GhjUvrrC9WitvMtPU87AO50GjcKP1U+JtJfvSY4tplId3MvUR2kkqNtxiOQ8QMj1Xa0czeSTubCanrSOcRLBeN7SYnTs6obv5jx66IJreN7E0LcPFbOrp7T9HkhalSRkkihSzB+QSGEhwfS1q6UtG/m8UH0UfM4Ar9IIn1b0iY0jF5BvjhXphO36HXmRR8wrX+lVj0fItg5j53fxHBSzzPzxi2yL60a5XJEXfHnVx8rkx/DkSOtaNiuLYYO3fEPDsfXrx12DYvJPBtM30dH4OuqddXY07KLKmtpxf7d283raoyxpKe3orFfIP539aKDtoyfn9ruEjIz4fxxOGfoin+gKuvcGYecDSSf86NNy1Z4tW1GRnwM2kiIsmx7Lni2x6dTd/M21LI/Zy8h+7QqzPyJY0Vtce3QWb1GX1O5j7cHxcdWkad1C7UeTIBXS/P+aZN/W+wrsti7dgbHzuSZ9vFEaVfcfYPpGNIdL+dKTu9Zwo+xG7h0q2AWBadbYWfwpX3V+/BvQ+GBVeSXmpe47j6aqICpSH1OPn6qzFzu3qiUlP0JtR4nk5P7KAkeQkCXYFxs8zmedEjfv0AGPRRJm+K9fBazSYUcutPOBPQLxtu+EeuOOnNfV2fOJn7JiZbqPLBLJyoW+jxgwC4rkfU/Hqj1fDPuLsUhOIROnYPp1cMfm/0HMLZ2x7WZL834L5tQ56OhEafVa8SrwBD86TEoGOc88/bNskg725KAAF8CuvWkl+nc9aRi/2p25+qLNO6P1xuv0Ns0pvlf7Eu6epyLy/1P0KFVEYfmrOBM9fNVCPGbk9uoxS0WyJi3ZxFulcDsya/eYAuNuG2oyt3w+gvcrd12XllO6soIvl+kl/0BGGbFqvemAmL13k7FzGPd+6v0ksvVeku5EOI3IwGMuAUMeHZUV8zqCreFIYTube3J+eFVXl6orviFZWvVB7fwvtgcnk7GT3reH4DDkNdxKfuBU1s2UX7NsVAe+H+wglBiWPD0dD1PCHGrSAAjboHJvPb5QDzV1WyFMYu9G5by2f/pP4InhMUaStcFE/E8PI9Vs2puoRFC/HYkgBFCCCGExZG7kIQQQghhcSSAEUIIIYTFkQBGCCGEEBZHAhghhBBCWBwJYG57LzNwXRzj1TR20Vzcbuj5PEIIIcQfk/wS720vjfTdB0k+5krb8EA8m2dwYOsRvUwIIYSon6QF5raXSfn+GIpiMtF+jd7K5rKH2gghhBD1kgQwluKBNrhhJGOb/GCWEEIIIQGMhWgR4IVV+SlOxuoZQgghRD0mAYyFKNKe/W/jRcDTY7Bz1TOFEEKIekoeJWAxgnF6ejwRfTvi0vgYmwc9QopeIoQQQtQ3EsBYCKcpUQzvA3vef4ufordTqecLIYQQ9ZF0IVkIK1sb9f9C8rdI8CKEEEJIAGMhcuNSKMILzwc89BwhhBCi/pIAxlLE55l+B8alXR9zWgghhKjHJIC57Y0hdH4UQz/tTwvKyT28Sc8XQggh6i8JYG57uaSnneLsvk3EzHqSmC8y9XwhhBCi/pK7kIQQQghhcaQFRgghhBAWRwIYIYQQQlgcCWCEEEIIYXEkgBFCCCGExZEARgghhBAWRwIYcVNZNwzDvaG7nvot9KT1aysYHRXH+HXRhEbo2aL+iJjLyHXq84+KJfK1idjp2UKI+kVuo7Zwvnd/zfNB9nrKyI4lQ1iYrSdvuQk888xwOlqns/LdsXyn51Zn7TqVZ+4Pw9dZe7YTFP70Pn/bvMY0XzsPvN5ZQn8/yI1fy6b/S6To0CbKA2fx3oTAa1Rk6Wx4dBzL9dQf38sMWnc/DvHzWJZ5P+OHeHFscRgxX2hlttw735dgB8jZtp+P5p3H69UARvk3gOPHmPFKgWkLtbK7g8beVnDyPMV5el5dPeLF1D856gk49s1uli7WE9X4vh9Hb9dEVj2cSQ/1ftySl7HwhXnmwsbB2Pm0waX/w0T08YDDa/ni+ZmUm0uFEPWEtMBYuCPbZjPj4xnMiMvSc35Pu9h31EhhRiopes5l7lQBzkMR+N6pApwv1T6r/X57e12DF2XQ64T62ZC/aQ6r3phDbpIKXopVftJS5s6ayWxt2qwdByPJK/T0rI/41rRyfWWkpIaA1rW1imKwwbuFCl5uVHBzxrwSwOA/6ekb8U0GH7y1nw++PIP20dVVSUGOPqcUJ1KStIqMWcNZEZ2JTfsB9Biklwkh6g0JYCxcxbk4MgpjySi9Ha4/49n0zRD+tnIGGXrOZfy649vQyI51T/LdSbXPar9zKvSyOmgR5oNd+SGS/r1Wz9GV7CJtXyzJ2lRiPg4VeXp6XwJ1bFf440nLNT0/6yrZhZx0t8e3tT2tGueRclzPvxXyKsnfe5589bduH/0x8gv12RqUvL+BlFIbDBET9RwhRH0hXUi3PXfc/afxzD0GXK1V8ryRjJ0r+FfcEkrNC5h1WsiH/Z1r7EKybvIsjw++h45N7bGuuuAuSuLfC15inylhIChsGn/p4k4jrbzCyL6N7/HRgdg6VjIv8NLk+2inpyhM4t2PX7qqFaZJ18X8s3c5UXPGsl7Pq7v+dF34OkFlMSx4erqeV4NRH/PxQGf2zh/K3K16nt1EXnk/Eo+Uz3hu1lI9E+6espbRvumse/ZpVpdM5rXPB8LmaOg6EE+tP6oki71R85j7TYJ5BedRPP23YXTxMHfZVRSksuGDN1h9sI6tX6bPyFNPVGfu+ssM+47INnpWdcfX89TKd/REbcxdSFbRk4ja/ygjX/Al452BbI3VyvQupLwsEp2dYG8Jd7U2svGCJ/eqQKGqC8npoZaM+JOLOt/ugMpyTv50jCVzSzmPI6OWeuFlWupy+TtT+GB2mWm+5ZQOjAnUugh/5nxRCSnb0lmz6IoAO9yNp59yJ/96XUi2m1g0fi/dvphI64PzWPbGMr30cqZlmyay4pFJ5Ot5Qog/PitnV89p+ry4HbWewRuDfbkjbT2LVq8gsag9PXv1xb94L9tOV6s43QZzv3cjTu1dRtJlbfMRPDBsPKGOeezcsIJFm9ezZecWtuzbwfHyLC6oJZoEv8fLoc5k/bSMT9dv4liDAMLDe+F25MptXcsZDu3fw49qu+fcwmnXMEvNx5CrlzZqHIFHo7b4+ITTuXklGfvzMTZsi2PD5lScO6kqxroIoe3IEJoVH2Tn+jg9rwadIok0NOJ04pfEVzUDVSRg7fcQwb6OWH23jmRTVDaMwaNCcD4ZxwffJahArSd9HjDg0cyek+s/47+xWTh3DCbgLgO2O6PYXxjI6Gkv0cs1j/gvP2PZpiyc/IMJ62Ug+5sYTppeqBZns9izN958/K+YkvLTOXL8BIm7ri7bcjiBwoq6DjZxoqxJKVkJX1B4Qs1fOK3mt1Nsik0aYPizKy1Kc/ghx4l7OtmSf/AUGU2a46Oq/i0bz0G/Fkx4uBmkHufLBSfZXW5Ll94etG10hr17znHkUA47T92Bf8fGnNm0n8VfnGFH3Bl2JpRToTf3lGbmszte5acUUWbfmE693Gl+/jQp1SPaNvZ062ZP2eFstV09r5ryhq0pUO87K/k45fYNyD34I3lHan4OWIMeI/BtlkvKyujLg3ohxB+adCHd5rr5G2hUmMTCte+QVBhLUtJUYlRt2c677rffWFup/50vp6DCqAKGA+Yup6IkvXUliP4+7uoqfyNvx31KSuEaNn2/gl1F9vj6DjYtUbtUcrRtqqmkhmik78CpTB03lUcCtJYLd/qpeS09ddwE+poX+c19H7OLAmsDXYYHmjOCAvF0gPT9X1FizjGpSI1i7pookhPmMXvFLkqsPfELUwWtIunkoZbfOIUF0ebyuV8foMTBQHCIed1aVcSbj/1VUxyFKpIsLa6pTE3FqfoG6mItGf+ZTsZPavb4MlL/M4fsGrqIjh0rpoF1Jcf3Xv6BefVoSuOiLFZOL+CkKju5MJ24DCu8/LQxMz9TXK37p6JYzWtpNRWfMq1ucv6Iysv9WcW1Zexfm01KkRUt29vqpXVT9PV0DnytdRUmkr1oOqkxieaCGpyv1GeEEPWKBDC3OVd7G2gSxPOTv+ND07SYyNaqQAtK6iSWlV+vYGuOM30GP8vrzyzmw2e/5vm7BqP1SGndR46N1Z829/HexdeYQDetvrIy3yn0a61f2Y+n5vTj3SSjSqUTpea19FM31JWUy7lfc3md9BU71QW8R9AwOqmkXw/1vitSSV5/RfdP9cpwcxamoaPav5I29qa7nDwHfs7Hn28wT+PMdz5Zmw9k7bQupIvHuPr0NWPd4L4HaypT04Mv6Bu4iRYfY8aog3y7SU/rHBs3AAd3/rr0Lqbq072m8+0O8wK1sbOlz78CmDq7I0+/EqAmb+7SzqXfkGuzqrvwhBD1iQQwt7mMfFXpn1OV/mfmu3YuTtF1v3unonA+i1cO4bl3H+FvCz5lpboi971nNA820Uq3kKl1L+Qk8e/q21fTv7Zt0Ra4TcSQc1b98fCihTnjBu1idUIqFc4GwoMC6d7OmYrjB/i2evOLpnpg2NsdV+2v1s+WlGcaDFyQ+Jl+d1PVNIflSdpCdZA8/7Lje2mazVdn4IfomsrUdAOf9a+Vc7Ycys6ybvZ+891CVdOC64ykrcZpbCtCnYvZOGuPCpB2qymFxBpHEt8sI3HVPqTszItdlkKI+kECmNvcvqT95Fh7ct99Qwhy0S9lHdrgeP6KboVCI6XY4xv4LL5NIgjyeRztwlnrIuro/wLdmkXQuok/jrY2uDayUZVyOSXntPIsvtutKnbXIMZG3EM7/SXsXDywPlfHwanW3dW2te1HYKcNAr6jIa6mdHcamZe4KY4lHaKyUUcCHvHQc25Myco40kqc8Rv0BB3cru4+0tj5RDJpcCR+IROZNMQfO3V80rQhNyWf8WNqOY7BwxgR7k8z09L2eLrZk3nlRq7llnQh/TonvztDjm1T7hnTHO/W+tdDM2saV1Qb63+s3HQLtHtgM7y7N8CpUwNa9tI+eJ21OsfaWuPU3Y7QN1viZw22zRzw7VOtFedYhb4NZ1qq9d3+ZE9L8wl7Y4b0xUsF4sd+WqRnCCHqCxnEe7srjeXHtFZ4+wUSHNiLvsHhhPv7YXdmCTuqX3IW5FHWtDud/ToTqpYJbtucC0dWsa/kHgb8eTiDu6v1uqjprs60vKOAPT8sYEXWUVPjwoXcn0g60xbfALVul76m5Xq09+DCYbV+XbptAv7OP4ffb1qvndaq07AZnbXX6tKec9vXUFX9urYdSQ+PUlKq5d2QPZVY9QujQ5d+3FlyiFOHahjUWdMg3ov2UuQ1iPDOLbGrSGX7e1/qA3o15kG81odTudA1kvtCfXGzLiB5xVzmJ2pDdI0c3pFFZUt/OgcG0613GL1CQwjwqORozCZOmzdym6saxKsP2NW593O/NIhXRWO7M8tpFdScoBA3uoc3p9tdjlgXnCElWV+hsIyT9jZ4d2xGSC9VrpYJbHOOnd+WUrSvhDu7utKth5uanHE6fYodJU3x8XLA3/dnDq0tNv/+S2EpOR52dPBV6/duTpeAJliXqtfYb3qFOrHq8w/+/GQITQsTiZ22QgbwClHPyG3UwrK4jqHrW2MIamEDlXkkzYrkp+vclHQVu2FMevsJvI9ffks1mG+jdk36iOf+9ZWeJ25LYW8zdEpPXKzUKZCzj5i3niSjKrgSQtQbEsAIi2TVfigtwr0o31jzXTaXM+AZEkaPzv50CgrEwzqdDW+MY/kJvdhEAhiL0WYkhnscOLtlE7mHD+mZQoj6RsbACItUeXgVGQvrErxoInls4ijuDjFgnRnLgpevDF6ERdFuD1+4QIIXIeo5aYERQgghhMWRFhghhBBCWBwJYIQQQghhcSSAEUIIIYTFkQBGCCGEEBZHAhiL0RPDrGjGr4tTUzShdX+WoxBCCPGHIwGMpXh4PL0D7MmNW8CyV99iR7yeL4QQQtRDEsBYlHJyDi6iKGkT5abfYxdCCCHqJwlgLEXUPjLKbWjddYyeIYQQQtRfEsBYiuJNZOeAnVcXnPQsIYQQor6SAMYi+OAwZCRerlCefZh8PVcIIYSor+RRAre9kYR+MRF/ayOn9mzg+3fmUCLjX4QQQtRzEsBYBA9sej5M6HNDMRTGsGjCdMr1EiGEEKI+ki4ki5BJ+fa9FJWq2TttzFlCCCFEPSYBjKUIGkBbN8hOWiWtL0IIIeo9CWAsRVcPnDCSezhRzxBCCCHqLwlgLMUG7Xdg7PF/NpqhC1fQNUzPF0IIIeohK2dXz2n6vLidFcSRurWEPEcnbI0HSdscR3GBXiaEEELUM3IXkhBCCCEsjnQhCSGEEMLiSAAjhBBCCIsjAYwQQgghLI4EMEIIIYSwOBLACCGEEMLiSAAj6iF3PHzC8LDTk+IPy84jDG8Pdz31C/hNJHR+NGPXxTH+i7m46NmMX8x4LS8qmoFPDtUzhRC3ktxGLf4Quv/PKsYbUlnwzBTi9bxr+vMHfDjcAKlf8dQbH+mZ9cEwJv37CTo5QM72mbz8YSwDXlnLiA42kB7NuFfn6MvVwi4Q73bOVJyKJT1Pz6urUR/z8UBPPaG97ADeWKondCPe3MAAqu+Pvt9nb2AfTZ7glU+G4W2dzoZHx7FczzXTglh/HCvSST6aquddofFE+i8eiVdlJgdWfsGePccp2q//ErZrTxxa+9Di4QfpHeBM0fZ5LHtzmblMCHFLSAuMqH8OHiC9wEhm6i49o/5xbR2CHZEYWvyCh4MGjWLSlJd5bKCevhHRHzF71kxmrzhAiZ7129mlghMjJSdSOajnXBLGiEkv8+JfI/X01Vq8MhQvmzyS3h7O1i9WXQpeNDnbKUpaRMqUCazbU45Dzwfp3EYvE0LcEhLAiPondR5vPTtUXfkn6Bn1THYWOW6e3N0qEE+7VNLS9fxbIS+B5H2xJOfdikeSJrD6zaE8N3Ume/WcuhuPwc+GyuQf+Om6TXqZnPrPdrLxwPeh/nqeEOJWkC4kUYsJPP/scNodXcFza+freUE8+PDb9GsYz4zP/pcMhjN2/AS6OaiiC+UU5qbzw/pprM/JMi/eaSEf9te6DcpJ+vpTSsImEOqqksXpRC0ey/pi01K1cCd83JsMCfXE0UolK4ykRc9j7opY05W8uQspnZ3ZBroYzK0KBUdjWfLPmezUL/VNXROXei8oSfqI5/71lZ6qhTbmYYiXnrhcUfw8lr1Rh+4D0zbgQGxDvPp4YKfeR8mJ7Xw3+SWyTcfAA4cx/2DgEB+ctLdQaSR7+xese2sRlSppeDeOu21iWPB0CqFfTMT31DIWvgD9V4/EJaku+1DVFbOLvU0NsC8Lv9bpxF2I4O6LXTbu+A1/jfEDDThaq6Tah8zEr5g9bykFTOa1zwdS7RBeVP1Yhr+4ijGd7U3zFUV5pP+4lLn/jbq8xSV0Fu9NCCTnl3QhmbqhYO9WG7x7uJuPY2YCK6a/yhbTi1yxn0W7LutavPI8uKj6ckFvM/zNnpT833DW/SfTVHxtI02fh3/2WhY8P1PP0434D2PGdKQodiar3lmrZwohbgZpgRG1mM+m5HKs2wbRR8+h4WA6ekDOoY0qeNEkEfXlDGZ8PIOPvkkg7YInkQ9NI9RUpiTPV2VxalkbXIPD8dj7KTO+jCenkSf9e43WF7o+u8GvMaq3qnUORfHBrM/4PlNVXn+eyPiLL6LYGvC8EMuiWTNZ9E0qtI3gsYmj9EL49pOZ5u6LWV+RXKRn1tXqf7Ps1ek1TlELN+kL1YUXXl7H2DxLrReTSYNWPQl9Ur9yH/Q6kSN8sDq8lihtu9E5OISNZ+D4YFPx2TwjNHXGRW3DybqcyiYe6ojaY6OCnaLMGxl/kcXBEzb4dTVQkJFAhZ5rcs/LPP1nFdwcjTYfxx/ycAx5jEmjAlVhFJ9V6/7J3Fx1PGcyd1mcaXXNnpXzzPkLo/jxOHj2f4JJf9YLbxpPvFXwtfZDtY+bs7D2CGHQXyL0Mn0/1bSlhtjDfB7o50Bm3MX3MHvu0kstNU1t0OJkKmsLXjSbOHtW/TGtIIS4VSSAEbVKSk6l1NpAkI853aSTAfcLWexIjDVnkEpO4QEKflZBTdZm1senUtjQHV83vbginozCIlNF6X7uMO8mLSHj5FfsyoZGTep2h8j9XQxYlx3g27fmsXPfUpbMiCNTVd7ePYfpS2jS2fLmHLbsi2XLsjfYeUIFPq0D6aKXai0ypu6LfXmXV9p1YRrzEFPjVHKiLpVcFSPHol4iIy6G7HdXkloINo3N97a0CPPBrjCRmCkzyVbbzf7gJZJUANAiwBzg5J5WNa51QxpGeOCQeYxTNvY01ebVNvPTTIvUWdxxVelbG8ncX/UZmg0IMWBXtIvlVcdx0avEq+Po6asFB6mkV+v+qSipOp6xpGXqrW2KdpzTc9UyOQeI/0aVFdngYaj+Od0MRtI2vMqGBLWPH0eZghE7O2e9TN9PNZXW8EGbzwP9HKgwXnwPyYd2/cJxOZlUak1kNVn+JIsGhUnrixC/AQlgRO0y1rMzD9r5TFCJIPq3V0FH5gF+OGcutvb4B68/tZh/jp/K1HFqivSnibnoKqVFWXrwkMTKL/rx1Mp3TKlambqNyrn4AO4SFTRplZZTtb6AMiM5+qzWylBxQf1RZ7jWE/KrVd02W8M08rWR+kJ1dI3KzsHeRkWHwQy9uO0VhGoDQ6uu7MvVAW9kj4OXCnjO7ORsZQtcmqqAhiLO1nrr1eVKlo5j3KNDmbtZz9A5NVb74BDI+M838LFp+py7W6mCurYu2A1j/Ntree+fr/HilJfVNAw/rWvxJqgoN+pzumsFDTfD2fIb2PxIXLUuUSHELSUBjKiD9WxKzTN3I+ndRym7F1JoKovgwf7dccmJZcb7KiCZo6YvkvSym0irTaxtcDSnVEVpwFVVjCX51xiBavcYnqpSqchOrf226rq4aV1I15avdRGVHmPzG1e8xnurzAscy1WhShPc2jWh6PRK8gsdaBpgj01pLvl1GkdUu8x8tQ9l6Wz4l96tUjV9EqUvcX1+Y4bR3TmPLbOfVgHSADV9xN4b7a7TPms7Z/zMKcUeaxWFauNpbpmk4+SXg2u78XrGdTT2wklF7EXZh/QMIcStIAGMqJOMHQfIsjYQGumPe0UqSYcudRlorB3caecUgW/babwUEYA1Nri3f5aODd1p1DiC1k0czC0hNs5qPowmN3jmrd2ZSoWtP/e+MpEuHUcxemoYHlo3wvbqg3BtcO0YQZeB6sr/TXXlb2dk78ab9DsvN60L6dqyv9lLfiMvekx4kNZt9GYLNy/syvWKMT5PBTA2OLmpYCctk5wcaO2jorTCIpV/c2zZeIAcW0/u/kskwa3MA3Fx9aSZ+swvOp5nagnzuOtNBoRE4KeOeXjPavdUW9vTrK0/fiGPMWa69jssKqtZIIN6B3LxtwOPG03dNR53vUa46TN7gnCtpUfZckSdW66BjH7qMfVZRzLolUj8bMtJ31PHAdfOIaZ90qZG5pPOdF74dQy5FABr3Z5ag45HIOMHqu1r5X0j6WQuVFZy9Iha068nhsZ61jXYjQ2mBXmkxuiBZnURcxm5Lo5BT6qoXwhxU0kAI+rm3BqSTqoKs7UzpYfi2aR1z5jEsjImngxrf0b+ZSrP/zmQksQEMi/Y0DpkMH/pFU7fgVrXUhit1dJNAoar+RcZ1sy8dl2VrHmDpZvTwSeSp6c8xt0e5aT93zwWbDWXV1Soy2UHfx6Y8jJPP6SCm7JdrH7raT7Qyy1C/EusmhVDto0PPcZPZuSbrzPy6Yfx76WXF+dSXm6PW4tznN2mgpjsHBya2lN59vhNC2BIepW3PowlUwWrd4+aaO4G0lpVzOOIzU58xuqYdEpcQxgxUesmepkxQ0PwVkXJi74iPtMGvwfVuhNH0bkijkQV31m3CuGBh0ZdChBOfMS67VlUNA9jjOkziySsp7koc9E8lidpg4dHqc96Ig8YID3mIz7YaC6vlQqGzN1XLxOuxQ36efHilCe417yEos6P5bGklzjTvep9jh1GF32clzauJXX5dvLVZxH6/tu0aFVTAOKBw4j/EDnQg/LD29hTU1Oft4s+RunmBLlCiEvkNmpR/7R6jZkzwkD/NVohrsVq0NsMfrwnLo2gMns7q8a+RL5WMGYhYx/0wcpKBddHNrHu5f+tsRvPYUoUI/ucY+uI4Ry4Sd18QggzCWBE/aB1K3QOIbi1O949QvB0yGLLG4+y6Bq/Ii/EJT7YhfWhtXcRRxctw3QPVtfx+Lcv59iWDdftQnSbHk2kTwpRD08iW88TQtwcEsCI+qHqGTxl5RTk7CL2v/NYd/DycTxC3GyGWbGEspZFU27kGU5CiLqQAEYIIYQQFkcG8QohhBDC4kgAI4QQQgiLIwGMEEIIISyOBDBCCCGEsDgSwIhbzs4jDG+Puj3EUdyuPHB6cjHDV5uf2zSoDr+4b0l83ze/r7GLF+PfU35FV4jbkdyFJH490y3KsOHRcSzXs67tCV75ZBjepLL6r0+zTs+tk5ZT6XJ/CG1d7E3PFqwsN5L+46fsiFtjLr8FrBwjsG5wlrLcJD3nBvRayIi+1R4+ed5I7uGNbF79/g08HdsdKxd/rM+nU1ZQ84/YXHsfX6DX1PvQf7EfTq5n+aI6PkzzCk5Tohjex5miwzF8v2gbRRkxlFx6kiYMfJcPR6n9JIstUx9l0Qk9/7bhjoePP44V6SQfvfo4WrXvj513MF0fvh+Dq5E97wwkXn7zUIjbirTAiFtsl6owjJScSCVZz6kTj2n0/UsEhkZ57Ix6n6hPVOCSDZ5BYdd88vVvwWPIVCIfGfUrXjOLHZ/MUPv/Phv3GGnSYTCh/SL0sroIx+cRtQ9DBuvpq117H9for72ClF/zq7BtXqe3Cl7Kk5ex7PnpZGvPg6oevCjdO3hiXZRHToU7bXrfjq1tYYyY9DIv/jVST1+uUgVmRdEz+f7pRepY2dP5odex0cuEELcHCWDELZbA6jeH8tzrc0jTc2qnrpYjwmh+PpUf5o3l6L41lGUvIf2/T7Lyw5du/pOvf1PlVGTHqv1fQ270GpJVIGFr56KX/dZS9dfOM/+a7C9kE9kRN/LYv3yennOlCDq3tqfiRCw7M1VAZag5SLAIxQv4cYt6E62C6Ryk5wkhbgvShSTqwJ3wcW8yJNQTR63vpsJIWvQ85q6INT1RuKoLaW+CPZ1CnLUcSjJ3sXbBFDZUtc5X/RJulaJdLHhmCjU9/+5qE+g2ZTgeaUuIWvmpnlfdcDpMmkAn7anBZ+JYt9+Te3p7YqvC89w989m4doUqcMc2ZBrhvQ001S6lzxvJ3LeCbd8soVLbhNJk8NcMDDA/gbmiOI/jiUvYqXdPNYlUZR31pzNfJp1tM8Zi7iFR2/7TNHp1dKdxA3MX19HN77EzQe97MHUh2bDjk4Vk4kDjoOH0DrQheeVzHDxs/lVg667v0bu3Py62KnHFPrYa8x29WpoWu1xxEtFzX4I67aNGP175NXUh1X6cvN6Jo3+LxGv/PL7+rKmClQP4zOVz/t4jj+VPPM8GrSx0Fu9N8KTghD0erWwo2LOLgg6BeN6Zx86PR+oP37z++db9f1YxPijvUpelaZuB5EQP4I2lKl11Pm61wbuHO3ba84oyE1gx/VW2qA2MeHMDA6qdihdd65zUnij9QjD5K8OIXqjn6RyeX8HI/i6kLh7N91/IAxuFuJWkBUbUym7wa4xSAQGHovhg1md8n6kqhj9PZHyovoCJJ97NUlk+byYfLE2gwDWQEeNf5uLwx+iPmD1rpmlavc+oZ9aVPdYqIMjJXq+nr7SFQ4tn8EOK2q6dAf82ufz4xftsO1qOS+fBeDqoRTpM5Z5+BshYT8wnM4j5MY8mgY/Tvdely+riH94jSutiWbmGXenQpvcEunQ2lxVunG0q26HVUcUH+MHUFaNN81UwYmbVdxr9A50p3LOEdZ+8z5ZD5bTp9xwd2uoLmLjT7a9Tifzrs9zTEVLj1nP0qP5IA49/0HuAP00K4tQ+vq/eTzmu1fYx8+tq3T+Zcfrrq2nxUlMrVF32sVZ1OE4N9b6U8+Y/V7FT54orWaTHqN1MyaLE1pMOl50rzpQkjmPRHiOOrcpZ/XocOVbOeHc1t9TU7XyrjTofW6ez9sOZLNqchbVHCIP+Yu6q+/YT7Tz8imTtEd7qOFadl7PnLmWvaYkrxOeZnvatPbhRCHH7kABG1Or+Lgasyw7w7Vvz2LlvKUtmxKkK0R7vnsP0JTR57F3xKhsSYtkZrf4eVMGEh4FwvZS8BJL3xZqmnLqPWK2jLCpzYynTttvYhsIfXuL08TWc2JNKmdrPxq7g4m+gcXES8V++w9nsWM5unspeVau38r40/qSyQG3DWA75+8nctpEjxTY09xpuLiyOo0ytV3FBS5wzzZuneL1lIgjP9u5wciNboj+lOHsNp6NWkFpsT6uA6uNVtNaQfizXpnkrMPoOJ/Kpt03jVRoHB+Ci3suu5dPUPqr112jrq330vc+0pmn/qrp/LhRd2oeqwbq17mPt6nKcanO3QQUfOekkas0lWw+QXmaPR+fq6xspycqiXNspozpvTqi0mrW+0xwZ1e18q42RtA3m83HLx1GmYMXOztw6WHBUOw/zzAOnK4wXz8vkQ7vMLYpXKj6nz1yt6N3hLBgUIa0vQvwOJIARtTM145dTYE5BSSo5WoXgVL0d3kjBPn1WMVVON42RCnW57+pmrsivz0hxVV2y/zmiZgzh4FFoZK8qx8ZBDJz6HSNM02J6aM1DVf8CGgzHMP4bRkyaRqSphWQ4vlqXVJ0ZsLVTf1rep29fmybQQW3DSq+Yr1K2hqM/qiDLoT0t22rLaZnlVGiX+yZbKNCaVpo0vWUDlWs9Tsq56w6geYwOrdQpciYLOkbg1zGdzNPqs2sXdqk1rjZ1Ot/q4GadgxEeaI14QojbiwQwonZaRWBtg6M5pWoSA67qG70kP13PuFIIfi3s1VV4Fnv0nF8ngexcsPW+B8+metYNKsw3qtggnW2LqrpV9Olr8xgX24jhdGmax45PnzS3jsyYz8EbulNnC8VasHE2iejq21fTxo1bzIvUotLUcmKD9cXaMhxHLXIpPHvLBirXdpw0udl5KqhqQcs2ekZ1of542qpTpEMkL0552TTdrcUdbp6EawFeXdzw+fYb83ZRAYyRnIN6WghxW5AARtRq7c5UKmz9ufeViXTpOIrRU7WraSNp27/Sl9DY0Ei74u47kfHTXybcrZz0hK9u7FZp+tN5QRzjv1qI12WtH0mkxyZxtoE7PcYspkOP0di6RWDr+yy+YY9DgyCstbS1tqwKALR5R4NpzSqFCfvJtfGk2/1DaN5MjxCc2mBzodpvgDSwp4lHALZtHqftX4bjaaW25hJIc+9q42QKy6FxewxV+9BmOI1Nm8sifbc6Tk2DCB9wD02cTItj1cwDq2J9jIuJvn+m/Z9Kj/7+2J7PIj9DbTtR7SPuBI6YRlO3wTQfPByDOg4nUqqP/UmlWBtC1CwI346D9e2ov+ZCk2vvY5VUyrS+ErWNtr5a+eMX32NdjlPRphTy1RngO+p+PecSv86e2JHOhkcHMK5qmpVAjjYmpb++UC1qO9/S87QD4E6ncaPwU+VjIv3Va4Jjm4l0N/cS1UEqOdpmPAIZPzBSbUc7dyPpZC6spiedQ7xUML6XlDg9q7rxixm/LprQOr43IcTNY+Xs6jlNnxeiRhUpiRS6BOMXFEJ4eCBt7UpJ+2YeH0QfNY8j8Isk0rclbULD6BXki3NlOnGLXmde9AHT+ldq1fMhgp3z2PlNDCf1PDNv3CL70qpRLkfUFX9+9bEy+TEcOdKKhu3aYujQHf/gcHz92mHXsJjMs8H0fXQEvq5aV409LbuospZW7N+93byuxhhLenorGvsF4n9XLzpoy/j5qe0uITMTzh+Hc4au+Aeqss6dccjZQPI5P9q0bIVX22ZkxMegjYQoy7bngmd7fDp1N29DLftz9hKyT6vCzJ84VtQW1w6d1Wv0NZX7eHtQfGwVeVq3UOvBBHi1NO+fNvm3xb4ii71rZ3DsTJ5pH0+UdsXdN5iOId3xcq7k9J4l/Bi7gUu3CmZRcLoVdgZf2le9D/82FB5YRX6peYnr7qOJCpiK1Ofk46fKzOXujUpJ2Z9Q63EyObmPkuAhBHQJxsU2n+NJh/T9C2TQQ5G0Kd7LZzGbVMihO+1MQL9gvO0bse6oM/d1deZs4pecaKnOA7t0omKhzwMG7LISWf/jgVrPN+PuUhyCQ+jUOZhePfyx2X8AY2t3XJv50oz/sgl1PhoacVq9RrwKDMGfHoOCcc4zb98si7SzLQkI8CWgW096mc5dTyr2r2Z3rr5I4/54vfEKvU1jmv/FvqSrx7m43P8EHVoVcWjOCs5UP1+FEL85uY1a3GKBjHl7FuFWCcye/OoNttCI24aq3A2vv8Dd2m3nleWkrozg+0V62R+AYVasem8qIFbv7VTMPNa9v0ovuVytt5QLIX4zEsCIW8CAZ0d1xayucFsYQuje1p6cH17l5YXqil9YtlZ9cAvvi83h6WT8pOf9ATgMeR2Xsh84tWUT5dccC+WB/wcrCCWGBU9P1/OEELeKBDDiFpjMa58PxFNdzVYYs9i7YSmf/Z/+I3hCWKyhdF0wEc/D81g1q+YWGiHEb0cCGCGEEEJYHLkLSQghhBAWRwIYIYQQQlgcCWCEEEIIYXEkgBFCCCGExZEA5rb3MgPXxTFeTWMXzcXthp7PI4QQQvwxyS/x3vbSSN99kORjrrQND8SzeQYHth7Ry4QQQoj6SVpgbnuZlO+PoSgmE+3X6K1sLnuojRBCCFEvSQBjKR5ogxtGMrbJD2YJIYQQEsBYiBYBXliVn+JkrJ4hhBBC1GMSwFiIIu3Z/zZeBDw9BjtXPVMIIYSop+RRAhYjGKenxxPRtyMujY+xedAjpOglQgghRH0jAYyFcJoSxfA+sOf9t/gpejuVer4QQghRH0kXkoWwsrVR/y8kf4sEL0IIIYQEMBYiNy6FIrzwfMBDzxFCCCHqLwlgLEV8nul3YFza9TGnhRBCiHpMApjb3hhC50cx9NP+tKCc3MOb9HwhhBCi/pIA5raXS3raKc7u20TMrCeJ+SJTzxdCCCHqL7kLSQghhBAWR1pghBBCCGFxJIARQgghhMWRAEYIIYQQFkcCGCGEEEJYHAlghBBCCGFxJIARN5V1wzDcG7rrqd9CT1q/toLRUXGMXxdNaISeLf6QGrRrQGNnPXHTjCT0C+38iWP0/Lm09tOzhRAWRW6jtnC+d3/N80H2esrIjiVDWJitJ2+5CTzzzHA6Wqez8t2xfKfnVmftOpVn7g/D11l7thMU/vQ+f9u8xjRfOw+83llCf1Xh5MavZdP/JVJ0aBPlgbN4b0IgdvpSl0tnw6PjWK6n/vheZtC6+3GIn8eyzPsZP8SLY4vDiPnCXOr2oi9/7WJrTmgqyzm5O4M1HxjJL7Hl3vm+BDvoZUVZfDIhm9/idNICE3vrSvJTrvP108mVv77SErf8LD56OpscPbsuXF6LZmj3HDYPWovrFxPxL93OsrEvmX7NWjuPbAI64tB+AD0e6UkLq2N8//wjpB43FQohLIS0wFi4I9tmM+PjGcyIy9Jzfk+72HfUSGFGKil6zmXuVAHOQxH43qkCnC/VPqv9fnt7XYMXZdDrhPrZkL9pDqvemENukgpeilV+0lLmzprJbG3arB0HI8kr9PSsj/jWtHJ9ZaTkygik6Awr39rPB28d5Mu4Ypy6eDNmshb+lbFpjpa/n02nzIv+VgLGB/D05Oa46ekapRlJPVVGzrGiGwpealScqwcvmkzK98eQ+/VLrHt1E9k2XnQfP0YvE0JYCglgLFzFuTgyCmPJKC3Xc35P8Wz6Zgh/WzmDDD3nMn7d8W1oZMe6J/nupNpntd85FXpZHbQI88Gu/BBJ/16r5+hKdpG2L5ZkbSoxH4eKPD29L4ECU049lFa90q6ukvy959VUTtr8dNYcOE/j9i74qpKyFC3/PMYb+Fx+MyUqoHoxhY9mlegZv8Qycq4X/ST/Lz/tKccuoA9eepYQwjJIF9Jtzx13/2k8c48BV2uVPG8kY+cK/hW3hFLzAmadFvJhf+cau5CsmzzL44PvoWNTe6wb6JlFSfx7wUvsMyUMBIVN4y9d3GmklVcY2bfxPT46EEvd6rEXeGnyfbTTUxQm8e7HL13VCtOk62L+2bucqDljWa/n1V1/ui58naCyGBY8PV3Pq8Goj/l4oDN75w9l7lY9z24ir7wfiUfKZzw3a6meCXdPWcto33TWPfs0q0sm89rnA2FzNHQdiKfWIFGSxd6oecz9JsG8gvMonv7bMLp4mLvsKgpS2fDBG6w+WMfWL9Nn5KknqjN3/WWGfUdkGz2ruuPreWrlO3qiNuYuJKvoSUTtf5SRL/iS8c5AtsaaS01dSO3zL+saMncrnWPdqGPs1vPueusuBjnX1IVUrZupspLivLPELT5J4g5zqaZBP1dGDHWjlUMDGljpmRnpzPrbWVyu7MK6qODS64e78fRT7jiZ8pXjx5jxyuVhaINeTXnwkZZ4O5lf4HxJIbu/TufbtZWmtKkLqfMx1g17Eof34+jNWhY8O9NUdpXxixk/xJU9bw0kPk7PE0Lc9qycXT2n6fPidtR6Bm8M9uWOtPUsWr2CxKL29OzVF//ivWw7Xa3idBvM/d6NOLV3GUlat8pFETwwbDyhjnns3LCCRZvXs2XnFrbs28Hx8iwuqCWaBL/Hy6HOZP20jE/Xb+JYgwDCw3vhduTKbV3LGQ7t38OParvn3MJp1zBLzceQq5c2ahyBR6O2+PiE07l5JRn78zE2bItjw+ZUnDvJeX256wuh7cgQmhUfZOf669QynSKJNDTidOKXxFc1A1UkYO33EMG+jlh9t45kU1Q2jMGjQnA+GccH3yWoQK0nfR4w4NHMnpPrP+O/sVk4dwwm4C4Dtjuj2F8YyOhpL9HLNY/4Lz9j2aYsnPyDCetlIPubGE6aXqgWZ7PYszfefPyvmJLy0zly/ASJu64u23I4gcKKPH0jtXGirEkpWQlfUHhCzV84rea3U6zX//a9XOniUkbS2mKqPlqvgR74WReyfa3xYouNez93fBoZL1vOrJKs4znsjDvDgexybLyaE9rbmlNfF3HWVG7Hn1/3wkftb8yq42xYd5odatkd20spUQsUH8tnb+IZSryb46XOm5VzjvGDVh5XwMnTP5vOR3JKOLBfe40ibAKdcS/NZ8vGc6atmxic+cvfPHEryuXbL47x3c4SbNu50qFtBYe/Va+jFqm0aU5x5l5O7N5HacPWFBzdzZnkQ+b1r+TShw49XClMWEzGUT1PCHHbky6k21w3fwONCpNYuPYdkgpjSUqaSoyqLdt51/32G2vtIvV8OQUVRhUwHDB3ORUl6a0rQfT3cVdXuRt5O+5TUgrXsOn7FewqssfXd7BpidqlkqNtU00lNUQjfQdOZeq4qTwSoLVcuNNPzWvpqeMm0Ne8yG/u+5hdFFgb6DI80JwRFIinA6Tv/8pU4VWpSI1i7pookhPmMXvFLkqsPfELUwWtIunkoZbfOIUF0ebyuV8foMTBQHCIed1aVcSbj/1VUxyFquYuLa6pTE3FqfoG6mItGf+ZTsZPavb4MlL/M4fsqwanWuHUqYGabPB90Zt7DVbkJ+fXLQjjZ4r3nqesXAUjqYVsjc2j2NoeQ7herL5StEa88xU/c77sAhUnzV1S+Uf0ht5T5u4rcxdVVVeWNlVeCmRLzK+h5dcU3DoNdKYl6rVnn2J3rFoutoB1r+xjzv/kXRwrUx4zhwOLlqF1KBZ9PZ0DX1/R7Vhdpek/IYSFkQDmNudqbwNNgnh+8nd8aJoWE9laFVQ1zdcqlpVfr2BrjjN9Bj/L688s5sNnv+b5uwaj9Uhp3UeOjdWfNvfx3sXXmEA3rYvAynyn0K+1fmU/nprTj3eTjCqVTpSa19JP3VBXUi7nLuszu0FJX7EzEzyChtFJJf16qPddkUry+iu6f6rXZJuzzBWi9q+kjb3pLifPgZ/z8ecbzNM4851P1uYDWTutC+niMa4+fc1YN7jvwZrK1PTgC/oGbhKHZjz4SgBPv9KBBztZkRV/mEX/KtMLa9HHlb8uvIvJr2vrq+mhZminzyVG1sxPJwVH7h0XwKR5dzHl47bce3+dT9haNbRV2yoq5UT1gVa/ZpiMtwtVN14JISyHBDC3uYx8VemfU5X+Z+a7di5O0XW/e6eicD6LVw7huXcf4W8LPmWluiL3vWc0DzbRSreQqXUv5CTx7+rbV9O/tm3RFrhNxJCj9VF4eNHCnHGDdrE6IZUKZwPhQYF0b+dMxfEDfHtlxVe9nu3tjqv2V+vXSMozDQYuSPxMv7upaprD8iRtoTpInn/Z8b00zearM/BDdE1larqBz7pOtNujR+1mhjaNOcTSuSVXdBNdSwP6DG2Jy5kMPpiorz8/+6p1z287y5pJB5k1ag9z5x4msagxwcNbmAYJ3wznylSU6dAYL4Oe8Su5eGifcg7Z+jghIYRlkADmNrcvaT851p7cd98Qglz060SHNjiev6JbodBIKfb4Bj6Lb5MIgnweR2uo0bqIOvq/QLdmEbRu4o+jrQ2ujWxUpVxOiWlYQRbf7VYVu2sQYyPuoZ3+EnYuHlifq+PgVOvuatva9iOw0/oP7miIqyndnUbmJW6KY0mHqGzUkYBHPPScG1OyMo60Emf8Bj1BB7eru480dj6RTBociV/IRCYN8cdOHZ80bchNyWf8mFqOY/AwRoT708y0tD2ebvZk1vXq/5Z0Id0cBcXn1XnmSNcHbHDq1AjfP2kfrFkDB1vc2jfA7U/OPDS0qYr5GuDSxZ6WpsiyAd5j1Lypi8oK68bWODVUUWFFJdVGsVBQWG7aftioRuburO62uJpPWGhR1cXVwNQdpfWBmtK+d5iK86PzOKmOfZ+XPQn9k7Z/2vp2+PYxl9+QxuMJ6GhPZfJObv1RFkL8GjKI93ZXGsuPaa3w9gskOLAXfYPDCff3w+7MEnZUjZLVFORR1rQ7nf06E6qWCW7bnAtHVrGv5B4G/Hk4g7ur9bqo6a7OtLyjgD0/LGBF1lFT48KF3J9IOtMW3wC1bpe+puV6tPfgwmG1fl26bQL+zj+H329ar53WqtOwGZ211+rSnnPb11ysGFzbjqSHRykp1fJuyJ5KrPqF0aFLP+4sOcSpQ5l6QTU1DeK9aC9FXoMI79wSu4pUtr/3pT6gV2MexGt9OJULXSO5L9QXN+sCklfMZX6iNjrEyOEdWVS29KdzYDDdeofRKzSEAI9KjsZs4rR5I7e9mgbx1iT/1Dmcg1zpFNyMbuHO+LhVkPKtkYOllbTr4kb38OZ0CWhIZsxpSjs0pV0rZ7xcC9iR1ogBT7bj7t7N1Xpq6uKIfVkhW1ecYO8RfeNKflYJdr5N6RDc3LStbj2csM0+Q8phcJvgw4QRLUyv695QLawCHdO2gn/mkLbfeaXsTi/HuYMzQT3d9fWdafGzev0f6zYk3MR1KEGz/kpn11L2LXqGkzKAVwiLIrdRC8viOoaub40hqIUNVOaRNCuSn27k1le7YUx6+wm8j19+SzWYb6N2TfqI5/71lZ4n/piG0nXhZIK0X9FT51DKorfYvHK7uUgIYTEkgBEWyar9UFqEe1G+saa7bK5kwDMkjB6d/ekUFIiHdTob3hjH8hN6sYkEMPVHMG5j+mOTtolTcdvlDiQhLJSMgREWqfLwKjIW1iV40UTy2MRR3B1iwDozlgUvXxm8iPolkexFM8mQ4EUIiyYtMEIIIYSwONICI4QQQgiLIwGMEEIIISyOBDBCCCGEsDgSwAghhBDC4kgAYzF6YpgVzfh1cWqKJrTuz3IUQggh/nAkgLEUD4+nd4A9uXELWPbqW+yI1/OFEEKIekgCGItSTs7BRRQlbaK8bk/fE0IIIf6QJICxFFH7yCi3oXXXMXqGEEIIUX9JAGMpijeRnQN2Xl1w0rOEEEKI+koCGIvgg8OQkXi5Qnn2YfL1XCGEEKK+kkcJ3PZGEvrFRPytjZzas4Hv35lDiYx/EUIIUc9JAGMRPLDp+TChzw3FUBjDognTKddLhBBCiPpIupAsQibl2/dSVKpm77QxZwkhhBD1mAQwliJoAG3dIDtplbS+CCGEqPckgLEUXT1wwkju4UQ9QwghhKi/JICxFBu034Gxx//ZaIYuXEHXMD1fCCGEqIesnF09p+nz4nZWEEfq1hLyHJ2wNR4kbXMcxQV6mRBCCFHPyF1IQgghhLA40oUkhBBCCIsjAYwQQgghLI4EMEIIIYSwOBLACCGEEMLiSAAjhBBCCIsjAYyoh9zx8AnDw05PituWY9sIPJ31xO/CgGfHEBz11I3zwOnJxQxfHcf4dXEMGq9nmx7Sas4bPX8urf30bCFEnclt1OIPofv/rGK8IZUFz0whXs+7pj9/wIfDDZD6FU+98ZGeWT+YjlOQvZ5SKo1k7olmyfyPSC4ZxqR/P0EnB72saFfdjucvoAUmHtZ5pB/aRYmed5WOrzFzShiuBbv44Nkp7NSza1PTuTDizQ0MaHrj78dvwjJeDHWmIHEeL8yN0nN1ziH4tbCh4Egcmdd4E05Tohjex5miwzF8v2gbRRkxlORoJR7YBHTEof0AejzSkxZWx/j++UdIPW5aTQhRB9ICI+qfgwdIL1AVd+ouPaOeKTrA6lkzmT1rHsu35uEYNIynJz2GHXEsn6vlz2RLpr7sb+Tev77Mi5NG0UlP1+jIAdIyjRQcP0CynnWrpR9MJbPISHpKgp5TzcAneHHKZEYE6ekrtXmd3ip4KU9exrLnp5OdVBW8aDIp3x9D7tcvse7VTWTbeNF9/Bi9TAhRFxLAiPondR5vPTuUN5bWUCnVC+Xk7IsleV8UGz4ex9qD5dgZQribLDIPafmxlFboi/6eSr5iwd+G8sLsz67dSvMbK9n8Kv/vmaHMjc7Sc+rOJrIjbuSxf/k8Pecakv+Xn/aozyCgD156lhCidtKFJGoxgeefHU67oyt4bu18PS+IBx9+m34N45nx2f+SwXDGjp9AN63r4UI5hbnp/LB+Gutz9C/9Tgv5sL+nmikn6etPKQmbQKirShanE7V4LOuLTUvVwp3wcW8yJNQTRyuVrDCSFj2PuStiTZWbudsgnZ3ZBroYbExrFByNZck/Z7JTr/1M3QjabuhKkj7iuX99padqMX4x44fUXL0Uxc9j2RvL9NR1mLYBB2Ib4tXHAzv1PkpObOe7yS+RbToGHjiM+QcDh/jgpL2FSiPZ279g3VuLqFRJw7tx3G0Tw4KnUwj9YiK+p5ax8AXov3okLkl124eaulfM3Up5bHh03P9v717gqijz/4F/iovcQTjKRbkoR0BA5aLgDTVKo3TVTMyszTLN1q217eKav/5e+vUzc8vN1dxKs2jVLFOT1URJCkUNDfGCKAqKIAJ6ONwvHqT+z1xQVJTjpsaJz/vlyJnnmZnzzJw5M995nmfO4Cs17cZNLk2amRoMqCnNQ+rqN7E67coJ3vH+2Xh1dAQ0dpawkD4rydkkzJy1AL7XNmFdlnfl/QcsxD+nhuByF6W8BEx+Y5E6onDsNxPTJwyEl6PyWaOmCEfixf7w7T4jmpBexuzPY4D0FFj4q32hxPypa2Zg+U5lPZRtcqWceQnDRMCrjlxbviaaTufzXgqGeqQh/vHpKFaSbkzeNzQ4/HYMUlPUNNkLuO/r8dBWJGPdpP9BmZpKRHwWErUoDRcdxyOimw2q9m2G3ETf7nmMi/ZC3aHP8U3+aZFgQH72Yfx4YBeOFZrD2iMQQ3qHomz/ZhHcCKVFOHxEnLTDusDG1gY2xzfjX/sM6N4rCAFWDdh26og01U3ZjFqIVx/qgvqseKz8dC+qfEIQFhGOzue/RKp4k879HkO4RwdYlCZh3Sdf41C5GwJEfrhPA7buVpZ/9nQBjuxPwZ7dRXDuGQhHfRq2/pgp57UorxAn0/YiIyn5uuH47v2or6hSJ7yJ8DEID/CB7S8Z2PnxSmTW+cMvtDtcXfJxbO8pYPi7iH26u7gi34xt//wCWRf90P2B+9HZ9hBOHijEPRHj0N2zBmfWm0P7uA+sfynDsf8Afk/5wfDTy2Ia9X1uQt5Oznoc+DYRBXKKGyKGPQY/i9NIEWl5choQFP1H+FoXNZmukQGFeUewf3cKTp43g71PIPpEhaAhfgtOyvnP4eU3YuBVfxo7N67B+q1JYnuLbf7jXuSV6VF6pgBH0/eioetAeCMTGxd/gi1S/u69OHi+ABelRZRcwInMNKSqn5OmLhvxSXvlpcu0szHv1cHQVGVhx9pPsDG9Cs5dA+HnbY3CxGSYXbeO165PPwx+RCuCHxFMfvNvrN1vQJfQQAR06YAT25IhtfI0lnPPOWeEBHVATfa/kdy4mzaWr0GL/t7i41q3CJ9tkdYhBfvTT6O8VpnM9Q+T4G1TiKPrE6Am3ZjLYHTvq0HFvlWQv1KXRaDLuGA4XzyDzE1JqFNTiYhNSGSE9OPZqLXQItRPGXfooYXbz0XYn5akJCAbuopMlP8C6Ip2YmtqNiraucHfVc2uT0V+RSWkVgm3iyfxfvpq5Bd8jYPistTawU2ZpgUjwrSwqMvEtreX4kDGGqyen4JC2MG331h1Ckkedr21CLsykrBr7Zs4cFYEPp4i0FFzpRoZqXnkeIZeLsst0e1FZXpis0PN2VvpMFKF3PjXkJ+SiOL31yO7ArC0dZFzPAb6waYiDYkzFsj9JYqXvYZ0ETF6BA2V80vOVwIW7dAu2h32hbk4Z2mH9tJrscyyHHkSI1lCExyNgOCRGP7X9zFMK7bNiX3YpebeXDbyMsRnbQAu5KRg8/fZqLFwg3aAmq2qrzegvq4KNefUbX46W06vKUxp0kTV2JQlDftw+dmkNQeRc5PPKWCoCGpQhB8XvYSvfhDT/bAI774xGa+8Jj5zdRpj1GQnYHlCvJj/TWw/JgLQdnaX7zZqLOdxvVjRazWWr0bJq9dLZVWGPL2cdOsa5H/NWIrvxw7Ecta+EF2HAQy1LH8rDogDc1e/qWIkFEO7iaCjMBM/yJfL4pzq/n+Y86dVeGfKLMyaLIaRgXBQsq5TW1mknpTSsf6LB/Cn9e/JYy2Sm40MTU5yImgS53MbpyZtQuKEebmPpDjB1f8s/og93EJJ+HWkKn5xld3cMH72eHUiIzV/poK9naWIDsMx5vKy12GAuMKX111iEBvc2g72PiLguXAApQ0ecGkvAhpUovRWbq2xD8QjM2bi1Rkv4JFgS+j2fY1li41rSrMZ9BYWfPw5/vcNaX4xxAZe05TyMZatECdyeGHYpJmY/f52rPjwc0x/OELN//UcrcR2EvvRKRGgXlZT1HI/mYtN9h9Jk8/BcIPP5NcQb2c8XxcRiBLRrWAAQ0bYiuRsPSy6hGJwu1EIdgeyDq1EhZwXjUeHRsJFl4T5S0RAskgMX6SrebeRdIKxsLzyexw2WmjEEb+mrLHR4xo2T8NLI2Ke4uxbum32hjZ+gLVvzGt2iF+ZrE7065Tpq0SEl4udb17zHv/coEyQWyJCFQe4dnVA5fn1KKuwR/sgO1jWlqDMqH5EKun26KeGYbI0PDsG/2/pxzCuAicaT4yOgKP4rBe/pM6/4vrboMv3LsDbL48R+dPw5tI1OFDphh6PPo3hav6vVV4nIgN7L3TVqgnXkANXKztI3awUIbBuJ/7U6O/q3UwlxSLqd/BAJykIbYGLu1RaHYobKzWJqEUMYMgo+fszUWShxYCRgXCrz0b6iavvyrCwd0NXp2j4d5mL16KDYAFLuHV7EcHt3GBtGw1PB3ulJsTSWbweCIdb3PM2H8hGvVUgHnz9BYQFT8ATswbCHVXI2du05kBpGgmLmYlX3xqLAJsqHNlxm37n5bY1Id1Y8bdHUGbtg75TH4Wnt3o97uoDG8MJ5XWqXgQwlnByFcFOTiF0OsDTT5z4KipF+u1VVi0FCVpEjRqJALG9h8fEqDnKZ+2llbbzbMweHSh/1prQFxDlLjUHxmDYH8VruYnKCzY2znC0Esn1hqsCnQsVyvKjx08Q04lpI8YirLOSZ+M+UEkLdlb2GQs7ZdxP6Th7PDFTnOqdEfXqCkyMkconzS8CpEEh0tQ4kJGHGrGvRr/xslyOqMkvo6/YZoUnjY0OpB86lN5fDM5KJ2ELG2XcV15HVXGVWCc7eN2nvI/UJBcVrpRBUpmchTKxl/pPGKGm3IDtFAQF26Hh+AEoDW1NqT94t2yOOk5EjdiJl4zTUA5Hr2EI72yN2uNb8fHl31A5jazz/ggODMWA3lHo280ZBSlpuOjbBT6dAxBgcQHo8VdMjvaSa0/adQxCVFhvOOWsRfot1BrUZ6WhwiUcAaERiIoKQRebWuR8uxTLEk7LTVKuvR9Bn65e6D5gIPoEdoJF2UFs/WAO1hxornNtIPoOD4fzrXTivR3kTrw2uLC3saNmMLzGSjUa+5CRnAEUJCKrwBOuEeHyevSMHoLg3oEwK49DrshGfQ/4xIahs1MZTixah/yuMegX2hENZ3cjdbtxt4Rf34m3eTlFzggK6QE/sb37DwiBtqMZChM/wfe1/ggJCUEfeTs7Q7cjDTUBXdC5kz/8NBew9bQWT0wZjsFRA8V8YgjVwv5iHvZsWIRvTl/pIJJbbIcufloEhEnLF9NF9IB98RrsEWfwsCnv48Wx0SI9EBqp5sTeS11WB5yVyq1Pxp68TvDrrkVIpPo+Yn6PXwqwPfWI2CUPotguHD1DwxE5aCBCRGB0/lA8PvtwC0rld1c68doUXfn8r94uMXj2zel4JFosN6iDHETZeyvvEy6tY+M+I9anwScQ3buL7SGvbwSCHC9gS4r63SjIQE34aASFhcPFqgxn0k/guls+NWMQuvBZ9NTUIiPuzyi4qgOvZAR6TvKDWfZWHPlB2gmIqBFvo6a2p/NsLJg/ENi7ADP/xTp7uoNsh0I75xXcF2QnLgIMyF4fje/jpIwx6L3yZYRKHd0b9MiKexs71ze506pR6N8R+1Y/1PwnFls+vMO/LkhkYhjAUNsg/ex7zwiEe7rBt28EvOyLsOvNpxB3fZ090e3XeTBco4bA8uQ85P8kJYTDdeJQWOYk41zK3hv16waGLsYTL/kj9/0Y7E5U04hIxgCG2oYJK7AixguoM6BcdxBJ/16KLcdu/ddVie6qiSsx8Q/A7rGTmukfQ9S2MYAhIiIik8O7kIiIiMjkMIAhIiIik8MAhoiIiEwOAxgiIiIyOQxg6K6Tfmn1ql80JRPkDqfnVyF2o/LcpuFT1OTfCf8lynpNWrUKgf3c1VQiak14FxL9evItysD2pybjKzXpxp7D65+MhS+ysfHZadiiphql0yyEjYhAFxc7+fmGDYYq5P34KfanbFLy7wIzx2hYmJeiriRdTbkF/Vdi3JAmD5+8VIWSkzuwc+OSW3g6thvMXAJhcSkPdeXN31h74zK+gv6zHoL6i/1AwVZ8FWfkwzSv4TQjHrGDnVF5MhHfx+1BZX4iaq48SROIeR//miA9ZqAIu2Y9hbimD15sFaTHBQTCsT7v8pOymzLrNhQ2vuHo/fgIaDVVOPxeDFL5m4dErQprYOguOyhOGFWoOZt9aw/Wc5+LIX+MhtZajwPxSxD/iQhcigGv0IE3fPL1neA+ehZGPjnhV7xnEfZ/Ml+Ufwl2HK6CQ/dRGPBAtJpnjCj4PSnKMHqUOn69G5dxk/re65B1Kw9/vJb3HAwSwYvh+FqsfWkeiqXnQTUNXoTI7l6wqNRDV+8G70GtsbZtIMZNn4lXnx2pjl+tQQRmlQkL8P20OLGt7NDzsTlQnopERK0FAxi6y/Zh41tj8Jc5i4x8ArJEXC1HD0THS9n4YekknM7YhLri1cj79/NY/6/Xbv+Tr+8oA+qLk0T5N6EkYROOi0DCysZFzbvTstX31otS/PcsRwbDFXoc/WqpmnKtaPT0tEP92SQcKBQBlbb5IMEkVC/Hj7vESnSWnq2kphFRq8AmJDKCG6Imv4XRA7zgKLXd1FchJ2EpFq9LUp4wrDYhHdlnhx4RzlIKagoPYvPyGdjeWDvf+Eu4jSoPYvmfZyBVHb25qegzIxbuOasRv/5TNa2pWHSfPhU9bMXLCynYctQL9w/ygpUIz0sOf4Qdm9eJDDdYRcxF1CAt2kuX0peqUJixDnu+XX35Z9wdRn2DGOmZNUJ9tR5n0lbjgNo85TBS5AUreVfLw575k6C0kIhlPzwX/YPdYGuuNHGd3vlPHNintj3ITUiW2P/JShTCHrahsRgUYonj6/+CYyeVXwW26P1PDBoUCBfpCc7XlLHzxO/Qv5M82dWq05Gw+DXAqDJK1O1V1lwTUsvbyee9FAz1SEP849NRrKZdRX3WVPn6YfjM5XP8b189vnruJWyX8gYsxD+neqH8rB3cO1ui/PBBlHcPgde9ehxYMR7LdksT3Xx/i/zrBkwJ1V9pspSXGQJdwjC8uUaMN+6Puy3h29cNNmIZNYX7sG7eG9glFjDure0Y1mRXvOxG+2T0Yox/JRxl6wciYaWaprJ/aR3GD3VB9qon8P0XfFYR0d3EGhhqkc2o2ZggAgKciMeyhZ/h+0JxYvjDC5gyQJ1A5gXfDtn4aukCLFuzD+WaEIybMhOXuz8mfIx3Fy6Qh40ZzT0h+mbsYCECAl3xVnX8WrtwYtV8/JAllmujRaB3CX78Ygn2nDbApecoeNmLSbrPwv0PaIH8rUj8ZD4Sf9TDIeQZRPa/clld/cM/ES81sazfhIN5gPegqQjrqeRV7HhXztsvnaOqM/GD3BQjDR+JYERhNmQuhoY4o+Lwamz5ZAl2nTDA+4G/oHsXdQKZG/o8Owsjn30R9wcD2Slbcfq0+kgD9//DoGGBcChPEWVcItbHAE2TMhZ+06T5pzBFfX8xrFoj10IZU8YWGbGd2qltKZeUP9exEfuKBkXISxTFzCpCjZX0lHA1U+aMmrTJiDtcBcfOBmyckwKdmTN8eys1Ncbtby0R+6NnHjb/awHidhbBwj0Cw/+oNNVt+0TaD7/G8UoxIrZj43757uI1OCJPcY1UPaRJzaRgiohaDQYw1KIRYVpY1GVi29tLcSBjDVbPTxEnRDv49hurTiHR48i6N7B9XxIOJIi/x0Qw4a5FlJoL/T4cz0iSB53xPVaNVISGkiTUScu1tUTFD6/h/JlNOHs4G3WinLYawCVQC9vqdKR++R5Ki5NQunMWjoizemffK/1PGsrFMqoMQNlRFO7ZgVPVlujoE6tkVqegTsxX/7M0clF+rQypas1EKLy6uQEFO7Ar4VNUF2/C+fh1yK62Q+egpv1VpNqQB/CVNCxdhyr/WIz809/l/iq24UFwEety8Ku5ooxi/k3S/KKM/g/Jc8rla2z++bnyShkaO+u2WMaWGbOdWnKfVgQfujykSdUluzORV2cH955N569CTVERDFKhqsR+c1aMi5cW9yqRkXH7W0uqkLNd2R93rYiXgxUbG6V2sPy0tB/qlY7T9VWX98vjJw4qNYrXqr6ovrhe5fuxWD48mrUvRL8BBjDUMrka34ByZQyoyYZOOiE4Na2Hr0J5hvpSkE9Ot00V6sXlvsZVOZHfXBWqG88lR/+C+Pmjcew0YG0nTo62oYiZ9R3GycMq9JWqhxq/Aeax0E75FuOmz8VIuYYkFv5Sk5TRtLCyEX86PaQuXxqmortYhpl6Yr5O3Sac/lEEWfbd0KmLNJ2UaEC9dLkv24VyqWrFof1d66jc4nYSLt60A83T6N5Z7CIXioDgaAQE56HwvPjsug68UhvXEqP2NyPcrn0w2h1SJR4RtS4MYKhl0onAwhKOypg4k2ihEUf0mrI8NeFaEQjwsBNX4UU4rKb8OvtQXAJY+d4Pr/Zq0i2qKKsSsUEe9sQ1NquowzdKHxer6FiEtddj/6fPK7Uj8z/CsVu6U2cXqqVgozQdCU2XL4YdO3Ypk7SgQa45sYTF5bNlFBylyKWi9K51VG5pO0lKivUiqPJAJ281oakBgfCyErtI95F4dcZMebhPijtcvRAlBXjGuOX97Q7zdREBTBV0x9RxImoVGMBQizYfyEa9VSAefP0FhAVPwBOzpKvpKuTs/VqdQmIJa+mKe8gLmDJvJqJcDcjb9/Wt3SqNoei5PAVTvl4Jn6tqP9KRl5SOUnM39J24Ct37PgEr12hY+b8I/4HPAOahsJDGLaRpRQAgvXbUynM2qth3FCWWXugzYjQ6dlAjBCdvWP7c5DdAzO3g4B4EK+9n0OWPsfAyE0tzCUFH3yb9ZCoMgG03aBvL4B0LW3lxRcg7JLZT+1BEDbsfDk7y5DDr4A6zarWPi0wtn1z+Weg7NBBWl4pQli+WnSbKCDeEjJuL9q6j0HFULLRiO5zNatr3JxvVUheiDqHwDx6lLkf8VTJlNy5jo2zUSW0lYhld/KX8Zy6vozHbqTI5C2ViD/CfMEJNuSKgpxdskIftTw3D5MZh4T7opD4pQ9WJWtDS/panlzaAG3pMnoAAkT9xZKB4T8DR+wVEKq1ERsiGTlqMewimxIwUy5H23ZHooWQ20Q89I3xEMH4EWSlqUlNTVmHKlgQMMHLdiOj2MXPWeM1VXxM1qz4rDRUu4QgIjUBUVAi62NQi59ulWJZwWulHEDASI/07wXvAQPQP9YdzQx5S4uZgaUKmPP+1Ovd7DOHOehz4NhEFaprCF64jh6CzdQlOiSv+sqZ9ZcoScepUZ7Tr2gXa7pEIDI+Cf0BX2LSrRmFpOIY8NQ7+Gqmpxg6dwkReJzMcPbRXmVdSlYS8vM6wDQhBYK/+6C5NExAglrsahYXApTPARW1vBIaIvJ49Ya/bjuMXA+DdqTN8unRAfmoipJ4QdcV2+NmrG/x6RCrLENP+UrwaxedFZuFPyK3sAk33nuI9hsj5fr7uqM7dAL3ULOQ5CkE+nZTySUNgF9jVF+HI5vnIvaCXy3i2tjfc/MMRHBEJH+cGnD+8Gj8mbceVWwWLUH6+M2y0/ujWuB6B3qjI3ICyWmWKm5ZRJgKmSvE5+QWIPCXfzboWWUf3tbidZAUZqAkfjaCwcLhYleFM+gm1fCEY/thIeFcfwWeJySLkUJ13RtAD4fC1s8aW0854qLczStO+xNlOYj+wyUN8EjD4ES1sitKw9cfMFve3qkO1sA+PQI+e4ejfNxCWRzNR5ekGTQd/dMC/kQyxP2qtcV68R6oIDIFA9B0eDme9snxFEXJKOyEoyB9Bffqhv7zveqH+6EYcKlEnsR0KnzdfxyC5T/M/kJF+fT8XlxHPoXvnSpxYtA4Xmu6vRHTH8TZqustCMPHvCxFltg/vvvzGLdbQUKshTu7aOa/gPum28wYDstdH4/s4Ne93QLswSaybCIjFup1LXIotSzaoOVdr8ZZyIrpjGMDQXaCFV7C4YhZXuB7aCER2sYPuhzcwc6W44ifT1nkwXKOGwPLkPOT/pKb9DtiPngOXuh9wblcyDDfsC+WOwGXrMACJWD5tnppGRHcLAxi6C17G7M9j4CWuZuurinBk+xp89h/1R/CITNYY9F7+ArxOLsWGhc3X0BDRncMAhoiIiEwO70IiIiIik8MAhoiIiEwOAxgiIiIyOQxgiIiIyOQwgGn1ZiJmSwqmiGFS3GK43tLzeYiIiH6f+Eu8rV4O8g4dw/FcDbpEhcCrYz4yd59S84iIiNom1sC0eoUwHE1EZWIhpF+jN7O86qE2REREbRIDGFPxiDdcUYX8PfzBLCIiIgYwJsIjyAdmhnMoSFITiIiI2jAGMCaiUnr2v6UPgqZNhI1GTSQiImqj+CgBkxEOp2lTED0kGC62udg5/ElkqTlERERtDQMYE+E0Ix6xg4HDS97GTwl70aCmExERtUVsQjIRZlaW4v8KlO1i8EJERMQAxkSUpGShEj7wesRdTSEiImq7GMCYilS9/DswLl0HK+NERERtGAOYVm8iBnwUjzGfDoUHDCg5maymExERtV0MYFq9EuTlnENpRjISFz6PxC8K1XQiIqK2i3chERERkclhDQwRERGZHAYwREREZHIYwBAREZHJYQBDREREJocBDBEREZkcBjBERERkcngbtYnzv+8bvBRqp45VYf/q0VhZrI4SERH9TrEGxsSd2vMu5q+Yj/kpRWoKERHR7x8DGBNXfzEF+RVJyK81qClERES/f2xCavXc4BY4F3++XwuNhRi9VIX8A+vwj5TVqFUmUPRYiX8NdW62CcnC4UU8M+p+BLe3g4W5mliZjg+Wv4YMeUSL0IFz8ccwN1hL+fVVyNjxT3ycmYR6OZ+IiKh1YQ1Ma+c5CzNitLA8vRUfr5iPj3fpoen9DF7oEapO0JJojPzDKIQ6VOFgwqdKc5M0rF2DLHUKh/C5eC7CGboDq/H+iiVYm2GAf8xf8EdXdQIiIqJWhgFMK9cnUAvrinSs3Pwe0iuSkJ4+C4kFQFffaHWKllmYif8uGVBeX4X6i5lKk1Nlulq7Eoqhfm7AmR34e8qnyKrYhOTv1+FgpR38/UfJUxAREbU2bEJq5R569DuM9FZHmjqzFX9a/546Ity0CWkqHhv6ECI87WAhhawikMna+Sk+OLRJBDGxmDR5Kvo4KNM2VZH+Ef4mghkiIqLWhgFMKxd8/zf4c4Ae8V+sQsYlNVHSkIf86mx1RLhJAHOFGxzs70fEfbF4VGtA8opxWFvhhodiV2GkdTo++GYrytUpJVJtTdFF3t1EREStD5uQWrmM9KPQWXjhoYdGI9TFXkm094bjpSbBi6SiCrWwg3/Ii/B3iEao3zPwlDNCERz4Cvp0iIanQyAcrSyhsbYEfjag5qKUX4TvDmWjXhOKSdH3o6v6FjYu7rBg8EJERK0Ua2BMgHWHWZg6fCC6OlkqTUAi+Mj49mF8cELJV0Ri8MOv41G/xmaiIiR/8STW6p7Ak5OewQAnZSpJfaUeGbs/xKeX7zJyg5v2FUy6Lwie9iK4kVwS868S8+uVUSIiotaEAQwRERGZHDYhERERkclhAENEREQmhwEMERERmRwGMERERGRyGMAQERGRyWEAQ0RERCaHAQwRERGZHAYwJqMftAsTMGVLihgSMMD4ZzkSERH97jCAMRWPT8GgIDuUpCzH2jfexv5UNZ2IiKgNYgBjUgzQHYtDZXoyDNVqEhERURvEAMZUxGcg32AJz94T1QQiIqK2iwGMqahORrEOsPEJQ5PnMhIREbVJDGBMgh/sR4+HjwYwFJ9EmZpKRETUVvFp1K3eeAz44gUEWlTh3OHt+P69Rahh/xciImrjGMCYBHdY9nscA/4yBtqKRMRNnQeDmkNERNQWsQnJJBTCsPcIKmvFy3stlSQiIqI2jAGMqQgdhi6uQHH6Bta+EBFRm8cAxlT0docTqlByMk1NICIiarsYwJiK7dLvwNgh8MUEjFm5Dr0HqulERERtkJmzxmuu+ppas/IUZO+ugd7RCVZVx5CzMwXV5WoeERFRG8O7kIiIiMjksAmJiIiITA4DGCIiIjI5DGCIiIjI5DCAISIiIpPDAIaIiIhMDgMYIvqv2LgPhK+7mzp2J/SD5+x1eCI+BVO2JGBAtJpMdEfcA9seZjBXx+4IG/Ee/veoI63UnSrjlFXieyy+y/EJiHl+jJr46/A2ajKaRbuBcGtXD11FKqTHMilewWsvP4SuPwMVR1bjjR2fol7NoWtMWIEVMV7qSFN52P7UZHyljv3mbELg29UZ9eeSkKdX067zHF7/ZCx8Le5U2d3h895qDA0ASlI3I/k/aag8kQyD+iR2l9kJGBOpw87hm6GRntZeuxdrJ72GSjhiwhof+CiTXaMOaf/KwrZd6ijdFlb+5rCqb0DZqdZxKnF91R/PdivDJ1OLUaymGcPpT76YFmWHsv3HsOwfd+aBLb5zgvGYvxlyNh/Cl2vUxDvOCg9+5I9we3W0suim28boMj7pg1kPA1sm5OKQnDATw7eMgH3qUqwtHIEpo32Qu2ogEr+QMwFNP9h7+sHj8UcxKMgZlXvFdG+tVTP/O6yBIaP1HzoXsx4TJy11XLEaHy1fgq0FgENAJCLUVLqRIuxauADvXjV8jG1qbqsQOgHTZ8zE0zHqeLMO4vjpKtSczcYxNeW2Gj4HAwIsUZa8CBveXISS9CvBS7OqS0TwIqnAprePYpk0fHkB0iwFyer429lI5pM4bjMrDH45CNOmOKjjpqsssxwFlbXIybpzT5sryiyFrrIcucfVhLuiDsmLlO9A8jk16SZuXxnF8aFplKTbi8r0OGTNmIothw2w7/coenqref8lBjBkpGi4O4s/ZaXIUhJURaio3IQaqdqlthI6JZFuyIDajCQcv2rYB9P7UeV92PjWGPxl1gIcUVNuJ4+BfrAxnED6B5vVlBtZC91VO90vqD5yCWXSoG+QawPrq9XxIw2oq1GmIrpOsg5xU09g27fq+B1Qva4AH0/NReoBNeEuqctSvgNVRlSP35Yy5jReUDSnEOc+3ItiuMP/saFq2n+HTUjUogdGf4dHu6ojTRWm4G9fzBXXvLGYNHkq+uhSsNYQgkf97GAhTtRFez7FvH3rEHz/N/hzLzvgZyXtg9qHMOt+L1iLRegOfIQ3d64TJxo3uAXOwtSoQLjZigwxbf6+T/H3PVKe0kylSf8IfzsSgXee6oas1aOxEn/HO08EIWf9w/j4jFyiG5PaX0cDmUnt4DPYHTZmQM3Zvfju5ddQ3Hhl3/Nl3DdjBLTtLeVRKf/7/3kN58QJ0umNBMQGZSH+8QVwWbYOA6ykJovt8F85B6HVm7H8xQXyPDclNyHhhk0uvpM+x+tD7HBkxTQs3lkEaF/G7Ndj4H42AW/OWSS+9oLzSDwx/WkM9BLbWKwDGqpQeDgBn/3jY+TI+RMw7W9jEeYutrdQX56N7cvexMZjYnlC5F83YIo2G9+f8MJ94VJECpSfTsLqdxbgQI14v89j0FwjV036x/jLP74Wr66ZpvIglv95BlLVUZn2Bbw6LQYBGnU7Fopg55038L3cHDUW0z94Dr5n9yHPIwIBjiJJrEPO5gV4e/0+aQJhKHpL27UuEcunzVPTriY3IfXMxZaxz8N+SQoGoZnPIMoV0/7khrJvD2HNKjVNCHozGKM89Fgz+Rxy1TQ84IHpk5xxdmMG1q9Tqtx9c/KQ5eWJSOd7RBnrkPPdaXwZ13h1fg98pvtgVG8H2EqfQ30tjn57Cpu+vKRkt6DlMohxrQOGv+iJXh2kXhkiMDtXiE3zLyBX3o5KU5nTgSwse7dOSkCvt3thuPPNmweu5fRYJ4x72AUaC2kdDSj4KRerF9dCWQvlPXCgABYBHuhkI6apqcDuf59GcrL6fs1dQTdtonC2xuBZPoj0sIS5WIdLZSXYsrQARzOlzCZNG8X5+DjNFk886Cy25y/Q7T+Bj/+hrNfNywhoJnpi3APOcBKfwyV9EXbkOeFBX+ObkOQmpzArdQzIvWZ/gY05gsRn/UA3G9haNfYNMSBtxTFsS1JHW3D1trq2KVPd3/ILUODhgSAnZX87Gp+NTesagEc8MSPWETnrxH6xUZ3F0xkT3/FEu9Sj+Hix2BI27cXhxUtpOm24BN2589ix/AJysuWpL7vZPnLzMgK2I1wxdrSruh/osWW/GYYPvr4JySxhOuKPPoXxr/gj/70Y7G52G43HAKnpt1h8b1+65ns77kNMnBiMyqQF2PDezS9gWANDLXDDvh3zMT8+UwQqQH6KeL1CHeJXyWm4txvcHIBa10AMqd2BD1auRnqVJdx6RsBfZOcdWo33V6hp4c9ges8SbFr9KZLFN0gT9hDEdwAOgfMxK0YLnNgkpl2C9afEd7TvE/ijq/QGeSiR30jQFV2p5enoAgdxILmkHOeM4AMfn1zsXDgP8YmFMO/cDwOeb7wCmIhBb4yBVpxOdi6Zh7VLElHSvh9i5syEdBouKxbv6uACJ1Ha9u0NMJjZwx4uaCeisMoLl09BRrCEdXA0AhoHvxDYqDk5K5die54lekycjeE2EXhikggUag5izTtq8IIITHz9BdzX2YCcbZ/h3YWfYfsxAzTBAzFQbrsLwRN/exphmiqkrlmKd5fG43i9F4a/8DIi5flVVoEIcz6IuIULECcCJZsu0Xh66liREY/PpCatdZmQKioKd15p5lq8NkWe9fI0YtilFOoaMZgybaQITPTYtXIBlq0/iBpNBMa9/LK43rrCxk8Li91iHaQyVtnB9+GnMVzNE+GJvF3RcFEZbUbl3u3Y/Z8f5H3h3I5E7N6RoWQY4ehOPaptnBEeqyYIriH2sK0vx/EtaoJgF9QBmgMnseztE2JftYDvg13wYJSSZzXJBxMibVGWehKfvH0M6480wHeU7+X8lrRcBnMMfrELejnVIHnFUXyy7jxqO3hg3GuO4nR3m4iAaeIoDcxPnUHc20cR9301nCJ9Me7JxpO0wifADrkbjmPZinwUWDhgwBiN+B6IdVguNUvk4JB0qX0uX22mE8Oi8+rJ8R5EzvLDgA51SF11DMsWn8Kh+vYYNd0V8tdabdpYf0QEhTaOGOxnQMLSY9iSXQ9NH3dEeopJWipjWAeMEUGPlQiApPzVe8wREmCh5BmpeE22Um61yfFaThO9MaqHFcqOnJLfQ1lPsU/8qE5gBGVbiSG58UB2PSd/sVVTxP62WNqmVgga4aY012/U4WiNGXxDlYsSidWDjugkSpuV1BjGlalNp8fw5dbzKHfxwGMvKp+TsW5aRhsHxMS6oZNBh/WLxf64oQ4BYVfKo8jA4f8kIn1vmjiY7cVP/9mObPmqqjnJKC0Vf6Tg/1dgAEMtkJqIkpBvbSeChSrknRKvK9ShWg3vXduLazVxyC3YgfnfL0FWxUGUSEeC6mr5xFuhWyfS9Kj5WZooD9998RqSL6zGtz9swtbkXchCLMb2F9f02VvV+TfhO3FlUQE7uHQU84ggxSDmdXC8um7A016q1dEjz5jLLFkVcuNfE0FYIorfX49s8T21tHVRskb3QxfbKmSunISshERUJsxDQlIhzLoGK7UNuSXipN4O7bzFVa8Ics41iGDGVrwWgVtl4a10RHND1IyZeLVxmD4BPdQcqVnmqw+TRLimxYj3Z4tARY/UlTOwq7HZI3gkuosjv263CCDWrsHxjDX4auFLeOXFpxAnVV50HokeIkrI2zEDyxNEYLBvKRZ/I4IRey3Cm3ZOstDjwDsiAMlIwq4VM5ByVhyfukYgDNnIk5q09EotQ33NlWaunEKlBkd8SMo0Yqhtrjo6QgRlGqmMixD3QxIObJqBLceqYOEVgujGSE1SeFAERWIdRBmX7RPLtrCEVPFmLEPiImTGrRV7htj+38xD5jctNTU18d15HNSbwT+yvRoMmCPAxwqXzpSLE4WcIDMvuoAvV9aKE1ctds8uEJ+6FXx7S+HsPejVQ3zwZ8RJc2kNisUJOOvdAhwVJx0l3wgtlSHSBSJ+QsGuXHEFewnFG4uw5agB5t7tEdR0O/4KPn3bw7ayCOvnlaPgyCUUrMxDSr6ZCFgae3sqqk8UIflbA8qS9PhOlAFWZuKbAFw6pTRLyKdQqROv3Ewnhiy1Ut+zPQI8xFcn8bQyf2oVtm3QodreEcFqRC03bdSLL7e9BXTfFCMr1YBDP5aL0MYSTj4tl9GpvyM04kixe7FeyV9TgJ+Kb/GseE4tu9rkeB0zKVgSeeIAdsnQuJ631hzZuK3Kqm/S4HFOXNitEfub2E5bUsvFd8JCHAEltTiao3z20gWhvP8Fif1PTJ/a2H5bIzWdSuX/GSVHSrFtvzi4dbDDrXQxuWkZRcDka3EJhzafE5+R2B+/vYAfTl67tTYj/8N5yP9JvDyzFtkfLkLxDWvGC9HQoL681lfPI274wBZrXyQMYMgo/hpnOVgouqq/gcKhk7sc3Bzc/5F6AIiApziJ1erPKDU0Mi3cxeVA7YlUJEuBjFBRuATx6Z8iv10QPMX3seiM1FykUvfMevkifBNKpE4i0nHp3naQvtYuLm4Iljrl6Auv6ZPTght9acSX3VIsN/AV6ZZddfiDUmcgHw5rpVntYX+/O+x1J3CytB3ax9iLvCqU3UoFjHzH0TBMbhyubX45uwiLE/NgYWWJ8rQ1WJ6upkscLWEj3q8w+6CaIClCTeOB1NtOrs3xivkcKz7frgyTlRoecSxswiAOxupLMX/2hSp5e9/adesNiIVIy6mpu1LGtGKxfLFtNaHKuOxng1zLI6lpaGyWaVSCi1duc7sDLiH1gNgzPTogMkyM9nCCv3MDco5cc+X5s7qjSmpqUSLVNJhJO2Y7OEkbVQSzs9b0Uge1KUTON0YLZVDjoPq6KyeTgmJpo7SDJlwZ/7Ucbc1F4OCGZy+vQy88KNV6yCfsK6T4otGlptukJT4WclDq8/CV5c+a6irS7oH5dXGeCHAa+1x8ew6LJijNFy2VsZ0IpqTmtbp8eVRWVGJ0laxRylbmYn1qLez6a/HsnJ6Y9e9gPPdWe2huUyB5WdNte81xKnebDjoLEfg9IkakwFBcyBRklolAT2Eb2wnT/t0T018PwjRpGCwOqLeTrXR7uQhWm3RsKS66cQ1py8ZDI84RvxYDGDJKV2dxLVBVgibHicv8XUQgUZuHI401IQ5ecBFnMV3RVjVBcHcTV0oi7s7/VBlvysn2cjNKI09fbzj8XIRTagRfo35XPPsGwkInTogWsfAXV3f5R79utky3TK5hMSD/mwVY+8a8JsMHkOuZUgpRKU7CNl3t0aDPRVmpuEIMkgKGSlSekJdwe9g8jSlDvMSJywDH8KcxbYCaLimXTvp2cPe7wb1e6Xq5M3B5mtS8dKX5592Fi/BV00BInB0tLm9wN2hF8CYu3Jq/+rxVYiHScmysQpRxIdxVuo6sgu6qMtxMInRS9bK7D8RHfEfUrS1BVr01/KPMYRVpD801zUeye5scHm2s4SIFKA3SSaYOujLxR1/UpElBGeLWGH/yvGkZ1JjO4nKfC6CTq9SudhG623Qnla5UvEldKba8e/U6LFt+TSD330oTQYn4o9ufdfXyb+FusJbKeLFOOtPfAyspqFG5udy2RjZFzSVkLc7FxxMPY/6rGYjbWg7zrl4YM+mO/mLM1Q6UIkuvNCPJzUf1evy0tjG4tUPMCHF0zTyBRZMPYf4EMWy7zbcFVDeI8MUc5k0q51zdpHq4/1Jj7XXxrzt4MoAho8gBhLU7QjtFw9PhCQzu9QyUY0Y0fF3F5ZSuCJevuTu7i2ClCkXnpWYHLTQOYh5PpZampFK8tg+9+mr/QhF04rzgGT4LgztEIzToQ7zQ2xkVhzZhqxq4FFWLoKV9JCZ1OoP1mVWwCYyEvyETielGnxVvLjERWcWW8Hz4OYT281EvgD1grzGoF0MiaBHHTGtXe9QUJqPsnA72fv6wN1SioqUOxFe5pg+MPETITXBSzdW4WWMRgExsfOlN7Cq2Q9j4hYhqDDYy4nFM6jc0aCZmT34aYfK8IzHsD2OV/iU1n+HHbCnwGYtxUYHoIM9kBy8RQBReVd3thsi/zUSUmD9q4luI7CxmzT+IyzcdnFECIfdeb2GY1CQkTddPvafaOeJyua3lD9ESGnlcXYd9STiuE2Uc8DImDolG2KiFGN7dDvV5B5F0C1Xuuekn0GAdjKAnm/acuY1qKpB23ABND1cMD3K4rvlI5tERj02yhlMPa4TPcoOPiCrOSP01hLQf9ahzdsPYx9rDVdnQaOdpAQsjblO97GZlSC3B0QsiaInywYBoc7g+4iamsRTTlKrTGFAu/jp1dYZ/pJTvgQFSe4GFNbQPGndiLfjuAnRW7XH/xI7w9VRPBR0sYFvfTBPCDV1EmXRV7uGMwQ+LoL6HOZyixV8pq6YUadkN0PTpggcHW6lNhPfCxfUepflF+sE0aXoL6b3vgZ30uuvVtT8tlbFsTzl04sgyYLozOon5O03ohN4eN6pmbZ70OzZyuZ3N5OOSha0ybqtGz1aDHdCrcd1czGDlLAJOkX6xxtj3UddTGmyl9bsX5mIZ8nso/eiNcAmpBytg7q3BmBvsr1YuIsj2lbaBB56NtBVhtjl8JtiI9VInEMqrLwH2juj9iLQ+Inh+uHFfaaGMIiDKqTdHrxEeyv72cAcMucW+Rk3ZTAoXR1c9shM3qClNRC/G+C0pGP58y999M2eN11z1NdENnTnfGYHdeyA0NApRIaHwb9+AEwcTUYRheGBQECzztmPbafnWAvh3fwZ9PfRIS9yEbPfXMWfiODzgJV2FW6JTkJhf04D4Y3vlaWW/7MWJsv7o3d0f4WL54T6WKEjbhA92fi5CHkW9ZgSG+jni5Hf/g63mQzC+VwecSnoP6+QgyQjhYxAeYIMLe1ch/7SUEAyvseKkq9uHjGSpA+gJnNtdhrpeEQjqE4HgB4YgODocPja1OLRDKqs7XIcPgdb9HuRv/RD5pYNFvg/a6U5g/6bExgvmm+sxEiO1neA9YCD6XzVocc/GeNRNehtP9zLDkbjXsSY7C4dOd0BItMjv2QEHftgrtkUBDu0uF4FTIPxEOftHSfOK8nY2E2VKRJ6Y4uT+IjR0CkTPkHD0GaTmuzfgdGIyzosidO73GMLd9Th+qhOGxQ5FSFdHEVyk4LP3lqKwsQqmIhvlduHoHhiI8H5KGUO8GnBULKP0kXlYMHG4nOYtXY2164DuTdbhKLJxIMcRfj17IHzAYPQJdAPO78P6d/8PR+RmoUD0HR4O17psxCep+4C8XYAceX7V4QaYPTAQ3cMewL014rM50WyP4ZvztkOfPnaoO1mMI4fVtCbKau5B98Gu8LJrwMnkfBxTdl/BHNo/aOBxoQQnvb3wyDANtA4NyP0hBxu+Vk9axytwTJwLfEI6IrKfK/pEdURYUDvUiAAj/xaKeuMy/Iwz2bVw6KVBZJSbWLYtfikuxIZ39NDJ2/ES8i/dg27hHdG7X0f07FSL9FP3wsvdDj6+P+PE5upmO6ReRUS1hwoN6BzaEaERruJ9OqJPL0dYlF9AlvwbIFbo8agTrApLsH+P0lnUrr8GYS51SG+y/IJSAzyCXNArQswvLSPMGhUZpSgokX6EUI/znW0REuqGPoOl/A4I8KhH1rYa1PR1xZS/dkWYq9QM1A4+0ry+tdi1o0nTREtlFPln7Czh39MNfQd1RLCmAnuzLaF1vrqMN2aF++d3x6j7xXKDbeULFwcfqZwdEaApl9fbdYw3Yh9yV9ZNlD/Y7ReUZOZj4ycXUWdUtaUjYt/3w1Bpfh+p1sIMbsHKe7hB2jfV/a227Mq693RCVDfg5Pqyy3cLXbpwD7o+KO0rl3Dk27M4eVLNEEefPAtzBIe7y9sgpHMDDu0qh3M3Z3j5uYgLmSv7f9m5i3AO1aBHeAfx/s7wc1U/i5bKmHYReWIX8AwS+7tIC9PWY+/+S/DzubqMLXOH/bh38Yexvrjn5A7s+CTl+lb9B55EvwBz5Th7Sk27Ad5GTdSGyLdRh+rv0K/n3maaiej99kSEeojTSoMe6QtH4qfGm6Fuk04z/DHRr/Lq25nFSU2+vVefi/mv3+aq+GY0Xwai35mJKzHpUT+YiXi15lQytsz8H5Q1E2Haz4jH+MEXsXtcLDJbiEDZhERErZMuDj9NicbKlxYh4ZsfkH9bOjsB5l0t4TvBGQ++IwKHEHPkJBXe9cChNZSB6K46uhc/frEcq6fGYvWLzQcvEhtbccFScU65k7UFDGCIqFVrOLkB+StvdkvmrQma0h2PPeiOAKsqbFuaiS/X3P1K6NZQBqK76qflyPwiDjVnb97Gam9tCUP+GaOapdiERERERCaHNTBERERkchjAEBERkclhAENEREQmhwEMERERmRwGMK3eTMSoz+aZFLcYrrfyxDsiIqLfKf4Sb6uXg7xDx3A8V4MuUSHw6piPzN0t/DwhERHR7xxrYFq9QhiOJqIyUXqYoIg4LZs8TYuIiKiNYgBjKh7xhiuqkL+nmYdfERERtTEMYEyER5APzAznUJCkJhAREbVhDGBMRKWuCrD0QdC0ibDRqIlERERtFB8lYDLC4TRtCqKHBMPFNhc7hz+JLDWHiIiorWEAYyKcZsQjdjBweMnb+ClhLxrUdCIioraITUgmwszKUvxfgbJdDF6IiIgYwJiIkpQsVMIHXo+4qylERERtFwMYU5Gql38HxqXrYGWciIioDWMA0+pNxICP4jHm06HwgAElJ5PVdCIioraLAUyrV4K8nHMozUhG4sLnkfhFoZpORETUdvEuJCIiIjI5rIEhIiIik8MAhoiIiEwOAxgiIiIyOQxgiIiIyOQwgCEiIiKTwwCmBdr3UzBlixji4xE5lL+CS0RE1BqYOWu85qqvqRn6jBycTD0Li4h+CArwxMlNiTCoeURERPTbYA1MS84mozJ9M3Sl4rWlJcyUVCIiIvoNMYAxhu3j6OQOVJ7YizI1iYiIiH47DGCMMdQPHpZAycm1agIRERH9lhjAGONMifwk6I7958C1m5+SRkRERL8ZPgvJSJaRc9B3aj9oXe1Q/M1AbFmuZhAREdFdxxoYY0T+HaNmD4Xm5BdYO5HBCxER0W+NAYwxbJW7jy7qtqNGpyQRERHRb4cBjDGS9iK/AnANeFxNICIiot8SAxijJKO0FDDz8IaLmkJERES/HQYwLfCYvQ5jVq7GAG/AcO4kStR0IiIi+u0wgGlB5eFc6HRH8NOqRVj1ylI1lYiIiH5LvI2aiIiITA5rYIiIiMjkMIAhIiIik8MAhoiIiEwOAxgiIiIyOQxgiIiIyOS06gDG6Y0ETNmSginxSYiZ0k9NJSIiorbOzFnjNVd93erUZebgZFoGqrsNRGCYD/RfbkKZmkdERERtV+tuQtLtRWX6BhRfqAIsLWGuJhMREVHbZgJ9YEbA08cOOJWBbDWFiIiI2rbWH8B494OHBijLT1MTiIiIqK1r/QHMmUJUGgD7gBHw6ReuJhIREVFb1qo78Sr2ITfDBpbB/dH7kVHorq1BRnKGmkdERERtUet/mKPtCxi6ajw6ntqMLf+IQ9nZQjWDiIiI2ioT6MRrJ92AhIbyXAYvREREJGv9AUx1HLJPAfa+4XBSk4iIiKhtM4EamEKU6asAjTtc1RQiIiJq21p1AGP5/EqMWZmA4b3tgOJCFKvpRERE1La17hqYnBMo1uXi8Po4rH3xNT5GgIiIiGSt/y4kIiIiomuYQB8YIiIioqsxgCEiIiKTwwCGiIiITA4DGCIiIjI5DGCIiIjI5DCAISIiIpPDAIaIiIhMDgMYIiIiMjkMYIiIiMjEAP8fl7/a9SVPQQEAAAAASUVORK5CYII=;" vertex="1" parent="1">
                    <mxGeometry x="180" y="200" width="560" height="482" as="geometry"/>
                </mxCell>
                <mxCell id="20" value="" style="shape=image;verticalLabelPosition=bottom;labelBackgroundColor=default;verticalAlign=top;aspect=fixed;imageAspect=0;image=data:image/png,iVBORw0KGgoAAAANSUhEUgAAAiEAAACRCAYAAAAVQmjbAAAAAXNSR0IArs4c6QAAAARnQU1BAACxjwv8YQUAAAAJcEhZcwAADsMAAA7DAcdvqGQAADikSURBVHhe7d0JXFZV+sDxXyGIyCaggCKLICCIgiiIihrl0lhaTZotk01lzTSWjdM45ji2/JtscSzLabGyNDXTyonRRCnKRA0VUVEUBUFAAQVkk538n/u+F0VTVkckn++nm+895773nveuzz3n3MsNXr5DzyKEEEIIcZXdqP8rhBBCCHFVSRAihBBCiDYhQYgQQggh2oQEIUIIIYRoExKECCGEEKJNSBAihBBCiDYhQYgQQggh2oQEIUIIIYRoExKECCGEEKJNSBAihLjqLJyH4enspI8JIa5XrXxteygRtzym/r+bJd/+m1w9tck6eGLboZrSigxq9KRrhskk7hs/BjcT9bk8m7jt/yamINuYdyUELOHdUa76CByNvoXXE/WRa8bdTP/3YwRY6aP1ZUTx6JwF+kgrWQTi2cuO6hMxZBToaVdR6J+/YmqQpT52XkbUaF5cqY+0xn0f8uHY89v6is33f8DGIwJn0wIyDu+hTE9rliZty8d49qO78TTNYNODj7JaTxVCXH9M7Bxcn9c/t4ALHr2C1f+zSTi6kzN6alP5BM3jQX8HUlPiKNHTrhlnK8jMimNXSgnWroH0tzFlV8aeKxcsnc5hX2IcW7Ls6e/TlbKjy9h2Us+7ZvgxeFwwjgWxzH93Jdu2xp4f4naQV3iFIoaQGbww/W68+ZTNbRCInT52nAMJ29lW68UQNzi0ZgGfrI9lZ0IaReX6RK1xPIfD+3aw7YQdgf5qW6e0ze9signPvM/vRnYl65tojutpzdKkbWlC134huJQnsvG7WK653V4IcdW0sjkmjphvH2FeS2pB6IOTlSkU5bXsZPc/l0ph6UE1pFBYrUZryqgwZlwZ1XFkFseQWVKpJ1zDqks5tD/mwiEtRc9s/8qyY42/qazKMF5dYPyNV6xWpmCHcf4FxvmLHax96S6emv0K12gsJoS4SlrQHNOPERHTGWKnPqpvFh5dx7KEtRfWgjg/x7NDYdOmbPzDQ+nRSaWVHOSr7+aTXAP+gz5ivLrj/IWcLbwR+4l+sbfB0e1pJvRzxb6jGq0tI3XHm6w+nkoP/7d5sI+FWn41uXs+5vOKsTwS4kpnFVLlH/iExYe2NFoGIwvMrW9juE8wvo4OdDZX398zn8UpB/V8pcNDPHhHOOYXpzeF6QTGj/s9t7hbYqqFezWlZCZuYPH375NnnAIcX+fV+4PIu1RzzI2zmf10BD21zzVV5B1PICrq72ytW9k3RnDLzX9glLcd1to6Mihl52d3sMTQcuRFUMhs7gp2wqGTmSFXk/ndU7y8N0kfa4jeHHO6gaYXi1n833sROGufa6soyt7DxiVz2HQuRnHC9/YZ3D8uEGe1yTTVRRnEfjKHFfH3MXfZWM43VJxXlrCYp974wjjiNY1nnhiLr4PxN5Rlq4vYq3P4XgsShr7GW48Hqi0JeT8sYrfbY4z2UNPVFrD746d5p2Qa//pzCGXfzeQfS/cYvg+B3P/qa9zUcQcLn55z/kJoaDaxI/H9u1i4VU9TJr20iZtMMyjq5opDdQa7U+wY0NeS6rQoXnxuAdnMMPwOfoyCger3aIUpyyExchELv9lhnIlGL2veJZtjvLhp2lzuVNvKQmsCVIFfapT6/poYQ7NI42VQ63niXKaO9cJGxfbUlpId/wXzF62kSJt9XRkTYjH1GWbcFqqMcStn8sGPOZdtkoJ6TSYNbmvj/BvelhdNU7KHD/40U93K1NPQttb3R8+sHWR0D8HXRiWp35m67hXmfVlvPQsh2o0WNMfkUnTqNLsObSXTpC9BXh50yNxAar2bPHuXCQR3s8LJ0oT4XR+wucCDAA8PLE9HklhiQUl+EntyuuDn3pVT8fNZsXsbuw6rIXMnpT9rNQPOKlB5ick+5mTvW8t/du+kymEQAd1tOJIax+myUg4mH+bG7v3w7NYHL4sTfLd1Ayet/Onj0ZXTBzfzc4NlUIu4YQChYbO5L9Abi9IUfsqopIeTBWlJn3CkfhW88wR+09OUg3uXXfAbGxfKb+95ljGOpeyLWcXHP+zhZMfeBPu6QNpXHKxrcLcczah+zpdujrmhlCP7d7Ft9x6O5Jvg7B3KCM9e7Ev8gWKV3XPQqzw+yJKTe9fx+TdfsXH3FraoIeF0BpVaaNnrZWaP9uBs2mZWfPMZG3Ya8+PUib3sZ8MSGqE3x9TmcDjHBIduHobBxqSc06WlxklMS8lIiidu6x6ySkzo2ieEIYEeHN642RBoWYx9iWcnB2CeFcvaFSvZrC5Y3f0D8HaoZWdsFAeOJLJTb6bI+/EV3v9cb+7ZGa8vYyxT5zxEoM0ptixdxPqjlngHBRMc0JXdMdspzT/F4aQiuvbzw8HaDtO87az6Mg27fgH4u9qw89NIzAePIsDFhrSoGGPVv8V93HmvFyR+zqc76tXoBIxnvFcnTsZ/Tlymnqb4R/wOb4tkPvhLMm53BGKy/VG+PTuOfr07UbM2kgOEMeJOL5y7WnJ8wyd8GpODXd9g/Pt7Yb5b5WsbS+M6ilsHOl2yOcZ5yptMD7cjL06V6bPNZFn5MWhEGG4njWVptAw3v8TcST78nBrF5x99wd4qLwaEj6Bfp0S1rBy1BGMZ1Soh6T+fsmpnFR5Bfviq40XbVkf0JqnaXsNwI4m1Cz9ivaHpbTt7Th7HUF/X4LY+RVqj21KfRqUZlmOWw+4Lmn0a2db6/uji1Imi7z9nycYM7PqofcnPldrI9RzR5yKEaD9a1BxTWLqFword5J2phrN55OrXozoutupMd7aMvbteIL7wILnFhdRQTaHh4l5GReVBCs0601ndo2WdUp8r9KHaeM+G7f3c7AbJ2/7G6rSN5FabYq7d6VeUG06GFWe2kFtxiopaNdIhm62xC0lWZdq9byObdvxkOKk1XAZP+oc+RoRDHjFRT/LuTwtJ1WpFVHny6y4YOh8ndd9Xfozk5nZasR5PoPpqTtw8Fh9YQWbxCr6Nfoq/vPsAX56rBmnEzwnkFGdQTgk5md+xaq+6mDi60lfPpoPxn+ryUsrOnlbTxqjlxFJcF2Do+VXVldRUniHPkB9Dnta81BzOw3hm5qxzw/TJw/QMpWwPqfsz1FZVF6j9Mazepcro4Eo/PfumED8sKpJY99yLatvEsDvqRV6c8SCz5i1WF64Uw3fqmimqy4zNINqQmq1dOJWQCHVXDHlbF7D0B/X9r2ey/mAppq6BRBju5rXlF6gtq2KLjgWse2MRu3csIP6Ymqelnbrr3sNaFWhU2wUy5mbDHLG4VQUMFJC6NcqY0BSlBSSWVanlqHWdk0NRxS8j0uqUSBZ+HcmhHYuYv2YPZaau+NZbVZcXyOi+TpARw7x3P2H3/kjWv/EFh0oscR04Xp9GaaAMo0O8sCjZw+qXFrBFrb8tS+cQl6XiHp8IfQqjspQoPohSZfxBbQ+1HuloiVahUNckVW7YN6rI07fDof079JoUpcFt3YRtWTeNGozLuUhj27pO9h4WrlppWM/v7FDzNjVT5xIhRHvUij4hEYR62VBzbB97L2jQCcfRVv2Ts484vUbB1q7rLy7wjtbqbHO26BcBjMbeqTuda6qxdP0rk4Yt4K/j78f/bCqR2xZTqE+jVV87qeVUpMdzQF9+RfFa4jM3qmkaKYPjPYx2qWbv1peJO6NVSVjg5qDKU3qCrAt6nobj1tWUmpxDHNNTmqyTGWbqZJ15PEFP0ORQ3aQaCCMH3/d49en3+L9HZzNbG4Zd+Ehj5k/vsVydhK1D7+fpqa/z1tPf8H93zKZX3VY9PJ9/f59CjfutPPboP1nw9LcsuOd1hjb3jK09CfPg6HPDuWYSxfO37/DWx+8wty5IGX5hGTtrtep5OcQaR43Kcpr+5IWp4T/KKuqaUiDesNNY4hBkHD9Hu0jrHzfNu41H9ar+si9jSS0zw3PoNEOzzU3+XpgWpLCl/qa5ErSguM6POcYmtyYdYV7YagVzHctbyzbxoWEwPpVkeuP5ZrSG2Gor2iqQqee+v4ybXFSG1rRTX70yVtUvbxM0tq1branb+ueqc/tPWe0vg0EhRPvR8iDEOgCvztWkZq7VE3Q3uOJgCfm5u8915HS0UfdaF13gnWzUWbe08HzfiHo63KBORWfLyMtLITV1I8vWzeD1TS9zoP7dk7UzKmzg+MmNxvH6GimDo50zHaqzSS3QT2XWUxnSQ/1bmH1hJ1nzPrir+Rw/GaMnNEN5lbqftKRnz1A9obke54FRXnBgBX978xb+uOAWnvqu7o5S93MMW2Mf5h9vq7x/P8/i6AzMekXw+8F1d78pJCf8gRfeV99/+++8+XUcRd2CuOemx/X81nqMSb9RZTy4kn/8QQ9Qoi8s4xntGqHulofVv5NtDrXNDbUc5oHGcSXYUeu7UEpek4OIlWzcX4Cpmx9jLB6ij7o4F6XEXvlOkfUv+OoCre2fNCnojCVPq24o2MPS115hfr1h4aoLwrfLyi5UF+uKDDa9ceH3538UqU/RWo1v61a7IttaCNGetKImRGOKrW04tubh9HcONyZZOaiTbzV5JXWdOAfQo4sKKi56CqaiWp1uzLvjadvH8H0flzFolRea3NPZ1Jja4NAhj6zTGXSwu4fxI2cTbGhesKGzCg5s7bsamnMKK9Tnjoaucuc1pQwdbOihlu3oOJ2Hh3fnjBYNdbDFUS33Yjb2EThqv7H3JBz1tEYVR7InWwVbQ57lryG/x8c6gp7WExjkNRFrfRKDwjOGu7qefs8TpKbx8Xicvuc6mUInOzc8LSMI8n+L2cF2lKvAppf/7+mpfo6185Pc4jFBzTcCp472dOhiidb/trzytPHLtr9nvPf9hvyenTpjYWFv6PRYU3mJ6qdWMLV3xUsFP+GT32RuiJ1a85a4Tn6IADv4fkcSZeZe3PnSm0waGYFvXzWMnMbouvYazbECQ5W/c/+XGK1VyatpwsPGGvN2xHBIbRuHoTOYor4/YMJrjOtjSXXGHmLUitNeeuXb185wB42ppeG7rlqn6Ysk/mcP2aZeDJgRgqf5hU0xxnmo5VoYax1M7YxluNR8GmLhPZ7pE8bjGzKN6Xf4YUEOqfVjiGOlhm3t3H8u4Wr+A8Y+RrhWW6GmWxtnbDKaODECT0P0oubn4oTFuaaMhm35Lok8c1du+t14gl20C7eigr+u1c17iulUsYoarbyImHyfcZ2E3M0AQxmNGtrWBg1tS7sQ4zzV0MmwwcxwMIyHGJqEGtvWQohfn5a/J6Qyj9KO/ejvM5hQn0C6d6ok61g81c53Mbx7JfsSvuW44S4wnEFBXtyYGc2uvPNhSH6hDa49/envO4RBvQPxsKwlLU3dqWuZpSfIPetDvz5q3iq/fw9HTApPcORUHPkWf+CPt97JkO7aG7TM6d5Lfb9zNbFZB7RvGpg3UoYzRVZ0d+tHgM8QAhx+Zv+2V9lU3IegPv4MUlfx2BP6vGpOUGoaTIBXIMHqN3p0vIHc7C3kXtBkcznHOZhUxM9d1G/sF0r4wHDCB4QS5GjC4YTo8+9GqD1E/g3qN/r6MTg4nMG9e2NRsIKdefGkFA8hpH8gQ9R3g51riY87SjfPXvT06keP4mWccpnNlAhtvvq8u6mLSNIGPtz2NaVnVQDT+ykeHzOSkWq+2jTB7paUZG3n841vk9OkO3S9Y2pFCpEx2/W0+uLVhT2MwKBAQsOHEdijlsStadh4eeDSO4DufMq3a6M4XOmDt48fgWEjGDJ0GEOCfLAqjmdz4injbIpTKLIMpo+fH8FhKl9NE+hay4HozZwmhd2pNnj3CyB46AgG+TnByR18Of+fJJar8HLqmzx5dyAOWuBm5Wr4rsel3lGhlmEbcCcDetthUpDI6k/0TqqKcR4RDHHTLt7qwuhvLEPdfLROoZ6qHJExMOJOVyrjPyerxz1qm5STWq9jqumRFH4eOJ5bh/qoYLaIQ2sW8n58vdC7OJlKpzB8vf0YpNbXID8vrCpWEpsE1cnxpNZ4GH7noMHG9aT91hsy1rJbxSGNliEnhp05PfAPDCRwUJhxPffzwbx4JduStYUby2iRE8+Gn4xPRrmEqe/bFVzQOTQ91xIPby98B4QY5xESgFWumkdK49vasM4b2pZ3vsArU8YZ0ty0w7djV/poyxjqxQ2G9djwtr7k/mjoTIy+HYQQ7U0r35gqRDviNYv/ezYCfqz/uO6VYHz01KH+Y8VCCCEa1crmGCGucdprxEdO4/4/vsO/ZkbgXLKDdVc0ABFCCNFSEoSIX7eg+5j+8HiGBTlRtu8L5s+ec+HLsYQQQrQZaY4RQgghRJuQmhAhhBBCtAkJQoQQQgjRJiQIEUIIIUSbkCBECCGEEG2i3QchFg8sYXJkLFPXxzJ57mQ9VQghhBDXunYehExj6G+9scrbTuScF4hcsllPF0IIIcS17lfRHFOVe5jchGjKsrL1FCGEEEJc69p5EPIlaUfBzDOY7nqKEEIIIdqHdh6EZJORng2d3ek5TE8SQgghRLvQroMQk4FT6dfXHqpOkJugJwohhBCiXWi3r223nxvFXaFmlBxLZNe/XyHlgPQHEUIIIdqT9v23Y1xuw/1P0xjVr4S4Jyay75ieLoQQQohrXvvuE5K1jvzTVfqIEEIIIdqTdt4xdRQ+vnYqGNnPIakFEUIIIdqVdh6EBOPoCGU5yUh9iBBCCNG+tPMgJJrkI1VYDJzG5CWRjJt5l54uhBBCiGudiZ2D6/P653Yom4It+zleaUtHmxJObP2RU0flKRkhhBCiPWjfT8cIIYQQot1q580xQgghhGivJAgRQgghRJuQIEQIIYQQbUKCECGEEEK0CQlChBBCCNEmJAgRV02nzhE4mOoj1ygTmwhMzfWRlgh7jrHLY5i6Ppapb8/SE8HnbTWu0h5evhy/MGc9VQghrm/t/D0h7Zdjn7d5auTdhHuEUJ0Vw/EaPaM+k0ncd8cMbus7wTCdWf5B0spL9cwLOfou4KkRYzDL2kjatfj6WOvn+fuj9zPeN4CUhGjy9eRfmsjDj77FZJtyvk1P0tMa4PE6Y5/4GwPCb6Py8BoKzvye/jPmM+KmB7GpXUZmpj5dUzg+z4jH72dg3wDSd0RTrSc3WejrTPzHCByrM9m6eCHbon6iqsD4SwtTMkk+UoqFfwiBY3+Dac5yjqcZsoQQ4rolNSFtJPfw67wbc5DCTs74d/fUUy9SG8830fN5N2ojyT87E+o3htbcpLep0gMkZ5eSdyyJo3rSlWVHt95O4OZHt5aupPwDZOWWcjoriTN6UtMF0+/hMGyrDhP96AMkRUVTcuSwnqc25RE1HvUK3z+xlOQzlvS75znM9DwhhLheSRDSVmozKKwqN3wsLUs1/PtLqRSWqkClNIVC7ba8powKY8Yv5B6awbwvZxBToidca35ew6rP7+Af333c/BqGJsg+lYNjzwmYeDpjmZZClp7eLDVrSPnoDqLXfqwnNIPbXbi7QOGOr0hvKII58wE/bckGFxW0BOlpQghxnZI3prbYACJu+RM+x1eziXDG+TjTuYO6xqRv5KNdq4130k6z+fNgZ5J/fJJvCtS43TP8OcKL5Jg/GMd7PMezYTbEb4nHtm84nl1M1YWwiLiYOcQUl2lzMOrwEA/eEY75nvksTjmoJ4K91wIeC7QxfK4pTuWb71/mwMVX+BsGEBx4D0PdHehsosZVIHN8/2qWpWwx5jfE+z3eus2Lo+tu4c26m/qOz/Pcn4bRYce/+EfsBpXgRN+BL/O7Ia5Yq99PdSn7v3uLxUkxxmDD8XVevT8Ia+2z5tgG/vjlv/QR5cYJ3Dr+99zqbonWXSRvdwxp3hH4pL7P375fY5ymIVpzzL1BFO9PwNoDUk4G0S0zBoZHwA+3sG2bmqbDbIbMjEDFCOr3V3E6N4HdkX8n/7SWoOjzOFfG4xtYvbReGYcsYdJISNxhRu+BTpir0L0iN44flv6d4rpmtHuX8PAD3Ul+cyxbo/W0y4lYyOS/BFP45TCiluhpQghxHZKakBbzwskWzN1vY7RlCuu/nc/qQ2V0dg9nqJWW70yopyfmlcc4oAUciq1dV8wpIr/YON7D1kH93xTfvv0oPbSCd7+N4/hZG0J9bjNOUMfRjR6UkZ57PgDR5B//nGXr5rNky0FKrT0Z7hWq59QJJeLmPzG6RzV7N/+bd9d9wqbjarm+4fhrAUljDm9hv4qmenk/rieAdYD63RRwYJ8WgKjSez/PY8NdIflr3vzwYzacMKPv2Kf4naMhG06t5I0PX+blD9eQcIlamp5D7md8LzNytn3My0s+ZrOlH3076ZnNkZdEtkkQAT0LOHmkUk+ss4GdH71M5Edv892PCZR0CeXmSc+fb9rKXMl3hvw1JF+2FsOV3j2OsfWzl4nekYOJYygDRqpAp46lGYZVWmsYa1hcAdqqMGnKNhBCiF8xCUJaysoZrQ6iQ+FPLNv5CamlB0k9cex8c0mHMfg4q0AhZRPH9CRHG/WN0hNkGe6eLXCytoCz1Rza+QLfHN9CYeFecrQZXHRx8nFSMyo/RvLFF/FyFbRUHCS3uNxw7SsqTjSm68zdbifUtoz4zXPYXLCbwootxO+cw+sbXuZAUy6WrGDn0SpMPYIYYRgPYpTW7+L4Hr7RA6kRfl6Ylifxxca3SS5eQeTaWDKxxKfvROMEPyeQUxxDZnEBNb+oc4tgaC87yN7Boh0r1DQr+DYqQQUTenazbCA/XwVFKug7masn1alJoDo3Q62jEs6kfcee/Tlg74oWAhoY8mOoyC3g8n16S0nb9nfyj8Vw+tuvSVHBirmFvZ7XTGcuDpKEEOL6JEFIS9l2xZYyDhxcca4To719d8zP5pGrPcDSVa+9yNlnzGQMnk6mKlLI47hhPBh7FZPUHNvCprqmlxu6Y6luzwuL6sIWTThuXU2pyTl0Lpi5mJuXL/bVqew9Ua8JR/HspoKXkhT2XhC8FFHTpADEKCE+gTxTL4K81UjHCfRVs8xM2YAeg2CqBQzVlefG+fkIOWp51rauekJD7LHQemdWldT7fgb5l34AqBE5ZC29hdUL/3p+XjrTge8xdtZ73PnIbMZrQ4gKpFqgpt4TTL94mKm0qkmVIAYRzhgqy4QQ4jonQUgL9bBWEUR1NqmFeoLpJMb42lCRHs9edcfvaGhqUQFJXQDgGIxPJxVgFKYYxzt44mQJuXk/Gcexwc0/Ap8OeexOidPTFPM+uKvpjp+M0RMuFo5PDwtqsvZx4KKahg5Xorq/IJbkAmOTjKEppjqFrQkJeqZaBdqV17Tj+f4UN/bGSV1hiwsz9ISG5FOmVT2YWdX7viv26vdeOY8TGOEFySv48jUVpLyshh9z9Lwr6FA+JVhi7x+sJzTA014FIaXkXdi6JoQQ1x0JQlrEGZcuFlBURKG5CgJ6P8cfbxuDW9luVu9eZ5iislqrlXDAzXEAjnaP8WCgDWfUHb65eXc6d1DftXbAnmpKK21V/v38JvxV7vNR18qti4m7xOMjNvYROKpl9e89ibruFvV1sHKjhwpYevS4kx43GNMKz6gyWLoxtEc4tuYD8Ow5nfvGvMqIZvW52EDk/hxMPcKZ5uNE9bEDbPtZz1I2J6VQ3cmPu8c8iY/1/Yy/cxg91QU2eb+xU6lpRzVuHaEGOzpo5epgZRy3CsKUGLYeVRGOcwjTQu5X6fdzy29C6dmMmpqm6mTnhrVah10Gv8XIIDsqVMDQbfDv1fZQmZ2HYe4YoQY742OzN1oZx+2b8fhKwmbS8lSsOXAytnrSpYXRL8RdxaeJJMfqSUIIcZ2Sl5W1yFD6B/jjZONMkHcgva2qSdu/li8TVnNKr42oKDbHrns//L1DCOppRVrce3xf2Y8gn370qU0jpWMIYU5WOLgOUfkumBYnErXldWILTxpnUKfmBKWmwQR4BRLsE4hHxxvIzd5C7rn2gAxySvvi4+VPqO8Q+jvYcebktxyrUDHSqVK1gfsR4DuIUJ8QfBzMKUnfyc6TBzjTjGeiKvN96R8SoAKHKvZ9P52dRXqG8nP+LjKrB9I/KJQRA4Po3bmc/dFv8XF6Glqs0nv4W/x13M2ED/DHuaNKsHZVn8MJ792V5N3RHM2q4uduar0EhKrgIIhu6ds5ZOOBw+n4pr2srMtovAKcqUyv/2KyIfQM7w2GtHhOVapx/0D8Bobj7lzLkZ1HsXTvRQ+PfnSuXEZR37cYN/ZmfFQZHbQoxMpVfVbBZZ+uZMZFU9lzAv7unTi5fxV5hpovf7oOHohtYTwpyXVlPMyJTsMIGByIV3A30nfHUnVh65gKdkbh/uKzDPeCzA1vsD8hW88QQojrkzyi2xLmj/HYbaGUxj3JysyLrzTi+uWM1ZR/Mu633liZQO2Br1gyc4Ehx+u1GG7yVxFObRUnohex/u2vDOlCCHE9kyCkJRxn89dwZ/ZuepJNF/eCFKJzMBbhI3A3P0zSf4zNc1Z3PId9xQ+c2LKZqss+BiyEENcXCUJawN53AY/1LWPTl3OIl7UnhBBCtIgEIUIIIYRoE/J0jBBCCCHahAQhQgghhGgTEoQIIYQQok1IECKEEEKINiFBSKuF4fVaFFPXx6ohiqH1/rCqEEIIIS5PgpDWuncqw/0tyY/9gFVz5rGz3p99EUIIIcTlSRByRVSRd3ApJQnyIiohhBCiqSQIaa3I/WRWmdFz4BQ9QQghhBBNIUFIa53ZTG4eWLgPaOSvpwohhBCiPglCWsUbqzsm4+4AVblHMPyBVSGEEEI0iby2vcUmM/SzafiZlnJi3ya+/9cCyqQ/iBBCCNFkEoS0ijNmYfcy9Km78CqOZunjL1Cl5wghhBCiYdIc0yrZVG1PpKRcfbzRzJgkhBBCiCaRIKS1gkbj4Qi5CV9JLYgQQgjRDBKEtNZAZ2wpJf9IvJ4ghBBCiKaQIKS1NmnvCbHE78ko7lqyhoHD9HQhhBBCNMjEzsH1ef2zaImiWFK2llFgY4t56UFSf4zlTJGeJ4QQQojLkqdjhBBCCNEmpDlGCCGEEG1CghAhhBBCtAkJQoQQQgjRJiQIEUIIIUSbkCBECCGEEG1CghAhfnWccPYehrOFPirEtSzsOcYuj2Hq+limvj1LTxTXjIiFTNa2TWQM4+dO40qfVuQR3XYs9M9fMTXIUh9TqkvJ3r6SeR9+QZme1DjtguWHTXUGh9JS9LQL2XhE4GxaQMbhPRfNdwZzl43FVR8jI4pH5yzQR5rovg/5cOy5OdRTSuL7d7Fwqz7aWnYh+HY3o+hoLNlNXznXDsN6gk0PPspqPemybn+Hdyd6QcoX/PHFxXri9eGKHBMWgXj2sqP6RAwZBXraBRo4Zi7anzOiRvPiSn2kqa7SMXH54/oqCn2diXPDsC1OZ+vSpWSmHqPkyGE9cxbj1t+GVdwiVmXfxtQ73ElfPozoz7Q8c8a870OwFeRtO8DiRTW4z/HnPr8OcCydl59t+suazH06YF5dS+HRZl4KH3Bn9m9s9BFI/2YvK5frI/X4vB3LcId4vro3m8Hq9zgeWsWSvyzSc1tvpJcds0Y44GlvAj+fpfhEHmu+zuOVur/qfmMHnhvnygM+HdXns1Rm5bG8fr5yu78Tz4/pgrVafZwpZfvGEzyYUmvM7ByMhbcb9qPuJWKEMxxZx2dPv3LF/kyJ1IS0dyVJrH3tFea/9gmb0sB5+ENMv13Pa5JhTJo+i2ceGa+P/9KYR1T+9PsI0MfPi+QTw7K/4FCJntQipRxao82n/rCA1Ql69pUw9jGemTmDSUH6+K/ZwSQyitTFN2WPnnCdae0xEXQf02fO4iEV9F1aA8dM1GLj/rsmqZUX9v/9MXH54/pqCabfwyoAqTpM9KMPkBQVXS8AuZRSynL1j/U49FSRCGZ4dteuoM1lzogZ/jwx1Vofb4ZvMnln3gHe+fwU9a7njSorytM/XQHdHfjXHY64VBexZuURXvjqJMVdu/LIBGvC9EkeidACkLMk/DeFGStzOHVRPk4OPD+uizpvZPDC+2lsOt2JsDu6s0DFLAZn4ilL+IrM1yayJiobs96jGTxOz7sCJAhp96rI2x/Dof0rWf1SLBnqYDTVjsmrIoUMw7ILqNZTWqq6QJtP/aGd1lhcC1IWMe/Ju9Qd+A494XrThsdEwQ7j/lvQ+vvEX/0x4XYX7i5QuOMr0hu7iqfmc8n7nNxijjtZ4tPTEpfOBSQf09OvhoJaChNrKFT/Nu38l05hsf7xSjmRx1+WpTBtWS6zs2pYfrSA5UmqNN06M8IwQSfG9OlI5YEcJiVX89+sQmZvLwUXOx7WK3H+HNQF63L1vQ1nWF5UwZ++PEnWjZYMHvTLoK7s7U0kl5vhFTFNT2m9loSO4ppihkPfCHxxot8dw3CtyGBTvWuP52/fZOooPxy0hrxadXcc/wXzF61Eq6yc9NImRtfV+lqN5cNl+q1fyR4++NNMtXfWr9oOZOqyTUw1fFbLaEqzgIEXN02by53BTliYqNHqUlKjFrFwTUyT7xTDn/mKKf2M5aguKSDjp5Us/DTy/PctIhj3+EOM6acvo7aKooxYVrz6CruDXuOtxwPPtWMGPL6JDx83fj5fVe5E+KMvccdQV2wuUcZz66kiidXLqxjz+0DDdGVpUSx8biX95i5jXPckVvzhab7XZqe5+U3emuJH9tcPMu/LHD2xIQ2XoY7ztFV8GGJn+FyWvYd1H8xkk94icMH2VMoSFvPUG1/oY42YutxQ3X0pJVp1+Iur9LEGGOYBSTEdcR/hbNgWZVnb+XbGX8k1XGScsZryT8be4Y2tmRpV+2Pu9s9YP28pWsWv15ux3GQWzQdPJDP0s2n4nNCqrWHU2snYJzSxDAYtPSYubF50Hav2Ff2QqFuXjR0zccaxRlyFY8JuPPdPf4hhrpaYasvQfue+KD55YzEOTTqur8IxMcQZB0pJ3rVOn+DSyk4fUf8/d99+oYoycipscZ8Ajjml7McOHz1LY3tPDyb9xh4H0xsM54Xju9JZsbCcGpXXf15/xrkZp8PKndl1zWYlOXz0eC5apUuPmX2YEqjtrGepKSkjeVsGXy9tQYBZWnrpIOoK+OFkAyGQQ2c8O0HWiXI9AbZnlFNMV3pqh/teU4JcVBiQW8YbxmyoLCdTXSDCuqsv/qLUH5CbPQUfx97YqrFCY6JuGjd9MRmv4s2sefjvF+VdnvztmHbMJewegt160GfoMIYMDcSzQw67v49kbWwyldoEQS/xt4fUySEvluXvRpJm40fggDD8OyWyOTGHrLTjJO7Mwa6fOiEXxDL/3ZVs2xrLtm07OJKfw8ljxzmQsJ3aXsNwI4m1Cz9ivZa/dTt7Th43LsPAj8HjgnGsSCEyZrueZuQ85U2mh9uRF/c5n362mSwrPwaNCMPt5OfEZaoJAsYz3qsTp9NOUWDmgUM3behKdb35F2WfUuVUy00uAEtX/MPC6FOzklhDza0To5+Zx90BJmTHfsGKzzeTdlatkwAv7CoT1W9J4nBSPHG1XgxRJ5xDaxbwyXrtN8SyMyGNInVsWkx4jWdu9aA6OZIlH2+n1D2QASHBuOhlNKwnE/V9dTTbdTIjcd27/FitfkdfH7oWL2ZJZjC3DPLD9sZoYg+quwwl9I7HGOyQwfa3PudQE26TGiuDcT25YlWVyNoVn7I5xQyPQcEM7tODnd/GqlO5Xk5tPW01blObgng2/JRkmH+jMrI5Er+d/TGbfzEc2rqT6mLj72pQ8F0E+7rT+ex+fly8hKQKH7yD+uBon8nB7Udh3HwmPtRHbYR1bHzrM5Irvelzy83qDnYvR3Znc0PIJPr0LOPYlx3wutedTmcLOfhf8H7Qm6pdM9Q0+nIa0LpjIpG0I4nsPGFHoH9X8n58hfc/N+4r23bGc1pdSBo7Zs5tatdR3DrQibIUta0S9TTd//6YCGHKi7MY4VjKkU2f88naPZR28cLfrwc35qzl+22NH9dX5ZgIm8hAXwtObV1OZpphkovYUmFdTs6OzyjOUp9/Pqk+b9f/NpfaR253oHt5Hj/k2XJzgDmFB0+Qad0Nb3X52/Kd+hW3dOfxe7tCyjE+/+A4e6vMGTDcGY9Oat3tg/y0fPbGlWAWaIdTfibvLMpiZ+wpNZSSn28oAOXZhWoalZZcQoVlZwKGONGt5iTJycZ8AzdLBg2ypOJIrmG+F6vq2JOiIzvIOXSMKssO5B/8iYKj2XruldaRP49yoOfpfN5MrCTL2oLH+3emLLWQAeG9+NdNplhvrqDbEGtIzWN5ril3DupCz4pi0jt25bNJjtxSeIp0m674q1Dl7QO/DLg6DJ6ET9d8kr+M4nxoownBY1Jfdd49RtLXMVToqY2R5pj2TrsDe3A0j6rhqXd2YDF8Gq+8MEPdc6IOOHWiJIef3n6RLfsjWT/f2HfDte9YQ81AUZpWxas3pag7nXPVvnpHtbLsWMN4uWGCuipubdhhqElpXCCj+zqpC1wM8979hN1aGdTd5KESS1wH1m9Pt8R34iyemVk3PMYYPUejlTMjXx0MeUnEfRNDaokZzl5367njCfYyo/pgJC9+aFzGpg8fZdafnmD+f9UFuGwPqVqZy4wHU/0q7rpOh7cN8MJU3dFtnLdIfX8lK16OJVuVyTPMuAzDejJ8X11UDs9hxQ8xbPlPEnnqjtvCUSV/F8UhNS/PkIcM6x3GqguhJdXH1DybeGvbWBmMCkhcM0fd1cewO0r9q53cnb0I13ON21MbWtA8lredkoToSw5lWc05YZaSHvlXMmOjyX3zS1KKwayzvSGn+zBvLIrjiZ75Crlqvrnv/JWEYyrdf5QhP/+k2jlNO9Ixwhmr7HROmFnSRfus5lmYapikaVp8TOjNi3pTSnVZ3fpU+1y2sTarsWOmcVfhmOg7nj5qv8zb+grzV61U5VvJ6tee5i9PPsjSHU07rq+FYwLWkfneC2TuUh+PrSLlvQXkXqK5JT39DB1MazmWqNVvnOc+uAudS3L48oUijqu840syiM00wd3X2DZXc7TG0Jxi+JbWMVV9NgzJ5zuoGqbJV+OnKjiwLpfkEhN69DbXc5um5D8vkPQfrbYnntylL5ASHW/M+B8YGdKNMJtqErYVc+HtIFhZm9KxkyndTPWEi5hbqAClYwe6Wtygp1xajd5f9ZcW8f3dw/igGbUgGglCfkXKDi5mRUIOph5+hguTqWHrVlGepf2riSVPO8vY2F2lzmhe2GrRjutY3lq2iQ8Nw2MEqHOA6Y1aFWcdrde/8aJhHOo19VjczdTX1/HWq3P1k/Hd6OcQnSWm6qDKy4rSx43KyprSBKIzVDdXnQ+sylLIUxcmC9t6bRsGpZTl6PPNepFZqqzG5pwo1qr1jnMgd2odX/sOw9VOXWcONOOJjCaVoZSi/fpHpeqyJ4MW0JpStMfwLjFMnjtZn6iJLlMuK0u1za2DuevcvNcwVKsO1367pkrdvXayxMpdBS2ndnO6tjv2XVRQQgmnm9bO8QvX5TFhowIB9f0LOybnqGNC/9gUV+OYKK263K7SPMvTefm+g2zcrI/rbDp3UDudE4+s7M9sfRjTU2WYNHyRPcfCnBFv+DN7fl+eeNZfDZ70v+Dcc20Z2b8Hi4ZbUrw7kxnpeuK5uKyGqUsO0nt+FjPUMdVVT4WfDf9p1sSm0/u1Q9yUYIZLF2PapTh0rff02RUgQcivWLVh5zKjk4thVBmGg9YZqUjdURsT/sf0E3zBHpZe0Mv/FRauijVO0gjfKXcTalfAlvlP6CfjxSSqk+F5pVSrOzoHl/Hn+n00m3YmNDXj3MN2Fl44qJNNWWGGntC47DU7SK22w3PoWJxDXHGoTuHQhmYEQs0ug/bIsToZ5OVwiRrg5lv7b1bNeeGSQ+SSi87uLVRYUArl6fz44kXLeOsr4wTpWudDaxx7WVNy8ksKi63o4m+JWXk+hc15/KAB18UxUVSlLvSWOHuH6AktcDWOiUPa9rbE3j9YT7iy8k5XQcVp1s8/YHyKpW74oGm9Q20fdmGo3Rm+e22fCnL2qiGZ+AvOPdeIGzswa4wHH4zpTPFPR5nwbSXnYuy8crLUanAx9O8wCnPppI6ycjINgUo1SSfVxna04M+GXKVjR7QHjk7V60dy3mQcHNQ/udnoLVatJkFIu6d3wlPDgAmvMX2okzrB5XBQ5ez+UasedWLwk3MJ7zuecc8Y75gy9kfVu0NXdzhak626Y5k6drxhPr4jx19wV3iqWO3FVl5ETL7PmB9yNwPOncQ1KRRqM1TzmDJSy3+IccMDVUIOa+NSqLYLZOLECDy1nVexcHHCQq/ebhJTS7qqO1ltvlNeuBtPU5XUNdCwDAsiiU+pwrTPeObOnKF+p3FdhE946MI721x1x6ZOeK431U0znvBgrYywbrcqo7kfY56dxoC+93H/7GE4q+AmdbvWqdMLV216C+Ndqqmd+ux9vqPrOWWL+Cm5Chs134f6ODWz2rmxMtRRF0+tLCOnMfWFWYQ7VpGx4wsO6bmtcsWaYy4v95tECju5M/jx39LTTe2IGkd3LKr0xzLjCtRFyQxbRxWwpGaTlwc9vdVOU1zyi+5xDWvlMXGswFAD4Nz/JUaHGOcTHlb/ed3GjxmOafubNg9tOaocYx8j3HDMXIVjYn8kB3NVYD58FnMffUjtT9pvGM/o2+/Wm0aMGjqur8oxkbCZNLWNHQdONnRyvNKOf3uKPPMu3DylG5499UtdV1M6V9d/H0glhdrO1d2OEb9R+15AB2wj1L/GTPXj1L7kYYptqAVDX+qBr1rP5l2t8BlRrzYlvdrwiK5ToB091Pcdf2NJD63GpTn0F4KN+0P9LdQUnVj9p9480t+UrB+OMS+xliCbDtyuhpGGzXOGyP2VdPR3YrWPKbe72PLyUHXzcqKQFXo11yvquCvuZMcDt3bmARtz/v1bJ1zUtk5IuLB5y+COkbhbq5+8a6meUN9khn4Wy9R3ntPHm0Y6prZjF3bCG8YgPydMS1OIeu91NmtnyZwY0m4Mxt8vmCEjQ+jjUMvJXSt546Pocx3ctJNi6uke+Pv74D8ozDCfIUGuVB9Yy1491E3PtcTD2wvfASHG/JAArHJXsu3ce5pyOFLpQ6A2jxBjvpdlOet/3EF1cjypNR549wtg0OAR58p5Q8ZadmvnXL0T3sl4vVPeRfKS1EkqOJjAEFU2NV/bU9HsKfPBQ/vdvbuS9c1afoxNoaKHD959gwkdblwXgT426q4gkgN1d9BpBdS6+9GnTyCDwrVpQvC3OcX62D2GMhbbB+MbFEJ4eCAeFuWkfrOId6LS1H3CQ0yf/xC3umlVkOqE5K+tH2250Rw3zvmc9DI/RgwPwFlNmr7ln3yvd8hriobLoPiq9eTTAzfD9vHBrjaD2KXPsSjqUh1PjR2F7ZrTMfVKMHRMteDU9rqOhn1xvTsEm7wd7N+8X10Vokk+3hPHkGDDPtsvYiR9B/phUrSUdK2ZqToA94kDcLEt5PCCNWT2GktYUDdqs7YSV//xlgZckWOiOIUiS1VGPz+Cw/T9ybWWA9GbOW2YoPFjhuJkKp3C1MXZz7C/DfLzwqpiJbFqc/zvj4lPWL+1CCu1bO/+6pit299dTMjcEE1dXUZDx/XVOSYOc6LTMAIGB+IV3I303bFUNTlwr+uYqndC1Tnd4nS+Y2p2GXuzq3BR+1BQiCOh4d0Y1N8G06JTJNeL3I+frqK7vz39Q1S+Ns2AThTvP03q5jJuHOigtpGjGuywPXmCnWVd8Ha3ws/nLIfXnTG+H6S4nDxnC/r4qO8O78YAf2tMy9UyDhhm3zS3PECYbwe1fd4j86ie1iSdeGSkNXbciLV7F8YMtD83+BdpHU9VrJdegp2dLWOGdGNMP0s65uSx9D8FLK/rOFZaRnahCloGOzEmpAueJmVsX3+CqbkXvrzNZMQ/uf0PIXQpjifm+TUXdUrV3Ea/h70xSdlA4g/12o0bIW9MFeKKcSL8mXeY4pVx4aOJV5vLXF55eRhsf4VZ78boiUK0hcaOCeNj2+N+642VCdQe+IolM5v51uVfAauZkUweUcnWSRNJukJNj1fMsNe5a2YY2gtZa/P2Ez3vD2Reqvo16HUmvhRG2X8nsv69pteeShAiRCvZeIwnNDSQPv0CCXAxI+ObOby46iq/rVR7LX2/EIJ7OuE5OARXqxy2vPggSy/9Jn4h/qeafUxorwYPH4G7+WH9SZLri+MLUYz3Tiby3umG95NcU9wm43WzFae3bCa/oTfajlrI/U/7kP7mWLZG62lNIEGIEK1keHGTcxVlRRnErVnAiu1tcOWv+3sjFVUU5e0h5tNFrD/YjD4GQlxB18Qx0Y54vRbDUNaxtD3XAk1ZwpTbYevdD9OcrS1BiBBCCCHahDwdI4QQQog2IUGIEEIIIdqEBCFCCCGEaBMShAghhBCiTUgQ0mKzGKv/DYyHly7EsbOeLIQQQogmkTemtlgqGXsPcijdAY/wQFy7ZZK0tVmvuhNCCCGua1IT0mLZVB2IpiQ62/B3LUzM9L+FIYQQQogmkSCkte50w5FSMrfpfwlUCCGEEE0iQUgrdfd3x6TqBMflT3QIIYQQzSJBSCuVaH+Z08wd/yemYKH/WW4hhBBCNE5e295qwdg+MZWIkX2x75zOj+MeIFnPEUIIIcTlSRDSSrYzI5k4Ava9PY9dUdup1dOFEEII0TBpjmklE3Mz9f9iCrdIACKEEEI0hwQhrZQfm0wJ7rje6aynCCGEEKIpJAhprbgCw3tC7HuNMI4LIYQQokkkCGmxKQx9P5K7Ph5Fd6rIP7JZTxdCCCFEU0gQ0mL5ZKSe4PT+zUS/9geiP8vW04UQQgjRFPJ0jBBCCCHahNSECCGEEKJNSBAihBBCiDYhQYgQQggh2oQEIUIIIYRoExKECCGEEKJNtNsgxOvNWKauV0NkJKGj5G2lQgghRHtjYufg+rz+uV0p2J/KkbgsTEPC8PftyZGvo6nS84QQQghx7Wu/zTFZmylJWEfeafXZzAwTY6oQQggh2on23Sek8730cIaSw9sp1JOEEEII0T607yBklDfdzSD/yCo9QQghhBDtRfsOQo7lG/6Cbbchz+HY29uYJoQQQoh2od3/7Riz0OcY/HgYXo6W5P5nGOs/0DOEEEIIcU1r3zUhoa8zYe4oHI58xqopEoAIIYQQ7Uk775hqfCqmMm8TZXnGJCGEEEK0D+07CInZTmYxOPreqycIIYQQor1o30EImzl9Gky6u2GvpwghhBCifWi3QUj3uWu4a8kKhrpB1Ykj5OvpQgghhGgf2m0QUrIvnby8RHYtX8DyvyzSU4UQQgjRXrT7R3SFEEII0T618z4hQgghhGivJAgRQgghRJuQIEQIIYQQbUKCECGEEEK0CQlChBBCCNEmJAgRQgghRJuQIEQIIYQQbQD+H2ECQLAcYlBwAAAAAElFTkSuQmCC;" vertex="1" parent="1">
                    <mxGeometry x="187.5" y="750" width="545" height="145" as="geometry"/>
                </mxCell>
                <mxCell id="22" style="edgeStyle=none;html=1;exitX=0.927;exitY=1.032;exitDx=0;exitDy=0;exitPerimeter=0;" edge="1" parent="1" source="15">
                    <mxGeometry relative="1" as="geometry">
                        <mxPoint x="1600" y="163" as="sourcePoint"/>
                        <mxPoint x="1600" y="540" as="targetPoint"/>
                    </mxGeometry>
                </mxCell>
                <mxCell id="23" style="edgeStyle=none;html=1;exitX=0.529;exitY=1.024;exitDx=0;exitDy=0;exitPerimeter=0;" edge="1" parent="1" source="15">
                    <mxGeometry relative="1" as="geometry">
                        <mxPoint x="1400" y="163" as="sourcePoint"/>
                        <mxPoint x="1400" y="200" as="targetPoint"/>
                    </mxGeometry>
                </mxCell>
                <mxCell id="29" value="&lt;font size=&quot;1&quot; color=&quot;#00ff80&quot; style=&quot;&quot;&gt;&lt;b style=&quot;font-size: 60px;&quot;&gt;Factory Pattern&lt;/b&gt;&lt;/font&gt;" style="text;html=1;align=center;verticalAlign=middle;resizable=0;points=[];autosize=1;strokeColor=none;fillColor=none;" vertex="1" parent="1">
                    <mxGeometry x="355" y="51" width="460" height="90" as="geometry"/>
                </mxCell>
            </root>
        </mxGraphModel>
    </diagram>
</mxfile>